G04 EAGLE Gerber RS-274X export*
G75*
%MOMM*%
%FSLAX34Y34*%
%LPD*%
%INTop Copper*%
%IPPOS*%
%AMOC8*
5,1,8,0,0,1.08239X$1,22.5*%
G01*
%ADD10C,1.000000*%
%ADD11R,2.500000X2.500000*%
%ADD12C,2.500000*%
%ADD13R,1.671800X1.811800*%
%ADD14R,0.800000X0.800000*%
%ADD15P,1.649562X8X22.500000*%
%ADD16R,1.100000X1.000000*%
%ADD17C,1.524000*%
%ADD18C,0.750000*%
%ADD19C,0.508000*%
%ADD20C,2.540000*%
%ADD21C,0.304800*%
%ADD22C,0.406400*%
%ADD23C,0.604800*%
%ADD24C,0.554800*%
%ADD25C,0.203200*%

G36*
X-67572Y-1269D02*
X-67572Y-1269D01*
X-67544Y-1271D01*
X-67476Y-1249D01*
X-67405Y-1235D01*
X-67382Y-1219D01*
X-67355Y-1210D01*
X-67300Y-1163D01*
X-67241Y-1122D01*
X-67226Y-1098D01*
X-67205Y-1080D01*
X-67177Y-1023D01*
X-29786Y-1023D01*
X-29766Y-1020D01*
X-29747Y-1022D01*
X-29645Y-1000D01*
X-29543Y-983D01*
X-29526Y-974D01*
X-29506Y-970D01*
X-29417Y-916D01*
X-29326Y-868D01*
X-29312Y-854D01*
X-29295Y-843D01*
X-29228Y-765D01*
X-29156Y-690D01*
X-29148Y-672D01*
X-29135Y-657D01*
X-29096Y-560D01*
X-29053Y-467D01*
X-29051Y-447D01*
X-29043Y-428D01*
X-29025Y-262D01*
X-29025Y118D01*
X-29019Y125D01*
X-29001Y186D01*
X-28973Y242D01*
X-28956Y329D01*
X-28947Y360D01*
X-28947Y378D01*
X-28942Y407D01*
X-28786Y2486D01*
X-28789Y2521D01*
X-28784Y2555D01*
X-28800Y2643D01*
X-28808Y2731D01*
X-28821Y2763D01*
X-28828Y2797D01*
X-28862Y2869D01*
X-28719Y3496D01*
X-28717Y3529D01*
X-28702Y3609D01*
X-28654Y4247D01*
X-28613Y4306D01*
X-28556Y4374D01*
X-28543Y4407D01*
X-28524Y4435D01*
X-28468Y4593D01*
X-27978Y6740D01*
X-27976Y6775D01*
X-27966Y6808D01*
X-27969Y6897D01*
X-27963Y6986D01*
X-27972Y7019D01*
X-27973Y7054D01*
X-27997Y7130D01*
X-27762Y7729D01*
X-27755Y7761D01*
X-27728Y7837D01*
X-27586Y8462D01*
X-27536Y8514D01*
X-27470Y8573D01*
X-27452Y8603D01*
X-27428Y8628D01*
X-27350Y8776D01*
X-26546Y10826D01*
X-26539Y10860D01*
X-26524Y10891D01*
X-26513Y10980D01*
X-26494Y11067D01*
X-26498Y11101D01*
X-26494Y11135D01*
X-26506Y11214D01*
X-26184Y11771D01*
X-26172Y11802D01*
X-26135Y11874D01*
X-25901Y12470D01*
X-25844Y12514D01*
X-25770Y12562D01*
X-25748Y12590D01*
X-25721Y12611D01*
X-25621Y12746D01*
X-24520Y14653D01*
X-24508Y14685D01*
X-24489Y14714D01*
X-24465Y14800D01*
X-24433Y14883D01*
X-24432Y14918D01*
X-24423Y14951D01*
X-24423Y15031D01*
X-24022Y15534D01*
X-24006Y15563D01*
X-23958Y15628D01*
X-23637Y16182D01*
X-23575Y16218D01*
X-23494Y16254D01*
X-23468Y16278D01*
X-23438Y16295D01*
X-23320Y16414D01*
X-21947Y18135D01*
X-21930Y18166D01*
X-21907Y18191D01*
X-21870Y18272D01*
X-21827Y18350D01*
X-21820Y18384D01*
X-21806Y18416D01*
X-21794Y18494D01*
X-21323Y18932D01*
X-21302Y18958D01*
X-21245Y19015D01*
X-20846Y19516D01*
X-20779Y19542D01*
X-20693Y19566D01*
X-20665Y19585D01*
X-20632Y19598D01*
X-20498Y19697D01*
X-18883Y21195D01*
X-18862Y21222D01*
X-18835Y21244D01*
X-18787Y21319D01*
X-18733Y21389D01*
X-18721Y21422D01*
X-18702Y21451D01*
X-18679Y21527D01*
X-18147Y21890D01*
X-18123Y21912D01*
X-18058Y21961D01*
X-17589Y22396D01*
X-17519Y22412D01*
X-17431Y22423D01*
X-17399Y22438D01*
X-17366Y22445D01*
X-17217Y22524D01*
X-15398Y23764D01*
X-15373Y23788D01*
X-15343Y23806D01*
X-15284Y23872D01*
X-15220Y23934D01*
X-15204Y23964D01*
X-15181Y23990D01*
X-15147Y24062D01*
X-14567Y24341D01*
X-14540Y24360D01*
X-14468Y24398D01*
X-13939Y24759D01*
X-13867Y24764D01*
X-13779Y24761D01*
X-13745Y24772D01*
X-13711Y24774D01*
X-13553Y24830D01*
X-11569Y25785D01*
X-11540Y25805D01*
X-11508Y25818D01*
X-11440Y25875D01*
X-11367Y25926D01*
X-11347Y25954D01*
X-11320Y25976D01*
X-11226Y26115D01*
X-11165Y26230D01*
X-11148Y26283D01*
X-11121Y26332D01*
X-11109Y26399D01*
X-11087Y26463D01*
X-11087Y26519D01*
X-11077Y26574D01*
X-11087Y26641D01*
X-11087Y26709D01*
X-11105Y26762D01*
X-11113Y26818D01*
X-11144Y26878D01*
X-11166Y26942D01*
X-11200Y26987D01*
X-11225Y27037D01*
X-11274Y27084D01*
X-11315Y27138D01*
X-11361Y27169D01*
X-11401Y27209D01*
X-11462Y27238D01*
X-11518Y27276D01*
X-11572Y27291D01*
X-11623Y27316D01*
X-11725Y27334D01*
X-11755Y27342D01*
X-11768Y27342D01*
X-11788Y27345D01*
X-25438Y28255D01*
X-25457Y28253D01*
X-25489Y28257D01*
X-26261Y28257D01*
X-26266Y28258D01*
X-26776Y28841D01*
X-26791Y28853D01*
X-26810Y28878D01*
X-29141Y31209D01*
X-29142Y31209D01*
X-30481Y32548D01*
X-30481Y34621D01*
X-30481Y34624D01*
X-30481Y34626D01*
X-30500Y34792D01*
X-30609Y35266D01*
X-30596Y35286D01*
X-30594Y35291D01*
X-30591Y35295D01*
X-30547Y35404D01*
X-30501Y35513D01*
X-30501Y35518D01*
X-30499Y35523D01*
X-30481Y35690D01*
X-30481Y35714D01*
X-30137Y36058D01*
X-30136Y36060D01*
X-30134Y36061D01*
X-30030Y36193D01*
X-14721Y60686D01*
X-14719Y60691D01*
X-14716Y60695D01*
X-14672Y60805D01*
X-14626Y60913D01*
X-14626Y60918D01*
X-14624Y60923D01*
X-14606Y61090D01*
X-14606Y61114D01*
X-14262Y61458D01*
X-14261Y61460D01*
X-14259Y61461D01*
X-14155Y61593D01*
X-13898Y62004D01*
X-13874Y62010D01*
X-13869Y62012D01*
X-13864Y62012D01*
X-13755Y62059D01*
X-13646Y62103D01*
X-13642Y62107D01*
X-13638Y62109D01*
X-13507Y62213D01*
X-13489Y62231D01*
X-13004Y62231D01*
X-13001Y62231D01*
X-12999Y62231D01*
X-12833Y62250D01*
X-12359Y62359D01*
X-12339Y62346D01*
X-12334Y62344D01*
X-12330Y62341D01*
X-12221Y62297D01*
X-12112Y62251D01*
X-12107Y62251D01*
X-12102Y62249D01*
X-11935Y62231D01*
X7308Y62231D01*
X7399Y62246D01*
X7491Y62253D01*
X7528Y62267D01*
X7551Y62270D01*
X7579Y62286D01*
X7648Y62311D01*
X7791Y62383D01*
X8130Y62270D01*
X8168Y62264D01*
X8204Y62249D01*
X8370Y62231D01*
X8727Y62231D01*
X8840Y62118D01*
X8915Y62064D01*
X8985Y62004D01*
X9021Y61987D01*
X9040Y61974D01*
X9071Y61965D01*
X9137Y61934D01*
X9792Y61716D01*
X9811Y61713D01*
X9828Y61705D01*
X9932Y61693D01*
X10035Y61676D01*
X10054Y61680D01*
X10072Y61678D01*
X10174Y61700D01*
X10278Y61717D01*
X10294Y61726D01*
X10313Y61730D01*
X10403Y61783D01*
X10495Y61833D01*
X10508Y61846D01*
X10524Y61856D01*
X10592Y61935D01*
X10664Y62011D01*
X10672Y62029D01*
X10684Y62043D01*
X10723Y62140D01*
X10767Y62235D01*
X10769Y62253D01*
X10776Y62271D01*
X10794Y62438D01*
X10794Y65877D01*
X11911Y66993D01*
X24602Y66993D01*
X25718Y65877D01*
X25718Y55603D01*
X25720Y55594D01*
X25719Y55580D01*
X25742Y54797D01*
X25189Y54244D01*
X25184Y54236D01*
X25173Y54227D01*
X20278Y49027D01*
X20218Y48938D01*
X20155Y48852D01*
X20150Y48836D01*
X20141Y48823D01*
X20112Y48719D01*
X20080Y48618D01*
X20080Y48601D01*
X20076Y48586D01*
X20082Y48479D01*
X20083Y48372D01*
X20088Y48356D01*
X20089Y48340D01*
X20129Y48240D01*
X20165Y48140D01*
X20175Y48127D01*
X20181Y48112D01*
X20250Y48030D01*
X20316Y47946D01*
X20332Y47934D01*
X20340Y47924D01*
X20366Y47909D01*
X20451Y47846D01*
X44785Y33758D01*
X44892Y33717D01*
X45000Y33674D01*
X45009Y33673D01*
X45015Y33671D01*
X45036Y33670D01*
X45166Y33656D01*
X45239Y33656D01*
X45550Y33345D01*
X45563Y33336D01*
X45572Y33324D01*
X45707Y33224D01*
X46088Y33004D01*
X46107Y32933D01*
X46154Y32828D01*
X46199Y32722D01*
X46205Y32715D01*
X46208Y32709D01*
X46222Y32693D01*
X46304Y32591D01*
X46356Y32539D01*
X46356Y32100D01*
X46358Y32084D01*
X46356Y32069D01*
X46381Y31903D01*
X46495Y31478D01*
X46458Y31415D01*
X46418Y31308D01*
X46374Y31200D01*
X46373Y31191D01*
X46371Y31185D01*
X46370Y31164D01*
X46356Y31034D01*
X46356Y3982D01*
X46358Y3966D01*
X46356Y3950D01*
X46378Y3845D01*
X46395Y3740D01*
X46403Y3725D01*
X46406Y3709D01*
X46474Y3578D01*
X46371Y3060D01*
X46370Y3037D01*
X46356Y2911D01*
X46356Y2383D01*
X46346Y2375D01*
X46287Y2286D01*
X46225Y2199D01*
X46220Y2183D01*
X46211Y2169D01*
X46167Y2029D01*
X45727Y1736D01*
X45710Y1720D01*
X45611Y1641D01*
X45237Y1267D01*
X45225Y1269D01*
X45120Y1247D01*
X45015Y1230D01*
X45000Y1222D01*
X44984Y1219D01*
X44835Y1141D01*
X43681Y372D01*
X43664Y356D01*
X43643Y345D01*
X43574Y272D01*
X43501Y204D01*
X43490Y183D01*
X43474Y166D01*
X43431Y76D01*
X43384Y-12D01*
X43380Y-35D01*
X43370Y-57D01*
X43359Y-156D01*
X43342Y-255D01*
X43345Y-278D01*
X43343Y-301D01*
X43364Y-399D01*
X43379Y-498D01*
X43390Y-518D01*
X43395Y-541D01*
X43446Y-627D01*
X43492Y-716D01*
X43509Y-732D01*
X43521Y-753D01*
X43597Y-818D01*
X43669Y-887D01*
X43690Y-897D01*
X43708Y-912D01*
X43801Y-950D01*
X43891Y-993D01*
X43915Y-996D01*
X43936Y-1004D01*
X44103Y-1023D01*
X67175Y-1023D01*
X67190Y-1043D01*
X67226Y-1105D01*
X67248Y-1122D01*
X67265Y-1145D01*
X67327Y-1182D01*
X67384Y-1225D01*
X67412Y-1232D01*
X67436Y-1247D01*
X67536Y-1263D01*
X67577Y-1274D01*
X67587Y-1272D01*
X67600Y-1274D01*
X86600Y-1274D01*
X86676Y-1259D01*
X86754Y-1250D01*
X86773Y-1239D01*
X86795Y-1235D01*
X86859Y-1191D01*
X86927Y-1152D01*
X86943Y-1133D01*
X86959Y-1122D01*
X86983Y-1084D01*
X87033Y-1024D01*
X87086Y-931D01*
X87092Y-929D01*
X87136Y-894D01*
X87186Y-868D01*
X87232Y-819D01*
X87286Y-777D01*
X87333Y-714D01*
X87355Y-690D01*
X87364Y-671D01*
X87385Y-642D01*
X115532Y48109D01*
X115539Y48128D01*
X115551Y48144D01*
X115582Y48240D01*
X115588Y48253D01*
X115589Y48258D01*
X115619Y48339D01*
X115620Y48359D01*
X115626Y48378D01*
X115624Y48481D01*
X115628Y48585D01*
X115622Y48604D01*
X115622Y48624D01*
X115588Y48721D01*
X115558Y48821D01*
X115547Y48837D01*
X115540Y48856D01*
X115477Y48937D01*
X115417Y49022D01*
X115401Y49034D01*
X115388Y49050D01*
X115253Y49149D01*
X114615Y49517D01*
X114611Y49526D01*
X114568Y49572D01*
X114533Y49625D01*
X114466Y49682D01*
X114444Y49706D01*
X114428Y49715D01*
X114406Y49734D01*
X112681Y50909D01*
X112649Y50924D01*
X112622Y50945D01*
X112539Y50975D01*
X112458Y51013D01*
X112423Y51017D01*
X112391Y51028D01*
X112312Y51034D01*
X111840Y51472D01*
X111812Y51490D01*
X111751Y51543D01*
X111221Y51903D01*
X111191Y51968D01*
X111160Y52052D01*
X111139Y52079D01*
X111124Y52110D01*
X111014Y52237D01*
X109398Y53736D01*
X109369Y53755D01*
X109345Y53780D01*
X109267Y53822D01*
X109193Y53872D01*
X109159Y53881D01*
X109129Y53897D01*
X109052Y53915D01*
X108650Y54418D01*
X108626Y54440D01*
X108573Y54501D01*
X108103Y54937D01*
X108083Y55005D01*
X108065Y55092D01*
X108048Y55122D01*
X108038Y55156D01*
X107948Y55297D01*
X107278Y56137D01*
X107232Y56179D01*
X107193Y56227D01*
X107141Y56260D01*
X107096Y56302D01*
X107039Y56326D01*
X106986Y56360D01*
X106927Y56375D01*
X106870Y56400D01*
X106808Y56405D01*
X106748Y56420D01*
X106686Y56416D01*
X106625Y56421D01*
X106565Y56406D01*
X106502Y56401D01*
X106446Y56377D01*
X106386Y56363D01*
X106334Y56329D01*
X106276Y56305D01*
X106206Y56249D01*
X106178Y56231D01*
X106167Y56218D01*
X106145Y56200D01*
X103809Y53864D01*
X100041Y53864D01*
X97376Y56529D01*
X97376Y60297D01*
X100041Y62961D01*
X101847Y62961D01*
X101937Y62976D01*
X102028Y62983D01*
X102057Y62996D01*
X102089Y63001D01*
X102170Y63044D01*
X102254Y63080D01*
X102286Y63105D01*
X102307Y63116D01*
X102329Y63139D01*
X102385Y63184D01*
X102559Y63358D01*
X102623Y63448D01*
X102690Y63535D01*
X102695Y63547D01*
X102702Y63558D01*
X102735Y63663D01*
X102771Y63767D01*
X102771Y63780D01*
X102775Y63793D01*
X102772Y63903D01*
X102773Y64013D01*
X102769Y64029D01*
X102768Y64039D01*
X102759Y64065D01*
X102729Y64175D01*
X102538Y64660D01*
X102521Y64690D01*
X102510Y64723D01*
X102458Y64795D01*
X102413Y64872D01*
X102386Y64894D01*
X102366Y64922D01*
X102304Y64972D01*
X102160Y65599D01*
X102148Y65630D01*
X102127Y65708D01*
X101893Y66304D01*
X101904Y66375D01*
X101926Y66461D01*
X101923Y66496D01*
X101929Y66530D01*
X101910Y66696D01*
X101419Y68845D01*
X101405Y68877D01*
X101400Y68912D01*
X101359Y68991D01*
X101326Y69073D01*
X101303Y69099D01*
X101287Y69130D01*
X101233Y69188D01*
X101185Y69830D01*
X101177Y69862D01*
X101168Y69942D01*
X101025Y70567D01*
X101047Y70635D01*
X101081Y70717D01*
X101084Y70752D01*
X101094Y70785D01*
X101100Y70952D01*
X100935Y73150D01*
X100927Y73184D01*
X100927Y73219D01*
X100898Y73303D01*
X100877Y73389D01*
X100858Y73419D01*
X100847Y73451D01*
X100802Y73517D01*
X100850Y74159D01*
X100847Y74192D01*
X100850Y74273D01*
X100802Y74911D01*
X100834Y74975D01*
X100880Y75051D01*
X100888Y75085D01*
X100903Y75116D01*
X100934Y75281D01*
X101098Y77479D01*
X101095Y77514D01*
X101100Y77548D01*
X101084Y77636D01*
X101077Y77724D01*
X101063Y77756D01*
X101057Y77790D01*
X101022Y77862D01*
X101165Y78489D01*
X101167Y78522D01*
X101182Y78602D01*
X101230Y79240D01*
X101270Y79299D01*
X101328Y79367D01*
X101340Y79400D01*
X101360Y79428D01*
X101415Y79587D01*
X101905Y81736D01*
X101907Y81770D01*
X101917Y81803D01*
X101915Y81892D01*
X101920Y81981D01*
X101911Y82015D01*
X101910Y82049D01*
X101886Y82125D01*
X102121Y82724D01*
X102128Y82757D01*
X102155Y82833D01*
X102297Y83457D01*
X102346Y83509D01*
X102413Y83568D01*
X102430Y83598D01*
X102454Y83624D01*
X102532Y83772D01*
X103337Y85824D01*
X103344Y85858D01*
X103359Y85889D01*
X103370Y85978D01*
X103389Y86065D01*
X103385Y86099D01*
X103389Y86133D01*
X103377Y86212D01*
X103698Y86770D01*
X103710Y86800D01*
X103748Y86872D01*
X103982Y87468D01*
X104038Y87512D01*
X104113Y87561D01*
X104134Y87588D01*
X104162Y87609D01*
X104261Y87744D01*
X105362Y89654D01*
X105375Y89686D01*
X105394Y89715D01*
X105418Y89801D01*
X105449Y89884D01*
X105451Y89918D01*
X105460Y89952D01*
X105460Y90031D01*
X105861Y90535D01*
X105877Y90563D01*
X105925Y90629D01*
X106245Y91183D01*
X106307Y91219D01*
X106388Y91255D01*
X106414Y91279D01*
X106444Y91296D01*
X106562Y91415D01*
X107936Y93138D01*
X107953Y93169D01*
X107976Y93194D01*
X108013Y93276D01*
X108056Y93353D01*
X108063Y93387D01*
X108077Y93419D01*
X108088Y93497D01*
X108560Y93935D01*
X108580Y93961D01*
X108637Y94019D01*
X109037Y94519D01*
X109103Y94545D01*
X109189Y94569D01*
X109218Y94589D01*
X109250Y94601D01*
X109385Y94701D01*
X111000Y96201D01*
X111021Y96228D01*
X111048Y96250D01*
X111096Y96325D01*
X111151Y96395D01*
X111162Y96428D01*
X111181Y96457D01*
X111204Y96533D01*
X111736Y96896D01*
X111760Y96918D01*
X111825Y96967D01*
X112294Y97402D01*
X112364Y97418D01*
X112453Y97429D01*
X112484Y97444D01*
X112518Y97451D01*
X112666Y97530D01*
X114487Y98772D01*
X114512Y98796D01*
X114542Y98814D01*
X114600Y98880D01*
X114665Y98942D01*
X114681Y98972D01*
X114704Y98999D01*
X114738Y99070D01*
X115318Y99350D01*
X115345Y99368D01*
X115416Y99407D01*
X115945Y99767D01*
X116017Y99772D01*
X116106Y99770D01*
X116139Y99780D01*
X116174Y99783D01*
X116332Y99838D01*
X118317Y100795D01*
X118346Y100815D01*
X118378Y100828D01*
X118446Y100885D01*
X118519Y100936D01*
X118539Y100964D01*
X118566Y100987D01*
X118610Y101052D01*
X119225Y101242D01*
X119255Y101257D01*
X119331Y101284D01*
X119908Y101562D01*
X119980Y101556D01*
X120067Y101541D01*
X120101Y101546D01*
X120136Y101543D01*
X120301Y101574D01*
X122407Y102225D01*
X122438Y102240D01*
X122472Y102248D01*
X122548Y102295D01*
X122627Y102334D01*
X122651Y102359D01*
X122681Y102377D01*
X122735Y102435D01*
X123371Y102532D01*
X123403Y102542D01*
X123482Y102557D01*
X124094Y102746D01*
X124164Y102729D01*
X124248Y102701D01*
X124283Y102701D01*
X124317Y102693D01*
X124484Y102700D01*
X126664Y103029D01*
X126697Y103040D01*
X126731Y103042D01*
X126813Y103077D01*
X126898Y103104D01*
X126926Y103125D01*
X126958Y103139D01*
X127019Y103188D01*
X127663Y103188D01*
X127696Y103194D01*
X127777Y103197D01*
X128410Y103293D01*
X128476Y103266D01*
X128555Y103225D01*
X128590Y103220D01*
X128622Y103207D01*
X128789Y103189D01*
X130993Y103190D01*
X131027Y103195D01*
X131062Y103193D01*
X131148Y103215D01*
X131235Y103229D01*
X131266Y103246D01*
X131300Y103254D01*
X131368Y103294D01*
X132005Y103198D01*
X132038Y103199D01*
X132118Y103190D01*
X132759Y103190D01*
X132821Y103154D01*
X132893Y103102D01*
X132926Y103092D01*
X132956Y103074D01*
X133118Y103031D01*
X135298Y102703D01*
X135332Y102704D01*
X135366Y102696D01*
X135455Y102705D01*
X135543Y102706D01*
X135576Y102718D01*
X135611Y102721D01*
X135684Y102751D01*
X136300Y102561D01*
X136332Y102557D01*
X136411Y102536D01*
X137044Y102441D01*
X137100Y102395D01*
X137163Y102333D01*
X137194Y102318D01*
X137221Y102296D01*
X137375Y102230D01*
X139482Y101581D01*
X139516Y101576D01*
X139548Y101563D01*
X139637Y101559D01*
X139725Y101547D01*
X139759Y101554D01*
X139794Y101552D01*
X139871Y101570D01*
X140451Y101291D01*
X140483Y101281D01*
X140557Y101249D01*
X141169Y101061D01*
X141218Y101008D01*
X141271Y100937D01*
X141300Y100917D01*
X141323Y100892D01*
X141466Y100803D01*
X143346Y99898D01*
X143407Y99880D01*
X143464Y99853D01*
X143524Y99845D01*
X143582Y99828D01*
X143630Y99830D01*
X144294Y99447D01*
X144313Y99440D01*
X144328Y99428D01*
X144427Y99396D01*
X144524Y99360D01*
X144544Y99359D01*
X144563Y99353D01*
X144666Y99355D01*
X144770Y99351D01*
X144789Y99357D01*
X144809Y99357D01*
X144906Y99391D01*
X145006Y99421D01*
X145022Y99432D01*
X145041Y99439D01*
X145122Y99503D01*
X145207Y99562D01*
X145219Y99578D01*
X145234Y99590D01*
X145334Y99726D01*
X173986Y149352D01*
X174010Y149416D01*
X174043Y149475D01*
X174053Y149530D01*
X174073Y149582D01*
X174076Y149650D01*
X174088Y149716D01*
X174080Y149772D01*
X174082Y149828D01*
X174063Y149893D01*
X174054Y149960D01*
X174022Y150033D01*
X174013Y150064D01*
X174001Y150081D01*
X173986Y150114D01*
X145791Y198947D01*
X145719Y199036D01*
X145649Y199126D01*
X145641Y199131D01*
X145636Y199138D01*
X145539Y199198D01*
X145444Y199261D01*
X145435Y199264D01*
X145427Y199269D01*
X145317Y199295D01*
X145206Y199324D01*
X145197Y199324D01*
X145188Y199326D01*
X145075Y199316D01*
X144960Y199308D01*
X144950Y199305D01*
X144943Y199304D01*
X144922Y199295D01*
X144802Y199253D01*
X144372Y199046D01*
X144355Y199034D01*
X144322Y199019D01*
X143639Y198625D01*
X143629Y198626D01*
X143568Y198612D01*
X143505Y198608D01*
X143421Y198579D01*
X143389Y198571D01*
X143374Y198562D01*
X143346Y198552D01*
X141466Y197647D01*
X141437Y197627D01*
X141405Y197615D01*
X141337Y197557D01*
X141264Y197506D01*
X141244Y197478D01*
X141217Y197456D01*
X141172Y197390D01*
X140557Y197201D01*
X140528Y197186D01*
X140451Y197159D01*
X139877Y196883D01*
X139875Y196884D01*
X139741Y196899D01*
X139715Y196903D01*
X139709Y196902D01*
X139703Y196902D01*
X139678Y196898D01*
X139647Y196901D01*
X139482Y196869D01*
X137375Y196220D01*
X137344Y196205D01*
X137310Y196197D01*
X137235Y196151D01*
X137155Y196111D01*
X137130Y196086D01*
X137101Y196068D01*
X137047Y196010D01*
X136411Y195914D01*
X136379Y195904D01*
X136300Y195889D01*
X135688Y195700D01*
X135618Y195717D01*
X135534Y195745D01*
X135499Y195745D01*
X135465Y195753D01*
X135298Y195747D01*
X133118Y195419D01*
X133085Y195408D01*
X133050Y195406D01*
X132968Y195371D01*
X132884Y195344D01*
X132856Y195323D01*
X132824Y195309D01*
X132762Y195260D01*
X132118Y195260D01*
X132086Y195255D01*
X132005Y195252D01*
X131372Y195156D01*
X131305Y195183D01*
X131226Y195224D01*
X131192Y195229D01*
X131159Y195242D01*
X130993Y195260D01*
X128789Y195261D01*
X128754Y195256D01*
X128720Y195258D01*
X128634Y195236D01*
X128546Y195222D01*
X128515Y195205D01*
X128482Y195197D01*
X128413Y195157D01*
X127777Y195253D01*
X127744Y195253D01*
X127663Y195262D01*
X127023Y195262D01*
X126961Y195298D01*
X126889Y195350D01*
X126856Y195360D01*
X126826Y195378D01*
X126664Y195421D01*
X124484Y195750D01*
X124449Y195750D01*
X124416Y195758D01*
X124327Y195748D01*
X124238Y195747D01*
X124206Y195736D01*
X124171Y195732D01*
X124097Y195703D01*
X123482Y195893D01*
X123450Y195898D01*
X123371Y195918D01*
X122558Y196041D01*
X122481Y196040D01*
X122404Y196049D01*
X122359Y196039D01*
X122312Y196038D01*
X122239Y196013D01*
X122164Y195997D01*
X122124Y195973D01*
X122079Y195957D01*
X122019Y195910D01*
X121953Y195870D01*
X121922Y195835D01*
X121885Y195806D01*
X121843Y195742D01*
X121793Y195684D01*
X121775Y195640D01*
X121750Y195601D01*
X121730Y195527D01*
X121701Y195455D01*
X121694Y195393D01*
X121686Y195363D01*
X121688Y195337D01*
X121683Y195289D01*
X121683Y192274D01*
X121299Y191890D01*
X121290Y191878D01*
X121278Y191869D01*
X121219Y191778D01*
X121156Y191690D01*
X121151Y191676D01*
X121143Y191663D01*
X121115Y191559D01*
X121083Y191455D01*
X121084Y191440D01*
X121080Y191426D01*
X121087Y191318D01*
X121090Y191209D01*
X121095Y191195D01*
X121096Y191180D01*
X121137Y191080D01*
X121174Y190978D01*
X121183Y190967D01*
X121189Y190953D01*
X121260Y190871D01*
X121328Y190786D01*
X121340Y190778D01*
X121350Y190767D01*
X121443Y190712D01*
X121535Y190653D01*
X121549Y190650D01*
X121562Y190642D01*
X121724Y190599D01*
X141373Y187652D01*
X141406Y187652D01*
X141486Y187643D01*
X142093Y187643D01*
X142141Y187615D01*
X142213Y187563D01*
X142247Y187553D01*
X142277Y187535D01*
X142342Y187518D01*
X142702Y187030D01*
X142726Y187007D01*
X142776Y186944D01*
X143441Y186279D01*
X143442Y186279D01*
X144781Y184939D01*
X144781Y165730D01*
X144796Y165639D01*
X144803Y165547D01*
X144817Y165509D01*
X144820Y165487D01*
X144836Y165458D01*
X144861Y165389D01*
X144933Y165246D01*
X144820Y164908D01*
X144814Y164870D01*
X144799Y164834D01*
X144781Y164667D01*
X144781Y164311D01*
X144668Y164198D01*
X144614Y164123D01*
X144554Y164052D01*
X144537Y164016D01*
X144524Y163998D01*
X144515Y163967D01*
X144484Y163900D01*
X143232Y160145D01*
X143226Y160107D01*
X143212Y160071D01*
X143193Y159905D01*
X143193Y159548D01*
X143080Y159435D01*
X143027Y159360D01*
X142967Y159290D01*
X142950Y159254D01*
X142937Y159235D01*
X142927Y159205D01*
X142896Y159138D01*
X142846Y158986D01*
X142527Y158826D01*
X142496Y158804D01*
X142460Y158789D01*
X142329Y158684D01*
X142077Y158432D01*
X141917Y158432D01*
X141826Y158417D01*
X141734Y158409D01*
X141697Y158396D01*
X141674Y158392D01*
X141646Y158377D01*
X141577Y158351D01*
X141434Y158280D01*
X141095Y158393D01*
X141057Y158399D01*
X141021Y158413D01*
X140855Y158432D01*
X140567Y158432D01*
X140536Y158427D01*
X140504Y158429D01*
X140415Y158407D01*
X140324Y158392D01*
X140296Y158377D01*
X140265Y158369D01*
X140196Y158330D01*
X139609Y158422D01*
X139576Y158422D01*
X139491Y158432D01*
X138899Y158432D01*
X138840Y158467D01*
X138766Y158520D01*
X138735Y158530D01*
X138708Y158546D01*
X138546Y158590D01*
X109447Y163185D01*
X109414Y163185D01*
X109328Y163194D01*
X108736Y163194D01*
X108678Y163229D01*
X108603Y163283D01*
X108573Y163292D01*
X108545Y163309D01*
X108469Y163330D01*
X108119Y163810D01*
X108096Y163833D01*
X108042Y163900D01*
X105644Y166299D01*
X105613Y166321D01*
X105588Y166349D01*
X105514Y166392D01*
X105444Y166442D01*
X105408Y166453D01*
X105375Y166472D01*
X105322Y166486D01*
X104952Y166980D01*
X104928Y167003D01*
X104881Y167062D01*
X104443Y167500D01*
X104431Y167544D01*
X104417Y167629D01*
X104399Y167662D01*
X104390Y167698D01*
X104362Y167746D01*
X104449Y168357D01*
X104448Y168390D01*
X104457Y168465D01*
X104457Y169084D01*
X104480Y169124D01*
X104530Y169194D01*
X104541Y169230D01*
X104560Y169262D01*
X104602Y169425D01*
X107496Y189687D01*
X107495Y189733D01*
X107651Y190773D01*
X107651Y190775D01*
X107652Y190778D01*
X107764Y191559D01*
X108396Y192026D01*
X108397Y192027D01*
X108400Y192029D01*
X109032Y192503D01*
X109810Y192386D01*
X109813Y192386D01*
X109816Y192385D01*
X110804Y192244D01*
X110805Y192243D01*
X110828Y192241D01*
X110838Y192239D01*
X110902Y192222D01*
X111711Y192101D01*
X111787Y192102D01*
X111863Y192094D01*
X111910Y192104D01*
X111957Y192104D01*
X112029Y192130D01*
X112104Y192146D01*
X112144Y192170D01*
X112189Y192186D01*
X112249Y192233D01*
X112315Y192272D01*
X112346Y192308D01*
X112383Y192337D01*
X112425Y192401D01*
X112475Y192459D01*
X112492Y192503D01*
X112518Y192542D01*
X112538Y192616D01*
X112567Y192687D01*
X112574Y192750D01*
X112581Y192780D01*
X112580Y192806D01*
X112585Y192854D01*
X112585Y196042D01*
X113862Y197319D01*
X113915Y197393D01*
X113975Y197462D01*
X113987Y197492D01*
X114006Y197519D01*
X114032Y197606D01*
X114067Y197690D01*
X114071Y197731D01*
X114078Y197754D01*
X114077Y197786D01*
X114085Y197857D01*
X114085Y199550D01*
X114079Y199588D01*
X114081Y199627D01*
X114059Y199709D01*
X114045Y199792D01*
X114027Y199827D01*
X114017Y199865D01*
X113970Y199935D01*
X113930Y200010D01*
X113902Y200037D01*
X113880Y200069D01*
X113753Y200178D01*
X112666Y200920D01*
X112634Y200935D01*
X112607Y200956D01*
X112524Y200986D01*
X112443Y201024D01*
X112408Y201028D01*
X112376Y201040D01*
X112297Y201045D01*
X111825Y201483D01*
X111798Y201502D01*
X111736Y201554D01*
X111207Y201915D01*
X111177Y201980D01*
X111146Y202064D01*
X111125Y202091D01*
X111110Y202122D01*
X111000Y202249D01*
X109385Y203749D01*
X109356Y203768D01*
X109332Y203793D01*
X109254Y203836D01*
X109180Y203885D01*
X109147Y203894D01*
X109116Y203910D01*
X109039Y203928D01*
X108637Y204431D01*
X108613Y204454D01*
X108560Y204515D01*
X108091Y204950D01*
X108070Y205019D01*
X108053Y205106D01*
X108035Y205136D01*
X108025Y205170D01*
X107936Y205312D01*
X106562Y207035D01*
X106537Y207058D01*
X106517Y207087D01*
X106446Y207141D01*
X106380Y207200D01*
X106348Y207214D01*
X106320Y207235D01*
X106246Y207264D01*
X105925Y207821D01*
X105904Y207847D01*
X105861Y207915D01*
X105462Y208416D01*
X105452Y208487D01*
X105447Y208576D01*
X105435Y208608D01*
X105430Y208643D01*
X105362Y208796D01*
X104261Y210706D01*
X104239Y210732D01*
X104224Y210764D01*
X104161Y210827D01*
X104105Y210896D01*
X104076Y210914D01*
X104052Y210939D01*
X103983Y210979D01*
X103748Y211578D01*
X103731Y211606D01*
X103698Y211680D01*
X103378Y212235D01*
X103379Y212307D01*
X103388Y212395D01*
X103380Y212429D01*
X103381Y212464D01*
X103337Y212626D01*
X102532Y214678D01*
X102515Y214708D01*
X102504Y214741D01*
X102452Y214813D01*
X102407Y214889D01*
X102380Y214912D01*
X102360Y214940D01*
X102298Y214989D01*
X102155Y215617D01*
X102143Y215648D01*
X102121Y215726D01*
X101888Y216322D01*
X101899Y216393D01*
X101921Y216479D01*
X101918Y216513D01*
X101924Y216548D01*
X101905Y216714D01*
X101415Y218863D01*
X101402Y218896D01*
X101397Y218930D01*
X101356Y219009D01*
X101322Y219091D01*
X101300Y219118D01*
X101284Y219148D01*
X101230Y219206D01*
X101182Y219848D01*
X101174Y219880D01*
X101165Y219961D01*
X101023Y220585D01*
X101044Y220653D01*
X101079Y220735D01*
X101082Y220770D01*
X101092Y220803D01*
X101098Y220971D01*
X100934Y223169D01*
X100926Y223202D01*
X100926Y223237D01*
X100897Y223322D01*
X100876Y223408D01*
X100858Y223437D01*
X100847Y223470D01*
X100802Y223536D01*
X100850Y224177D01*
X100847Y224210D01*
X100850Y224291D01*
X100803Y224930D01*
X100834Y224994D01*
X100881Y225070D01*
X100889Y225104D01*
X100904Y225135D01*
X100935Y225300D01*
X101100Y227498D01*
X101097Y227532D01*
X101102Y227567D01*
X101087Y227654D01*
X101079Y227743D01*
X101065Y227775D01*
X101059Y227809D01*
X101024Y227880D01*
X101168Y228508D01*
X101170Y228541D01*
X101185Y228620D01*
X101233Y229259D01*
X101274Y229317D01*
X101331Y229386D01*
X101344Y229418D01*
X101363Y229446D01*
X101419Y229605D01*
X101910Y231754D01*
X101912Y231788D01*
X101922Y231821D01*
X101920Y231895D01*
X101927Y231959D01*
X101924Y231975D01*
X101925Y231999D01*
X101916Y232033D01*
X101915Y232067D01*
X101892Y232143D01*
X102127Y232742D01*
X102134Y232774D01*
X102160Y232851D01*
X102303Y233475D01*
X102352Y233527D01*
X102419Y233586D01*
X102436Y233616D01*
X102460Y233641D01*
X102538Y233790D01*
X103344Y235841D01*
X103352Y235875D01*
X103367Y235906D01*
X103377Y235995D01*
X103396Y236082D01*
X103392Y236116D01*
X103396Y236151D01*
X103385Y236229D01*
X103707Y236786D01*
X103718Y236817D01*
X103756Y236889D01*
X103990Y237485D01*
X104047Y237529D01*
X104121Y237577D01*
X104143Y237604D01*
X104170Y237626D01*
X104270Y237761D01*
X105372Y239669D01*
X105385Y239702D01*
X105404Y239731D01*
X105428Y239816D01*
X105459Y239899D01*
X105461Y239934D01*
X105470Y239968D01*
X105470Y240047D01*
X105871Y240550D01*
X105887Y240579D01*
X105921Y240625D01*
X105923Y240627D01*
X105924Y240628D01*
X105935Y240644D01*
X106256Y241198D01*
X106318Y241234D01*
X106399Y241270D01*
X106425Y241294D01*
X106455Y241311D01*
X106573Y241430D01*
X107948Y243153D01*
X107965Y243183D01*
X107989Y243208D01*
X108025Y243289D01*
X108068Y243367D01*
X108075Y243401D01*
X108089Y243433D01*
X108101Y243511D01*
X108573Y243949D01*
X108593Y243975D01*
X108650Y244032D01*
X109050Y244533D01*
X109116Y244558D01*
X109202Y244582D01*
X109231Y244602D01*
X109263Y244614D01*
X109398Y244714D01*
X111014Y246213D01*
X111035Y246240D01*
X111063Y246262D01*
X111111Y246337D01*
X111165Y246407D01*
X111177Y246440D01*
X111195Y246469D01*
X111219Y246545D01*
X111751Y246907D01*
X111775Y246930D01*
X111840Y246978D01*
X112309Y247414D01*
X112379Y247429D01*
X112467Y247440D01*
X112499Y247455D01*
X112533Y247462D01*
X112681Y247541D01*
X114406Y248716D01*
X114451Y248760D01*
X114503Y248795D01*
X114540Y248844D01*
X114584Y248886D01*
X114606Y248927D01*
X115298Y249327D01*
X115315Y249340D01*
X115346Y249357D01*
X115724Y249615D01*
X115808Y249694D01*
X115892Y249771D01*
X115896Y249778D01*
X115903Y249784D01*
X115956Y249886D01*
X116012Y249985D01*
X116014Y249994D01*
X116018Y250002D01*
X116036Y250115D01*
X116057Y250227D01*
X116056Y250236D01*
X116057Y250244D01*
X116039Y250358D01*
X116022Y250471D01*
X116018Y250480D01*
X116017Y250487D01*
X116006Y250507D01*
X115955Y250624D01*
X87385Y300108D01*
X87342Y300161D01*
X87308Y300219D01*
X87265Y300255D01*
X87229Y300299D01*
X87172Y300334D01*
X87121Y300378D01*
X87068Y300400D01*
X87021Y300429D01*
X86955Y300445D01*
X86892Y300470D01*
X86814Y300479D01*
X86782Y300487D01*
X86761Y300485D01*
X86726Y300489D01*
X-86472Y300489D01*
X-86538Y300478D01*
X-86606Y300477D01*
X-86659Y300458D01*
X-86715Y300449D01*
X-86774Y300418D01*
X-86838Y300395D01*
X-86882Y300360D01*
X-86932Y300334D01*
X-86978Y300285D01*
X-87032Y300243D01*
X-87079Y300180D01*
X-87101Y300156D01*
X-87110Y300137D01*
X-87131Y300108D01*
X-115773Y250500D01*
X-115813Y250393D01*
X-115856Y250287D01*
X-115857Y250278D01*
X-115860Y250270D01*
X-115864Y250155D01*
X-115871Y250042D01*
X-115869Y250033D01*
X-115869Y250024D01*
X-115836Y249914D01*
X-115806Y249804D01*
X-115802Y249797D01*
X-115799Y249789D01*
X-115733Y249695D01*
X-115670Y249600D01*
X-115662Y249593D01*
X-115658Y249587D01*
X-115639Y249574D01*
X-115542Y249491D01*
X-115346Y249357D01*
X-115327Y249348D01*
X-115298Y249327D01*
X-114615Y248933D01*
X-114611Y248924D01*
X-114568Y248878D01*
X-114533Y248825D01*
X-114466Y248768D01*
X-114444Y248744D01*
X-114428Y248735D01*
X-114406Y248716D01*
X-112681Y247541D01*
X-112649Y247526D01*
X-112622Y247505D01*
X-112539Y247475D01*
X-112458Y247437D01*
X-112423Y247433D01*
X-112391Y247422D01*
X-112312Y247416D01*
X-111840Y246978D01*
X-111812Y246960D01*
X-111751Y246907D01*
X-111221Y246547D01*
X-111191Y246482D01*
X-111160Y246398D01*
X-111139Y246371D01*
X-111124Y246340D01*
X-111014Y246213D01*
X-109398Y244714D01*
X-109369Y244695D01*
X-109345Y244670D01*
X-109267Y244627D01*
X-109193Y244578D01*
X-109160Y244569D01*
X-109129Y244553D01*
X-109052Y244535D01*
X-108650Y244032D01*
X-108626Y244010D01*
X-108573Y243949D01*
X-108103Y243513D01*
X-108083Y243445D01*
X-108065Y243358D01*
X-108048Y243328D01*
X-108038Y243294D01*
X-107948Y243153D01*
X-106573Y241430D01*
X-106548Y241406D01*
X-106528Y241378D01*
X-106457Y241324D01*
X-106391Y241265D01*
X-106359Y241251D01*
X-106331Y241230D01*
X-106257Y241201D01*
X-105935Y240644D01*
X-105914Y240618D01*
X-105871Y240550D01*
X-105472Y240049D01*
X-105462Y239979D01*
X-105457Y239890D01*
X-105445Y239857D01*
X-105440Y239823D01*
X-105372Y239669D01*
X-104270Y237761D01*
X-104248Y237734D01*
X-104232Y237703D01*
X-104170Y237640D01*
X-104114Y237571D01*
X-104084Y237552D01*
X-104060Y237527D01*
X-103991Y237488D01*
X-103756Y236889D01*
X-103739Y236860D01*
X-103707Y236786D01*
X-103386Y236232D01*
X-103387Y236160D01*
X-103396Y236072D01*
X-103388Y236038D01*
X-103388Y236003D01*
X-103344Y235841D01*
X-102538Y233790D01*
X-102521Y233760D01*
X-102510Y233727D01*
X-102458Y233655D01*
X-102413Y233578D01*
X-102386Y233556D01*
X-102366Y233528D01*
X-102304Y233478D01*
X-102160Y232851D01*
X-102148Y232820D01*
X-102127Y232742D01*
X-101893Y232146D01*
X-101894Y232137D01*
X-101900Y232125D01*
X-101906Y232066D01*
X-101926Y231989D01*
X-101923Y231954D01*
X-101929Y231920D01*
X-101926Y231892D01*
X-101927Y231880D01*
X-101921Y231854D01*
X-101910Y231754D01*
X-101419Y229605D01*
X-101405Y229573D01*
X-101400Y229538D01*
X-101359Y229459D01*
X-101326Y229377D01*
X-101303Y229351D01*
X-101287Y229320D01*
X-101233Y229262D01*
X-101185Y228620D01*
X-101177Y228588D01*
X-101168Y228508D01*
X-101025Y227883D01*
X-101047Y227815D01*
X-101081Y227733D01*
X-101084Y227698D01*
X-101094Y227665D01*
X-101100Y227498D01*
X-100935Y225300D01*
X-100927Y225266D01*
X-100927Y225231D01*
X-100898Y225147D01*
X-100877Y225061D01*
X-100858Y225031D01*
X-100847Y224999D01*
X-100802Y224933D01*
X-100850Y224291D01*
X-100847Y224258D01*
X-100850Y224177D01*
X-100802Y223539D01*
X-100834Y223474D01*
X-100880Y223399D01*
X-100888Y223365D01*
X-100903Y223334D01*
X-100934Y223169D01*
X-101098Y220971D01*
X-101095Y220936D01*
X-101100Y220902D01*
X-101084Y220814D01*
X-101077Y220726D01*
X-101063Y220694D01*
X-101057Y220660D01*
X-101022Y220588D01*
X-101165Y219961D01*
X-101167Y219928D01*
X-101182Y219848D01*
X-101229Y219216D01*
X-101225Y219168D01*
X-101230Y219120D01*
X-101214Y219046D01*
X-101207Y218971D01*
X-101188Y218927D01*
X-101178Y218879D01*
X-101139Y218814D01*
X-101109Y218745D01*
X-101076Y218710D01*
X-101052Y218668D01*
X-100994Y218619D01*
X-100944Y218563D01*
X-100902Y218540D01*
X-100865Y218508D01*
X-100795Y218480D01*
X-100729Y218443D01*
X-100681Y218434D01*
X-100637Y218416D01*
X-100510Y218402D01*
X-100487Y218398D01*
X-100480Y218399D01*
X-100470Y218398D01*
X-97573Y218398D01*
X-94908Y215733D01*
X-94908Y211965D01*
X-97573Y209300D01*
X-101341Y209300D01*
X-102618Y210577D01*
X-102692Y210631D01*
X-102762Y210690D01*
X-102792Y210702D01*
X-102818Y210721D01*
X-102905Y210748D01*
X-102990Y210782D01*
X-103031Y210786D01*
X-103053Y210793D01*
X-103085Y210792D01*
X-103157Y210800D01*
X-103766Y210800D01*
X-103833Y210789D01*
X-103901Y210788D01*
X-103954Y210770D01*
X-104009Y210761D01*
X-104069Y210729D01*
X-104133Y210706D01*
X-104177Y210672D01*
X-104227Y210646D01*
X-104273Y210597D01*
X-104327Y210555D01*
X-104373Y210491D01*
X-104396Y210467D01*
X-104405Y210448D01*
X-104426Y210420D01*
X-105362Y208796D01*
X-105375Y208764D01*
X-105394Y208735D01*
X-105418Y208649D01*
X-105449Y208566D01*
X-105451Y208532D01*
X-105460Y208498D01*
X-105460Y208419D01*
X-105861Y207915D01*
X-105877Y207887D01*
X-105925Y207821D01*
X-106245Y207267D01*
X-106307Y207231D01*
X-106388Y207195D01*
X-106414Y207171D01*
X-106444Y207154D01*
X-106562Y207035D01*
X-107936Y205312D01*
X-107953Y205281D01*
X-107976Y205256D01*
X-108013Y205174D01*
X-108056Y205097D01*
X-108063Y205063D01*
X-108077Y205031D01*
X-108088Y204953D01*
X-108560Y204515D01*
X-108580Y204489D01*
X-108637Y204431D01*
X-109037Y203930D01*
X-109103Y203905D01*
X-109189Y203881D01*
X-109218Y203861D01*
X-109250Y203849D01*
X-109385Y203749D01*
X-111000Y202249D01*
X-111021Y202222D01*
X-111048Y202200D01*
X-111096Y202125D01*
X-111151Y202055D01*
X-111162Y202022D01*
X-111181Y201993D01*
X-111204Y201917D01*
X-111736Y201554D01*
X-111760Y201532D01*
X-111825Y201483D01*
X-112294Y201048D01*
X-112364Y201032D01*
X-112453Y201021D01*
X-112484Y201006D01*
X-112518Y200999D01*
X-112666Y200920D01*
X-114487Y199678D01*
X-114512Y199654D01*
X-114542Y199636D01*
X-114600Y199570D01*
X-114665Y199508D01*
X-114681Y199478D01*
X-114704Y199451D01*
X-114738Y199380D01*
X-115318Y199100D01*
X-115345Y199082D01*
X-115416Y199043D01*
X-115945Y198683D01*
X-116017Y198678D01*
X-116106Y198680D01*
X-116139Y198670D01*
X-116174Y198667D01*
X-116332Y198612D01*
X-118317Y197655D01*
X-118346Y197635D01*
X-118378Y197622D01*
X-118446Y197565D01*
X-118519Y197514D01*
X-118539Y197486D01*
X-118566Y197463D01*
X-118610Y197398D01*
X-119225Y197208D01*
X-119255Y197193D01*
X-119331Y197166D01*
X-119908Y196888D01*
X-119980Y196894D01*
X-120067Y196909D01*
X-120101Y196904D01*
X-120136Y196907D01*
X-120301Y196876D01*
X-122407Y196225D01*
X-122438Y196210D01*
X-122472Y196202D01*
X-122548Y196155D01*
X-122627Y196116D01*
X-122651Y196091D01*
X-122681Y196073D01*
X-122735Y196015D01*
X-123371Y195918D01*
X-123403Y195908D01*
X-123482Y195893D01*
X-124094Y195704D01*
X-124164Y195721D01*
X-124248Y195749D01*
X-124283Y195749D01*
X-124317Y195757D01*
X-124484Y195750D01*
X-126664Y195421D01*
X-126697Y195410D01*
X-126731Y195408D01*
X-126813Y195373D01*
X-126898Y195346D01*
X-126926Y195325D01*
X-126958Y195311D01*
X-127019Y195262D01*
X-127663Y195262D01*
X-127696Y195256D01*
X-127777Y195253D01*
X-128410Y195157D01*
X-128476Y195184D01*
X-128555Y195225D01*
X-128590Y195230D01*
X-128622Y195243D01*
X-128789Y195261D01*
X-130993Y195260D01*
X-131027Y195255D01*
X-131062Y195257D01*
X-131148Y195235D01*
X-131235Y195221D01*
X-131266Y195204D01*
X-131300Y195196D01*
X-131368Y195156D01*
X-132005Y195252D01*
X-132038Y195251D01*
X-132118Y195260D01*
X-132759Y195260D01*
X-132821Y195296D01*
X-132893Y195348D01*
X-132926Y195358D01*
X-132956Y195376D01*
X-133118Y195419D01*
X-135298Y195747D01*
X-135332Y195746D01*
X-135366Y195754D01*
X-135454Y195745D01*
X-135543Y195744D01*
X-135576Y195732D01*
X-135611Y195729D01*
X-135685Y195699D01*
X-136300Y195889D01*
X-136332Y195893D01*
X-136411Y195914D01*
X-137044Y196009D01*
X-137099Y196055D01*
X-137163Y196117D01*
X-137194Y196132D01*
X-137221Y196154D01*
X-137375Y196220D01*
X-139482Y196869D01*
X-139510Y196873D01*
X-139536Y196884D01*
X-139543Y196884D01*
X-139548Y196887D01*
X-139573Y196888D01*
X-139703Y196902D01*
X-139709Y196902D01*
X-139714Y196901D01*
X-139725Y196903D01*
X-139759Y196896D01*
X-139794Y196898D01*
X-139871Y196880D01*
X-140451Y197159D01*
X-140483Y197169D01*
X-140557Y197201D01*
X-141169Y197389D01*
X-141218Y197442D01*
X-141271Y197513D01*
X-141300Y197533D01*
X-141323Y197558D01*
X-141466Y197647D01*
X-143346Y198552D01*
X-143407Y198570D01*
X-143464Y198597D01*
X-143524Y198605D01*
X-143582Y198622D01*
X-143630Y198620D01*
X-144322Y199019D01*
X-144341Y199027D01*
X-144372Y199046D01*
X-144603Y199157D01*
X-144713Y199189D01*
X-144822Y199224D01*
X-144831Y199224D01*
X-144839Y199227D01*
X-144953Y199222D01*
X-145068Y199220D01*
X-145076Y199218D01*
X-145085Y199217D01*
X-145192Y199177D01*
X-145300Y199139D01*
X-145307Y199133D01*
X-145315Y199130D01*
X-145403Y199057D01*
X-145493Y198987D01*
X-145500Y198978D01*
X-145505Y198974D01*
X-145518Y198954D01*
X-145593Y198852D01*
X-173732Y150114D01*
X-173756Y150050D01*
X-173789Y149991D01*
X-173799Y149936D01*
X-173819Y149884D01*
X-173822Y149816D01*
X-173834Y149750D01*
X-173826Y149694D01*
X-173828Y149638D01*
X-173809Y149573D01*
X-173800Y149506D01*
X-173768Y149434D01*
X-173759Y149402D01*
X-173747Y149385D01*
X-173732Y149352D01*
X-173695Y149288D01*
X-173696Y149285D01*
X-173690Y149209D01*
X-173691Y149132D01*
X-173681Y149108D01*
X-173680Y149087D01*
X-173659Y149048D01*
X-173640Y148996D01*
X-173639Y148990D01*
X-173637Y148988D01*
X-173633Y148976D01*
X-164133Y132476D01*
X-164114Y132454D01*
X-164101Y132428D01*
X-164048Y132380D01*
X-164001Y132327D01*
X-163975Y132314D01*
X-163954Y132295D01*
X-163886Y132272D01*
X-163865Y132261D01*
X-145143Y99835D01*
X-145131Y99820D01*
X-145123Y99802D01*
X-145090Y99766D01*
X-145070Y99732D01*
X-145033Y99701D01*
X-144987Y99645D01*
X-144971Y99635D01*
X-144957Y99620D01*
X-144903Y99590D01*
X-144883Y99573D01*
X-144851Y99560D01*
X-144779Y99514D01*
X-144760Y99510D01*
X-144742Y99500D01*
X-144669Y99486D01*
X-144655Y99481D01*
X-144625Y99477D01*
X-144540Y99457D01*
X-144520Y99459D01*
X-144501Y99455D01*
X-144398Y99470D01*
X-144295Y99479D01*
X-144277Y99487D01*
X-144257Y99489D01*
X-144229Y99502D01*
X-144228Y99502D01*
X-144103Y99557D01*
X-143639Y99825D01*
X-143629Y99824D01*
X-143568Y99838D01*
X-143505Y99842D01*
X-143421Y99871D01*
X-143389Y99879D01*
X-143374Y99888D01*
X-143346Y99898D01*
X-141466Y100803D01*
X-141437Y100823D01*
X-141405Y100835D01*
X-141337Y100893D01*
X-141264Y100944D01*
X-141244Y100972D01*
X-141217Y100994D01*
X-141172Y101060D01*
X-140557Y101249D01*
X-140528Y101264D01*
X-140451Y101291D01*
X-139874Y101568D01*
X-139803Y101562D01*
X-139715Y101547D01*
X-139681Y101552D01*
X-139647Y101549D01*
X-139482Y101581D01*
X-137375Y102230D01*
X-137344Y102245D01*
X-137310Y102253D01*
X-137235Y102299D01*
X-137155Y102339D01*
X-137130Y102364D01*
X-137101Y102382D01*
X-137047Y102440D01*
X-136411Y102536D01*
X-136379Y102546D01*
X-136300Y102561D01*
X-135688Y102750D01*
X-135618Y102733D01*
X-135534Y102705D01*
X-135499Y102705D01*
X-135465Y102697D01*
X-135298Y102703D01*
X-133118Y103031D01*
X-133085Y103042D01*
X-133050Y103044D01*
X-132968Y103079D01*
X-132884Y103106D01*
X-132856Y103127D01*
X-132824Y103141D01*
X-132762Y103190D01*
X-132118Y103190D01*
X-132086Y103195D01*
X-132005Y103198D01*
X-131372Y103294D01*
X-131305Y103267D01*
X-131226Y103226D01*
X-131192Y103221D01*
X-131159Y103208D01*
X-130993Y103190D01*
X-128789Y103189D01*
X-128754Y103194D01*
X-128720Y103192D01*
X-128634Y103214D01*
X-128546Y103228D01*
X-128515Y103245D01*
X-128482Y103253D01*
X-128413Y103293D01*
X-127777Y103197D01*
X-127744Y103197D01*
X-127663Y103188D01*
X-127023Y103188D01*
X-126961Y103152D01*
X-126889Y103100D01*
X-126856Y103090D01*
X-126826Y103072D01*
X-126664Y103029D01*
X-124484Y102700D01*
X-124449Y102700D01*
X-124416Y102692D01*
X-124327Y102702D01*
X-124238Y102703D01*
X-124206Y102714D01*
X-124171Y102718D01*
X-124097Y102747D01*
X-123482Y102557D01*
X-123450Y102552D01*
X-123371Y102532D01*
X-122738Y102436D01*
X-122683Y102391D01*
X-122619Y102329D01*
X-122588Y102314D01*
X-122561Y102292D01*
X-122407Y102225D01*
X-120301Y101574D01*
X-120266Y101570D01*
X-120234Y101557D01*
X-120145Y101553D01*
X-120057Y101541D01*
X-120023Y101547D01*
X-119988Y101546D01*
X-119911Y101563D01*
X-119331Y101284D01*
X-119300Y101275D01*
X-119225Y101242D01*
X-118613Y101053D01*
X-118565Y101000D01*
X-118511Y100929D01*
X-118483Y100910D01*
X-118459Y100884D01*
X-118317Y100795D01*
X-116332Y99838D01*
X-116299Y99828D01*
X-116268Y99811D01*
X-116181Y99794D01*
X-116096Y99769D01*
X-116061Y99770D01*
X-116027Y99763D01*
X-115948Y99769D01*
X-115416Y99407D01*
X-115386Y99393D01*
X-115318Y99350D01*
X-114741Y99072D01*
X-114701Y99012D01*
X-114659Y98934D01*
X-114633Y98910D01*
X-114614Y98881D01*
X-114487Y98772D01*
X-112666Y97530D01*
X-112634Y97515D01*
X-112607Y97494D01*
X-112524Y97464D01*
X-112443Y97426D01*
X-112408Y97422D01*
X-112376Y97410D01*
X-112297Y97405D01*
X-111825Y96967D01*
X-111798Y96948D01*
X-111736Y96896D01*
X-111207Y96535D01*
X-111177Y96470D01*
X-111146Y96386D01*
X-111125Y96359D01*
X-111110Y96328D01*
X-111000Y96201D01*
X-109385Y94701D01*
X-109356Y94682D01*
X-109332Y94657D01*
X-109254Y94614D01*
X-109180Y94565D01*
X-109147Y94556D01*
X-109116Y94540D01*
X-109039Y94522D01*
X-108637Y94019D01*
X-108613Y93996D01*
X-108560Y93935D01*
X-108091Y93500D01*
X-108070Y93431D01*
X-108053Y93344D01*
X-108035Y93314D01*
X-108025Y93280D01*
X-107936Y93138D01*
X-106562Y91415D01*
X-106537Y91392D01*
X-106517Y91363D01*
X-106446Y91309D01*
X-106380Y91250D01*
X-106348Y91236D01*
X-106320Y91215D01*
X-106246Y91186D01*
X-105925Y90629D01*
X-105904Y90603D01*
X-105861Y90535D01*
X-105677Y90303D01*
X-105630Y90261D01*
X-105591Y90212D01*
X-105540Y90179D01*
X-105494Y90138D01*
X-105437Y90113D01*
X-105384Y90079D01*
X-105325Y90064D01*
X-105269Y90040D01*
X-105206Y90035D01*
X-105145Y90019D01*
X-105085Y90024D01*
X-105024Y90019D01*
X-104963Y90034D01*
X-104900Y90038D01*
X-104844Y90062D01*
X-104785Y90077D01*
X-104732Y90110D01*
X-104674Y90135D01*
X-104604Y90190D01*
X-104577Y90208D01*
X-104565Y90222D01*
X-104543Y90240D01*
X-103754Y91029D01*
X-94452Y100331D01*
X-83504Y100331D01*
X-83451Y100339D01*
X-83396Y100338D01*
X-83330Y100359D01*
X-83261Y100370D01*
X-83214Y100396D01*
X-83191Y100403D01*
X-82494Y100334D01*
X-82468Y100336D01*
X-82420Y100331D01*
X-81717Y100331D01*
X-81712Y100329D01*
X-81678Y100304D01*
X-81626Y100288D01*
X-81604Y100277D01*
X-81160Y99735D01*
X-81158Y99734D01*
X-81158Y99732D01*
X-81140Y99717D01*
X-81110Y99680D01*
X-80612Y99182D01*
X-80604Y99136D01*
X-80579Y99089D01*
X-80563Y99037D01*
X-80503Y98945D01*
X-80489Y98919D01*
X-80481Y98911D01*
X-80471Y98896D01*
X-76206Y93699D01*
X-76166Y93664D01*
X-76132Y93621D01*
X-76074Y93583D01*
X-76022Y93537D01*
X-75972Y93516D01*
X-75952Y93503D01*
X-75562Y92920D01*
X-75544Y92901D01*
X-75518Y92860D01*
X-75071Y92316D01*
X-75068Y92270D01*
X-75048Y92220D01*
X-75037Y92167D01*
X-74986Y92070D01*
X-74975Y92043D01*
X-74968Y92034D01*
X-74960Y92018D01*
X-62712Y73688D01*
X-62683Y73657D01*
X-62661Y73620D01*
X-62599Y73568D01*
X-62544Y73508D01*
X-62506Y73488D01*
X-62474Y73460D01*
X-62399Y73430D01*
X-62327Y73391D01*
X-62285Y73384D01*
X-62246Y73368D01*
X-62096Y73352D01*
X-62085Y73350D01*
X-62083Y73350D01*
X-62079Y73350D01*
X-62043Y73350D01*
X-61150Y72457D01*
X-61150Y63193D01*
X-61371Y62972D01*
X-61424Y62898D01*
X-61484Y62829D01*
X-61496Y62799D01*
X-61515Y62773D01*
X-61542Y62686D01*
X-61576Y62601D01*
X-61580Y62560D01*
X-61587Y62538D01*
X-61586Y62505D01*
X-61594Y62434D01*
X-61594Y61123D01*
X-62711Y60007D01*
X-70333Y60007D01*
X-70423Y59992D01*
X-70514Y59985D01*
X-70544Y59972D01*
X-70576Y59967D01*
X-70656Y59924D01*
X-70740Y59889D01*
X-70772Y59863D01*
X-70793Y59852D01*
X-70815Y59829D01*
X-70846Y59804D01*
X-70849Y59802D01*
X-70851Y59800D01*
X-70871Y59784D01*
X-70896Y59759D01*
X-70942Y59695D01*
X-70962Y59674D01*
X-70966Y59665D01*
X-71009Y59615D01*
X-71021Y59585D01*
X-71040Y59559D01*
X-71067Y59472D01*
X-71101Y59387D01*
X-71105Y59346D01*
X-71112Y59324D01*
X-71111Y59292D01*
X-71119Y59220D01*
X-71119Y59111D01*
X-71116Y59093D01*
X-71118Y59076D01*
X-71118Y59075D01*
X-71118Y59072D01*
X-71096Y58970D01*
X-71080Y58868D01*
X-71070Y58851D01*
X-71066Y58831D01*
X-71013Y58742D01*
X-70964Y58651D01*
X-70950Y58637D01*
X-70940Y58620D01*
X-70861Y58553D01*
X-70786Y58481D01*
X-70768Y58473D01*
X-70753Y58460D01*
X-70657Y58421D01*
X-70563Y58378D01*
X-70543Y58376D01*
X-70525Y58368D01*
X-70358Y58350D01*
X-62043Y58350D01*
X-61150Y57457D01*
X-61150Y48193D01*
X-62043Y47300D01*
X-71307Y47300D01*
X-72030Y48024D01*
X-72046Y48035D01*
X-72058Y48051D01*
X-72146Y48107D01*
X-72230Y48167D01*
X-72249Y48173D01*
X-72265Y48184D01*
X-72366Y48209D01*
X-72465Y48239D01*
X-72485Y48239D01*
X-72504Y48244D01*
X-72607Y48236D01*
X-72711Y48233D01*
X-72729Y48226D01*
X-72749Y48225D01*
X-72844Y48184D01*
X-72942Y48149D01*
X-72957Y48136D01*
X-72975Y48128D01*
X-73106Y48024D01*
X-75659Y45471D01*
X-76998Y44132D01*
X-100802Y44132D01*
X-104104Y47434D01*
X-104120Y47446D01*
X-104133Y47461D01*
X-104220Y47518D01*
X-104304Y47578D01*
X-104323Y47584D01*
X-104340Y47594D01*
X-104440Y47620D01*
X-104539Y47650D01*
X-104559Y47650D01*
X-104578Y47654D01*
X-104681Y47646D01*
X-104785Y47644D01*
X-104804Y47637D01*
X-104824Y47635D01*
X-104918Y47595D01*
X-105016Y47559D01*
X-105032Y47547D01*
X-105050Y47539D01*
X-105181Y47434D01*
X-108024Y44591D01*
X-111928Y44591D01*
X-112022Y44576D01*
X-112117Y44567D01*
X-112143Y44556D01*
X-112171Y44551D01*
X-112255Y44507D01*
X-112343Y44468D01*
X-112364Y44449D01*
X-112389Y44436D01*
X-112454Y44367D01*
X-112525Y44303D01*
X-112538Y44278D01*
X-112558Y44258D01*
X-112598Y44171D01*
X-112644Y44088D01*
X-112650Y44060D01*
X-112662Y44035D01*
X-112672Y43940D01*
X-112689Y43846D01*
X-112686Y43818D01*
X-112689Y43790D01*
X-112668Y43697D01*
X-112655Y43603D01*
X-112641Y43570D01*
X-112636Y43550D01*
X-112619Y43522D01*
X-112588Y43449D01*
X-96591Y15743D01*
X-96598Y15688D01*
X-96590Y15661D01*
X-96591Y15632D01*
X-96555Y15537D01*
X-96544Y15497D01*
X-96537Y15488D01*
X-96533Y15476D01*
X-87033Y-1024D01*
X-86981Y-1082D01*
X-86935Y-1145D01*
X-86916Y-1156D01*
X-86901Y-1173D01*
X-86831Y-1207D01*
X-86764Y-1247D01*
X-86740Y-1251D01*
X-86722Y-1259D01*
X-86677Y-1261D01*
X-86600Y-1274D01*
X-67600Y-1274D01*
X-67572Y-1269D01*
G37*
%LPC*%
G36*
X-32539Y117157D02*
X-32539Y117157D01*
X-52706Y137323D01*
X-52706Y140489D01*
X-51535Y141660D01*
X-51530Y141667D01*
X-48007Y145190D01*
X-47997Y145198D01*
X-33879Y159316D01*
X-33879Y159317D01*
X-33805Y159390D01*
X-33762Y159450D01*
X-33712Y159503D01*
X-33691Y159549D01*
X-33661Y159590D01*
X-33640Y159660D01*
X-33609Y159726D01*
X-33604Y159777D01*
X-33589Y159825D01*
X-33591Y159898D01*
X-33583Y159971D01*
X-33594Y160020D01*
X-33595Y160071D01*
X-33621Y160140D01*
X-33636Y160211D01*
X-33662Y160254D01*
X-33680Y160302D01*
X-33726Y160359D01*
X-33763Y160422D01*
X-33802Y160454D01*
X-33833Y160494D01*
X-33895Y160533D01*
X-33951Y160581D01*
X-33998Y160600D01*
X-34040Y160627D01*
X-34111Y160645D01*
X-34179Y160672D01*
X-34248Y160679D01*
X-34279Y160687D01*
X-34303Y160685D01*
X-34346Y160690D01*
X-71594Y160544D01*
X-71651Y160534D01*
X-72530Y160540D01*
X-72533Y160539D01*
X-72538Y160540D01*
X-73167Y160537D01*
X-73608Y160984D01*
X-73611Y160986D01*
X-73614Y160990D01*
X-74061Y161434D01*
X-74057Y162061D01*
X-74057Y162064D01*
X-74057Y162069D01*
X-74060Y162902D01*
X-74057Y162910D01*
X-74058Y162942D01*
X-74051Y163008D01*
X-73233Y285019D01*
X-73110Y285119D01*
X-73088Y285146D01*
X-73052Y285175D01*
X-71025Y287468D01*
X-71009Y287497D01*
X-70977Y287532D01*
X-69345Y290120D01*
X-69333Y290152D01*
X-69308Y290191D01*
X-68112Y293008D01*
X-68105Y293041D01*
X-68086Y293084D01*
X-67358Y296056D01*
X-67356Y296090D01*
X-67345Y296135D01*
X-67159Y298467D01*
X13964Y298494D01*
X14023Y298504D01*
X14083Y298503D01*
X14144Y298524D01*
X14207Y298534D01*
X14231Y298547D01*
X14834Y298497D01*
X14856Y298499D01*
X14896Y298494D01*
X15495Y298495D01*
X15545Y298479D01*
X15598Y298452D01*
X15691Y298434D01*
X15722Y298425D01*
X15738Y298425D01*
X15763Y298420D01*
X22231Y297886D01*
X22276Y297890D01*
X22322Y297884D01*
X22398Y297900D01*
X22476Y297906D01*
X22518Y297924D01*
X22546Y297929D01*
X23064Y297823D01*
X23094Y297822D01*
X23155Y297810D01*
X23690Y297766D01*
X23732Y297730D01*
X23774Y297713D01*
X23813Y297688D01*
X23943Y297646D01*
X23960Y297639D01*
X23965Y297638D01*
X23972Y297636D01*
X30377Y296320D01*
X30422Y296318D01*
X30467Y296307D01*
X30544Y296313D01*
X30622Y296310D01*
X30667Y296323D01*
X30694Y296325D01*
X31196Y296157D01*
X31226Y296152D01*
X31285Y296133D01*
X31811Y296025D01*
X31848Y295985D01*
X31888Y295963D01*
X31923Y295933D01*
X32048Y295875D01*
X32064Y295866D01*
X32069Y295866D01*
X32076Y295862D01*
X38276Y293787D01*
X38321Y293779D01*
X38363Y293763D01*
X38441Y293760D01*
X38518Y293747D01*
X38563Y293755D01*
X38592Y293753D01*
X39070Y293526D01*
X39099Y293518D01*
X39155Y293492D01*
X39664Y293322D01*
X39696Y293277D01*
X39734Y293250D01*
X39765Y293217D01*
X39881Y293145D01*
X39896Y293134D01*
X39901Y293133D01*
X39907Y293129D01*
X45813Y290323D01*
X45857Y290311D01*
X45898Y290289D01*
X45975Y290277D01*
X46049Y290255D01*
X46095Y290257D01*
X46123Y290253D01*
X46571Y289970D01*
X46599Y289958D01*
X46651Y289925D01*
X47136Y289695D01*
X47163Y289647D01*
X47196Y289616D01*
X47223Y289579D01*
X47331Y289493D01*
X47344Y289481D01*
X47348Y289479D01*
X47354Y289474D01*
X52881Y285980D01*
X52923Y285962D01*
X52960Y285936D01*
X53035Y285915D01*
X53107Y285884D01*
X53153Y285881D01*
X53180Y285873D01*
X53590Y285538D01*
X53616Y285523D01*
X53664Y285485D01*
X54119Y285197D01*
X54139Y285147D01*
X54169Y285112D01*
X54191Y285072D01*
X54287Y284974D01*
X54299Y284960D01*
X54303Y284958D01*
X54308Y284952D01*
X59375Y280820D01*
X59415Y280797D01*
X59449Y280767D01*
X59521Y280736D01*
X59588Y280697D01*
X59633Y280688D01*
X59659Y280677D01*
X60026Y280296D01*
X60051Y280278D01*
X60094Y280234D01*
X60510Y279894D01*
X60525Y279841D01*
X60550Y279803D01*
X60567Y279761D01*
X60651Y279652D01*
X60661Y279637D01*
X60665Y279634D01*
X60669Y279628D01*
X65203Y274917D01*
X65240Y274890D01*
X65270Y274855D01*
X65338Y274816D01*
X65400Y274770D01*
X65444Y274755D01*
X65468Y274741D01*
X65787Y274319D01*
X65809Y274298D01*
X65846Y274249D01*
X66219Y273862D01*
X66227Y273808D01*
X66248Y273767D01*
X66259Y273723D01*
X66329Y273605D01*
X66338Y273588D01*
X66341Y273585D01*
X66345Y273578D01*
X70281Y268357D01*
X70314Y268326D01*
X70340Y268288D01*
X70402Y268241D01*
X70459Y268187D01*
X70500Y268168D01*
X70523Y268151D01*
X70788Y267693D01*
X70807Y267670D01*
X70839Y267617D01*
X71162Y267188D01*
X71164Y267133D01*
X71179Y267090D01*
X71186Y267045D01*
X71241Y266919D01*
X71247Y266902D01*
X71250Y266898D01*
X71253Y266891D01*
X74534Y261235D01*
X74563Y261200D01*
X74584Y261159D01*
X74640Y261105D01*
X74690Y261045D01*
X74729Y261021D01*
X74749Y261001D01*
X74958Y260515D01*
X74974Y260490D01*
X74999Y260433D01*
X75268Y259968D01*
X75263Y259914D01*
X75273Y259869D01*
X75274Y259824D01*
X75314Y259692D01*
X75318Y259674D01*
X75321Y259670D01*
X75323Y259663D01*
X77901Y253654D01*
X77925Y253616D01*
X77942Y253573D01*
X77991Y253512D01*
X78033Y253447D01*
X78069Y253418D01*
X78087Y253396D01*
X78235Y252888D01*
X78248Y252861D01*
X78266Y252802D01*
X78478Y252308D01*
X78466Y252255D01*
X78471Y252209D01*
X78467Y252164D01*
X78490Y252029D01*
X78492Y252010D01*
X78495Y252006D01*
X78496Y251998D01*
X80333Y245724D01*
X80353Y245682D01*
X80364Y245638D01*
X80406Y245572D01*
X80440Y245502D01*
X80471Y245469D01*
X80487Y245445D01*
X80573Y244923D01*
X80583Y244894D01*
X80594Y244834D01*
X80745Y244318D01*
X80727Y244267D01*
X80726Y244221D01*
X80716Y244176D01*
X80722Y244066D01*
X80721Y244060D01*
X80723Y244055D01*
X80724Y244039D01*
X80723Y244021D01*
X80725Y244016D01*
X80725Y244008D01*
X81796Y237558D01*
X81811Y237515D01*
X81816Y237470D01*
X81850Y237399D01*
X81875Y237326D01*
X81903Y237289D01*
X81915Y237264D01*
X81938Y236735D01*
X81944Y236705D01*
X81948Y236644D01*
X82036Y236114D01*
X82012Y236065D01*
X82005Y236019D01*
X81990Y235976D01*
X81981Y235839D01*
X81979Y235821D01*
X81980Y235816D01*
X81979Y235809D01*
X82268Y229277D01*
X82277Y229232D01*
X82277Y229186D01*
X82302Y229112D01*
X82318Y229036D01*
X82341Y228996D01*
X82350Y228970D01*
X82310Y228442D01*
X82313Y228412D01*
X82309Y228350D01*
X82332Y227813D01*
X82302Y227768D01*
X82291Y227723D01*
X82271Y227682D01*
X82245Y227548D01*
X82240Y227530D01*
X82241Y227525D01*
X82239Y227518D01*
X81742Y220998D01*
X81746Y220953D01*
X81740Y220907D01*
X81756Y220831D01*
X81763Y220753D01*
X81781Y220711D01*
X81787Y220684D01*
X81683Y220165D01*
X81682Y220134D01*
X81671Y220074D01*
X81630Y219538D01*
X81595Y219496D01*
X81578Y219453D01*
X81553Y219415D01*
X81512Y219285D01*
X81505Y219267D01*
X81505Y219262D01*
X81502Y219255D01*
X80225Y212843D01*
X80224Y212797D01*
X80213Y212753D01*
X80220Y212675D01*
X80217Y212597D01*
X80230Y212553D01*
X80233Y212525D01*
X80068Y212022D01*
X80063Y211992D01*
X80044Y211933D01*
X79939Y211406D01*
X79899Y211369D01*
X79878Y211329D01*
X79848Y211294D01*
X79791Y211169D01*
X79783Y211153D01*
X79782Y211148D01*
X79779Y211141D01*
X77741Y204928D01*
X77734Y204883D01*
X77718Y204840D01*
X77715Y204762D01*
X77703Y204685D01*
X77711Y204640D01*
X77710Y204612D01*
X77486Y204132D01*
X77478Y204103D01*
X77452Y204047D01*
X77285Y203537D01*
X77241Y203504D01*
X77214Y203467D01*
X77181Y203436D01*
X77109Y203319D01*
X77099Y203304D01*
X77097Y203299D01*
X77093Y203293D01*
X74324Y197369D01*
X74312Y197325D01*
X74291Y197285D01*
X74279Y197208D01*
X74258Y197133D01*
X74260Y197087D01*
X74256Y197059D01*
X73976Y196610D01*
X73964Y196582D01*
X73932Y196530D01*
X73704Y196043D01*
X73657Y196016D01*
X73626Y195982D01*
X73589Y195955D01*
X73504Y195847D01*
X73491Y195834D01*
X73490Y195829D01*
X73485Y195823D01*
X70025Y190276D01*
X70007Y190233D01*
X69981Y190195D01*
X69960Y190120D01*
X69930Y190049D01*
X69927Y190003D01*
X69919Y189976D01*
X69587Y189563D01*
X69572Y189537D01*
X69534Y189489D01*
X69250Y189033D01*
X69199Y189012D01*
X69165Y188982D01*
X69125Y188960D01*
X69028Y188863D01*
X69014Y188851D01*
X69011Y188846D01*
X69006Y188841D01*
X65208Y184126D01*
X65193Y184099D01*
X65172Y184077D01*
X65133Y183992D01*
X65087Y183912D01*
X65081Y183882D01*
X65068Y183853D01*
X65058Y183762D01*
X65040Y183671D01*
X65044Y183640D01*
X65041Y183609D01*
X65061Y183518D01*
X65073Y183427D01*
X65087Y183399D01*
X65093Y183369D01*
X65141Y183289D01*
X65182Y183206D01*
X65204Y183184D01*
X65219Y183158D01*
X65290Y183097D01*
X65355Y183032D01*
X65383Y183018D01*
X65406Y182998D01*
X65492Y182963D01*
X65575Y182922D01*
X65606Y182917D01*
X65634Y182906D01*
X65801Y182887D01*
X72894Y182887D01*
X73787Y181994D01*
X73787Y172731D01*
X72894Y171838D01*
X63631Y171838D01*
X62652Y172817D01*
X62640Y172849D01*
X62607Y172890D01*
X62583Y172936D01*
X62531Y172985D01*
X62486Y173041D01*
X62442Y173070D01*
X62405Y173105D01*
X62340Y173136D01*
X62279Y173174D01*
X62229Y173187D01*
X62182Y173209D01*
X62110Y173217D01*
X62041Y173234D01*
X61989Y173230D01*
X61937Y173236D01*
X61867Y173221D01*
X61795Y173215D01*
X61748Y173195D01*
X61697Y173184D01*
X61635Y173147D01*
X61569Y173119D01*
X61513Y173074D01*
X61486Y173058D01*
X61470Y173040D01*
X61438Y173014D01*
X61060Y172636D01*
X61007Y172562D01*
X60948Y172493D01*
X60936Y172463D01*
X60917Y172436D01*
X60890Y172349D01*
X60856Y172265D01*
X60851Y172224D01*
X60844Y172201D01*
X60845Y172169D01*
X60837Y172098D01*
X60837Y169265D01*
X57747Y166175D01*
X53378Y166175D01*
X50288Y169265D01*
X50288Y170006D01*
X50272Y170103D01*
X50262Y170201D01*
X50252Y170224D01*
X50248Y170249D01*
X50202Y170336D01*
X50162Y170426D01*
X50145Y170444D01*
X50133Y170466D01*
X50062Y170534D01*
X49995Y170606D01*
X49973Y170618D01*
X49955Y170636D01*
X49865Y170677D01*
X49779Y170724D01*
X49754Y170729D01*
X49732Y170739D01*
X49634Y170750D01*
X49537Y170767D01*
X49512Y170764D01*
X49487Y170766D01*
X49391Y170745D01*
X49294Y170731D01*
X49265Y170718D01*
X49247Y170714D01*
X49218Y170697D01*
X49141Y170662D01*
X45414Y168470D01*
X45379Y168441D01*
X45338Y168419D01*
X45285Y168363D01*
X45225Y168313D01*
X45201Y168274D01*
X45182Y168253D01*
X44697Y168042D01*
X44671Y168025D01*
X44615Y168000D01*
X44152Y167728D01*
X44097Y167733D01*
X44053Y167722D01*
X44007Y167721D01*
X43876Y167680D01*
X43858Y167676D01*
X43854Y167673D01*
X43847Y167671D01*
X37854Y165056D01*
X37815Y165032D01*
X37773Y165015D01*
X37713Y164965D01*
X37647Y164923D01*
X37619Y164887D01*
X37597Y164869D01*
X37090Y164717D01*
X37063Y164704D01*
X37004Y164686D01*
X36511Y164471D01*
X36458Y164482D01*
X36413Y164477D01*
X36367Y164481D01*
X36232Y164457D01*
X36214Y164455D01*
X36209Y164452D01*
X36202Y164451D01*
X29939Y162575D01*
X29897Y162555D01*
X29853Y162544D01*
X29788Y162501D01*
X29717Y162467D01*
X29685Y162435D01*
X29661Y162420D01*
X29140Y162330D01*
X29111Y162320D01*
X29050Y162309D01*
X28535Y162155D01*
X28484Y162173D01*
X28438Y162173D01*
X28393Y162183D01*
X28257Y162174D01*
X28238Y162174D01*
X28233Y162173D01*
X28226Y162172D01*
X21725Y161052D01*
X21698Y161043D01*
X21670Y161040D01*
X21582Y161003D01*
X21492Y160972D01*
X21470Y160954D01*
X21444Y160943D01*
X21401Y160908D01*
X20942Y160906D01*
X20910Y160901D01*
X20816Y160895D01*
X20359Y160817D01*
X20328Y160829D01*
X20242Y160871D01*
X20214Y160875D01*
X20188Y160885D01*
X20021Y160903D01*
X-24436Y160729D01*
X-24506Y160717D01*
X-24576Y160715D01*
X-24626Y160697D01*
X-24679Y160688D01*
X-24741Y160655D01*
X-24807Y160631D01*
X-24848Y160597D01*
X-24896Y160572D01*
X-24944Y160521D01*
X-24999Y160477D01*
X-25028Y160432D01*
X-25064Y160393D01*
X-25094Y160329D01*
X-25132Y160270D01*
X-25145Y160218D01*
X-25167Y160169D01*
X-25175Y160099D01*
X-25192Y160031D01*
X-25188Y159978D01*
X-25193Y159925D01*
X-25178Y159856D01*
X-25173Y159786D01*
X-25152Y159737D01*
X-25140Y159685D01*
X-25104Y159625D01*
X-25076Y159560D01*
X-25030Y159502D01*
X-25013Y159474D01*
X-24996Y159460D01*
X-24971Y159429D01*
X-24859Y159316D01*
X-9207Y143664D01*
X-9207Y135736D01*
X-27786Y117157D01*
X-32539Y117157D01*
G37*
%LPD*%
G36*
X39695Y-371D02*
X39695Y-371D01*
X39765Y-372D01*
X39783Y-365D01*
X39798Y-364D01*
X39832Y-344D01*
X39898Y-316D01*
X44661Y2859D01*
X44679Y2878D01*
X44703Y2891D01*
X44738Y2941D01*
X44779Y2985D01*
X44787Y3011D01*
X44803Y3033D01*
X44819Y3114D01*
X44830Y3151D01*
X44828Y3162D01*
X44830Y3175D01*
X44830Y31750D01*
X44821Y31788D01*
X44822Y31827D01*
X44802Y31871D01*
X44791Y31919D01*
X44766Y31949D01*
X44750Y31984D01*
X44704Y32023D01*
X44681Y32052D01*
X44661Y32061D01*
X44641Y32079D01*
X17190Y47971D01*
X24089Y55302D01*
X24125Y55363D01*
X24165Y55420D01*
X24169Y55439D01*
X24176Y55452D01*
X24179Y55491D01*
X24184Y55519D01*
X24186Y55522D01*
X24186Y55526D01*
X24193Y55563D01*
X24193Y65088D01*
X24181Y65137D01*
X24179Y65188D01*
X24162Y65220D01*
X24153Y65256D01*
X24121Y65296D01*
X24096Y65340D01*
X24066Y65362D01*
X24043Y65390D01*
X23996Y65411D01*
X23955Y65440D01*
X23913Y65448D01*
X23885Y65461D01*
X23854Y65460D01*
X23813Y65468D01*
X12700Y65468D01*
X12650Y65456D01*
X12599Y65454D01*
X12567Y65437D01*
X12531Y65428D01*
X12492Y65396D01*
X12447Y65371D01*
X12426Y65341D01*
X12398Y65318D01*
X12377Y65271D01*
X12347Y65230D01*
X12339Y65188D01*
X12327Y65160D01*
X12328Y65129D01*
X12320Y65088D01*
X12320Y59265D01*
X8058Y60686D01*
X8020Y60689D01*
X7938Y60705D01*
X-12700Y60705D01*
X-12732Y60698D01*
X-12764Y60700D01*
X-12815Y60678D01*
X-12869Y60666D01*
X-12894Y60645D01*
X-12924Y60633D01*
X-12972Y60581D01*
X-13002Y60556D01*
X-13009Y60541D01*
X-13022Y60527D01*
X-28897Y35127D01*
X-28908Y35095D01*
X-28928Y35067D01*
X-28941Y35000D01*
X-28953Y34963D01*
X-28951Y34946D01*
X-28955Y34925D01*
X-28955Y33338D01*
X-28938Y33264D01*
X-28925Y33189D01*
X-28918Y33179D01*
X-28916Y33169D01*
X-28892Y33140D01*
X-28844Y33069D01*
X-25669Y29894D01*
X-25615Y29860D01*
X-25565Y29820D01*
X-25539Y29813D01*
X-25522Y29802D01*
X-25484Y29799D01*
X-25425Y29783D01*
X-1942Y28218D01*
X-1908Y28223D01*
X-1860Y28221D01*
X-1452Y28282D01*
X-1402Y28302D01*
X-1350Y28313D01*
X-1318Y28336D01*
X-1292Y28346D01*
X-1270Y28371D01*
X-1232Y28398D01*
X-898Y28753D01*
X-194Y28246D01*
X-151Y28228D01*
X-114Y28202D01*
X-65Y28192D01*
X-34Y28179D01*
X-7Y28181D01*
X28Y28174D01*
X1226Y28174D01*
X1273Y28185D01*
X1321Y28186D01*
X1363Y28206D01*
X1395Y28214D01*
X1417Y28232D01*
X1452Y28249D01*
X1490Y28277D01*
X2141Y28178D01*
X2166Y28180D01*
X2198Y28174D01*
X2856Y28174D01*
X2890Y28141D01*
X2931Y28115D01*
X2965Y28082D01*
X3009Y28067D01*
X3037Y28049D01*
X3065Y28047D01*
X3102Y28034D01*
X5527Y27668D01*
X5575Y27672D01*
X5623Y27666D01*
X5668Y27679D01*
X5700Y27682D01*
X5724Y27697D01*
X5762Y27708D01*
X5803Y27730D01*
X6433Y27536D01*
X6457Y27534D01*
X6488Y27523D01*
X7139Y27425D01*
X7167Y27387D01*
X7204Y27356D01*
X7233Y27318D01*
X7274Y27296D01*
X7299Y27275D01*
X7327Y27268D01*
X7361Y27250D01*
X9705Y26527D01*
X9753Y26523D01*
X9799Y26510D01*
X9845Y26517D01*
X9878Y26515D01*
X9904Y26525D01*
X9943Y26531D01*
X9987Y26547D01*
X10580Y26261D01*
X10604Y26256D01*
X10633Y26240D01*
X11262Y26046D01*
X11285Y26004D01*
X11316Y25968D01*
X11340Y25926D01*
X11377Y25898D01*
X11398Y25874D01*
X11424Y25863D01*
X11456Y25839D01*
X13665Y24775D01*
X13712Y24765D01*
X13756Y24745D01*
X13803Y24745D01*
X13835Y24738D01*
X13862Y24744D01*
X13901Y24744D01*
X13948Y24753D01*
X14492Y24382D01*
X14515Y24373D01*
X14541Y24354D01*
X15134Y24068D01*
X15150Y24023D01*
X15176Y23983D01*
X15192Y23938D01*
X15225Y23905D01*
X15243Y23877D01*
X15267Y23862D01*
X15294Y23835D01*
X17321Y22453D01*
X17366Y22436D01*
X17406Y22410D01*
X17452Y22402D01*
X17483Y22391D01*
X17511Y22393D01*
X17549Y22387D01*
X17597Y22389D01*
X18079Y21941D01*
X18101Y21929D01*
X18124Y21906D01*
X18668Y21535D01*
X18677Y21488D01*
X18696Y21444D01*
X18706Y21397D01*
X18733Y21360D01*
X18747Y21330D01*
X18769Y21312D01*
X18792Y21280D01*
X20589Y19612D01*
X20631Y19588D01*
X20667Y19556D01*
X20712Y19542D01*
X20740Y19526D01*
X20768Y19525D01*
X20806Y19513D01*
X20853Y19508D01*
X21263Y18993D01*
X21282Y18978D01*
X21302Y18951D01*
X21784Y18503D01*
X21786Y18456D01*
X21799Y18410D01*
X21802Y18362D01*
X21823Y18320D01*
X21832Y18289D01*
X21851Y18268D01*
X21869Y18233D01*
X23398Y16316D01*
X23436Y16286D01*
X23467Y16249D01*
X23508Y16229D01*
X23534Y16208D01*
X23562Y16203D01*
X23597Y16186D01*
X23643Y16173D01*
X23972Y15603D01*
X23989Y15585D01*
X24004Y15556D01*
X24414Y15041D01*
X24409Y14994D01*
X24415Y14947D01*
X24410Y14899D01*
X24426Y14855D01*
X24429Y14822D01*
X24445Y14798D01*
X24458Y14762D01*
X25684Y12638D01*
X25717Y12602D01*
X25742Y12561D01*
X25780Y12535D01*
X25802Y12511D01*
X25829Y12501D01*
X25861Y12479D01*
X25905Y12460D01*
X26145Y11847D01*
X26159Y11827D01*
X26170Y11796D01*
X26499Y11226D01*
X26487Y11180D01*
X26485Y11132D01*
X26474Y11085D01*
X26482Y11040D01*
X26481Y11007D01*
X26493Y10981D01*
X26500Y10943D01*
X27396Y8660D01*
X27423Y8620D01*
X27442Y8576D01*
X27476Y8544D01*
X27494Y8517D01*
X27519Y8503D01*
X27548Y8477D01*
X27588Y8452D01*
X27613Y8342D01*
X27641Y8285D01*
X27662Y8224D01*
X27680Y8205D01*
X27689Y8187D01*
X27719Y8163D01*
X27761Y8118D01*
X29013Y7217D01*
X29032Y7209D01*
X29047Y7195D01*
X29111Y7176D01*
X29173Y7151D01*
X29193Y7152D01*
X29213Y7146D01*
X29279Y7158D01*
X29346Y7162D01*
X29364Y7172D01*
X29384Y7176D01*
X29470Y7234D01*
X29496Y7249D01*
X29499Y7253D01*
X29504Y7257D01*
X30002Y7755D01*
X33770Y7755D01*
X36435Y5090D01*
X36435Y2068D01*
X36439Y2049D01*
X36437Y2029D01*
X36459Y1965D01*
X36474Y1899D01*
X36487Y1884D01*
X36494Y1865D01*
X36567Y1787D01*
X36585Y1766D01*
X36589Y1764D01*
X36593Y1760D01*
X39465Y-309D01*
X39530Y-335D01*
X39592Y-368D01*
X39609Y-368D01*
X39625Y-375D01*
X39695Y-371D01*
G37*
%LPC*%
G36*
X-25448Y85343D02*
X-25448Y85343D01*
X-32323Y92218D01*
X-32397Y92271D01*
X-32467Y92331D01*
X-32497Y92343D01*
X-32523Y92362D01*
X-32610Y92389D01*
X-32695Y92423D01*
X-32736Y92427D01*
X-32758Y92434D01*
X-32790Y92433D01*
X-32862Y92441D01*
X-47091Y92441D01*
X-47984Y93334D01*
X-47984Y112716D01*
X-47091Y113609D01*
X-29109Y113609D01*
X-28216Y112716D01*
X-28216Y98487D01*
X-28202Y98396D01*
X-28194Y98306D01*
X-28182Y98276D01*
X-28177Y98244D01*
X-28134Y98163D01*
X-28098Y98079D01*
X-28072Y98047D01*
X-28061Y98026D01*
X-28038Y98004D01*
X-27993Y97948D01*
X-22725Y92680D01*
X-22651Y92627D01*
X-22581Y92567D01*
X-22551Y92555D01*
X-22525Y92536D01*
X-22438Y92509D01*
X-22353Y92475D01*
X-22312Y92471D01*
X-22290Y92464D01*
X-22258Y92465D01*
X-22186Y92457D01*
X-3214Y92457D01*
X-3123Y92471D01*
X-3033Y92479D01*
X-3003Y92491D01*
X-2971Y92496D01*
X-2890Y92539D01*
X-2806Y92575D01*
X-2774Y92601D01*
X-2753Y92612D01*
X-2731Y92635D01*
X-2675Y92680D01*
X2593Y97948D01*
X2646Y98022D01*
X2706Y98092D01*
X2718Y98122D01*
X2737Y98148D01*
X2764Y98235D01*
X2798Y98320D01*
X2802Y98361D01*
X2809Y98383D01*
X2808Y98415D01*
X2816Y98487D01*
X2816Y112716D01*
X3709Y113609D01*
X21691Y113609D01*
X22584Y112716D01*
X22584Y107343D01*
X22587Y107323D01*
X22585Y107304D01*
X22607Y107202D01*
X22623Y107100D01*
X22633Y107083D01*
X22637Y107063D01*
X22690Y106974D01*
X22739Y106883D01*
X22753Y106869D01*
X22763Y106852D01*
X22842Y106785D01*
X22917Y106713D01*
X22935Y106705D01*
X22950Y106692D01*
X23046Y106653D01*
X23140Y106610D01*
X23160Y106608D01*
X23178Y106600D01*
X23345Y106582D01*
X27455Y106582D01*
X27475Y106585D01*
X27494Y106583D01*
X27596Y106605D01*
X27698Y106621D01*
X27715Y106631D01*
X27735Y106635D01*
X27824Y106688D01*
X27915Y106737D01*
X27929Y106751D01*
X27946Y106761D01*
X28013Y106840D01*
X28085Y106915D01*
X28093Y106933D01*
X28106Y106948D01*
X28145Y107044D01*
X28188Y107138D01*
X28190Y107158D01*
X28198Y107176D01*
X28216Y107343D01*
X28216Y112716D01*
X29109Y113609D01*
X33782Y113609D01*
X33802Y113612D01*
X33821Y113610D01*
X33923Y113632D01*
X34025Y113648D01*
X34042Y113658D01*
X34062Y113662D01*
X34151Y113715D01*
X34242Y113764D01*
X34256Y113778D01*
X34273Y113788D01*
X34340Y113867D01*
X34412Y113942D01*
X34420Y113960D01*
X34433Y113975D01*
X34472Y114071D01*
X34515Y114165D01*
X34517Y114185D01*
X34525Y114203D01*
X34543Y114370D01*
X34543Y117383D01*
X34529Y117473D01*
X34521Y117564D01*
X34509Y117594D01*
X34504Y117626D01*
X34461Y117706D01*
X34425Y117790D01*
X34399Y117822D01*
X34388Y117843D01*
X34365Y117865D01*
X34320Y117921D01*
X32189Y120053D01*
X32189Y124422D01*
X35279Y127512D01*
X39648Y127512D01*
X42738Y124422D01*
X42738Y120053D01*
X41880Y119194D01*
X41827Y119120D01*
X41767Y119051D01*
X41755Y119021D01*
X41736Y118994D01*
X41709Y118907D01*
X41675Y118823D01*
X41671Y118782D01*
X41664Y118759D01*
X41665Y118727D01*
X41657Y118656D01*
X41657Y114370D01*
X41660Y114350D01*
X41658Y114331D01*
X41680Y114229D01*
X41696Y114127D01*
X41706Y114110D01*
X41710Y114090D01*
X41763Y114001D01*
X41812Y113910D01*
X41826Y113896D01*
X41836Y113879D01*
X41915Y113812D01*
X41990Y113740D01*
X42008Y113732D01*
X42023Y113719D01*
X42119Y113680D01*
X42213Y113637D01*
X42233Y113635D01*
X42251Y113627D01*
X42418Y113609D01*
X47091Y113609D01*
X47984Y112716D01*
X47984Y93334D01*
X47091Y92441D01*
X29109Y92441D01*
X28216Y93334D01*
X28216Y98707D01*
X28213Y98724D01*
X28215Y98740D01*
X28215Y98742D01*
X28215Y98746D01*
X28193Y98848D01*
X28177Y98950D01*
X28167Y98967D01*
X28163Y98987D01*
X28110Y99076D01*
X28061Y99167D01*
X28047Y99181D01*
X28037Y99198D01*
X27958Y99265D01*
X27883Y99337D01*
X27865Y99345D01*
X27850Y99358D01*
X27754Y99397D01*
X27660Y99440D01*
X27640Y99442D01*
X27622Y99450D01*
X27455Y99468D01*
X23345Y99468D01*
X23325Y99465D01*
X23306Y99467D01*
X23204Y99445D01*
X23102Y99429D01*
X23085Y99419D01*
X23065Y99415D01*
X22976Y99362D01*
X22885Y99313D01*
X22871Y99299D01*
X22854Y99289D01*
X22787Y99210D01*
X22715Y99135D01*
X22707Y99117D01*
X22694Y99102D01*
X22655Y99006D01*
X22612Y98912D01*
X22610Y98892D01*
X22602Y98874D01*
X22584Y98707D01*
X22584Y93334D01*
X21691Y92441D01*
X7462Y92441D01*
X7371Y92427D01*
X7281Y92419D01*
X7251Y92407D01*
X7219Y92402D01*
X7138Y92359D01*
X7054Y92323D01*
X7022Y92297D01*
X7001Y92286D01*
X6979Y92263D01*
X6923Y92218D01*
X48Y85343D01*
X-25448Y85343D01*
G37*
%LPD*%
G36*
X-77714Y45675D02*
X-77714Y45675D01*
X-77639Y45688D01*
X-77629Y45694D01*
X-77619Y45697D01*
X-77590Y45721D01*
X-77519Y45769D01*
X-72756Y50531D01*
X-72716Y50596D01*
X-72672Y50658D01*
X-72670Y50670D01*
X-72665Y50678D01*
X-72661Y50715D01*
X-72645Y50800D01*
X-72645Y60168D01*
X-71280Y61532D01*
X-63500Y61532D01*
X-63450Y61544D01*
X-63399Y61546D01*
X-63367Y61563D01*
X-63331Y61572D01*
X-63292Y61604D01*
X-63247Y61629D01*
X-63226Y61659D01*
X-63198Y61682D01*
X-63177Y61729D01*
X-63147Y61770D01*
X-63139Y61812D01*
X-63127Y61840D01*
X-63128Y61871D01*
X-63120Y61913D01*
X-63120Y71438D01*
X-63129Y71476D01*
X-63128Y71515D01*
X-63151Y71570D01*
X-63159Y71606D01*
X-63173Y71623D01*
X-63184Y71649D01*
X-76758Y91964D01*
X-76770Y91975D01*
X-76780Y91994D01*
X-82256Y98666D01*
X-82262Y98671D01*
X-82266Y98678D01*
X-82274Y98684D01*
X-82281Y98694D01*
X-82339Y98730D01*
X-82394Y98772D01*
X-82401Y98773D01*
X-82408Y98778D01*
X-82420Y98780D01*
X-82428Y98785D01*
X-82465Y98789D01*
X-82550Y98805D01*
X-93663Y98805D01*
X-93737Y98788D01*
X-93811Y98775D01*
X-93821Y98768D01*
X-93831Y98766D01*
X-93860Y98742D01*
X-93931Y98694D01*
X-103456Y89169D01*
X-103496Y89104D01*
X-103540Y89042D01*
X-103542Y89030D01*
X-103548Y89022D01*
X-103551Y88985D01*
X-103568Y88900D01*
X-103568Y86645D01*
X-103562Y86619D01*
X-103564Y86592D01*
X-103537Y86513D01*
X-103528Y86476D01*
X-103521Y86468D01*
X-103517Y86455D01*
X-103384Y86224D01*
X-103396Y86178D01*
X-103397Y86130D01*
X-103409Y86083D01*
X-103400Y86038D01*
X-103401Y86005D01*
X-103390Y85979D01*
X-103383Y85941D01*
X-102487Y83655D01*
X-102459Y83616D01*
X-102441Y83571D01*
X-102407Y83540D01*
X-102388Y83513D01*
X-102363Y83499D01*
X-102335Y83472D01*
X-102295Y83447D01*
X-102149Y82805D01*
X-102138Y82783D01*
X-102132Y82751D01*
X-101891Y82138D01*
X-101910Y82094D01*
X-101919Y82047D01*
X-101937Y82003D01*
X-101936Y81956D01*
X-101942Y81924D01*
X-101934Y81897D01*
X-101933Y81858D01*
X-101387Y79464D01*
X-101366Y79421D01*
X-101354Y79374D01*
X-101326Y79338D01*
X-101311Y79309D01*
X-101289Y79291D01*
X-101265Y79261D01*
X-101229Y79230D01*
X-101180Y78573D01*
X-101172Y78550D01*
X-101171Y78517D01*
X-101025Y77875D01*
X-101050Y77835D01*
X-101066Y77790D01*
X-101090Y77748D01*
X-101096Y77702D01*
X-101107Y77671D01*
X-101103Y77643D01*
X-101107Y77604D01*
X-100925Y75156D01*
X-100910Y75110D01*
X-100906Y75062D01*
X-100883Y75022D01*
X-100873Y74991D01*
X-100853Y74970D01*
X-100834Y74936D01*
X-100803Y74901D01*
X-100852Y74244D01*
X-100849Y74220D01*
X-100852Y74187D01*
X-100803Y73531D01*
X-100834Y73495D01*
X-100857Y73452D01*
X-100887Y73415D01*
X-100899Y73370D01*
X-100915Y73341D01*
X-100915Y73313D01*
X-100925Y73275D01*
X-101110Y70827D01*
X-101102Y70780D01*
X-101105Y70732D01*
X-101088Y70688D01*
X-101083Y70656D01*
X-101067Y70633D01*
X-101052Y70596D01*
X-101027Y70556D01*
X-101174Y69915D01*
X-101174Y69890D01*
X-101183Y69858D01*
X-101232Y69202D01*
X-101268Y69171D01*
X-101296Y69132D01*
X-101332Y69100D01*
X-101351Y69057D01*
X-101370Y69031D01*
X-101375Y69003D01*
X-101391Y68967D01*
X-101938Y66574D01*
X-101937Y66526D01*
X-101947Y66479D01*
X-101937Y66434D01*
X-101937Y66401D01*
X-101924Y66375D01*
X-101915Y66338D01*
X-101897Y66294D01*
X-102137Y65681D01*
X-102141Y65657D01*
X-102154Y65627D01*
X-102301Y64985D01*
X-102341Y64960D01*
X-102375Y64926D01*
X-102415Y64899D01*
X-102440Y64860D01*
X-102463Y64837D01*
X-102472Y64810D01*
X-102493Y64777D01*
X-103390Y62492D01*
X-103394Y62464D01*
X-103396Y62461D01*
X-103396Y62455D01*
X-103397Y62445D01*
X-103414Y62399D01*
X-103410Y62353D01*
X-103415Y62321D01*
X-103406Y62293D01*
X-103404Y62255D01*
X-103391Y62209D01*
X-103517Y61992D01*
X-103525Y61966D01*
X-103540Y61944D01*
X-103556Y61863D01*
X-103567Y61826D01*
X-103565Y61815D01*
X-103568Y61802D01*
X-103568Y49213D01*
X-103550Y49139D01*
X-103537Y49064D01*
X-103531Y49054D01*
X-103528Y49044D01*
X-103505Y49015D01*
X-103456Y48944D01*
X-100281Y45769D01*
X-100217Y45729D01*
X-100155Y45685D01*
X-100143Y45683D01*
X-100134Y45677D01*
X-100097Y45674D01*
X-100013Y45657D01*
X-77788Y45657D01*
X-77714Y45675D01*
G37*
G36*
X131941Y196792D02*
X131941Y196792D01*
X131984Y196791D01*
X135977Y197392D01*
X136007Y197403D01*
X136050Y197408D01*
X139909Y198597D01*
X139937Y198612D01*
X139978Y198624D01*
X143616Y200375D01*
X143638Y200392D01*
X143664Y200401D01*
X143717Y200451D01*
X143775Y200495D01*
X143788Y200519D01*
X143808Y200538D01*
X143838Y200604D01*
X143874Y200668D01*
X143877Y200695D01*
X143888Y200720D01*
X143889Y200793D01*
X143898Y200865D01*
X143890Y200891D01*
X143890Y200919D01*
X143854Y201017D01*
X143842Y201056D01*
X143836Y201064D01*
X143832Y201075D01*
X116832Y247875D01*
X116814Y247895D01*
X116803Y247920D01*
X116749Y247969D01*
X116701Y248024D01*
X116676Y248035D01*
X116656Y248054D01*
X116587Y248078D01*
X116521Y248109D01*
X116494Y248111D01*
X116469Y248120D01*
X116396Y248115D01*
X116323Y248118D01*
X116297Y248109D01*
X116270Y248107D01*
X116174Y248063D01*
X116136Y248049D01*
X116129Y248042D01*
X116119Y248038D01*
X112782Y245764D01*
X112760Y245741D01*
X112724Y245718D01*
X109763Y242972D01*
X109744Y242946D01*
X109712Y242918D01*
X107194Y239762D01*
X107179Y239733D01*
X107152Y239700D01*
X105132Y236204D01*
X105122Y236174D01*
X105099Y236137D01*
X103623Y232379D01*
X103618Y232347D01*
X103601Y232307D01*
X102701Y228371D01*
X102701Y228339D01*
X102690Y228297D01*
X102387Y224271D01*
X102390Y224248D01*
X102387Y224228D01*
X102389Y224218D01*
X102387Y224197D01*
X102688Y220170D01*
X102696Y220139D01*
X102699Y220096D01*
X103596Y216160D01*
X103609Y216131D01*
X103618Y216088D01*
X105092Y212329D01*
X105109Y212302D01*
X105124Y212262D01*
X107142Y208765D01*
X107163Y208741D01*
X107184Y208703D01*
X109700Y205545D01*
X109725Y205525D01*
X109751Y205491D01*
X112710Y202743D01*
X112737Y202727D01*
X112768Y202697D01*
X116104Y200421D01*
X116133Y200409D01*
X116168Y200384D01*
X119806Y198631D01*
X119836Y198623D01*
X119875Y198604D01*
X123733Y197412D01*
X123765Y197409D01*
X123806Y197396D01*
X127798Y196793D01*
X127830Y196794D01*
X127872Y196787D01*
X131910Y196786D01*
X131941Y196792D01*
G37*
G36*
X-127872Y196787D02*
X-127872Y196787D01*
X-127841Y196793D01*
X-127798Y196793D01*
X-123806Y197396D01*
X-123776Y197407D01*
X-123733Y197412D01*
X-119875Y198604D01*
X-119847Y198619D01*
X-119806Y198631D01*
X-116168Y200384D01*
X-116143Y200403D01*
X-116104Y200421D01*
X-112768Y202697D01*
X-112746Y202720D01*
X-112710Y202743D01*
X-109751Y205491D01*
X-109732Y205516D01*
X-109700Y205545D01*
X-107184Y208703D01*
X-107169Y208731D01*
X-107142Y208765D01*
X-105124Y212262D01*
X-105114Y212292D01*
X-105092Y212329D01*
X-103618Y216088D01*
X-103612Y216120D01*
X-103596Y216160D01*
X-102699Y220096D01*
X-102698Y220128D01*
X-102688Y220170D01*
X-102387Y224197D01*
X-102391Y224228D01*
X-102390Y224244D01*
X-102387Y224261D01*
X-102388Y224265D01*
X-102387Y224271D01*
X-102690Y228297D01*
X-102699Y228328D01*
X-102701Y228371D01*
X-103601Y232307D01*
X-103614Y232336D01*
X-103623Y232379D01*
X-105099Y236137D01*
X-105117Y236164D01*
X-105132Y236204D01*
X-107152Y239700D01*
X-107173Y239724D01*
X-107194Y239762D01*
X-109712Y242918D01*
X-109737Y242938D01*
X-109763Y242972D01*
X-112724Y245718D01*
X-112751Y245734D01*
X-112782Y245764D01*
X-116119Y248038D01*
X-116144Y248048D01*
X-116165Y248065D01*
X-116235Y248086D01*
X-116302Y248115D01*
X-116330Y248115D01*
X-116356Y248122D01*
X-116428Y248114D01*
X-116501Y248114D01*
X-116526Y248103D01*
X-116553Y248100D01*
X-116617Y248064D01*
X-116684Y248036D01*
X-116703Y248016D01*
X-116726Y248003D01*
X-116794Y247922D01*
X-116822Y247892D01*
X-116825Y247883D01*
X-116832Y247875D01*
X-143832Y201075D01*
X-143841Y201049D01*
X-143857Y201026D01*
X-143872Y200955D01*
X-143896Y200886D01*
X-143893Y200859D01*
X-143899Y200832D01*
X-143886Y200761D01*
X-143880Y200688D01*
X-143867Y200663D01*
X-143862Y200637D01*
X-143822Y200576D01*
X-143788Y200511D01*
X-143767Y200494D01*
X-143752Y200471D01*
X-143666Y200410D01*
X-143635Y200385D01*
X-143626Y200382D01*
X-143616Y200375D01*
X-139978Y198624D01*
X-139947Y198617D01*
X-139909Y198597D01*
X-136050Y197408D01*
X-136018Y197405D01*
X-135977Y197392D01*
X-131984Y196791D01*
X-131953Y196793D01*
X-131910Y196786D01*
X-127872Y196787D01*
G37*
G36*
X116428Y50336D02*
X116428Y50336D01*
X116501Y50336D01*
X116526Y50347D01*
X116553Y50350D01*
X116617Y50386D01*
X116684Y50414D01*
X116703Y50434D01*
X116726Y50447D01*
X116794Y50528D01*
X116822Y50558D01*
X116825Y50567D01*
X116832Y50576D01*
X143832Y97376D01*
X143841Y97401D01*
X143857Y97424D01*
X143872Y97495D01*
X143896Y97564D01*
X143893Y97591D01*
X143899Y97618D01*
X143886Y97689D01*
X143880Y97762D01*
X143867Y97787D01*
X143862Y97813D01*
X143822Y97874D01*
X143788Y97939D01*
X143767Y97956D01*
X143752Y97979D01*
X143666Y98040D01*
X143635Y98065D01*
X143626Y98068D01*
X143616Y98075D01*
X139978Y99826D01*
X139947Y99833D01*
X139909Y99853D01*
X136050Y101042D01*
X136018Y101045D01*
X135977Y101058D01*
X131984Y101659D01*
X131953Y101657D01*
X131910Y101664D01*
X127872Y101663D01*
X127841Y101657D01*
X127798Y101657D01*
X123806Y101054D01*
X123776Y101043D01*
X123733Y101038D01*
X119875Y99846D01*
X119847Y99831D01*
X119806Y99819D01*
X116168Y98066D01*
X116143Y98047D01*
X116104Y98029D01*
X112768Y95753D01*
X112746Y95730D01*
X112710Y95707D01*
X109751Y92959D01*
X109732Y92934D01*
X109700Y92905D01*
X107184Y89747D01*
X107169Y89719D01*
X107142Y89685D01*
X105124Y86188D01*
X105114Y86158D01*
X105092Y86121D01*
X103618Y82362D01*
X103612Y82330D01*
X103596Y82290D01*
X102699Y78354D01*
X102698Y78322D01*
X102688Y78280D01*
X102387Y74254D01*
X102391Y74222D01*
X102387Y74179D01*
X102690Y70153D01*
X102699Y70122D01*
X102701Y70079D01*
X103601Y66143D01*
X103614Y66114D01*
X103623Y66071D01*
X105099Y62313D01*
X105117Y62286D01*
X105132Y62246D01*
X107152Y58750D01*
X107173Y58726D01*
X107194Y58688D01*
X109712Y55532D01*
X109737Y55512D01*
X109763Y55478D01*
X112724Y52732D01*
X112751Y52716D01*
X112782Y52686D01*
X116119Y50412D01*
X116144Y50402D01*
X116165Y50385D01*
X116235Y50364D01*
X116302Y50335D01*
X116330Y50336D01*
X116356Y50328D01*
X116428Y50336D01*
G37*
G36*
X-116396Y50335D02*
X-116396Y50335D01*
X-116323Y50332D01*
X-116297Y50341D01*
X-116270Y50343D01*
X-116174Y50387D01*
X-116136Y50401D01*
X-116129Y50408D01*
X-116119Y50412D01*
X-112782Y52686D01*
X-112760Y52709D01*
X-112724Y52732D01*
X-109763Y55478D01*
X-109744Y55504D01*
X-109712Y55532D01*
X-107194Y58688D01*
X-107179Y58717D01*
X-107152Y58750D01*
X-105132Y62246D01*
X-105122Y62276D01*
X-105099Y62313D01*
X-103623Y66071D01*
X-103618Y66103D01*
X-103601Y66143D01*
X-102701Y70079D01*
X-102701Y70111D01*
X-102690Y70153D01*
X-102387Y74179D01*
X-102391Y74210D01*
X-102387Y74254D01*
X-102688Y78280D01*
X-102696Y78311D01*
X-102699Y78354D01*
X-103596Y82290D01*
X-103609Y82319D01*
X-103618Y82362D01*
X-105092Y86121D01*
X-105109Y86148D01*
X-105124Y86188D01*
X-107142Y89685D01*
X-107163Y89709D01*
X-107184Y89747D01*
X-109700Y92905D01*
X-109725Y92925D01*
X-109751Y92959D01*
X-112710Y95707D01*
X-112737Y95723D01*
X-112768Y95753D01*
X-116104Y98029D01*
X-116133Y98041D01*
X-116168Y98066D01*
X-119806Y99819D01*
X-119836Y99827D01*
X-119875Y99846D01*
X-123733Y101038D01*
X-123765Y101041D01*
X-123806Y101054D01*
X-127798Y101657D01*
X-127830Y101656D01*
X-127872Y101663D01*
X-131910Y101664D01*
X-131941Y101658D01*
X-131984Y101659D01*
X-135977Y101058D01*
X-136007Y101047D01*
X-136050Y101042D01*
X-139909Y99853D01*
X-139937Y99838D01*
X-139978Y99826D01*
X-143616Y98075D01*
X-143638Y98058D01*
X-143664Y98049D01*
X-143717Y97999D01*
X-143775Y97955D01*
X-143788Y97931D01*
X-143808Y97912D01*
X-143838Y97846D01*
X-143874Y97782D01*
X-143877Y97755D01*
X-143888Y97730D01*
X-143889Y97657D01*
X-143898Y97585D01*
X-143890Y97559D01*
X-143890Y97531D01*
X-143854Y97433D01*
X-143842Y97394D01*
X-143836Y97386D01*
X-143832Y97376D01*
X-116832Y50576D01*
X-116814Y50555D01*
X-116803Y50530D01*
X-116749Y50481D01*
X-116701Y50427D01*
X-116676Y50415D01*
X-116656Y50396D01*
X-116587Y50372D01*
X-116521Y50341D01*
X-116494Y50340D01*
X-116469Y50330D01*
X-116396Y50335D01*
G37*
G36*
X27027Y-1269D02*
X27027Y-1269D01*
X27054Y-1271D01*
X27123Y-1249D01*
X27195Y-1235D01*
X27217Y-1219D01*
X27243Y-1211D01*
X27299Y-1163D01*
X27359Y-1122D01*
X27373Y-1099D01*
X27394Y-1081D01*
X27427Y-1016D01*
X27466Y-955D01*
X27470Y-928D01*
X27482Y-903D01*
X27492Y-799D01*
X27499Y-758D01*
X27497Y-749D01*
X27498Y-738D01*
X27196Y3286D01*
X27188Y3317D01*
X27185Y3360D01*
X26287Y7294D01*
X26274Y7323D01*
X26265Y7366D01*
X24791Y11122D01*
X24774Y11149D01*
X24759Y11190D01*
X22741Y14684D01*
X22720Y14708D01*
X22699Y14746D01*
X20183Y17901D01*
X20158Y17921D01*
X20132Y17956D01*
X17174Y20700D01*
X17147Y20717D01*
X17115Y20747D01*
X13781Y23020D01*
X13752Y23033D01*
X13717Y23058D01*
X10081Y24808D01*
X10050Y24816D01*
X10011Y24836D01*
X6155Y26025D01*
X6124Y26028D01*
X6082Y26042D01*
X2092Y26643D01*
X2060Y26642D01*
X2018Y26649D01*
X-2018Y26649D01*
X-2049Y26642D01*
X-2092Y26643D01*
X-6082Y26042D01*
X-6112Y26031D01*
X-6155Y26025D01*
X-10011Y24836D01*
X-10039Y24820D01*
X-10081Y24808D01*
X-13717Y23058D01*
X-13742Y23038D01*
X-13781Y23020D01*
X-17115Y20747D01*
X-17138Y20724D01*
X-17174Y20700D01*
X-20132Y17956D01*
X-20151Y17930D01*
X-20183Y17901D01*
X-22699Y14746D01*
X-22713Y14718D01*
X-22741Y14684D01*
X-24759Y11190D01*
X-24769Y11159D01*
X-24791Y11122D01*
X-26265Y7366D01*
X-26271Y7334D01*
X-26287Y7294D01*
X-27185Y3360D01*
X-27186Y3328D01*
X-27196Y3286D01*
X-27498Y-738D01*
X-27494Y-765D01*
X-27499Y-792D01*
X-27482Y-862D01*
X-27473Y-935D01*
X-27459Y-959D01*
X-27453Y-985D01*
X-27410Y-1044D01*
X-27373Y-1107D01*
X-27351Y-1123D01*
X-27335Y-1145D01*
X-27272Y-1182D01*
X-27214Y-1226D01*
X-27187Y-1233D01*
X-27164Y-1247D01*
X-27060Y-1264D01*
X-27021Y-1274D01*
X-27011Y-1272D01*
X-27000Y-1274D01*
X27000Y-1274D01*
X27027Y-1269D01*
G37*
G36*
X-28501Y118700D02*
X-28501Y118700D01*
X-28426Y118713D01*
X-28416Y118719D01*
X-28406Y118722D01*
X-28377Y118746D01*
X-28306Y118794D01*
X-10844Y136256D01*
X-10804Y136321D01*
X-10760Y136383D01*
X-10758Y136395D01*
X-10752Y136403D01*
X-10749Y136440D01*
X-10742Y136476D01*
X-10739Y136482D01*
X-10739Y136488D01*
X-10732Y136525D01*
X-10732Y142875D01*
X-10750Y142949D01*
X-10763Y143024D01*
X-10769Y143034D01*
X-10772Y143044D01*
X-10796Y143073D01*
X-10844Y143144D01*
X-26719Y159019D01*
X-26783Y159059D01*
X-26845Y159103D01*
X-26857Y159105D01*
X-26866Y159110D01*
X-26903Y159114D01*
X-26988Y159130D01*
X-31750Y159130D01*
X-31824Y159113D01*
X-31899Y159100D01*
X-31909Y159093D01*
X-31919Y159091D01*
X-31948Y159067D01*
X-32019Y159019D01*
X-51069Y139969D01*
X-51109Y139904D01*
X-51153Y139842D01*
X-51155Y139830D01*
X-51160Y139822D01*
X-51164Y139785D01*
X-51180Y139700D01*
X-51180Y138113D01*
X-51163Y138039D01*
X-51150Y137964D01*
X-51143Y137954D01*
X-51141Y137944D01*
X-51117Y137915D01*
X-51069Y137844D01*
X-32019Y118794D01*
X-31954Y118754D01*
X-31892Y118710D01*
X-31880Y118708D01*
X-31872Y118702D01*
X-31835Y118699D01*
X-31750Y118682D01*
X-28575Y118682D01*
X-28501Y118700D01*
G37*
G36*
X141362Y159975D02*
X141362Y159975D01*
X141438Y159988D01*
X141446Y159994D01*
X141456Y159997D01*
X141515Y160046D01*
X141577Y160091D01*
X141583Y160101D01*
X141590Y160107D01*
X141605Y160140D01*
X141648Y160217D01*
X143236Y164980D01*
X143239Y165017D01*
X143255Y165100D01*
X143255Y184150D01*
X143238Y184224D01*
X143225Y184299D01*
X143218Y184309D01*
X143216Y184319D01*
X143192Y184348D01*
X143144Y184419D01*
X141556Y186006D01*
X141515Y186032D01*
X141481Y186065D01*
X141437Y186081D01*
X141409Y186098D01*
X141381Y186101D01*
X141344Y186114D01*
X118069Y189605D01*
X118044Y189603D01*
X118013Y189609D01*
X115250Y189609D01*
X114846Y190013D01*
X114805Y190038D01*
X114770Y190072D01*
X114726Y190087D01*
X114698Y190104D01*
X114670Y190107D01*
X114633Y190120D01*
X109594Y190876D01*
X109542Y190872D01*
X109490Y190877D01*
X109457Y190865D01*
X109421Y190862D01*
X109376Y190835D01*
X109327Y190817D01*
X109303Y190791D01*
X109273Y190773D01*
X109244Y190729D01*
X109209Y190691D01*
X109195Y190652D01*
X109179Y190627D01*
X109176Y190596D01*
X109161Y190554D01*
X105986Y168329D01*
X105988Y168313D01*
X105983Y168297D01*
X105995Y168227D01*
X106001Y168156D01*
X106010Y168142D01*
X106013Y168126D01*
X106085Y168019D01*
X106092Y168008D01*
X106093Y168008D01*
X106094Y168006D01*
X109269Y164831D01*
X109308Y164806D01*
X109342Y164774D01*
X109387Y164757D01*
X109416Y164740D01*
X109443Y164737D01*
X109478Y164724D01*
X139641Y159962D01*
X139666Y159964D01*
X139700Y159957D01*
X141288Y159957D01*
X141362Y159975D01*
G37*
%LPC*%
G36*
X-103419Y138493D02*
X-103419Y138493D01*
X-106780Y139885D01*
X-109353Y142457D01*
X-110745Y145819D01*
X-110745Y149456D01*
X-109353Y152818D01*
X-106780Y155390D01*
X-104611Y156289D01*
X-104511Y156350D01*
X-104411Y156410D01*
X-104407Y156415D01*
X-104402Y156418D01*
X-104327Y156508D01*
X-104251Y156597D01*
X-104249Y156603D01*
X-104245Y156608D01*
X-104203Y156716D01*
X-104159Y156825D01*
X-104158Y156833D01*
X-104157Y156837D01*
X-104156Y156856D01*
X-104141Y156992D01*
X-104141Y163683D01*
X-104160Y163798D01*
X-104177Y163914D01*
X-104179Y163920D01*
X-104180Y163926D01*
X-104235Y164028D01*
X-104288Y164133D01*
X-104293Y164138D01*
X-104296Y164143D01*
X-104380Y164223D01*
X-104464Y164306D01*
X-104470Y164309D01*
X-104474Y164313D01*
X-104491Y164320D01*
X-104611Y164386D01*
X-106780Y165285D01*
X-109353Y167857D01*
X-110745Y171219D01*
X-110745Y174856D01*
X-109353Y178218D01*
X-106780Y180790D01*
X-103419Y182182D01*
X-99781Y182182D01*
X-96420Y180790D01*
X-93847Y178218D01*
X-92455Y174856D01*
X-92455Y171219D01*
X-93847Y167857D01*
X-96420Y165285D01*
X-98589Y164386D01*
X-98689Y164325D01*
X-98789Y164265D01*
X-98793Y164260D01*
X-98798Y164257D01*
X-98873Y164167D01*
X-98949Y164078D01*
X-98951Y164072D01*
X-98955Y164067D01*
X-98997Y163958D01*
X-99041Y163850D01*
X-99042Y163842D01*
X-99043Y163838D01*
X-99044Y163819D01*
X-99059Y163683D01*
X-99059Y156992D01*
X-99040Y156877D01*
X-99023Y156761D01*
X-99021Y156755D01*
X-99020Y156749D01*
X-98965Y156647D01*
X-98912Y156542D01*
X-98907Y156537D01*
X-98904Y156532D01*
X-98820Y156452D01*
X-98736Y156369D01*
X-98730Y156366D01*
X-98726Y156362D01*
X-98709Y156355D01*
X-98589Y156289D01*
X-96420Y155390D01*
X-93847Y152818D01*
X-92455Y149456D01*
X-92455Y145819D01*
X-93847Y142457D01*
X-96420Y139885D01*
X-99781Y138493D01*
X-103419Y138493D01*
G37*
%LPD*%
%LPC*%
G36*
X105750Y111505D02*
X105750Y111505D01*
X100393Y116862D01*
X100393Y124438D01*
X105750Y129795D01*
X113325Y129795D01*
X118682Y124438D01*
X118682Y116862D01*
X113325Y111505D01*
X105750Y111505D01*
G37*
%LPD*%
%LPC*%
G36*
X-103419Y113093D02*
X-103419Y113093D01*
X-106780Y114485D01*
X-109353Y117057D01*
X-110745Y120419D01*
X-110745Y124056D01*
X-109353Y127418D01*
X-106780Y129990D01*
X-103419Y131382D01*
X-99781Y131382D01*
X-96420Y129990D01*
X-93847Y127418D01*
X-92455Y124056D01*
X-92455Y120419D01*
X-93847Y117057D01*
X-96420Y114485D01*
X-99781Y113093D01*
X-103419Y113093D01*
G37*
%LPD*%
%LPC*%
G36*
X29356Y53800D02*
X29356Y53800D01*
X28463Y54693D01*
X28463Y65957D01*
X29356Y66850D01*
X41619Y66850D01*
X42512Y65957D01*
X42512Y65151D01*
X42515Y65131D01*
X42513Y65112D01*
X42535Y65010D01*
X42552Y64908D01*
X42561Y64891D01*
X42566Y64871D01*
X42619Y64782D01*
X42667Y64691D01*
X42681Y64677D01*
X42692Y64660D01*
X42770Y64593D01*
X42845Y64521D01*
X42863Y64513D01*
X42879Y64500D01*
X42975Y64461D01*
X43068Y64418D01*
X43088Y64416D01*
X43107Y64408D01*
X43273Y64390D01*
X46661Y64390D01*
X46683Y64374D01*
X46770Y64347D01*
X46855Y64313D01*
X46896Y64309D01*
X46918Y64302D01*
X46950Y64303D01*
X47022Y64295D01*
X47037Y64295D01*
X49555Y61777D01*
X49555Y58215D01*
X47037Y55697D01*
X43273Y55697D01*
X43254Y55694D01*
X43234Y55696D01*
X43133Y55674D01*
X43031Y55658D01*
X43013Y55648D01*
X42994Y55644D01*
X42905Y55591D01*
X42813Y55542D01*
X42800Y55528D01*
X42783Y55518D01*
X42715Y55439D01*
X42644Y55364D01*
X42636Y55346D01*
X42623Y55331D01*
X42584Y55235D01*
X42540Y55141D01*
X42538Y55121D01*
X42531Y55103D01*
X42512Y54936D01*
X42512Y54693D01*
X41619Y53800D01*
X29356Y53800D01*
G37*
%LPD*%
D10*
X82600Y292325D03*
X165200Y149225D03*
X82600Y6125D03*
X-82600Y6125D03*
X-165200Y149225D03*
X-82600Y292325D03*
X123900Y220725D03*
X123900Y77725D03*
X0Y6125D03*
X-123900Y77725D03*
X-123900Y220725D03*
D11*
X-25400Y258763D03*
D12*
X25400Y258763D03*
D13*
X-38100Y103025D03*
X-12700Y103025D03*
X12700Y103025D03*
X38100Y103025D03*
X38100Y195425D03*
X12700Y195425D03*
X-38100Y195425D03*
D14*
X68263Y162363D03*
X68263Y177363D03*
X-66675Y52825D03*
X-66675Y67825D03*
D15*
X109538Y120650D03*
D16*
X35488Y60325D03*
X18488Y60325D03*
D17*
X-101600Y173038D03*
X-101600Y147638D03*
X-101600Y122238D03*
D18*
X-98425Y85725D03*
X-84138Y93663D03*
X-95250Y52388D03*
X-79375Y52388D03*
X-23813Y34925D03*
X-9525Y55563D03*
X6350Y55563D03*
X-3175Y33338D03*
X39688Y6350D03*
X39688Y19050D03*
X-87313Y68263D03*
X138113Y180975D03*
X138113Y165100D03*
X112713Y185738D03*
X111125Y169863D03*
X-30163Y153988D03*
X-15875Y139700D03*
X-30163Y123825D03*
X-46038Y139700D03*
X55563Y160338D03*
D19*
X66238Y160338D01*
X68263Y162363D01*
D18*
X-52388Y87875D03*
D20*
X-38100Y195425D02*
X-38100Y246063D01*
X-25400Y258763D01*
X12700Y246063D02*
X12700Y195425D01*
X12700Y246063D02*
X25400Y258763D01*
D21*
X61475Y177363D02*
X68263Y177363D01*
X61475Y177363D02*
X55563Y171450D01*
D18*
X55563Y171450D03*
D22*
X-1425Y88900D02*
X-23975Y88900D01*
X-38100Y103025D01*
X-1425Y88900D02*
X12700Y103025D01*
X38100Y103025D01*
X38100Y121601D01*
X37464Y122238D01*
D18*
X37464Y122238D03*
D23*
X101925Y58413D03*
D21*
X121237Y77725D01*
X123900Y77725D01*
D23*
X-66675Y52825D03*
D24*
X45257Y59996D03*
D19*
X44928Y60325D02*
X35488Y60325D01*
X44928Y60325D02*
X45257Y59996D01*
D25*
X-101600Y147638D02*
X-101600Y173038D01*
D23*
X-99457Y213849D03*
D21*
X-117024Y213849D01*
X-123900Y220725D01*
D23*
X-109908Y49140D03*
D21*
X-117413Y56645D01*
X-123900Y67880D01*
X-123900Y77725D01*
D23*
X31886Y3206D03*
D21*
X2919Y3206D01*
X0Y6125D01*
D23*
X117134Y194158D03*
D21*
X117134Y213959D01*
X123900Y220725D01*
M02*
