G04 EAGLE Gerber RS-274X export*
G75*
%MOMM*%
%FSLAX34Y34*%
%LPD*%
%INBottom Copper*%
%IPPOS*%
%AMOC8*
5,1,8,0,0,1.08239X$1,22.5*%
G01*
%ADD10C,1.000000*%
%ADD11R,2.500000X2.500000*%
%ADD12C,2.500000*%
%ADD13R,1.400000X1.000000*%
%ADD14R,1.100000X1.000000*%
%ADD15R,1.000000X1.100000*%
%ADD16R,1.399997X0.400000*%
%ADD17P,1.649562X8X22.500000*%
%ADD18R,1.300000X1.500000*%
%ADD19R,1.500000X1.300000*%
%ADD20C,1.524000*%
%ADD21R,0.550000X0.297181*%
%ADD22R,0.297181X0.550000*%
%ADD23R,5.600000X5.600000*%
%ADD24C,0.304800*%
%ADD25C,0.750000*%
%ADD26C,0.508000*%
%ADD27C,0.604800*%
%ADD28C,0.254000*%
%ADD29C,0.554800*%
%ADD30C,0.203200*%

G36*
X66431Y48847D02*
X66431Y48847D01*
X66522Y48854D01*
X66552Y48867D01*
X66584Y48872D01*
X66664Y48915D01*
X66748Y48950D01*
X66780Y48976D01*
X66801Y48987D01*
X66823Y49010D01*
X66879Y49055D01*
X78541Y60717D01*
X78556Y60732D01*
X78556Y60733D01*
X78557Y60733D01*
X79584Y61760D01*
X79595Y61775D01*
X79618Y61796D01*
X81659Y64124D01*
X81672Y64144D01*
X81746Y64245D01*
X84836Y69597D01*
X84842Y69612D01*
X84851Y69625D01*
X84912Y69781D01*
X86512Y75751D01*
X86514Y75774D01*
X86536Y75898D01*
X86739Y78988D01*
X86737Y79007D01*
X86740Y79038D01*
X86740Y84256D01*
X89441Y94336D01*
X94659Y103374D01*
X97308Y106022D01*
X97308Y106023D01*
X98974Y107689D01*
X99390Y108105D01*
X99391Y108105D01*
X103732Y112447D01*
X103743Y112463D01*
X103759Y112475D01*
X103815Y112562D01*
X103875Y112646D01*
X103881Y112665D01*
X103892Y112682D01*
X103917Y112783D01*
X103948Y112881D01*
X103947Y112901D01*
X103952Y112921D01*
X103944Y113024D01*
X103941Y113127D01*
X103934Y113146D01*
X103933Y113166D01*
X103893Y113261D01*
X103857Y113358D01*
X103844Y113374D01*
X103837Y113392D01*
X103732Y113523D01*
X100393Y116862D01*
X100393Y124438D01*
X105750Y129795D01*
X113325Y129795D01*
X118682Y124438D01*
X118682Y121056D01*
X118690Y121007D01*
X118688Y120958D01*
X118710Y120887D01*
X118722Y120813D01*
X118745Y120770D01*
X118759Y120723D01*
X118802Y120662D01*
X118837Y120596D01*
X118872Y120562D01*
X118901Y120522D01*
X118961Y120478D01*
X119015Y120426D01*
X119060Y120406D01*
X119099Y120377D01*
X119171Y120354D01*
X119238Y120323D01*
X119287Y120317D01*
X119334Y120303D01*
X119409Y120304D01*
X119483Y120296D01*
X119531Y120306D01*
X119580Y120307D01*
X119650Y120332D01*
X119723Y120348D01*
X119765Y120373D01*
X119812Y120389D01*
X119870Y120436D01*
X119934Y120474D01*
X119966Y120511D01*
X120005Y120542D01*
X120046Y120604D01*
X120094Y120661D01*
X120113Y120707D01*
X120139Y120747D01*
X120177Y120867D01*
X120186Y120889D01*
X120187Y120898D01*
X120190Y120907D01*
X120322Y121570D01*
X120323Y121603D01*
X120336Y121681D01*
X120434Y123687D01*
X120433Y123701D01*
X120435Y123724D01*
X120435Y186230D01*
X120420Y186320D01*
X120413Y186411D01*
X120401Y186440D01*
X120395Y186472D01*
X120353Y186553D01*
X120317Y186637D01*
X120291Y186669D01*
X120280Y186690D01*
X120257Y186712D01*
X120248Y186723D01*
X120241Y186736D01*
X120232Y186743D01*
X120212Y186768D01*
X117594Y189386D01*
X117520Y189439D01*
X117451Y189499D01*
X117420Y189511D01*
X117394Y189530D01*
X117307Y189556D01*
X117222Y189591D01*
X117181Y189595D01*
X117159Y189602D01*
X117127Y189601D01*
X117056Y189609D01*
X115250Y189609D01*
X112585Y192274D01*
X112585Y196042D01*
X114779Y198236D01*
X114793Y198256D01*
X114812Y198271D01*
X114865Y198356D01*
X114923Y198436D01*
X114930Y198459D01*
X114943Y198480D01*
X114966Y198576D01*
X114995Y198671D01*
X114995Y198695D01*
X115000Y198719D01*
X114991Y198818D01*
X114989Y198917D01*
X114980Y198940D01*
X114978Y198964D01*
X114938Y199055D01*
X114904Y199148D01*
X114889Y199167D01*
X114879Y199189D01*
X114813Y199262D01*
X114763Y199324D01*
X114760Y199331D01*
X114751Y199364D01*
X114701Y199438D01*
X114659Y199516D01*
X114633Y199540D01*
X114614Y199569D01*
X114487Y199678D01*
X112666Y200920D01*
X112634Y200935D01*
X112607Y200956D01*
X112524Y200986D01*
X112443Y201024D01*
X112408Y201028D01*
X112376Y201040D01*
X112297Y201045D01*
X111825Y201483D01*
X111798Y201502D01*
X111736Y201554D01*
X111207Y201915D01*
X111177Y201980D01*
X111146Y202064D01*
X111125Y202091D01*
X111110Y202122D01*
X111000Y202249D01*
X109385Y203749D01*
X109356Y203768D01*
X109332Y203793D01*
X109254Y203836D01*
X109180Y203885D01*
X109147Y203894D01*
X109116Y203910D01*
X109039Y203928D01*
X108637Y204431D01*
X108613Y204454D01*
X108560Y204515D01*
X108091Y204950D01*
X108070Y205019D01*
X108053Y205106D01*
X108035Y205136D01*
X108025Y205170D01*
X107936Y205312D01*
X106562Y207035D01*
X106537Y207058D01*
X106517Y207087D01*
X106446Y207141D01*
X106380Y207200D01*
X106348Y207214D01*
X106320Y207235D01*
X106246Y207264D01*
X105925Y207821D01*
X105904Y207847D01*
X105861Y207915D01*
X105462Y208416D01*
X105452Y208487D01*
X105447Y208576D01*
X105435Y208608D01*
X105430Y208643D01*
X105362Y208796D01*
X104261Y210706D01*
X104239Y210732D01*
X104224Y210764D01*
X104161Y210827D01*
X104105Y210896D01*
X104076Y210914D01*
X104052Y210939D01*
X103983Y210979D01*
X103748Y211578D01*
X103731Y211606D01*
X103698Y211680D01*
X103378Y212235D01*
X103379Y212307D01*
X103388Y212395D01*
X103380Y212429D01*
X103381Y212464D01*
X103337Y212626D01*
X102532Y214678D01*
X102515Y214708D01*
X102504Y214741D01*
X102452Y214813D01*
X102407Y214889D01*
X102380Y214912D01*
X102360Y214940D01*
X102298Y214989D01*
X102155Y215617D01*
X102143Y215648D01*
X102121Y215726D01*
X101888Y216322D01*
X101899Y216393D01*
X101921Y216479D01*
X101918Y216513D01*
X101924Y216548D01*
X101905Y216714D01*
X101415Y218863D01*
X101402Y218896D01*
X101397Y218930D01*
X101356Y219009D01*
X101322Y219091D01*
X101300Y219118D01*
X101284Y219148D01*
X101230Y219206D01*
X101182Y219848D01*
X101174Y219880D01*
X101165Y219961D01*
X101023Y220585D01*
X101044Y220653D01*
X101079Y220735D01*
X101082Y220770D01*
X101092Y220803D01*
X101098Y220971D01*
X100934Y223169D01*
X100926Y223202D01*
X100926Y223237D01*
X100897Y223322D01*
X100876Y223408D01*
X100858Y223437D01*
X100847Y223470D01*
X100802Y223536D01*
X100850Y224177D01*
X100847Y224210D01*
X100850Y224291D01*
X100803Y224930D01*
X100834Y224994D01*
X100881Y225070D01*
X100889Y225104D01*
X100904Y225135D01*
X100935Y225300D01*
X101100Y227498D01*
X101097Y227532D01*
X101102Y227567D01*
X101087Y227654D01*
X101079Y227743D01*
X101065Y227775D01*
X101059Y227809D01*
X101024Y227880D01*
X101168Y228508D01*
X101170Y228541D01*
X101185Y228620D01*
X101233Y229259D01*
X101274Y229317D01*
X101331Y229386D01*
X101344Y229418D01*
X101363Y229446D01*
X101419Y229605D01*
X101910Y231754D01*
X101912Y231788D01*
X101922Y231821D01*
X101920Y231895D01*
X101927Y231959D01*
X101924Y231975D01*
X101925Y231999D01*
X101916Y232033D01*
X101915Y232067D01*
X101892Y232143D01*
X102127Y232742D01*
X102134Y232774D01*
X102160Y232851D01*
X102303Y233475D01*
X102352Y233527D01*
X102419Y233586D01*
X102436Y233616D01*
X102460Y233641D01*
X102538Y233790D01*
X103344Y235841D01*
X103352Y235875D01*
X103367Y235906D01*
X103377Y235995D01*
X103396Y236082D01*
X103392Y236116D01*
X103396Y236151D01*
X103385Y236229D01*
X103707Y236786D01*
X103718Y236817D01*
X103756Y236889D01*
X103990Y237485D01*
X104047Y237529D01*
X104121Y237577D01*
X104143Y237604D01*
X104170Y237626D01*
X104270Y237761D01*
X105372Y239669D01*
X105385Y239702D01*
X105404Y239731D01*
X105428Y239816D01*
X105459Y239899D01*
X105461Y239934D01*
X105470Y239968D01*
X105470Y240047D01*
X105871Y240550D01*
X105887Y240579D01*
X105921Y240625D01*
X105923Y240627D01*
X105924Y240628D01*
X105935Y240644D01*
X106256Y241198D01*
X106318Y241234D01*
X106399Y241270D01*
X106425Y241294D01*
X106455Y241311D01*
X106573Y241430D01*
X107948Y243153D01*
X107965Y243183D01*
X107989Y243208D01*
X108025Y243289D01*
X108068Y243367D01*
X108075Y243401D01*
X108089Y243433D01*
X108101Y243511D01*
X108573Y243949D01*
X108593Y243975D01*
X108650Y244032D01*
X109050Y244533D01*
X109116Y244558D01*
X109202Y244582D01*
X109231Y244602D01*
X109263Y244614D01*
X109398Y244714D01*
X111014Y246213D01*
X111035Y246240D01*
X111063Y246262D01*
X111111Y246337D01*
X111165Y246407D01*
X111177Y246440D01*
X111195Y246469D01*
X111219Y246545D01*
X111751Y246907D01*
X111775Y246930D01*
X111840Y246978D01*
X112309Y247414D01*
X112379Y247429D01*
X112467Y247440D01*
X112499Y247455D01*
X112533Y247462D01*
X112681Y247541D01*
X114406Y248716D01*
X114451Y248760D01*
X114503Y248795D01*
X114540Y248844D01*
X114584Y248886D01*
X114606Y248927D01*
X115298Y249327D01*
X115315Y249340D01*
X115346Y249357D01*
X115724Y249615D01*
X115808Y249694D01*
X115892Y249771D01*
X115896Y249778D01*
X115903Y249784D01*
X115956Y249886D01*
X116012Y249985D01*
X116014Y249994D01*
X116018Y250002D01*
X116036Y250115D01*
X116057Y250227D01*
X116056Y250236D01*
X116057Y250244D01*
X116039Y250358D01*
X116022Y250471D01*
X116018Y250480D01*
X116017Y250487D01*
X116006Y250507D01*
X115955Y250624D01*
X87385Y300108D01*
X87342Y300161D01*
X87308Y300219D01*
X87265Y300255D01*
X87229Y300299D01*
X87172Y300334D01*
X87121Y300378D01*
X87068Y300400D01*
X87021Y300429D01*
X86955Y300445D01*
X86892Y300470D01*
X86814Y300479D01*
X86782Y300487D01*
X86761Y300485D01*
X86726Y300489D01*
X-86472Y300489D01*
X-86538Y300478D01*
X-86606Y300477D01*
X-86659Y300458D01*
X-86715Y300449D01*
X-86774Y300418D01*
X-86838Y300395D01*
X-86882Y300360D01*
X-86932Y300334D01*
X-86978Y300285D01*
X-87032Y300243D01*
X-87079Y300180D01*
X-87101Y300156D01*
X-87110Y300137D01*
X-87131Y300108D01*
X-115773Y250500D01*
X-115813Y250393D01*
X-115856Y250287D01*
X-115857Y250278D01*
X-115860Y250270D01*
X-115864Y250155D01*
X-115871Y250042D01*
X-115869Y250033D01*
X-115869Y250024D01*
X-115836Y249914D01*
X-115806Y249804D01*
X-115802Y249797D01*
X-115799Y249789D01*
X-115733Y249695D01*
X-115670Y249600D01*
X-115662Y249593D01*
X-115658Y249587D01*
X-115639Y249574D01*
X-115542Y249491D01*
X-115346Y249357D01*
X-115327Y249348D01*
X-115298Y249327D01*
X-114615Y248933D01*
X-114611Y248924D01*
X-114568Y248878D01*
X-114533Y248825D01*
X-114466Y248768D01*
X-114444Y248744D01*
X-114428Y248735D01*
X-114406Y248716D01*
X-112681Y247541D01*
X-112649Y247526D01*
X-112622Y247505D01*
X-112539Y247475D01*
X-112458Y247437D01*
X-112423Y247433D01*
X-112391Y247422D01*
X-112312Y247416D01*
X-111840Y246978D01*
X-111812Y246960D01*
X-111751Y246907D01*
X-111221Y246547D01*
X-111191Y246482D01*
X-111160Y246398D01*
X-111139Y246371D01*
X-111124Y246340D01*
X-111014Y246213D01*
X-109398Y244714D01*
X-109369Y244695D01*
X-109345Y244670D01*
X-109267Y244627D01*
X-109193Y244578D01*
X-109160Y244569D01*
X-109129Y244553D01*
X-109052Y244535D01*
X-108650Y244032D01*
X-108626Y244010D01*
X-108573Y243949D01*
X-108103Y243513D01*
X-108083Y243445D01*
X-108065Y243358D01*
X-108048Y243328D01*
X-108038Y243294D01*
X-107948Y243153D01*
X-106573Y241430D01*
X-106548Y241406D01*
X-106528Y241378D01*
X-106457Y241324D01*
X-106391Y241265D01*
X-106359Y241251D01*
X-106331Y241230D01*
X-106257Y241201D01*
X-105935Y240644D01*
X-105914Y240618D01*
X-105871Y240550D01*
X-105472Y240049D01*
X-105462Y239979D01*
X-105457Y239890D01*
X-105445Y239857D01*
X-105440Y239823D01*
X-105372Y239669D01*
X-104270Y237761D01*
X-104248Y237734D01*
X-104232Y237703D01*
X-104170Y237640D01*
X-104114Y237571D01*
X-104084Y237552D01*
X-104060Y237527D01*
X-103991Y237488D01*
X-103756Y236889D01*
X-103739Y236860D01*
X-103707Y236786D01*
X-103386Y236232D01*
X-103387Y236160D01*
X-103396Y236072D01*
X-103388Y236038D01*
X-103388Y236003D01*
X-103344Y235841D01*
X-102538Y233790D01*
X-102521Y233760D01*
X-102510Y233727D01*
X-102458Y233655D01*
X-102413Y233578D01*
X-102386Y233556D01*
X-102366Y233528D01*
X-102304Y233478D01*
X-102160Y232851D01*
X-102148Y232820D01*
X-102127Y232742D01*
X-101893Y232146D01*
X-101894Y232137D01*
X-101900Y232125D01*
X-101906Y232066D01*
X-101926Y231989D01*
X-101923Y231954D01*
X-101929Y231920D01*
X-101926Y231892D01*
X-101927Y231880D01*
X-101921Y231854D01*
X-101910Y231754D01*
X-101419Y229605D01*
X-101405Y229573D01*
X-101400Y229538D01*
X-101359Y229459D01*
X-101326Y229377D01*
X-101303Y229351D01*
X-101287Y229320D01*
X-101233Y229262D01*
X-101185Y228620D01*
X-101177Y228588D01*
X-101168Y228508D01*
X-101025Y227883D01*
X-101047Y227815D01*
X-101081Y227733D01*
X-101084Y227698D01*
X-101094Y227665D01*
X-101100Y227498D01*
X-100935Y225300D01*
X-100927Y225266D01*
X-100927Y225231D01*
X-100898Y225147D01*
X-100877Y225061D01*
X-100858Y225031D01*
X-100847Y224999D01*
X-100802Y224933D01*
X-100850Y224291D01*
X-100847Y224258D01*
X-100850Y224177D01*
X-100802Y223539D01*
X-100834Y223474D01*
X-100880Y223399D01*
X-100888Y223365D01*
X-100903Y223334D01*
X-100934Y223169D01*
X-101098Y220971D01*
X-101095Y220936D01*
X-101100Y220902D01*
X-101084Y220814D01*
X-101077Y220726D01*
X-101063Y220694D01*
X-101057Y220660D01*
X-101022Y220588D01*
X-101165Y219961D01*
X-101167Y219928D01*
X-101182Y219848D01*
X-101229Y219216D01*
X-101225Y219168D01*
X-101230Y219120D01*
X-101214Y219046D01*
X-101207Y218971D01*
X-101188Y218927D01*
X-101178Y218879D01*
X-101139Y218814D01*
X-101109Y218745D01*
X-101076Y218710D01*
X-101052Y218668D01*
X-100994Y218619D01*
X-100944Y218563D01*
X-100902Y218540D01*
X-100865Y218508D01*
X-100795Y218480D01*
X-100729Y218443D01*
X-100681Y218434D01*
X-100637Y218416D01*
X-100510Y218402D01*
X-100487Y218398D01*
X-100480Y218399D01*
X-100470Y218398D01*
X-97573Y218398D01*
X-94908Y215733D01*
X-94908Y211806D01*
X-94894Y211716D01*
X-94887Y211625D01*
X-94874Y211595D01*
X-94869Y211563D01*
X-94826Y211483D01*
X-94790Y211399D01*
X-94765Y211367D01*
X-94754Y211346D01*
X-94730Y211324D01*
X-94685Y211268D01*
X-5149Y121732D01*
X-5091Y121690D01*
X-5039Y121640D01*
X-4992Y121618D01*
X-4950Y121588D01*
X-4881Y121567D01*
X-4816Y121537D01*
X-4764Y121531D01*
X-4714Y121516D01*
X-4643Y121517D01*
X-4572Y121510D01*
X-4521Y121521D01*
X-4469Y121522D01*
X-4401Y121547D01*
X-4331Y121562D01*
X-4287Y121589D01*
X-4238Y121606D01*
X-4182Y121651D01*
X-4120Y121688D01*
X-4086Y121728D01*
X-4046Y121760D01*
X-4007Y121820D01*
X-3960Y121875D01*
X-3941Y121923D01*
X-3913Y121967D01*
X-3895Y122037D01*
X-3868Y122103D01*
X-3860Y122174D01*
X-3852Y122206D01*
X-3854Y122229D01*
X-3850Y122270D01*
X-3850Y132069D01*
X-2957Y132962D01*
X9307Y132962D01*
X10200Y132069D01*
X10200Y120806D01*
X9307Y119913D01*
X7898Y119913D01*
X7879Y119910D01*
X7859Y119912D01*
X7758Y119890D01*
X7656Y119873D01*
X7638Y119864D01*
X7619Y119859D01*
X7530Y119806D01*
X7438Y119758D01*
X7425Y119744D01*
X7408Y119733D01*
X7340Y119655D01*
X7269Y119580D01*
X7261Y119562D01*
X7248Y119546D01*
X7209Y119450D01*
X7165Y119357D01*
X7163Y119337D01*
X7156Y119318D01*
X7137Y119152D01*
X7137Y118211D01*
X7140Y118191D01*
X7138Y118172D01*
X7160Y118070D01*
X7177Y117968D01*
X7186Y117951D01*
X7191Y117931D01*
X7244Y117842D01*
X7292Y117751D01*
X7306Y117737D01*
X7317Y117720D01*
X7395Y117653D01*
X7470Y117581D01*
X7488Y117573D01*
X7504Y117560D01*
X7600Y117521D01*
X7693Y117478D01*
X7713Y117476D01*
X7732Y117468D01*
X7898Y117450D01*
X11280Y117450D01*
X11287Y117445D01*
X11388Y117420D01*
X11486Y117389D01*
X11506Y117390D01*
X11526Y117385D01*
X11629Y117393D01*
X11732Y117395D01*
X11751Y117402D01*
X11771Y117404D01*
X11866Y117444D01*
X11881Y117450D01*
X16281Y117450D01*
X16288Y117445D01*
X16389Y117420D01*
X16487Y117389D01*
X16507Y117390D01*
X16527Y117385D01*
X16630Y117393D01*
X16733Y117395D01*
X16752Y117402D01*
X16772Y117404D01*
X16867Y117444D01*
X16882Y117450D01*
X21281Y117450D01*
X21290Y117444D01*
X21390Y117419D01*
X21489Y117389D01*
X21509Y117389D01*
X21528Y117384D01*
X21631Y117392D01*
X21735Y117395D01*
X21754Y117402D01*
X21773Y117403D01*
X21868Y117444D01*
X21885Y117450D01*
X26284Y117450D01*
X26291Y117445D01*
X26392Y117420D01*
X26490Y117389D01*
X26510Y117390D01*
X26530Y117385D01*
X26633Y117393D01*
X26736Y117395D01*
X26755Y117402D01*
X26775Y117404D01*
X26870Y117444D01*
X26885Y117450D01*
X31212Y117450D01*
X32105Y116557D01*
X32105Y110654D01*
X32108Y110634D01*
X32106Y110614D01*
X32128Y110513D01*
X32145Y110411D01*
X32154Y110394D01*
X32158Y110374D01*
X32212Y110285D01*
X32260Y110194D01*
X32274Y110180D01*
X32285Y110163D01*
X32363Y110096D01*
X32438Y110024D01*
X32456Y110016D01*
X32472Y110003D01*
X32568Y109964D01*
X32661Y109921D01*
X32681Y109919D01*
X32700Y109911D01*
X32866Y109893D01*
X38769Y109893D01*
X39657Y109004D01*
X39715Y108963D01*
X39767Y108913D01*
X39815Y108891D01*
X39857Y108861D01*
X39925Y108840D01*
X39991Y108810D01*
X40042Y108804D01*
X40092Y108789D01*
X40164Y108790D01*
X40235Y108783D01*
X40286Y108794D01*
X40338Y108795D01*
X40405Y108820D01*
X40475Y108835D01*
X40520Y108861D01*
X40569Y108879D01*
X40625Y108924D01*
X40686Y108961D01*
X40720Y109001D01*
X40761Y109033D01*
X40800Y109093D01*
X40846Y109148D01*
X40866Y109196D01*
X40894Y109240D01*
X40911Y109309D01*
X40938Y109376D01*
X40946Y109447D01*
X40954Y109478D01*
X40952Y109502D01*
X40957Y109543D01*
X40957Y116433D01*
X40945Y116504D01*
X40943Y116576D01*
X40925Y116625D01*
X40917Y116676D01*
X40884Y116739D01*
X40859Y116807D01*
X40826Y116848D01*
X40802Y116893D01*
X40750Y116943D01*
X40705Y116999D01*
X40661Y117027D01*
X40624Y117063D01*
X40558Y117093D01*
X40498Y117132D01*
X40448Y117145D01*
X40401Y117166D01*
X40329Y117174D01*
X40260Y117192D01*
X40208Y117188D01*
X40156Y117194D01*
X40086Y117178D01*
X40014Y117173D01*
X39967Y117152D01*
X39916Y117141D01*
X39854Y117105D01*
X39788Y117076D01*
X39732Y117032D01*
X39705Y117015D01*
X39689Y116997D01*
X39657Y116972D01*
X39648Y116963D01*
X35279Y116963D01*
X32189Y120053D01*
X32189Y122885D01*
X32174Y122975D01*
X32167Y123066D01*
X32154Y123096D01*
X32149Y123128D01*
X32106Y123209D01*
X32071Y123293D01*
X32045Y123325D01*
X32034Y123345D01*
X32011Y123368D01*
X31966Y123424D01*
X27762Y127627D01*
X27688Y127680D01*
X27619Y127740D01*
X27589Y127752D01*
X27562Y127771D01*
X27475Y127798D01*
X27391Y127832D01*
X27350Y127836D01*
X27327Y127843D01*
X27295Y127842D01*
X27224Y127850D01*
X24031Y127850D01*
X23138Y128743D01*
X23138Y140007D01*
X24031Y140900D01*
X36294Y140900D01*
X37187Y140007D01*
X37187Y128726D01*
X37164Y128702D01*
X37142Y128654D01*
X37112Y128612D01*
X37091Y128544D01*
X37061Y128478D01*
X37055Y128427D01*
X37040Y128377D01*
X37042Y128305D01*
X37034Y128234D01*
X37045Y128183D01*
X37046Y128131D01*
X37071Y128064D01*
X37086Y127994D01*
X37113Y127949D01*
X37130Y127900D01*
X37175Y127844D01*
X37212Y127783D01*
X37252Y127749D01*
X37284Y127708D01*
X37344Y127669D01*
X37399Y127623D01*
X37447Y127603D01*
X37491Y127575D01*
X37561Y127558D01*
X37627Y127531D01*
X37698Y127523D01*
X37730Y127515D01*
X37753Y127517D01*
X37794Y127512D01*
X39648Y127512D01*
X39657Y127503D01*
X39715Y127462D01*
X39767Y127412D01*
X39815Y127390D01*
X39857Y127360D01*
X39926Y127339D01*
X39991Y127309D01*
X40042Y127303D01*
X40092Y127287D01*
X40164Y127289D01*
X40235Y127281D01*
X40286Y127292D01*
X40338Y127294D01*
X40405Y127318D01*
X40475Y127334D01*
X40520Y127360D01*
X40569Y127378D01*
X40625Y127423D01*
X40686Y127460D01*
X40720Y127499D01*
X40761Y127532D01*
X40800Y127592D01*
X40846Y127647D01*
X40866Y127695D01*
X40894Y127739D01*
X40911Y127808D01*
X40938Y127875D01*
X40946Y127946D01*
X40954Y127977D01*
X40952Y128001D01*
X40957Y128042D01*
X40957Y150014D01*
X42073Y151131D01*
X56352Y151131D01*
X57468Y150014D01*
X57468Y91286D01*
X57429Y91246D01*
X57387Y91188D01*
X57338Y91136D01*
X57316Y91089D01*
X57285Y91047D01*
X57264Y90978D01*
X57234Y90913D01*
X57228Y90861D01*
X57213Y90811D01*
X57215Y90740D01*
X57207Y90668D01*
X57218Y90618D01*
X57219Y90566D01*
X57244Y90498D01*
X57259Y90428D01*
X57286Y90383D01*
X57304Y90335D01*
X57349Y90279D01*
X57385Y90217D01*
X57425Y90183D01*
X57457Y90142D01*
X57518Y90104D01*
X57572Y90057D01*
X57621Y90038D01*
X57664Y90009D01*
X57734Y89992D01*
X57800Y89965D01*
X57872Y89957D01*
X57903Y89949D01*
X57926Y89951D01*
X57967Y89947D01*
X59508Y89947D01*
X59579Y89958D01*
X59650Y89960D01*
X59699Y89978D01*
X59751Y89986D01*
X59814Y90020D01*
X59881Y90045D01*
X59922Y90077D01*
X59968Y90101D01*
X60017Y90153D01*
X60073Y90198D01*
X60102Y90242D01*
X60137Y90280D01*
X60168Y90345D01*
X60206Y90405D01*
X60219Y90456D01*
X60241Y90503D01*
X60249Y90574D01*
X60266Y90644D01*
X60262Y90696D01*
X60268Y90747D01*
X60253Y90817D01*
X60247Y90889D01*
X60227Y90937D01*
X60216Y90988D01*
X60179Y91049D01*
X60151Y91115D01*
X60106Y91171D01*
X60090Y91199D01*
X60072Y91214D01*
X60046Y91246D01*
X60007Y91286D01*
X60007Y150014D01*
X61123Y151131D01*
X75402Y151131D01*
X76518Y150014D01*
X76518Y92873D01*
X73814Y90169D01*
X70984Y90169D01*
X70894Y90155D01*
X70803Y90147D01*
X70773Y90135D01*
X70741Y90130D01*
X70660Y90087D01*
X70576Y90051D01*
X70544Y90025D01*
X70524Y90014D01*
X70501Y89991D01*
X70445Y89946D01*
X65866Y85367D01*
X65854Y85351D01*
X65838Y85338D01*
X65782Y85251D01*
X65722Y85167D01*
X65717Y85148D01*
X65706Y85131D01*
X65680Y85031D01*
X65650Y84932D01*
X65651Y84912D01*
X65646Y84892D01*
X65654Y84789D01*
X65656Y84686D01*
X65663Y84667D01*
X65665Y84647D01*
X65675Y84624D01*
X65675Y79218D01*
X64782Y78325D01*
X57534Y78325D01*
X57444Y78310D01*
X57353Y78303D01*
X57323Y78291D01*
X57291Y78285D01*
X57210Y78243D01*
X57126Y78207D01*
X57094Y78181D01*
X57074Y78170D01*
X57051Y78147D01*
X56995Y78102D01*
X50742Y71849D01*
X50466Y71849D01*
X50376Y71835D01*
X50285Y71827D01*
X50255Y71815D01*
X50223Y71810D01*
X50142Y71767D01*
X50058Y71731D01*
X50026Y71705D01*
X50005Y71694D01*
X49983Y71671D01*
X49927Y71626D01*
X48689Y70388D01*
X48678Y70372D01*
X48662Y70360D01*
X48606Y70272D01*
X48546Y70189D01*
X48540Y70170D01*
X48529Y70153D01*
X48504Y70052D01*
X48473Y69953D01*
X48474Y69934D01*
X48469Y69914D01*
X48477Y69811D01*
X48480Y69708D01*
X48487Y69689D01*
X48488Y69669D01*
X48529Y69574D01*
X48564Y69477D01*
X48577Y69461D01*
X48584Y69443D01*
X48689Y69312D01*
X49927Y68074D01*
X50001Y68021D01*
X50071Y67961D01*
X50101Y67949D01*
X50127Y67930D01*
X50214Y67903D01*
X50299Y67869D01*
X50340Y67865D01*
X50362Y67858D01*
X50394Y67859D01*
X50466Y67851D01*
X50742Y67851D01*
X56995Y61598D01*
X57069Y61545D01*
X57139Y61485D01*
X57169Y61473D01*
X57195Y61454D01*
X57282Y61427D01*
X57367Y61393D01*
X57408Y61389D01*
X57430Y61382D01*
X57462Y61383D01*
X57534Y61375D01*
X64782Y61375D01*
X65675Y60482D01*
X65675Y55218D01*
X64782Y54325D01*
X49410Y54325D01*
X49354Y54351D01*
X49302Y54357D01*
X49253Y54372D01*
X49181Y54371D01*
X49110Y54378D01*
X49059Y54367D01*
X49007Y54366D01*
X48939Y54341D01*
X48869Y54326D01*
X48825Y54300D01*
X48776Y54282D01*
X48720Y54237D01*
X48658Y54200D01*
X48624Y54161D01*
X48584Y54128D01*
X48545Y54068D01*
X48498Y54013D01*
X48479Y53965D01*
X48451Y53921D01*
X48433Y53852D01*
X48406Y53785D01*
X48398Y53714D01*
X48390Y53683D01*
X48392Y53659D01*
X48388Y53618D01*
X48388Y49593D01*
X48391Y49574D01*
X48389Y49554D01*
X48411Y49453D01*
X48427Y49351D01*
X48437Y49333D01*
X48441Y49314D01*
X48494Y49225D01*
X48543Y49133D01*
X48557Y49120D01*
X48567Y49103D01*
X48646Y49035D01*
X48721Y48964D01*
X48739Y48956D01*
X48754Y48943D01*
X48850Y48904D01*
X48944Y48860D01*
X48964Y48858D01*
X48982Y48851D01*
X49149Y48832D01*
X66341Y48832D01*
X66431Y48847D01*
G37*
%LPC*%
G36*
X-62654Y212904D02*
X-62654Y212904D01*
X-62657Y212903D01*
X-62662Y212904D01*
X-63291Y212901D01*
X-63732Y213348D01*
X-63735Y213350D01*
X-63738Y213354D01*
X-64185Y213798D01*
X-64181Y214425D01*
X-64181Y214428D01*
X-64181Y214433D01*
X-64184Y215266D01*
X-64181Y215276D01*
X-64182Y215307D01*
X-64175Y215372D01*
X-63628Y296943D01*
X-63628Y296945D01*
X-63628Y296948D01*
X-63628Y297578D01*
X-63180Y298020D01*
X-63179Y298021D01*
X-63176Y298023D01*
X-62731Y298470D01*
X-62102Y298465D01*
X-62100Y298466D01*
X-62097Y298465D01*
X23500Y298494D01*
X23556Y298503D01*
X23613Y298503D01*
X23676Y298523D01*
X23742Y298534D01*
X23774Y298551D01*
X24362Y298497D01*
X24386Y298499D01*
X24431Y298494D01*
X25013Y298495D01*
X25020Y298489D01*
X25074Y298473D01*
X25125Y298447D01*
X25225Y298426D01*
X25255Y298417D01*
X25268Y298417D01*
X25289Y298413D01*
X29310Y298048D01*
X29350Y298051D01*
X29389Y298045D01*
X29472Y298060D01*
X29556Y298066D01*
X29592Y298081D01*
X29631Y298088D01*
X29643Y298093D01*
X30129Y297981D01*
X30161Y297979D01*
X30232Y297964D01*
X30743Y297918D01*
X30803Y297866D01*
X30840Y297850D01*
X30872Y297828D01*
X31030Y297772D01*
X31031Y297772D01*
X35022Y296849D01*
X35061Y296846D01*
X35099Y296835D01*
X35183Y296838D01*
X35267Y296833D01*
X35305Y296843D01*
X35345Y296845D01*
X35357Y296848D01*
X35823Y296671D01*
X35855Y296664D01*
X35923Y296640D01*
X36423Y296525D01*
X36475Y296465D01*
X36510Y296445D01*
X36539Y296418D01*
X36688Y296341D01*
X40516Y294882D01*
X40555Y294874D01*
X40591Y294858D01*
X40674Y294850D01*
X40757Y294833D01*
X40796Y294838D01*
X40835Y294834D01*
X40848Y294836D01*
X41286Y294596D01*
X41316Y294586D01*
X41380Y294553D01*
X41860Y294370D01*
X41904Y294303D01*
X41935Y294279D01*
X41960Y294248D01*
X42097Y294152D01*
X45691Y292185D01*
X45728Y292172D01*
X45762Y292151D01*
X45843Y292131D01*
X45923Y292103D01*
X45962Y292103D01*
X46001Y292093D01*
X46013Y292094D01*
X46414Y291797D01*
X46443Y291782D01*
X46502Y291741D01*
X46952Y291494D01*
X46987Y291422D01*
X47014Y291394D01*
X47035Y291360D01*
X47158Y291246D01*
X50449Y288807D01*
X50485Y288789D01*
X50515Y288764D01*
X50593Y288733D01*
X50668Y288695D01*
X50707Y288689D01*
X50744Y288674D01*
X50757Y288673D01*
X51113Y288324D01*
X51140Y288306D01*
X51193Y288257D01*
X51605Y287951D01*
X51629Y287875D01*
X51653Y287843D01*
X51669Y287807D01*
X51775Y287677D01*
X54703Y284812D01*
X54735Y284790D01*
X54762Y284760D01*
X54836Y284719D01*
X54904Y284671D01*
X54942Y284660D01*
X54977Y284641D01*
X54989Y284638D01*
X55295Y284243D01*
X55319Y284221D01*
X55364Y284165D01*
X55731Y283807D01*
X55745Y283728D01*
X55764Y283693D01*
X55775Y283655D01*
X55862Y283512D01*
X58373Y280275D01*
X58402Y280248D01*
X58424Y280215D01*
X58491Y280165D01*
X58553Y280107D01*
X58589Y280091D01*
X58620Y280067D01*
X58632Y280062D01*
X58881Y279630D01*
X58902Y279605D01*
X58939Y279544D01*
X59254Y279138D01*
X59257Y279059D01*
X59271Y279021D01*
X59276Y278982D01*
X59343Y278829D01*
X61389Y275279D01*
X61414Y275249D01*
X61432Y275213D01*
X61491Y275154D01*
X61545Y275089D01*
X61578Y275068D01*
X61606Y275040D01*
X61617Y275034D01*
X61805Y274571D01*
X61822Y274544D01*
X61851Y274478D01*
X62107Y274033D01*
X62099Y273954D01*
X62108Y273915D01*
X62108Y273876D01*
X62154Y273714D01*
X63696Y269919D01*
X63717Y269885D01*
X63730Y269848D01*
X63781Y269781D01*
X63824Y269709D01*
X63855Y269684D01*
X63879Y269652D01*
X63889Y269645D01*
X64012Y269161D01*
X64025Y269131D01*
X64045Y269062D01*
X64238Y268587D01*
X64219Y268509D01*
X64222Y268470D01*
X64217Y268431D01*
X64240Y268264D01*
X65251Y264294D01*
X65267Y264258D01*
X65274Y264219D01*
X65316Y264146D01*
X65349Y264069D01*
X65376Y264040D01*
X65395Y264005D01*
X65404Y263996D01*
X65461Y263500D01*
X65469Y263469D01*
X65479Y263398D01*
X65606Y262901D01*
X65577Y262826D01*
X65575Y262787D01*
X65564Y262749D01*
X65564Y262581D01*
X66024Y258510D01*
X66035Y258472D01*
X66037Y258433D01*
X66068Y258355D01*
X66091Y258274D01*
X66114Y258241D01*
X66128Y258204D01*
X66136Y258194D01*
X66124Y257695D01*
X66128Y257663D01*
X66128Y257591D01*
X66186Y257081D01*
X66147Y257012D01*
X66139Y256973D01*
X66124Y256936D01*
X66101Y256770D01*
X66002Y252675D01*
X66007Y252636D01*
X66004Y252596D01*
X66024Y252514D01*
X66036Y252431D01*
X66053Y252396D01*
X66063Y252357D01*
X66069Y252346D01*
X65989Y251854D01*
X65989Y251821D01*
X65980Y251750D01*
X65967Y251237D01*
X65919Y251173D01*
X65906Y251136D01*
X65886Y251102D01*
X65841Y250940D01*
X65184Y246897D01*
X65184Y246857D01*
X65176Y246819D01*
X65184Y246735D01*
X65184Y246651D01*
X65197Y246613D01*
X65201Y246574D01*
X65206Y246562D01*
X65059Y246085D01*
X65055Y246053D01*
X65036Y245983D01*
X64954Y245477D01*
X64897Y245421D01*
X64880Y245385D01*
X64855Y245355D01*
X64788Y245201D01*
X64788Y245200D01*
X63586Y241284D01*
X63581Y241245D01*
X63567Y241208D01*
X63564Y241124D01*
X63553Y241041D01*
X63557Y241021D01*
X63556Y241015D01*
X63560Y240996D01*
X63559Y240962D01*
X63562Y240950D01*
X63352Y240497D01*
X63343Y240466D01*
X63315Y240400D01*
X63164Y239910D01*
X63101Y239861D01*
X63078Y239828D01*
X63049Y239801D01*
X62963Y239658D01*
X62962Y239658D01*
X61238Y235942D01*
X61227Y235904D01*
X61209Y235869D01*
X61194Y235786D01*
X61172Y235705D01*
X61174Y235666D01*
X61167Y235627D01*
X61168Y235614D01*
X60898Y235194D01*
X60886Y235164D01*
X60848Y235103D01*
X60632Y234638D01*
X60563Y234598D01*
X60536Y234569D01*
X60504Y234546D01*
X60398Y234416D01*
X58183Y230970D01*
X58167Y230933D01*
X58144Y230902D01*
X58119Y230821D01*
X58085Y230744D01*
X58082Y230705D01*
X58070Y230667D01*
X58070Y230654D01*
X57745Y230275D01*
X57728Y230247D01*
X57683Y230191D01*
X57406Y229760D01*
X57331Y229731D01*
X57301Y229705D01*
X57266Y229687D01*
X57143Y229572D01*
X54479Y226460D01*
X54458Y226427D01*
X54431Y226398D01*
X54395Y226322D01*
X54351Y226250D01*
X54343Y226212D01*
X54326Y226176D01*
X54324Y226163D01*
X53950Y225832D01*
X53930Y225807D01*
X53877Y225758D01*
X53544Y225368D01*
X53466Y225349D01*
X53433Y225328D01*
X53395Y225315D01*
X53258Y225218D01*
X50195Y222498D01*
X50170Y222468D01*
X50139Y222443D01*
X50092Y222373D01*
X50039Y222307D01*
X50026Y222270D01*
X50004Y222237D01*
X50000Y222225D01*
X49585Y221948D01*
X49562Y221926D01*
X49503Y221884D01*
X49119Y221544D01*
X49040Y221535D01*
X49004Y221519D01*
X48965Y221511D01*
X48816Y221434D01*
X45410Y219157D01*
X45381Y219130D01*
X45347Y219110D01*
X45292Y219047D01*
X45230Y218989D01*
X45212Y218955D01*
X45186Y218925D01*
X45180Y218913D01*
X44731Y218695D01*
X44705Y218677D01*
X44641Y218643D01*
X44215Y218358D01*
X44135Y218361D01*
X44097Y218350D01*
X44057Y218347D01*
X43899Y218291D01*
X43899Y218290D01*
X40215Y216500D01*
X40182Y216477D01*
X40146Y216462D01*
X40082Y216406D01*
X40014Y216358D01*
X39990Y216326D01*
X39961Y216300D01*
X39954Y216289D01*
X39479Y216134D01*
X39451Y216120D01*
X39383Y216095D01*
X38921Y215871D01*
X38842Y215885D01*
X38803Y215879D01*
X38764Y215881D01*
X38600Y215847D01*
X34706Y214576D01*
X34670Y214557D01*
X34632Y214547D01*
X34562Y214501D01*
X34487Y214462D01*
X34460Y214434D01*
X34426Y214412D01*
X34418Y214403D01*
X33927Y214314D01*
X33897Y214303D01*
X33826Y214288D01*
X33339Y214129D01*
X33262Y214153D01*
X33223Y214153D01*
X33184Y214161D01*
X33017Y214149D01*
X33016Y214149D01*
X28938Y213412D01*
X28914Y213403D01*
X28889Y213401D01*
X28799Y213362D01*
X28706Y213329D01*
X28686Y213314D01*
X28663Y213304D01*
X28611Y213262D01*
X28164Y213260D01*
X28133Y213255D01*
X28032Y213248D01*
X27588Y213168D01*
X27547Y213184D01*
X27459Y213226D01*
X27434Y213229D01*
X27410Y213239D01*
X27244Y213256D01*
X-61718Y212908D01*
X-61775Y212898D01*
X-62654Y212904D01*
G37*
%LPD*%
G36*
X-91302Y80778D02*
X-91302Y80778D01*
X-91254Y80777D01*
X-90882Y80814D01*
X-90854Y80821D01*
X-90826Y80822D01*
X-90665Y80868D01*
X-89978Y81153D01*
X-89954Y81168D01*
X-89927Y81176D01*
X-89786Y81268D01*
X-89497Y81505D01*
X-89480Y81525D01*
X-89442Y81555D01*
X-89420Y81577D01*
X-71534Y99463D01*
X-71529Y99470D01*
X-69525Y101474D01*
X-66700Y101474D01*
X-66682Y101472D01*
X-59278Y101472D01*
X-59207Y101483D01*
X-59135Y101485D01*
X-59086Y101503D01*
X-59035Y101511D01*
X-58972Y101545D01*
X-58904Y101570D01*
X-58864Y101602D01*
X-58818Y101627D01*
X-58768Y101678D01*
X-58712Y101723D01*
X-58684Y101767D01*
X-58648Y101805D01*
X-58618Y101870D01*
X-58579Y101930D01*
X-58566Y101981D01*
X-58545Y102028D01*
X-58537Y102099D01*
X-58519Y102169D01*
X-58523Y102221D01*
X-58517Y102272D01*
X-58533Y102343D01*
X-58538Y102414D01*
X-58559Y102462D01*
X-58570Y102513D01*
X-58607Y102574D01*
X-58635Y102640D01*
X-58679Y102696D01*
X-58696Y102724D01*
X-58714Y102739D01*
X-58739Y102771D01*
X-75442Y119474D01*
X-75516Y119527D01*
X-75585Y119586D01*
X-75616Y119599D01*
X-75642Y119617D01*
X-75729Y119644D01*
X-75814Y119678D01*
X-75854Y119683D01*
X-75877Y119690D01*
X-75909Y119689D01*
X-75980Y119697D01*
X-92246Y119697D01*
X-92360Y119678D01*
X-92477Y119661D01*
X-92482Y119658D01*
X-92488Y119657D01*
X-92591Y119603D01*
X-92696Y119549D01*
X-92700Y119545D01*
X-92706Y119542D01*
X-92786Y119458D01*
X-92868Y119374D01*
X-92872Y119367D01*
X-92875Y119364D01*
X-92883Y119347D01*
X-92949Y119227D01*
X-93847Y117057D01*
X-96420Y114485D01*
X-99781Y113093D01*
X-103419Y113093D01*
X-106780Y114485D01*
X-109353Y117057D01*
X-110745Y120419D01*
X-110745Y124056D01*
X-109353Y127418D01*
X-106780Y129990D01*
X-103419Y131382D01*
X-99781Y131382D01*
X-96420Y129990D01*
X-93847Y127418D01*
X-92949Y125248D01*
X-92887Y125149D01*
X-92827Y125049D01*
X-92823Y125044D01*
X-92819Y125039D01*
X-92729Y124965D01*
X-92640Y124889D01*
X-92635Y124886D01*
X-92630Y124882D01*
X-92521Y124841D01*
X-92412Y124797D01*
X-92405Y124796D01*
X-92400Y124794D01*
X-92382Y124793D01*
X-92246Y124778D01*
X-73560Y124778D01*
X-71849Y123067D01*
X-54362Y105580D01*
X-54304Y105538D01*
X-54252Y105489D01*
X-54204Y105467D01*
X-54162Y105436D01*
X-54094Y105415D01*
X-54028Y105385D01*
X-53977Y105379D01*
X-53927Y105364D01*
X-53855Y105366D01*
X-53784Y105358D01*
X-53733Y105369D01*
X-53681Y105370D01*
X-53614Y105395D01*
X-53544Y105410D01*
X-53499Y105437D01*
X-53450Y105455D01*
X-53394Y105500D01*
X-53333Y105536D01*
X-53299Y105576D01*
X-53258Y105609D01*
X-53219Y105669D01*
X-53173Y105723D01*
X-53153Y105772D01*
X-53125Y105815D01*
X-53108Y105885D01*
X-53081Y105951D01*
X-53073Y106023D01*
X-53065Y106054D01*
X-53067Y106077D01*
X-53062Y106118D01*
X-53062Y112654D01*
X-53077Y112744D01*
X-53084Y112835D01*
X-53097Y112865D01*
X-53102Y112897D01*
X-53145Y112977D01*
X-53180Y113061D01*
X-53206Y113093D01*
X-53217Y113114D01*
X-53240Y113136D01*
X-53285Y113192D01*
X-84967Y144874D01*
X-85041Y144927D01*
X-85110Y144986D01*
X-85141Y144999D01*
X-85167Y145017D01*
X-85254Y145044D01*
X-85339Y145078D01*
X-85379Y145083D01*
X-85402Y145090D01*
X-85434Y145089D01*
X-85505Y145097D01*
X-92246Y145097D01*
X-92360Y145078D01*
X-92477Y145061D01*
X-92482Y145058D01*
X-92488Y145057D01*
X-92591Y145003D01*
X-92696Y144949D01*
X-92700Y144945D01*
X-92706Y144942D01*
X-92786Y144858D01*
X-92868Y144774D01*
X-92872Y144767D01*
X-92875Y144764D01*
X-92883Y144747D01*
X-92949Y144627D01*
X-93847Y142457D01*
X-96420Y139885D01*
X-99781Y138493D01*
X-103419Y138493D01*
X-106780Y139885D01*
X-109353Y142457D01*
X-110745Y145819D01*
X-110745Y149456D01*
X-109353Y152818D01*
X-106780Y155390D01*
X-103419Y156782D01*
X-99781Y156782D01*
X-96420Y155390D01*
X-93847Y152818D01*
X-92949Y150648D01*
X-92887Y150549D01*
X-92827Y150449D01*
X-92823Y150444D01*
X-92819Y150439D01*
X-92729Y150365D01*
X-92640Y150289D01*
X-92635Y150286D01*
X-92630Y150282D01*
X-92521Y150241D01*
X-92412Y150197D01*
X-92405Y150196D01*
X-92400Y150194D01*
X-92382Y150193D01*
X-92246Y150178D01*
X-83085Y150178D01*
X-50217Y117310D01*
X-50143Y117257D01*
X-50074Y117198D01*
X-50043Y117185D01*
X-50017Y117167D01*
X-49930Y117140D01*
X-49845Y117106D01*
X-49805Y117101D01*
X-49782Y117094D01*
X-49750Y117095D01*
X-49679Y117087D01*
X-39906Y117087D01*
X-39013Y116194D01*
X-39013Y110184D01*
X-39010Y110164D01*
X-39012Y110145D01*
X-38990Y110043D01*
X-38973Y109941D01*
X-38964Y109924D01*
X-38959Y109904D01*
X-38906Y109815D01*
X-38858Y109724D01*
X-38844Y109710D01*
X-38833Y109693D01*
X-38755Y109626D01*
X-38680Y109554D01*
X-38662Y109546D01*
X-38646Y109533D01*
X-38550Y109494D01*
X-38457Y109451D01*
X-38437Y109449D01*
X-38418Y109441D01*
X-38252Y109423D01*
X-36379Y109423D01*
X-36289Y109437D01*
X-36198Y109445D01*
X-36168Y109457D01*
X-36137Y109462D01*
X-36056Y109505D01*
X-35972Y109541D01*
X-35940Y109567D01*
X-35919Y109578D01*
X-35897Y109601D01*
X-35841Y109646D01*
X-35594Y109893D01*
X-29691Y109893D01*
X-29672Y109896D01*
X-29652Y109894D01*
X-29551Y109916D01*
X-29449Y109932D01*
X-29431Y109942D01*
X-29412Y109946D01*
X-29323Y109999D01*
X-29231Y110047D01*
X-29218Y110062D01*
X-29200Y110072D01*
X-29133Y110151D01*
X-29062Y110226D01*
X-29054Y110244D01*
X-29041Y110259D01*
X-29002Y110355D01*
X-28958Y110449D01*
X-28956Y110469D01*
X-28949Y110487D01*
X-28930Y110654D01*
X-28930Y116557D01*
X-28037Y117450D01*
X-23729Y117450D01*
X-23722Y117445D01*
X-23621Y117420D01*
X-23523Y117389D01*
X-23503Y117390D01*
X-23483Y117385D01*
X-23380Y117393D01*
X-23277Y117395D01*
X-23258Y117402D01*
X-23238Y117404D01*
X-23143Y117444D01*
X-23128Y117450D01*
X-18729Y117450D01*
X-18720Y117444D01*
X-18620Y117419D01*
X-18521Y117389D01*
X-18501Y117389D01*
X-18482Y117384D01*
X-18379Y117392D01*
X-18275Y117395D01*
X-18256Y117402D01*
X-18237Y117403D01*
X-18142Y117444D01*
X-18125Y117450D01*
X-17794Y117450D01*
X-17724Y117461D01*
X-17652Y117463D01*
X-17603Y117481D01*
X-17551Y117489D01*
X-17488Y117523D01*
X-17421Y117548D01*
X-17380Y117580D01*
X-17334Y117605D01*
X-17285Y117657D01*
X-17229Y117701D01*
X-17201Y117745D01*
X-17165Y117783D01*
X-17135Y117848D01*
X-17096Y117908D01*
X-17083Y117959D01*
X-17061Y118006D01*
X-17053Y118077D01*
X-17036Y118147D01*
X-17040Y118199D01*
X-17034Y118250D01*
X-17049Y118321D01*
X-17055Y118392D01*
X-17075Y118440D01*
X-17086Y118491D01*
X-17123Y118552D01*
X-17151Y118618D01*
X-17196Y118674D01*
X-17212Y118702D01*
X-17230Y118717D01*
X-17256Y118749D01*
X-105507Y207000D01*
X-105558Y207037D01*
X-105603Y207081D01*
X-105657Y207108D01*
X-105707Y207144D01*
X-105767Y207162D01*
X-105823Y207190D01*
X-105884Y207198D01*
X-105942Y207216D01*
X-106005Y207215D01*
X-106067Y207223D01*
X-106127Y207212D01*
X-106188Y207210D01*
X-106247Y207188D01*
X-106308Y207177D01*
X-106362Y207146D01*
X-106419Y207126D01*
X-106468Y207086D01*
X-106522Y207056D01*
X-106585Y206992D01*
X-106611Y206972D01*
X-106620Y206957D01*
X-106641Y206937D01*
X-107936Y205312D01*
X-107953Y205281D01*
X-107976Y205256D01*
X-108013Y205174D01*
X-108056Y205097D01*
X-108063Y205063D01*
X-108077Y205031D01*
X-108088Y204953D01*
X-108560Y204515D01*
X-108580Y204489D01*
X-108637Y204431D01*
X-109037Y203930D01*
X-109103Y203905D01*
X-109189Y203881D01*
X-109218Y203861D01*
X-109250Y203849D01*
X-109385Y203749D01*
X-111000Y202249D01*
X-111021Y202222D01*
X-111048Y202200D01*
X-111096Y202125D01*
X-111151Y202055D01*
X-111162Y202022D01*
X-111181Y201993D01*
X-111204Y201917D01*
X-111736Y201554D01*
X-111760Y201532D01*
X-111825Y201483D01*
X-112294Y201048D01*
X-112364Y201032D01*
X-112453Y201021D01*
X-112484Y201006D01*
X-112518Y200999D01*
X-112666Y200920D01*
X-114487Y199678D01*
X-114512Y199654D01*
X-114542Y199636D01*
X-114600Y199570D01*
X-114665Y199508D01*
X-114681Y199478D01*
X-114704Y199451D01*
X-114738Y199380D01*
X-115318Y199100D01*
X-115345Y199082D01*
X-115416Y199043D01*
X-115945Y198683D01*
X-116017Y198678D01*
X-116106Y198680D01*
X-116139Y198670D01*
X-116174Y198667D01*
X-116332Y198612D01*
X-118317Y197655D01*
X-118346Y197635D01*
X-118378Y197622D01*
X-118446Y197565D01*
X-118519Y197514D01*
X-118539Y197486D01*
X-118566Y197463D01*
X-118610Y197398D01*
X-119225Y197208D01*
X-119255Y197193D01*
X-119331Y197166D01*
X-119908Y196888D01*
X-119980Y196894D01*
X-120067Y196909D01*
X-120101Y196904D01*
X-120136Y196907D01*
X-120301Y196876D01*
X-122407Y196225D01*
X-122438Y196210D01*
X-122472Y196202D01*
X-122548Y196155D01*
X-122627Y196116D01*
X-122651Y196091D01*
X-122681Y196073D01*
X-122735Y196015D01*
X-123371Y195918D01*
X-123403Y195908D01*
X-123482Y195893D01*
X-124094Y195704D01*
X-124164Y195721D01*
X-124248Y195749D01*
X-124283Y195749D01*
X-124317Y195757D01*
X-124484Y195750D01*
X-126664Y195421D01*
X-126697Y195410D01*
X-126731Y195408D01*
X-126813Y195373D01*
X-126898Y195346D01*
X-126926Y195325D01*
X-126958Y195311D01*
X-127019Y195262D01*
X-127663Y195262D01*
X-127696Y195256D01*
X-127777Y195253D01*
X-128410Y195157D01*
X-128476Y195184D01*
X-128555Y195225D01*
X-128590Y195230D01*
X-128622Y195243D01*
X-128789Y195261D01*
X-130993Y195260D01*
X-131027Y195255D01*
X-131062Y195257D01*
X-131148Y195235D01*
X-131235Y195221D01*
X-131266Y195204D01*
X-131300Y195196D01*
X-131368Y195156D01*
X-132005Y195252D01*
X-132038Y195251D01*
X-132118Y195260D01*
X-132759Y195260D01*
X-132821Y195296D01*
X-132893Y195348D01*
X-132926Y195358D01*
X-132956Y195376D01*
X-133118Y195419D01*
X-135298Y195747D01*
X-135332Y195746D01*
X-135366Y195754D01*
X-135454Y195745D01*
X-135543Y195744D01*
X-135576Y195732D01*
X-135611Y195729D01*
X-135685Y195699D01*
X-136300Y195889D01*
X-136332Y195893D01*
X-136411Y195914D01*
X-137044Y196009D01*
X-137099Y196055D01*
X-137163Y196117D01*
X-137194Y196132D01*
X-137221Y196154D01*
X-137375Y196220D01*
X-139482Y196869D01*
X-139510Y196873D01*
X-139536Y196884D01*
X-139543Y196884D01*
X-139548Y196887D01*
X-139573Y196888D01*
X-139703Y196902D01*
X-139709Y196902D01*
X-139714Y196901D01*
X-139725Y196903D01*
X-139759Y196896D01*
X-139794Y196898D01*
X-139871Y196880D01*
X-140451Y197159D01*
X-140483Y197169D01*
X-140557Y197201D01*
X-141169Y197389D01*
X-141218Y197442D01*
X-141271Y197513D01*
X-141300Y197533D01*
X-141323Y197558D01*
X-141466Y197647D01*
X-143346Y198552D01*
X-143407Y198570D01*
X-143464Y198597D01*
X-143524Y198605D01*
X-143582Y198622D01*
X-143630Y198620D01*
X-144322Y199019D01*
X-144341Y199027D01*
X-144372Y199046D01*
X-144603Y199157D01*
X-144713Y199189D01*
X-144822Y199224D01*
X-144831Y199224D01*
X-144839Y199227D01*
X-144953Y199222D01*
X-145068Y199220D01*
X-145076Y199218D01*
X-145085Y199217D01*
X-145192Y199177D01*
X-145300Y199139D01*
X-145307Y199133D01*
X-145315Y199130D01*
X-145403Y199057D01*
X-145493Y198987D01*
X-145500Y198978D01*
X-145505Y198974D01*
X-145518Y198954D01*
X-145593Y198852D01*
X-173732Y150114D01*
X-173756Y150050D01*
X-173789Y149991D01*
X-173799Y149936D01*
X-173819Y149884D01*
X-173822Y149816D01*
X-173834Y149750D01*
X-173826Y149694D01*
X-173828Y149638D01*
X-173809Y149573D01*
X-173800Y149506D01*
X-173768Y149434D01*
X-173759Y149402D01*
X-173747Y149385D01*
X-173732Y149352D01*
X-173695Y149288D01*
X-173696Y149285D01*
X-173690Y149209D01*
X-173691Y149132D01*
X-173681Y149108D01*
X-173680Y149087D01*
X-173659Y149048D01*
X-173640Y148996D01*
X-173639Y148990D01*
X-173637Y148988D01*
X-173633Y148976D01*
X-164133Y132476D01*
X-164114Y132454D01*
X-164101Y132428D01*
X-164048Y132380D01*
X-164001Y132327D01*
X-163975Y132314D01*
X-163954Y132295D01*
X-163886Y132272D01*
X-163865Y132261D01*
X-145143Y99835D01*
X-145131Y99820D01*
X-145123Y99802D01*
X-145090Y99766D01*
X-145070Y99732D01*
X-145033Y99701D01*
X-144987Y99645D01*
X-144971Y99635D01*
X-144957Y99620D01*
X-144903Y99590D01*
X-144883Y99573D01*
X-144851Y99560D01*
X-144779Y99514D01*
X-144760Y99510D01*
X-144742Y99500D01*
X-144669Y99486D01*
X-144655Y99481D01*
X-144625Y99477D01*
X-144540Y99457D01*
X-144520Y99459D01*
X-144501Y99455D01*
X-144398Y99470D01*
X-144295Y99479D01*
X-144277Y99487D01*
X-144257Y99489D01*
X-144229Y99502D01*
X-144228Y99502D01*
X-144103Y99557D01*
X-143639Y99825D01*
X-143629Y99824D01*
X-143568Y99838D01*
X-143505Y99842D01*
X-143421Y99871D01*
X-143389Y99879D01*
X-143374Y99888D01*
X-143346Y99898D01*
X-141466Y100803D01*
X-141437Y100823D01*
X-141405Y100835D01*
X-141337Y100893D01*
X-141264Y100944D01*
X-141244Y100972D01*
X-141217Y100994D01*
X-141172Y101060D01*
X-140557Y101249D01*
X-140528Y101264D01*
X-140451Y101291D01*
X-139874Y101568D01*
X-139803Y101562D01*
X-139715Y101547D01*
X-139681Y101552D01*
X-139647Y101549D01*
X-139482Y101581D01*
X-137375Y102230D01*
X-137344Y102245D01*
X-137310Y102253D01*
X-137235Y102299D01*
X-137155Y102339D01*
X-137130Y102364D01*
X-137101Y102382D01*
X-137047Y102440D01*
X-136411Y102536D01*
X-136379Y102546D01*
X-136300Y102561D01*
X-135688Y102750D01*
X-135618Y102733D01*
X-135534Y102705D01*
X-135499Y102705D01*
X-135465Y102697D01*
X-135298Y102703D01*
X-133118Y103031D01*
X-133085Y103042D01*
X-133050Y103044D01*
X-132968Y103079D01*
X-132884Y103106D01*
X-132856Y103127D01*
X-132824Y103141D01*
X-132762Y103190D01*
X-132118Y103190D01*
X-132086Y103195D01*
X-132005Y103198D01*
X-131372Y103294D01*
X-131305Y103267D01*
X-131226Y103226D01*
X-131192Y103221D01*
X-131159Y103208D01*
X-130993Y103190D01*
X-128789Y103189D01*
X-128754Y103194D01*
X-128720Y103192D01*
X-128634Y103214D01*
X-128546Y103228D01*
X-128515Y103245D01*
X-128482Y103253D01*
X-128413Y103293D01*
X-127777Y103197D01*
X-127744Y103197D01*
X-127663Y103188D01*
X-127023Y103188D01*
X-126961Y103152D01*
X-126889Y103100D01*
X-126856Y103090D01*
X-126826Y103072D01*
X-126664Y103029D01*
X-124484Y102700D01*
X-124449Y102700D01*
X-124416Y102692D01*
X-124327Y102702D01*
X-124238Y102703D01*
X-124206Y102714D01*
X-124171Y102718D01*
X-124097Y102747D01*
X-123482Y102557D01*
X-123450Y102552D01*
X-123371Y102532D01*
X-122738Y102436D01*
X-122683Y102391D01*
X-122619Y102329D01*
X-122588Y102314D01*
X-122561Y102292D01*
X-122407Y102225D01*
X-120301Y101574D01*
X-120266Y101570D01*
X-120234Y101557D01*
X-120145Y101553D01*
X-120057Y101541D01*
X-120023Y101547D01*
X-119988Y101546D01*
X-119911Y101563D01*
X-119331Y101284D01*
X-119300Y101275D01*
X-119225Y101242D01*
X-118613Y101053D01*
X-118565Y101000D01*
X-118511Y100929D01*
X-118483Y100910D01*
X-118459Y100884D01*
X-118317Y100795D01*
X-116332Y99838D01*
X-116299Y99828D01*
X-116268Y99811D01*
X-116181Y99794D01*
X-116096Y99769D01*
X-116061Y99770D01*
X-116027Y99763D01*
X-115948Y99769D01*
X-115416Y99407D01*
X-115386Y99393D01*
X-115318Y99350D01*
X-114741Y99072D01*
X-114701Y99012D01*
X-114659Y98934D01*
X-114633Y98910D01*
X-114614Y98881D01*
X-114487Y98772D01*
X-112666Y97530D01*
X-112634Y97515D01*
X-112607Y97494D01*
X-112524Y97464D01*
X-112443Y97426D01*
X-112408Y97422D01*
X-112376Y97410D01*
X-112297Y97405D01*
X-111825Y96967D01*
X-111798Y96948D01*
X-111736Y96896D01*
X-111207Y96535D01*
X-111177Y96470D01*
X-111146Y96386D01*
X-111125Y96359D01*
X-111110Y96328D01*
X-111000Y96201D01*
X-109385Y94701D01*
X-109356Y94682D01*
X-109332Y94657D01*
X-109254Y94614D01*
X-109180Y94565D01*
X-109147Y94556D01*
X-109116Y94540D01*
X-109039Y94522D01*
X-108637Y94019D01*
X-108613Y93996D01*
X-108560Y93935D01*
X-108091Y93500D01*
X-108070Y93431D01*
X-108053Y93344D01*
X-108035Y93314D01*
X-108025Y93280D01*
X-107936Y93138D01*
X-106562Y91415D01*
X-106537Y91392D01*
X-106517Y91363D01*
X-106446Y91309D01*
X-106380Y91250D01*
X-106348Y91236D01*
X-106320Y91215D01*
X-106246Y91186D01*
X-105925Y90629D01*
X-105904Y90603D01*
X-105861Y90535D01*
X-105462Y90034D01*
X-105452Y89963D01*
X-105447Y89874D01*
X-105435Y89842D01*
X-105430Y89807D01*
X-105362Y89654D01*
X-104261Y87744D01*
X-104239Y87718D01*
X-104224Y87686D01*
X-104161Y87623D01*
X-104105Y87554D01*
X-104076Y87536D01*
X-104052Y87511D01*
X-103983Y87471D01*
X-103748Y86872D01*
X-103731Y86844D01*
X-103698Y86770D01*
X-103378Y86215D01*
X-103379Y86143D01*
X-103388Y86055D01*
X-103380Y86021D01*
X-103381Y85986D01*
X-103337Y85824D01*
X-102532Y83772D01*
X-102515Y83742D01*
X-102504Y83709D01*
X-102452Y83637D01*
X-102407Y83561D01*
X-102380Y83538D01*
X-102360Y83510D01*
X-102298Y83461D01*
X-102155Y82833D01*
X-102143Y82802D01*
X-102121Y82724D01*
X-101888Y82128D01*
X-101899Y82057D01*
X-101921Y81971D01*
X-101918Y81937D01*
X-101924Y81902D01*
X-101905Y81736D01*
X-101821Y81366D01*
X-101799Y81312D01*
X-101786Y81255D01*
X-101753Y81199D01*
X-101728Y81138D01*
X-101690Y81094D01*
X-101660Y81044D01*
X-101610Y81001D01*
X-101567Y80952D01*
X-101517Y80922D01*
X-101473Y80884D01*
X-101412Y80860D01*
X-101356Y80826D01*
X-101299Y80814D01*
X-101245Y80792D01*
X-101146Y80781D01*
X-101115Y80775D01*
X-101101Y80776D01*
X-101078Y80774D01*
X-91328Y80774D01*
X-91302Y80778D01*
G37*
G36*
X21632Y49792D02*
X21632Y49792D01*
X21735Y49795D01*
X21754Y49802D01*
X21774Y49803D01*
X21868Y49844D01*
X21885Y49850D01*
X26284Y49850D01*
X26291Y49845D01*
X26392Y49819D01*
X26491Y49789D01*
X26511Y49790D01*
X26530Y49785D01*
X26633Y49793D01*
X26736Y49795D01*
X26755Y49802D01*
X26775Y49804D01*
X26870Y49844D01*
X26885Y49850D01*
X30352Y49850D01*
X30371Y49853D01*
X30391Y49851D01*
X30492Y49873D01*
X30594Y49889D01*
X30612Y49899D01*
X30631Y49903D01*
X30720Y49956D01*
X30812Y50005D01*
X30825Y50019D01*
X30842Y50029D01*
X30910Y50108D01*
X30981Y50183D01*
X30989Y50201D01*
X31002Y50216D01*
X31041Y50312D01*
X31085Y50406D01*
X31087Y50426D01*
X31094Y50444D01*
X31113Y50611D01*
X31113Y54058D01*
X31118Y54066D01*
X31143Y54166D01*
X31173Y54265D01*
X31173Y54285D01*
X31178Y54304D01*
X31170Y54408D01*
X31167Y54511D01*
X31160Y54530D01*
X31159Y54550D01*
X31118Y54644D01*
X31113Y54659D01*
X31113Y59059D01*
X31118Y59067D01*
X31144Y59168D01*
X31174Y59267D01*
X31173Y59287D01*
X31178Y59306D01*
X31170Y59409D01*
X31168Y59512D01*
X31161Y59531D01*
X31159Y59551D01*
X31119Y59646D01*
X31113Y59662D01*
X31113Y64061D01*
X31118Y64069D01*
X31143Y64169D01*
X31173Y64268D01*
X31173Y64288D01*
X31178Y64307D01*
X31170Y64411D01*
X31167Y64514D01*
X31160Y64533D01*
X31159Y64553D01*
X31118Y64647D01*
X31113Y64662D01*
X31113Y69062D01*
X31118Y69070D01*
X31143Y69170D01*
X31173Y69269D01*
X31173Y69289D01*
X31178Y69308D01*
X31170Y69412D01*
X31167Y69515D01*
X31160Y69534D01*
X31159Y69554D01*
X31118Y69648D01*
X31113Y69663D01*
X31113Y74063D01*
X31118Y74071D01*
X31143Y74171D01*
X31173Y74270D01*
X31173Y74290D01*
X31178Y74309D01*
X31170Y74413D01*
X31167Y74516D01*
X31160Y74535D01*
X31159Y74555D01*
X31118Y74649D01*
X31113Y74664D01*
X31113Y79064D01*
X31118Y79072D01*
X31144Y79173D01*
X31174Y79272D01*
X31173Y79292D01*
X31178Y79311D01*
X31170Y79414D01*
X31168Y79517D01*
X31161Y79536D01*
X31159Y79556D01*
X31119Y79651D01*
X31113Y79667D01*
X31113Y84066D01*
X31118Y84074D01*
X31143Y84174D01*
X31173Y84273D01*
X31173Y84293D01*
X31178Y84312D01*
X31170Y84416D01*
X31167Y84519D01*
X31160Y84538D01*
X31159Y84558D01*
X31118Y84652D01*
X31113Y84667D01*
X31113Y89067D01*
X31118Y89075D01*
X31143Y89175D01*
X31173Y89274D01*
X31173Y89294D01*
X31178Y89313D01*
X31170Y89417D01*
X31167Y89520D01*
X31160Y89539D01*
X31159Y89559D01*
X31118Y89653D01*
X31113Y89668D01*
X31113Y94068D01*
X31118Y94076D01*
X31143Y94176D01*
X31173Y94275D01*
X31173Y94295D01*
X31178Y94314D01*
X31170Y94418D01*
X31167Y94521D01*
X31160Y94540D01*
X31159Y94560D01*
X31118Y94654D01*
X31113Y94669D01*
X31113Y99069D01*
X31118Y99077D01*
X31144Y99178D01*
X31174Y99277D01*
X31173Y99297D01*
X31178Y99316D01*
X31170Y99419D01*
X31168Y99522D01*
X31161Y99541D01*
X31159Y99561D01*
X31119Y99656D01*
X31113Y99672D01*
X31113Y104071D01*
X31118Y104079D01*
X31143Y104179D01*
X31173Y104278D01*
X31173Y104298D01*
X31178Y104317D01*
X31170Y104421D01*
X31167Y104524D01*
X31160Y104543D01*
X31159Y104563D01*
X31118Y104657D01*
X31113Y104672D01*
X31113Y108139D01*
X31110Y108159D01*
X31112Y108178D01*
X31090Y108280D01*
X31073Y108382D01*
X31064Y108399D01*
X31059Y108419D01*
X31006Y108508D01*
X30958Y108599D01*
X30944Y108613D01*
X30933Y108630D01*
X30855Y108697D01*
X30780Y108769D01*
X30762Y108777D01*
X30746Y108790D01*
X30650Y108829D01*
X30557Y108872D01*
X30537Y108874D01*
X30518Y108882D01*
X30352Y108900D01*
X26904Y108900D01*
X26897Y108905D01*
X26796Y108931D01*
X26697Y108961D01*
X26677Y108960D01*
X26658Y108965D01*
X26555Y108957D01*
X26452Y108955D01*
X26433Y108948D01*
X26413Y108946D01*
X26318Y108906D01*
X26303Y108900D01*
X21904Y108900D01*
X21895Y108906D01*
X21795Y108931D01*
X21696Y108961D01*
X21676Y108961D01*
X21657Y108966D01*
X21553Y108958D01*
X21450Y108955D01*
X21431Y108948D01*
X21411Y108947D01*
X21317Y108906D01*
X21300Y108900D01*
X16901Y108900D01*
X16894Y108905D01*
X16793Y108931D01*
X16694Y108961D01*
X16674Y108960D01*
X16655Y108965D01*
X16552Y108957D01*
X16449Y108955D01*
X16430Y108948D01*
X16410Y108946D01*
X16315Y108906D01*
X16300Y108900D01*
X11900Y108900D01*
X11893Y108905D01*
X11792Y108931D01*
X11693Y108961D01*
X11673Y108960D01*
X11654Y108965D01*
X11551Y108957D01*
X11448Y108955D01*
X11429Y108948D01*
X11409Y108946D01*
X11314Y108906D01*
X11299Y108900D01*
X6899Y108900D01*
X6892Y108905D01*
X6791Y108931D01*
X6692Y108961D01*
X6672Y108960D01*
X6653Y108965D01*
X6550Y108957D01*
X6447Y108955D01*
X6428Y108948D01*
X6408Y108946D01*
X6313Y108906D01*
X6298Y108900D01*
X1899Y108900D01*
X1890Y108906D01*
X1790Y108931D01*
X1691Y108961D01*
X1671Y108961D01*
X1652Y108966D01*
X1548Y108958D01*
X1445Y108955D01*
X1426Y108948D01*
X1406Y108947D01*
X1312Y108906D01*
X1295Y108900D01*
X-3104Y108900D01*
X-3111Y108905D01*
X-3212Y108931D01*
X-3311Y108961D01*
X-3331Y108960D01*
X-3350Y108965D01*
X-3453Y108957D01*
X-3556Y108955D01*
X-3575Y108948D01*
X-3595Y108946D01*
X-3690Y108906D01*
X-3705Y108900D01*
X-8105Y108900D01*
X-8112Y108905D01*
X-8213Y108931D01*
X-8312Y108961D01*
X-8332Y108960D01*
X-8351Y108965D01*
X-8454Y108957D01*
X-8557Y108955D01*
X-8576Y108948D01*
X-8596Y108946D01*
X-8691Y108906D01*
X-8706Y108900D01*
X-13106Y108900D01*
X-13113Y108905D01*
X-13214Y108931D01*
X-13313Y108961D01*
X-13333Y108960D01*
X-13352Y108965D01*
X-13455Y108957D01*
X-13558Y108955D01*
X-13577Y108948D01*
X-13597Y108946D01*
X-13692Y108906D01*
X-13707Y108900D01*
X-18106Y108900D01*
X-18115Y108906D01*
X-18215Y108931D01*
X-18314Y108961D01*
X-18334Y108961D01*
X-18353Y108966D01*
X-18457Y108958D01*
X-18560Y108955D01*
X-18579Y108948D01*
X-18599Y108947D01*
X-18693Y108906D01*
X-18710Y108900D01*
X-23109Y108900D01*
X-23116Y108905D01*
X-23217Y108931D01*
X-23316Y108961D01*
X-23336Y108960D01*
X-23355Y108965D01*
X-23458Y108957D01*
X-23561Y108955D01*
X-23580Y108948D01*
X-23600Y108946D01*
X-23695Y108906D01*
X-23710Y108900D01*
X-27177Y108900D01*
X-27196Y108897D01*
X-27216Y108899D01*
X-27317Y108877D01*
X-27419Y108861D01*
X-27437Y108851D01*
X-27456Y108847D01*
X-27545Y108794D01*
X-27637Y108745D01*
X-27650Y108731D01*
X-27667Y108721D01*
X-27735Y108642D01*
X-27806Y108567D01*
X-27814Y108549D01*
X-27827Y108534D01*
X-27866Y108438D01*
X-27910Y108344D01*
X-27912Y108324D01*
X-27919Y108306D01*
X-27938Y108139D01*
X-27938Y104692D01*
X-27943Y104684D01*
X-27968Y104584D01*
X-27998Y104485D01*
X-27998Y104465D01*
X-28003Y104446D01*
X-27995Y104343D01*
X-27992Y104239D01*
X-27985Y104220D01*
X-27984Y104201D01*
X-27943Y104106D01*
X-27938Y104091D01*
X-27938Y99691D01*
X-27943Y99683D01*
X-27969Y99582D01*
X-27999Y99483D01*
X-27998Y99463D01*
X-28003Y99444D01*
X-27995Y99341D01*
X-27993Y99238D01*
X-27986Y99219D01*
X-27984Y99199D01*
X-27944Y99104D01*
X-27938Y99088D01*
X-27938Y94689D01*
X-27943Y94681D01*
X-27968Y94581D01*
X-27998Y94482D01*
X-27998Y94462D01*
X-28003Y94443D01*
X-27995Y94339D01*
X-27992Y94236D01*
X-27985Y94217D01*
X-27984Y94197D01*
X-27943Y94103D01*
X-27938Y94088D01*
X-27938Y89688D01*
X-27943Y89680D01*
X-27968Y89580D01*
X-27998Y89481D01*
X-27998Y89461D01*
X-28003Y89442D01*
X-27995Y89338D01*
X-27992Y89235D01*
X-27985Y89216D01*
X-27984Y89196D01*
X-27943Y89102D01*
X-27938Y89087D01*
X-27938Y84687D01*
X-27943Y84679D01*
X-27968Y84579D01*
X-27998Y84480D01*
X-27998Y84460D01*
X-28003Y84441D01*
X-27995Y84337D01*
X-27992Y84234D01*
X-27985Y84215D01*
X-27984Y84195D01*
X-27943Y84101D01*
X-27938Y84086D01*
X-27938Y79759D01*
X-28831Y78865D01*
X-30596Y78865D01*
X-30686Y78851D01*
X-30778Y78843D01*
X-30807Y78831D01*
X-30829Y78827D01*
X-42889Y78827D01*
X-44689Y80627D01*
X-44763Y80680D01*
X-44832Y80740D01*
X-44862Y80752D01*
X-44889Y80771D01*
X-44976Y80798D01*
X-45060Y80832D01*
X-45101Y80836D01*
X-45124Y80843D01*
X-45156Y80842D01*
X-45227Y80850D01*
X-66869Y80850D01*
X-67762Y81743D01*
X-67762Y92774D01*
X-67774Y92845D01*
X-67776Y92916D01*
X-67794Y92965D01*
X-67802Y93017D01*
X-67836Y93080D01*
X-67860Y93147D01*
X-67893Y93188D01*
X-67917Y93234D01*
X-67969Y93283D01*
X-68014Y93339D01*
X-68058Y93368D01*
X-68095Y93403D01*
X-68160Y93434D01*
X-68221Y93472D01*
X-68271Y93485D01*
X-68318Y93507D01*
X-68390Y93515D01*
X-68459Y93532D01*
X-68511Y93528D01*
X-68563Y93534D01*
X-68633Y93519D01*
X-68704Y93513D01*
X-68752Y93493D01*
X-68803Y93482D01*
X-68865Y93445D01*
X-68931Y93417D01*
X-68987Y93372D01*
X-69014Y93356D01*
X-69030Y93338D01*
X-69062Y93312D01*
X-84015Y78359D01*
X-86246Y76128D01*
X-86363Y76011D01*
X-89585Y74676D01*
X-100069Y74676D01*
X-100116Y74668D01*
X-100165Y74670D01*
X-100237Y74649D01*
X-100312Y74637D01*
X-100354Y74614D01*
X-100401Y74600D01*
X-100462Y74557D01*
X-100529Y74521D01*
X-100562Y74486D01*
X-100602Y74459D01*
X-100646Y74398D01*
X-100698Y74343D01*
X-100719Y74299D01*
X-100747Y74260D01*
X-100770Y74189D01*
X-100802Y74120D01*
X-100807Y74072D01*
X-100822Y74026D01*
X-100826Y73898D01*
X-100829Y73876D01*
X-100828Y73869D01*
X-100828Y73858D01*
X-100803Y73520D01*
X-100834Y73456D01*
X-100881Y73380D01*
X-100889Y73346D01*
X-100904Y73315D01*
X-100935Y73150D01*
X-101100Y70952D01*
X-101097Y70918D01*
X-101102Y70883D01*
X-101087Y70796D01*
X-101079Y70707D01*
X-101065Y70675D01*
X-101059Y70641D01*
X-101024Y70570D01*
X-101168Y69942D01*
X-101170Y69909D01*
X-101185Y69830D01*
X-101233Y69191D01*
X-101274Y69133D01*
X-101331Y69064D01*
X-101344Y69032D01*
X-101363Y69004D01*
X-101419Y68845D01*
X-101910Y66696D01*
X-101912Y66662D01*
X-101922Y66629D01*
X-101919Y66540D01*
X-101925Y66451D01*
X-101916Y66417D01*
X-101915Y66383D01*
X-101892Y66307D01*
X-102127Y65708D01*
X-102134Y65676D01*
X-102160Y65599D01*
X-102303Y64975D01*
X-102352Y64923D01*
X-102419Y64864D01*
X-102436Y64834D01*
X-102460Y64809D01*
X-102538Y64660D01*
X-103344Y62609D01*
X-103352Y62575D01*
X-103367Y62544D01*
X-103377Y62455D01*
X-103396Y62368D01*
X-103392Y62334D01*
X-103396Y62299D01*
X-103384Y62221D01*
X-103707Y61664D01*
X-103718Y61633D01*
X-103756Y61561D01*
X-104098Y60691D01*
X-104122Y60580D01*
X-104148Y60469D01*
X-104148Y60460D01*
X-104149Y60451D01*
X-104137Y60338D01*
X-104127Y60224D01*
X-104123Y60215D01*
X-104122Y60206D01*
X-104074Y60104D01*
X-104028Y59999D01*
X-104022Y59992D01*
X-104018Y59984D01*
X-103939Y59901D01*
X-103862Y59817D01*
X-103854Y59812D01*
X-103848Y59806D01*
X-103747Y59752D01*
X-103647Y59697D01*
X-103638Y59695D01*
X-103630Y59691D01*
X-103518Y59673D01*
X-103406Y59652D01*
X-103397Y59653D01*
X-103388Y59652D01*
X-103275Y59670D01*
X-103162Y59686D01*
X-103152Y59691D01*
X-103145Y59692D01*
X-103124Y59703D01*
X-103009Y59754D01*
X-99357Y61862D01*
X-93707Y63376D01*
X-44941Y63376D01*
X-44851Y63390D01*
X-44760Y63398D01*
X-44730Y63410D01*
X-44698Y63415D01*
X-44617Y63458D01*
X-44533Y63494D01*
X-44501Y63520D01*
X-44481Y63531D01*
X-44458Y63554D01*
X-44402Y63599D01*
X-42849Y65152D01*
X-42796Y65226D01*
X-42736Y65296D01*
X-42724Y65326D01*
X-42705Y65352D01*
X-42678Y65439D01*
X-42644Y65524D01*
X-42640Y65565D01*
X-42633Y65587D01*
X-42634Y65619D01*
X-42626Y65691D01*
X-42626Y69317D01*
X-37021Y74922D01*
X-30812Y74922D01*
X-30763Y74902D01*
X-30722Y74898D01*
X-30700Y74891D01*
X-30668Y74892D01*
X-30596Y74884D01*
X-28831Y74884D01*
X-27938Y73990D01*
X-27938Y69683D01*
X-27943Y69675D01*
X-27968Y69575D01*
X-27998Y69476D01*
X-27998Y69456D01*
X-28003Y69437D01*
X-27995Y69333D01*
X-27992Y69230D01*
X-27985Y69211D01*
X-27984Y69191D01*
X-27943Y69096D01*
X-27938Y69082D01*
X-27938Y64682D01*
X-27943Y64674D01*
X-27968Y64574D01*
X-27998Y64475D01*
X-27998Y64455D01*
X-28003Y64436D01*
X-27995Y64332D01*
X-27992Y64229D01*
X-27985Y64210D01*
X-27984Y64190D01*
X-27943Y64096D01*
X-27938Y64081D01*
X-27938Y59681D01*
X-27943Y59673D01*
X-27969Y59572D01*
X-27999Y59473D01*
X-27998Y59453D01*
X-28003Y59434D01*
X-27995Y59331D01*
X-27993Y59228D01*
X-27986Y59209D01*
X-27984Y59189D01*
X-27944Y59094D01*
X-27938Y59078D01*
X-27938Y54679D01*
X-27943Y54671D01*
X-27968Y54571D01*
X-27998Y54472D01*
X-27998Y54452D01*
X-28003Y54433D01*
X-27995Y54329D01*
X-27992Y54226D01*
X-27985Y54207D01*
X-27984Y54187D01*
X-27943Y54093D01*
X-27938Y54078D01*
X-27938Y50611D01*
X-27935Y50591D01*
X-27937Y50572D01*
X-27915Y50470D01*
X-27898Y50368D01*
X-27889Y50351D01*
X-27884Y50331D01*
X-27831Y50242D01*
X-27783Y50151D01*
X-27769Y50137D01*
X-27758Y50120D01*
X-27680Y50053D01*
X-27605Y49981D01*
X-27587Y49973D01*
X-27571Y49960D01*
X-27475Y49921D01*
X-27382Y49878D01*
X-27362Y49876D01*
X-27343Y49868D01*
X-27177Y49850D01*
X-23729Y49850D01*
X-23722Y49845D01*
X-23621Y49819D01*
X-23522Y49789D01*
X-23502Y49790D01*
X-23483Y49785D01*
X-23380Y49793D01*
X-23277Y49795D01*
X-23258Y49802D01*
X-23238Y49804D01*
X-23143Y49844D01*
X-23128Y49850D01*
X-18729Y49850D01*
X-18720Y49844D01*
X-18620Y49819D01*
X-18521Y49789D01*
X-18501Y49789D01*
X-18482Y49784D01*
X-18378Y49792D01*
X-18275Y49795D01*
X-18256Y49802D01*
X-18236Y49803D01*
X-18142Y49844D01*
X-18125Y49850D01*
X-13726Y49850D01*
X-13719Y49845D01*
X-13618Y49819D01*
X-13519Y49789D01*
X-13499Y49790D01*
X-13480Y49785D01*
X-13377Y49793D01*
X-13274Y49795D01*
X-13255Y49802D01*
X-13235Y49804D01*
X-13140Y49844D01*
X-13125Y49850D01*
X-8725Y49850D01*
X-8718Y49845D01*
X-8617Y49819D01*
X-8518Y49789D01*
X-8498Y49790D01*
X-8479Y49785D01*
X-8376Y49793D01*
X-8273Y49795D01*
X-8254Y49802D01*
X-8234Y49804D01*
X-8139Y49844D01*
X-8124Y49850D01*
X-3724Y49850D01*
X-3717Y49845D01*
X-3616Y49819D01*
X-3517Y49789D01*
X-3497Y49790D01*
X-3478Y49785D01*
X-3375Y49793D01*
X-3272Y49795D01*
X-3253Y49802D01*
X-3233Y49804D01*
X-3138Y49844D01*
X-3123Y49850D01*
X1276Y49850D01*
X1285Y49844D01*
X1385Y49819D01*
X1484Y49789D01*
X1504Y49789D01*
X1523Y49784D01*
X1627Y49792D01*
X1730Y49795D01*
X1749Y49802D01*
X1769Y49803D01*
X1863Y49844D01*
X1880Y49850D01*
X6279Y49850D01*
X6286Y49845D01*
X6387Y49819D01*
X6486Y49789D01*
X6506Y49790D01*
X6525Y49785D01*
X6628Y49793D01*
X6731Y49795D01*
X6750Y49802D01*
X6770Y49804D01*
X6865Y49844D01*
X6880Y49850D01*
X11280Y49850D01*
X11287Y49845D01*
X11388Y49819D01*
X11487Y49789D01*
X11507Y49790D01*
X11526Y49785D01*
X11629Y49793D01*
X11732Y49795D01*
X11751Y49802D01*
X11771Y49804D01*
X11866Y49844D01*
X11881Y49850D01*
X16281Y49850D01*
X16288Y49845D01*
X16389Y49819D01*
X16488Y49789D01*
X16508Y49790D01*
X16527Y49785D01*
X16630Y49793D01*
X16733Y49795D01*
X16752Y49802D01*
X16772Y49804D01*
X16867Y49844D01*
X16882Y49850D01*
X21281Y49850D01*
X21290Y49844D01*
X21390Y49819D01*
X21489Y49789D01*
X21509Y49789D01*
X21528Y49784D01*
X21632Y49792D01*
G37*
G36*
X-67572Y-1269D02*
X-67572Y-1269D01*
X-67544Y-1271D01*
X-67476Y-1249D01*
X-67405Y-1235D01*
X-67382Y-1219D01*
X-67355Y-1210D01*
X-67300Y-1163D01*
X-67241Y-1122D01*
X-67226Y-1098D01*
X-67205Y-1080D01*
X-67177Y-1023D01*
X-29786Y-1023D01*
X-29766Y-1020D01*
X-29747Y-1022D01*
X-29645Y-1000D01*
X-29543Y-983D01*
X-29526Y-974D01*
X-29506Y-970D01*
X-29417Y-916D01*
X-29326Y-868D01*
X-29312Y-854D01*
X-29295Y-843D01*
X-29228Y-765D01*
X-29156Y-690D01*
X-29148Y-672D01*
X-29135Y-657D01*
X-29096Y-560D01*
X-29053Y-467D01*
X-29051Y-447D01*
X-29043Y-428D01*
X-29025Y-262D01*
X-29025Y118D01*
X-29019Y125D01*
X-29001Y186D01*
X-28973Y242D01*
X-28956Y329D01*
X-28947Y360D01*
X-28947Y378D01*
X-28942Y407D01*
X-28786Y2486D01*
X-28789Y2521D01*
X-28784Y2555D01*
X-28800Y2643D01*
X-28808Y2731D01*
X-28821Y2763D01*
X-28828Y2797D01*
X-28862Y2869D01*
X-28719Y3496D01*
X-28717Y3529D01*
X-28702Y3609D01*
X-28654Y4247D01*
X-28613Y4306D01*
X-28556Y4374D01*
X-28543Y4407D01*
X-28524Y4435D01*
X-28468Y4593D01*
X-27978Y6740D01*
X-27976Y6775D01*
X-27966Y6808D01*
X-27969Y6897D01*
X-27963Y6986D01*
X-27972Y7019D01*
X-27973Y7054D01*
X-27997Y7130D01*
X-27762Y7729D01*
X-27755Y7761D01*
X-27728Y7837D01*
X-27586Y8462D01*
X-27536Y8514D01*
X-27470Y8573D01*
X-27452Y8603D01*
X-27428Y8628D01*
X-27350Y8776D01*
X-26546Y10826D01*
X-26539Y10860D01*
X-26524Y10891D01*
X-26513Y10980D01*
X-26494Y11067D01*
X-26498Y11101D01*
X-26494Y11135D01*
X-26506Y11214D01*
X-26184Y11771D01*
X-26172Y11802D01*
X-26135Y11874D01*
X-25901Y12470D01*
X-25844Y12514D01*
X-25770Y12562D01*
X-25748Y12590D01*
X-25721Y12611D01*
X-25621Y12746D01*
X-24520Y14653D01*
X-24508Y14685D01*
X-24489Y14714D01*
X-24465Y14800D01*
X-24433Y14883D01*
X-24432Y14918D01*
X-24423Y14951D01*
X-24423Y15031D01*
X-24022Y15534D01*
X-24006Y15563D01*
X-23958Y15628D01*
X-23637Y16182D01*
X-23575Y16218D01*
X-23494Y16254D01*
X-23468Y16278D01*
X-23438Y16295D01*
X-23320Y16414D01*
X-21947Y18135D01*
X-21930Y18166D01*
X-21907Y18191D01*
X-21870Y18272D01*
X-21827Y18350D01*
X-21820Y18384D01*
X-21806Y18416D01*
X-21794Y18494D01*
X-21323Y18932D01*
X-21302Y18958D01*
X-21245Y19015D01*
X-20846Y19516D01*
X-20779Y19542D01*
X-20693Y19566D01*
X-20665Y19585D01*
X-20632Y19598D01*
X-20498Y19697D01*
X-18883Y21195D01*
X-18862Y21222D01*
X-18835Y21244D01*
X-18787Y21319D01*
X-18733Y21389D01*
X-18721Y21422D01*
X-18702Y21451D01*
X-18679Y21527D01*
X-18147Y21890D01*
X-18123Y21912D01*
X-18058Y21961D01*
X-17589Y22396D01*
X-17519Y22412D01*
X-17431Y22423D01*
X-17399Y22438D01*
X-17366Y22445D01*
X-17217Y22524D01*
X-15398Y23764D01*
X-15373Y23788D01*
X-15343Y23806D01*
X-15284Y23872D01*
X-15220Y23934D01*
X-15204Y23964D01*
X-15181Y23990D01*
X-15147Y24062D01*
X-14567Y24341D01*
X-14540Y24360D01*
X-14468Y24398D01*
X-13939Y24759D01*
X-13867Y24764D01*
X-13779Y24761D01*
X-13745Y24772D01*
X-13711Y24774D01*
X-13553Y24830D01*
X-11569Y25785D01*
X-11540Y25805D01*
X-11508Y25818D01*
X-11440Y25875D01*
X-11367Y25926D01*
X-11347Y25954D01*
X-11320Y25976D01*
X-11276Y26042D01*
X-10661Y26232D01*
X-10631Y26247D01*
X-10555Y26273D01*
X-9978Y26551D01*
X-9906Y26545D01*
X-9819Y26530D01*
X-9784Y26535D01*
X-9750Y26532D01*
X-9585Y26564D01*
X-7481Y27213D01*
X-7450Y27228D01*
X-7416Y27236D01*
X-7340Y27282D01*
X-7261Y27322D01*
X-7236Y27347D01*
X-7207Y27365D01*
X-7153Y27423D01*
X-6516Y27519D01*
X-6485Y27529D01*
X-6405Y27544D01*
X-5793Y27733D01*
X-5724Y27717D01*
X-5639Y27688D01*
X-5605Y27688D01*
X-5571Y27680D01*
X-5403Y27687D01*
X-3226Y28015D01*
X-3193Y28026D01*
X-3158Y28028D01*
X-3077Y28063D01*
X-2992Y28090D01*
X-2964Y28111D01*
X-2932Y28125D01*
X-2870Y28174D01*
X-2227Y28174D01*
X-2194Y28180D01*
X-2113Y28183D01*
X-1480Y28278D01*
X-1413Y28251D01*
X-1334Y28211D01*
X-1300Y28206D01*
X-1268Y28193D01*
X-1101Y28174D01*
X1101Y28174D01*
X1135Y28180D01*
X1170Y28177D01*
X1256Y28200D01*
X1344Y28214D01*
X1374Y28230D01*
X1408Y28239D01*
X1477Y28279D01*
X2113Y28183D01*
X2146Y28183D01*
X2227Y28174D01*
X2867Y28174D01*
X2929Y28138D01*
X3001Y28086D01*
X3034Y28076D01*
X3064Y28058D01*
X3226Y28015D01*
X5403Y27687D01*
X5438Y27687D01*
X5472Y27680D01*
X5560Y27689D01*
X5649Y27690D01*
X5682Y27701D01*
X5717Y27705D01*
X5790Y27734D01*
X6405Y27544D01*
X6438Y27540D01*
X6516Y27519D01*
X7150Y27424D01*
X7205Y27378D01*
X7269Y27316D01*
X7300Y27301D01*
X7327Y27279D01*
X7481Y27213D01*
X9585Y26564D01*
X9619Y26559D01*
X9652Y26546D01*
X9741Y26542D01*
X9829Y26530D01*
X9863Y26536D01*
X9897Y26535D01*
X10028Y26565D01*
X10062Y26555D01*
X10129Y26557D01*
X10196Y26550D01*
X10251Y26562D01*
X10308Y26564D01*
X10371Y26588D01*
X10436Y26602D01*
X10485Y26631D01*
X10538Y26651D01*
X10590Y26694D01*
X10647Y26728D01*
X10684Y26771D01*
X10728Y26807D01*
X10764Y26864D01*
X10807Y26915D01*
X10829Y26968D01*
X10859Y27016D01*
X10874Y27081D01*
X10899Y27143D01*
X10908Y27223D01*
X10916Y27255D01*
X10914Y27275D01*
X10918Y27310D01*
X10918Y40539D01*
X10915Y40559D01*
X10917Y40578D01*
X10895Y40680D01*
X10878Y40782D01*
X10869Y40799D01*
X10864Y40819D01*
X10811Y40908D01*
X10763Y40999D01*
X10749Y41013D01*
X10738Y41030D01*
X10660Y41097D01*
X10585Y41169D01*
X10567Y41177D01*
X10551Y41190D01*
X10455Y41229D01*
X10362Y41272D01*
X10342Y41274D01*
X10323Y41282D01*
X10157Y41300D01*
X6899Y41300D01*
X6892Y41305D01*
X6791Y41330D01*
X6693Y41361D01*
X6673Y41360D01*
X6653Y41365D01*
X6550Y41357D01*
X6447Y41355D01*
X6428Y41348D01*
X6408Y41346D01*
X6313Y41306D01*
X6298Y41300D01*
X1899Y41300D01*
X1890Y41306D01*
X1790Y41331D01*
X1691Y41361D01*
X1671Y41361D01*
X1652Y41366D01*
X1549Y41358D01*
X1445Y41355D01*
X1426Y41348D01*
X1407Y41347D01*
X1312Y41306D01*
X1295Y41300D01*
X-3104Y41300D01*
X-3111Y41305D01*
X-3212Y41330D01*
X-3310Y41361D01*
X-3330Y41360D01*
X-3350Y41365D01*
X-3453Y41357D01*
X-3556Y41355D01*
X-3575Y41348D01*
X-3595Y41346D01*
X-3690Y41306D01*
X-3705Y41300D01*
X-8105Y41300D01*
X-8112Y41305D01*
X-8213Y41330D01*
X-8311Y41361D01*
X-8331Y41360D01*
X-8351Y41365D01*
X-8454Y41357D01*
X-8557Y41355D01*
X-8576Y41348D01*
X-8596Y41346D01*
X-8691Y41306D01*
X-8706Y41300D01*
X-13106Y41300D01*
X-13113Y41305D01*
X-13214Y41330D01*
X-13312Y41361D01*
X-13332Y41360D01*
X-13352Y41365D01*
X-13455Y41357D01*
X-13558Y41355D01*
X-13577Y41348D01*
X-13597Y41346D01*
X-13692Y41306D01*
X-13707Y41300D01*
X-18106Y41300D01*
X-18115Y41306D01*
X-18215Y41331D01*
X-18314Y41361D01*
X-18334Y41361D01*
X-18353Y41366D01*
X-18456Y41358D01*
X-18560Y41355D01*
X-18579Y41348D01*
X-18598Y41347D01*
X-18693Y41306D01*
X-18710Y41300D01*
X-23109Y41300D01*
X-23116Y41305D01*
X-23217Y41330D01*
X-23315Y41361D01*
X-23335Y41360D01*
X-23355Y41365D01*
X-23458Y41357D01*
X-23561Y41355D01*
X-23580Y41348D01*
X-23600Y41346D01*
X-23695Y41306D01*
X-23710Y41300D01*
X-28037Y41300D01*
X-28930Y42193D01*
X-28930Y48096D01*
X-28933Y48116D01*
X-28931Y48136D01*
X-28953Y48237D01*
X-28970Y48339D01*
X-28979Y48356D01*
X-28983Y48376D01*
X-29037Y48465D01*
X-29085Y48556D01*
X-29099Y48570D01*
X-29110Y48587D01*
X-29188Y48654D01*
X-29263Y48726D01*
X-29281Y48734D01*
X-29297Y48747D01*
X-29393Y48786D01*
X-29486Y48829D01*
X-29506Y48831D01*
X-29525Y48839D01*
X-29691Y48857D01*
X-35597Y48857D01*
X-35661Y48903D01*
X-35730Y48963D01*
X-35761Y48975D01*
X-35787Y48994D01*
X-35874Y49021D01*
X-35959Y49055D01*
X-36000Y49059D01*
X-36022Y49066D01*
X-36054Y49065D01*
X-36125Y49073D01*
X-37147Y49073D01*
X-37237Y49059D01*
X-37328Y49051D01*
X-37357Y49039D01*
X-37389Y49034D01*
X-37470Y48991D01*
X-37554Y48955D01*
X-37586Y48929D01*
X-37607Y48918D01*
X-37629Y48895D01*
X-37685Y48850D01*
X-39295Y47240D01*
X-39307Y47224D01*
X-39322Y47212D01*
X-39378Y47124D01*
X-39438Y47041D01*
X-39444Y47022D01*
X-39455Y47005D01*
X-39480Y46904D01*
X-39511Y46805D01*
X-39510Y46786D01*
X-39515Y46766D01*
X-39507Y46663D01*
X-39504Y46560D01*
X-39498Y46541D01*
X-39496Y46521D01*
X-39456Y46426D01*
X-39420Y46329D01*
X-39407Y46313D01*
X-39400Y46295D01*
X-39295Y46164D01*
X-38950Y45819D01*
X-38950Y33556D01*
X-39843Y32663D01*
X-51107Y32663D01*
X-52000Y33556D01*
X-52000Y45819D01*
X-51107Y46712D01*
X-48043Y46712D01*
X-47953Y46727D01*
X-47862Y46734D01*
X-47832Y46747D01*
X-47800Y46752D01*
X-47720Y46795D01*
X-47636Y46830D01*
X-47604Y46856D01*
X-47583Y46867D01*
X-47561Y46890D01*
X-47505Y46935D01*
X-39777Y54663D01*
X-37248Y54663D01*
X-37229Y54666D01*
X-37209Y54664D01*
X-37108Y54686D01*
X-37006Y54702D01*
X-36988Y54712D01*
X-36969Y54716D01*
X-36880Y54769D01*
X-36788Y54818D01*
X-36775Y54832D01*
X-36758Y54842D01*
X-36690Y54921D01*
X-36619Y54996D01*
X-36611Y55014D01*
X-36598Y55029D01*
X-36559Y55125D01*
X-36515Y55219D01*
X-36513Y55239D01*
X-36506Y55257D01*
X-36487Y55424D01*
X-36487Y59059D01*
X-36482Y59067D01*
X-36456Y59168D01*
X-36426Y59266D01*
X-36427Y59286D01*
X-36422Y59306D01*
X-36430Y59409D01*
X-36432Y59512D01*
X-36439Y59531D01*
X-36441Y59551D01*
X-36481Y59646D01*
X-36487Y59662D01*
X-36487Y61053D01*
X-36499Y61124D01*
X-36501Y61195D01*
X-36519Y61244D01*
X-36527Y61296D01*
X-36561Y61359D01*
X-36585Y61426D01*
X-36618Y61467D01*
X-36642Y61513D01*
X-36694Y61562D01*
X-36739Y61618D01*
X-36783Y61647D01*
X-36820Y61682D01*
X-36885Y61713D01*
X-36946Y61751D01*
X-36996Y61764D01*
X-37043Y61786D01*
X-37115Y61794D01*
X-37184Y61811D01*
X-37236Y61807D01*
X-37288Y61813D01*
X-37358Y61798D01*
X-37429Y61792D01*
X-37477Y61772D01*
X-37528Y61761D01*
X-37590Y61724D01*
X-37656Y61696D01*
X-37712Y61651D01*
X-37739Y61635D01*
X-37755Y61617D01*
X-37787Y61591D01*
X-39322Y60056D01*
X-39896Y59481D01*
X-39897Y59481D01*
X-41334Y58044D01*
X-41378Y58037D01*
X-41444Y58036D01*
X-41524Y58013D01*
X-41556Y58007D01*
X-41573Y57998D01*
X-41605Y57989D01*
X-42952Y57431D01*
X-43008Y57397D01*
X-43068Y57371D01*
X-43133Y57319D01*
X-43161Y57302D01*
X-43174Y57286D01*
X-43184Y57278D01*
X-62858Y57278D01*
X-62928Y57267D01*
X-63000Y57265D01*
X-63049Y57247D01*
X-63100Y57239D01*
X-63164Y57205D01*
X-63231Y57180D01*
X-63272Y57148D01*
X-63318Y57123D01*
X-63367Y57071D01*
X-63423Y57027D01*
X-63451Y56983D01*
X-63487Y56945D01*
X-63517Y56880D01*
X-63556Y56820D01*
X-63569Y56769D01*
X-63591Y56722D01*
X-63599Y56651D01*
X-63616Y56581D01*
X-63612Y56529D01*
X-63618Y56478D01*
X-63603Y56407D01*
X-63597Y56336D01*
X-63577Y56288D01*
X-63566Y56237D01*
X-63529Y56176D01*
X-63501Y56110D01*
X-63456Y56054D01*
X-63439Y56026D01*
X-63422Y56011D01*
X-63396Y55979D01*
X-62126Y54709D01*
X-62126Y52544D01*
X-62112Y52454D01*
X-62104Y52363D01*
X-62092Y52333D01*
X-62087Y52301D01*
X-62044Y52221D01*
X-62008Y52137D01*
X-61982Y52105D01*
X-61971Y52084D01*
X-61948Y52062D01*
X-61903Y52006D01*
X-59680Y49783D01*
X-59680Y47473D01*
X-59677Y47454D01*
X-59679Y47434D01*
X-59657Y47333D01*
X-59641Y47231D01*
X-59631Y47213D01*
X-59627Y47194D01*
X-59574Y47105D01*
X-59525Y47013D01*
X-59511Y47000D01*
X-59501Y46983D01*
X-59422Y46915D01*
X-59347Y46844D01*
X-59329Y46836D01*
X-59314Y46823D01*
X-59218Y46784D01*
X-59124Y46740D01*
X-59104Y46738D01*
X-59086Y46731D01*
X-58919Y46712D01*
X-56843Y46712D01*
X-55950Y45819D01*
X-55950Y33556D01*
X-56843Y32663D01*
X-68107Y32663D01*
X-69000Y33556D01*
X-69000Y45819D01*
X-68107Y46712D01*
X-66352Y46712D01*
X-66281Y46724D01*
X-66210Y46726D01*
X-66161Y46744D01*
X-66110Y46752D01*
X-66046Y46786D01*
X-65979Y46810D01*
X-65938Y46843D01*
X-65892Y46867D01*
X-65843Y46919D01*
X-65787Y46964D01*
X-65759Y47008D01*
X-65723Y47045D01*
X-65693Y47111D01*
X-65654Y47171D01*
X-65641Y47221D01*
X-65619Y47268D01*
X-65611Y47340D01*
X-65594Y47410D01*
X-65598Y47461D01*
X-65592Y47513D01*
X-65607Y47583D01*
X-65613Y47655D01*
X-65633Y47703D01*
X-65644Y47753D01*
X-65681Y47815D01*
X-65709Y47881D01*
X-65754Y47937D01*
X-65771Y47964D01*
X-65788Y47980D01*
X-65814Y48012D01*
X-65856Y48054D01*
X-65930Y48107D01*
X-65999Y48166D01*
X-66029Y48178D01*
X-66056Y48197D01*
X-66143Y48224D01*
X-66227Y48258D01*
X-66268Y48262D01*
X-66291Y48269D01*
X-66323Y48268D01*
X-66394Y48276D01*
X-68559Y48276D01*
X-71224Y50941D01*
X-71224Y54709D01*
X-69954Y55979D01*
X-69912Y56037D01*
X-69863Y56089D01*
X-69841Y56136D01*
X-69811Y56178D01*
X-69790Y56247D01*
X-69759Y56312D01*
X-69754Y56364D01*
X-69738Y56414D01*
X-69740Y56485D01*
X-69732Y56556D01*
X-69743Y56607D01*
X-69745Y56659D01*
X-69769Y56727D01*
X-69784Y56797D01*
X-69811Y56842D01*
X-69829Y56890D01*
X-69874Y56946D01*
X-69911Y57008D01*
X-69950Y57042D01*
X-69983Y57082D01*
X-70043Y57121D01*
X-70098Y57168D01*
X-70146Y57187D01*
X-70190Y57215D01*
X-70259Y57233D01*
X-70326Y57260D01*
X-70397Y57268D01*
X-70428Y57276D01*
X-70451Y57274D01*
X-70492Y57278D01*
X-90783Y57278D01*
X-90802Y57275D01*
X-90833Y57277D01*
X-92837Y57145D01*
X-92860Y57140D01*
X-92984Y57121D01*
X-96856Y56084D01*
X-96870Y56077D01*
X-96886Y56075D01*
X-97039Y56008D01*
X-100510Y54004D01*
X-100529Y53988D01*
X-100632Y53917D01*
X-102142Y52592D01*
X-102154Y52578D01*
X-102178Y52558D01*
X-105137Y49600D01*
X-105190Y49526D01*
X-105249Y49456D01*
X-105261Y49426D01*
X-105280Y49400D01*
X-105307Y49313D01*
X-105341Y49228D01*
X-105346Y49187D01*
X-105352Y49165D01*
X-105352Y49133D01*
X-105360Y49062D01*
X-105360Y47255D01*
X-108024Y44591D01*
X-111928Y44591D01*
X-112022Y44576D01*
X-112117Y44567D01*
X-112143Y44556D01*
X-112171Y44551D01*
X-112255Y44507D01*
X-112343Y44468D01*
X-112364Y44449D01*
X-112389Y44436D01*
X-112454Y44367D01*
X-112525Y44303D01*
X-112538Y44278D01*
X-112558Y44258D01*
X-112598Y44171D01*
X-112644Y44088D01*
X-112650Y44060D01*
X-112662Y44035D01*
X-112672Y43940D01*
X-112689Y43846D01*
X-112686Y43818D01*
X-112689Y43790D01*
X-112668Y43697D01*
X-112655Y43603D01*
X-112641Y43570D01*
X-112636Y43550D01*
X-112619Y43522D01*
X-112588Y43449D01*
X-96591Y15743D01*
X-96598Y15688D01*
X-96590Y15661D01*
X-96591Y15632D01*
X-96555Y15537D01*
X-96544Y15497D01*
X-96537Y15488D01*
X-96533Y15476D01*
X-87033Y-1024D01*
X-86981Y-1082D01*
X-86935Y-1145D01*
X-86916Y-1156D01*
X-86901Y-1173D01*
X-86831Y-1207D01*
X-86764Y-1247D01*
X-86740Y-1251D01*
X-86722Y-1259D01*
X-86677Y-1261D01*
X-86600Y-1274D01*
X-67600Y-1274D01*
X-67572Y-1269D01*
G37*
G36*
X144789Y99357D02*
X144789Y99357D01*
X144809Y99357D01*
X144906Y99391D01*
X145006Y99421D01*
X145022Y99432D01*
X145041Y99439D01*
X145122Y99503D01*
X145207Y99562D01*
X145219Y99578D01*
X145234Y99590D01*
X145334Y99726D01*
X173986Y149352D01*
X174010Y149416D01*
X174043Y149475D01*
X174053Y149530D01*
X174073Y149582D01*
X174076Y149650D01*
X174088Y149716D01*
X174080Y149772D01*
X174082Y149828D01*
X174063Y149893D01*
X174054Y149960D01*
X174022Y150033D01*
X174013Y150064D01*
X174001Y150081D01*
X173986Y150114D01*
X145791Y198947D01*
X145719Y199036D01*
X145649Y199126D01*
X145641Y199131D01*
X145636Y199138D01*
X145539Y199198D01*
X145444Y199261D01*
X145435Y199264D01*
X145427Y199269D01*
X145317Y199295D01*
X145206Y199324D01*
X145197Y199324D01*
X145188Y199326D01*
X145075Y199316D01*
X144960Y199308D01*
X144950Y199305D01*
X144943Y199304D01*
X144922Y199295D01*
X144802Y199253D01*
X144372Y199046D01*
X144355Y199034D01*
X144322Y199019D01*
X143639Y198625D01*
X143629Y198626D01*
X143568Y198612D01*
X143505Y198608D01*
X143421Y198579D01*
X143389Y198571D01*
X143374Y198562D01*
X143346Y198552D01*
X141466Y197647D01*
X141437Y197627D01*
X141405Y197615D01*
X141337Y197557D01*
X141264Y197506D01*
X141244Y197478D01*
X141217Y197456D01*
X141172Y197390D01*
X140557Y197201D01*
X140528Y197186D01*
X140451Y197159D01*
X139877Y196883D01*
X139875Y196884D01*
X139741Y196899D01*
X139715Y196903D01*
X139709Y196902D01*
X139703Y196902D01*
X139678Y196898D01*
X139647Y196901D01*
X139482Y196869D01*
X137375Y196220D01*
X137344Y196205D01*
X137310Y196197D01*
X137235Y196151D01*
X137155Y196111D01*
X137130Y196086D01*
X137101Y196068D01*
X137047Y196010D01*
X136411Y195914D01*
X136379Y195904D01*
X136300Y195889D01*
X135688Y195700D01*
X135618Y195717D01*
X135534Y195745D01*
X135499Y195745D01*
X135465Y195753D01*
X135298Y195747D01*
X133118Y195419D01*
X133085Y195408D01*
X133050Y195406D01*
X132968Y195371D01*
X132884Y195344D01*
X132856Y195323D01*
X132824Y195309D01*
X132762Y195260D01*
X132473Y195260D01*
X132453Y195257D01*
X132433Y195259D01*
X132332Y195237D01*
X132230Y195220D01*
X132212Y195211D01*
X132193Y195207D01*
X132104Y195154D01*
X132013Y195105D01*
X131999Y195091D01*
X131982Y195081D01*
X131914Y195002D01*
X131843Y194927D01*
X131835Y194909D01*
X131822Y194894D01*
X131783Y194798D01*
X131739Y194704D01*
X131737Y194684D01*
X131730Y194665D01*
X131711Y194499D01*
X131711Y114554D01*
X129569Y109382D01*
X128407Y108221D01*
X128397Y108207D01*
X128384Y108197D01*
X128326Y108107D01*
X128264Y108021D01*
X128259Y108005D01*
X128250Y107991D01*
X128199Y107831D01*
X128178Y107726D01*
X127440Y107233D01*
X127423Y107216D01*
X127325Y107138D01*
X126697Y106510D01*
X126590Y106510D01*
X126573Y106508D01*
X126557Y106510D01*
X126452Y106488D01*
X126347Y106471D01*
X126332Y106463D01*
X126316Y106459D01*
X126167Y106382D01*
X122374Y103848D01*
X122315Y103793D01*
X122251Y103746D01*
X122226Y103710D01*
X122194Y103680D01*
X122156Y103609D01*
X122110Y103544D01*
X122098Y103502D01*
X122077Y103463D01*
X122064Y103385D01*
X122041Y103308D01*
X122043Y103264D01*
X122036Y103221D01*
X122048Y103142D01*
X122051Y103062D01*
X122067Y103021D01*
X122073Y102978D01*
X122110Y102907D01*
X122139Y102832D01*
X122166Y102798D01*
X122187Y102760D01*
X122244Y102704D01*
X122295Y102642D01*
X122332Y102619D01*
X122364Y102589D01*
X122436Y102554D01*
X122504Y102512D01*
X122546Y102502D01*
X122586Y102483D01*
X122665Y102474D01*
X122743Y102455D01*
X122801Y102458D01*
X122830Y102454D01*
X122857Y102460D01*
X122910Y102462D01*
X123371Y102532D01*
X123403Y102542D01*
X123482Y102557D01*
X124094Y102746D01*
X124164Y102729D01*
X124248Y102701D01*
X124283Y102701D01*
X124317Y102693D01*
X124484Y102700D01*
X126664Y103029D01*
X126697Y103040D01*
X126731Y103042D01*
X126813Y103077D01*
X126898Y103104D01*
X126926Y103125D01*
X126958Y103139D01*
X127019Y103188D01*
X127663Y103188D01*
X127696Y103194D01*
X127777Y103197D01*
X128410Y103293D01*
X128476Y103266D01*
X128555Y103225D01*
X128590Y103220D01*
X128622Y103207D01*
X128789Y103189D01*
X130993Y103190D01*
X131027Y103195D01*
X131062Y103193D01*
X131148Y103215D01*
X131235Y103229D01*
X131266Y103246D01*
X131300Y103254D01*
X131368Y103294D01*
X132005Y103198D01*
X132038Y103199D01*
X132118Y103190D01*
X132759Y103190D01*
X132821Y103154D01*
X132893Y103102D01*
X132926Y103092D01*
X132956Y103074D01*
X133118Y103031D01*
X135298Y102703D01*
X135332Y102704D01*
X135366Y102696D01*
X135455Y102705D01*
X135543Y102706D01*
X135576Y102718D01*
X135611Y102721D01*
X135684Y102751D01*
X136300Y102561D01*
X136332Y102557D01*
X136411Y102536D01*
X137044Y102441D01*
X137100Y102395D01*
X137163Y102333D01*
X137194Y102318D01*
X137221Y102296D01*
X137375Y102230D01*
X139482Y101581D01*
X139516Y101576D01*
X139548Y101563D01*
X139637Y101559D01*
X139725Y101547D01*
X139759Y101554D01*
X139794Y101552D01*
X139871Y101570D01*
X140451Y101291D01*
X140483Y101281D01*
X140557Y101249D01*
X141169Y101061D01*
X141218Y101008D01*
X141271Y100937D01*
X141300Y100917D01*
X141323Y100892D01*
X141466Y100803D01*
X143346Y99898D01*
X143407Y99880D01*
X143464Y99853D01*
X143524Y99845D01*
X143582Y99828D01*
X143630Y99830D01*
X144294Y99447D01*
X144313Y99440D01*
X144328Y99428D01*
X144427Y99396D01*
X144524Y99360D01*
X144544Y99359D01*
X144563Y99353D01*
X144666Y99355D01*
X144770Y99351D01*
X144789Y99357D01*
G37*
G36*
X86676Y-1259D02*
X86676Y-1259D01*
X86754Y-1250D01*
X86773Y-1239D01*
X86795Y-1235D01*
X86859Y-1191D01*
X86927Y-1152D01*
X86943Y-1133D01*
X86959Y-1122D01*
X86983Y-1084D01*
X87033Y-1024D01*
X87086Y-931D01*
X87092Y-929D01*
X87136Y-894D01*
X87186Y-868D01*
X87232Y-819D01*
X87286Y-777D01*
X87333Y-714D01*
X87355Y-690D01*
X87364Y-671D01*
X87385Y-642D01*
X115532Y48109D01*
X115539Y48128D01*
X115551Y48144D01*
X115582Y48240D01*
X115588Y48253D01*
X115589Y48258D01*
X115619Y48339D01*
X115620Y48359D01*
X115626Y48378D01*
X115624Y48481D01*
X115628Y48585D01*
X115622Y48604D01*
X115622Y48624D01*
X115588Y48721D01*
X115558Y48821D01*
X115547Y48837D01*
X115540Y48856D01*
X115477Y48937D01*
X115417Y49022D01*
X115401Y49034D01*
X115388Y49050D01*
X115253Y49149D01*
X114615Y49517D01*
X114611Y49526D01*
X114568Y49572D01*
X114533Y49625D01*
X114466Y49682D01*
X114444Y49706D01*
X114428Y49715D01*
X114406Y49734D01*
X112681Y50909D01*
X112649Y50924D01*
X112622Y50945D01*
X112539Y50975D01*
X112458Y51013D01*
X112423Y51017D01*
X112391Y51028D01*
X112312Y51034D01*
X111840Y51472D01*
X111812Y51490D01*
X111751Y51543D01*
X111221Y51903D01*
X111191Y51968D01*
X111160Y52052D01*
X111139Y52079D01*
X111124Y52110D01*
X111014Y52237D01*
X110324Y52877D01*
X110319Y52880D01*
X110316Y52884D01*
X110217Y52948D01*
X110119Y53013D01*
X110114Y53015D01*
X110109Y53017D01*
X109996Y53046D01*
X109881Y53077D01*
X109876Y53076D01*
X109871Y53078D01*
X109754Y53068D01*
X109636Y53061D01*
X109631Y53059D01*
X109625Y53058D01*
X109518Y53013D01*
X109408Y52968D01*
X109404Y52964D01*
X109399Y52962D01*
X109268Y52857D01*
X80211Y23800D01*
X25379Y23800D01*
X25308Y23789D01*
X25236Y23787D01*
X25187Y23769D01*
X25136Y23761D01*
X25073Y23727D01*
X25005Y23702D01*
X24965Y23670D01*
X24919Y23645D01*
X24869Y23593D01*
X24813Y23549D01*
X24785Y23505D01*
X24749Y23467D01*
X24719Y23402D01*
X24680Y23342D01*
X24668Y23291D01*
X24646Y23244D01*
X24638Y23173D01*
X24620Y23103D01*
X24624Y23051D01*
X24619Y23000D01*
X24634Y22929D01*
X24639Y22858D01*
X24660Y22810D01*
X24671Y22759D01*
X24708Y22698D01*
X24736Y22632D01*
X24780Y22576D01*
X24797Y22548D01*
X24815Y22533D01*
X24840Y22501D01*
X31338Y16003D01*
X33347Y13994D01*
X33347Y8493D01*
X33362Y8403D01*
X33369Y8312D01*
X33382Y8282D01*
X33387Y8250D01*
X33430Y8170D01*
X33465Y8086D01*
X33491Y8054D01*
X33502Y8033D01*
X33525Y8011D01*
X33570Y7955D01*
X36435Y5090D01*
X36435Y1322D01*
X35390Y277D01*
X35348Y218D01*
X35298Y166D01*
X35276Y119D01*
X35246Y77D01*
X35225Y8D01*
X35195Y-57D01*
X35189Y-108D01*
X35174Y-158D01*
X35176Y-230D01*
X35168Y-301D01*
X35179Y-352D01*
X35180Y-404D01*
X35205Y-471D01*
X35220Y-541D01*
X35247Y-586D01*
X35264Y-635D01*
X35309Y-691D01*
X35346Y-753D01*
X35386Y-786D01*
X35418Y-827D01*
X35478Y-866D01*
X35533Y-912D01*
X35581Y-932D01*
X35625Y-960D01*
X35695Y-978D01*
X35761Y-1004D01*
X35832Y-1012D01*
X35864Y-1020D01*
X35887Y-1018D01*
X35928Y-1023D01*
X67175Y-1023D01*
X67190Y-1043D01*
X67226Y-1105D01*
X67248Y-1122D01*
X67265Y-1145D01*
X67327Y-1182D01*
X67384Y-1225D01*
X67412Y-1232D01*
X67436Y-1247D01*
X67536Y-1263D01*
X67577Y-1274D01*
X67587Y-1272D01*
X67600Y-1274D01*
X86600Y-1274D01*
X86676Y-1259D01*
G37*
G36*
X131941Y196792D02*
X131941Y196792D01*
X131984Y196791D01*
X135977Y197392D01*
X136007Y197403D01*
X136050Y197408D01*
X139909Y198597D01*
X139937Y198612D01*
X139978Y198624D01*
X143616Y200375D01*
X143638Y200392D01*
X143664Y200401D01*
X143717Y200451D01*
X143775Y200495D01*
X143788Y200519D01*
X143808Y200538D01*
X143838Y200604D01*
X143874Y200668D01*
X143877Y200695D01*
X143888Y200720D01*
X143889Y200793D01*
X143898Y200865D01*
X143890Y200891D01*
X143890Y200919D01*
X143854Y201017D01*
X143842Y201056D01*
X143836Y201064D01*
X143832Y201075D01*
X116832Y247875D01*
X116814Y247895D01*
X116803Y247920D01*
X116749Y247969D01*
X116701Y248024D01*
X116676Y248035D01*
X116656Y248054D01*
X116587Y248078D01*
X116521Y248109D01*
X116494Y248111D01*
X116469Y248120D01*
X116396Y248115D01*
X116323Y248118D01*
X116297Y248109D01*
X116270Y248107D01*
X116174Y248063D01*
X116136Y248049D01*
X116129Y248042D01*
X116119Y248038D01*
X112782Y245764D01*
X112760Y245741D01*
X112724Y245718D01*
X109763Y242972D01*
X109744Y242946D01*
X109712Y242918D01*
X107194Y239762D01*
X107179Y239733D01*
X107152Y239700D01*
X105132Y236204D01*
X105122Y236174D01*
X105099Y236137D01*
X103623Y232379D01*
X103618Y232347D01*
X103601Y232307D01*
X102701Y228371D01*
X102701Y228339D01*
X102690Y228297D01*
X102387Y224271D01*
X102390Y224248D01*
X102387Y224228D01*
X102389Y224218D01*
X102387Y224197D01*
X102688Y220170D01*
X102696Y220139D01*
X102699Y220096D01*
X103596Y216160D01*
X103609Y216131D01*
X103618Y216088D01*
X105092Y212329D01*
X105109Y212302D01*
X105124Y212262D01*
X107142Y208765D01*
X107163Y208741D01*
X107184Y208703D01*
X109700Y205545D01*
X109725Y205525D01*
X109751Y205491D01*
X112710Y202743D01*
X112737Y202727D01*
X112768Y202697D01*
X116104Y200421D01*
X116133Y200409D01*
X116168Y200384D01*
X119806Y198631D01*
X119836Y198623D01*
X119875Y198604D01*
X123733Y197412D01*
X123765Y197409D01*
X123806Y197396D01*
X127798Y196793D01*
X127830Y196794D01*
X127872Y196787D01*
X131910Y196786D01*
X131941Y196792D01*
G37*
G36*
X-127872Y196787D02*
X-127872Y196787D01*
X-127841Y196793D01*
X-127798Y196793D01*
X-123806Y197396D01*
X-123776Y197407D01*
X-123733Y197412D01*
X-119875Y198604D01*
X-119847Y198619D01*
X-119806Y198631D01*
X-116168Y200384D01*
X-116143Y200403D01*
X-116104Y200421D01*
X-112768Y202697D01*
X-112746Y202720D01*
X-112710Y202743D01*
X-109751Y205491D01*
X-109732Y205516D01*
X-109700Y205545D01*
X-107184Y208703D01*
X-107169Y208731D01*
X-107142Y208765D01*
X-105124Y212262D01*
X-105114Y212292D01*
X-105092Y212329D01*
X-103618Y216088D01*
X-103612Y216120D01*
X-103596Y216160D01*
X-102699Y220096D01*
X-102698Y220128D01*
X-102688Y220170D01*
X-102387Y224197D01*
X-102391Y224228D01*
X-102390Y224244D01*
X-102387Y224261D01*
X-102388Y224265D01*
X-102387Y224271D01*
X-102690Y228297D01*
X-102699Y228328D01*
X-102701Y228371D01*
X-103601Y232307D01*
X-103614Y232336D01*
X-103623Y232379D01*
X-105099Y236137D01*
X-105117Y236164D01*
X-105132Y236204D01*
X-107152Y239700D01*
X-107173Y239724D01*
X-107194Y239762D01*
X-109712Y242918D01*
X-109737Y242938D01*
X-109763Y242972D01*
X-112724Y245718D01*
X-112751Y245734D01*
X-112782Y245764D01*
X-116119Y248038D01*
X-116144Y248048D01*
X-116165Y248065D01*
X-116235Y248086D01*
X-116302Y248115D01*
X-116330Y248115D01*
X-116356Y248122D01*
X-116428Y248114D01*
X-116501Y248114D01*
X-116526Y248103D01*
X-116553Y248100D01*
X-116617Y248064D01*
X-116684Y248036D01*
X-116703Y248016D01*
X-116726Y248003D01*
X-116794Y247922D01*
X-116822Y247892D01*
X-116825Y247883D01*
X-116832Y247875D01*
X-143832Y201075D01*
X-143841Y201049D01*
X-143857Y201026D01*
X-143872Y200955D01*
X-143896Y200886D01*
X-143893Y200859D01*
X-143899Y200832D01*
X-143886Y200761D01*
X-143880Y200688D01*
X-143867Y200663D01*
X-143862Y200637D01*
X-143822Y200576D01*
X-143788Y200511D01*
X-143767Y200494D01*
X-143752Y200471D01*
X-143666Y200410D01*
X-143635Y200385D01*
X-143626Y200382D01*
X-143616Y200375D01*
X-139978Y198624D01*
X-139947Y198617D01*
X-139909Y198597D01*
X-136050Y197408D01*
X-136018Y197405D01*
X-135977Y197392D01*
X-131984Y196791D01*
X-131953Y196793D01*
X-131910Y196786D01*
X-127872Y196787D01*
G37*
G36*
X116428Y50336D02*
X116428Y50336D01*
X116501Y50336D01*
X116526Y50347D01*
X116553Y50350D01*
X116617Y50386D01*
X116684Y50414D01*
X116703Y50434D01*
X116726Y50447D01*
X116794Y50528D01*
X116822Y50558D01*
X116825Y50567D01*
X116832Y50576D01*
X143832Y97376D01*
X143841Y97401D01*
X143857Y97424D01*
X143872Y97495D01*
X143896Y97564D01*
X143893Y97591D01*
X143899Y97618D01*
X143886Y97689D01*
X143880Y97762D01*
X143867Y97787D01*
X143862Y97813D01*
X143822Y97874D01*
X143788Y97939D01*
X143767Y97956D01*
X143752Y97979D01*
X143666Y98040D01*
X143635Y98065D01*
X143626Y98068D01*
X143616Y98075D01*
X139978Y99826D01*
X139947Y99833D01*
X139909Y99853D01*
X136050Y101042D01*
X136018Y101045D01*
X135977Y101058D01*
X131984Y101659D01*
X131953Y101657D01*
X131910Y101664D01*
X127872Y101663D01*
X127841Y101657D01*
X127798Y101657D01*
X123806Y101054D01*
X123776Y101043D01*
X123733Y101038D01*
X119875Y99846D01*
X119847Y99831D01*
X119806Y99819D01*
X116168Y98066D01*
X116143Y98047D01*
X116104Y98029D01*
X112768Y95753D01*
X112746Y95730D01*
X112710Y95707D01*
X109751Y92959D01*
X109732Y92934D01*
X109700Y92905D01*
X107184Y89747D01*
X107169Y89719D01*
X107142Y89685D01*
X105124Y86188D01*
X105114Y86158D01*
X105092Y86121D01*
X103618Y82362D01*
X103612Y82330D01*
X103596Y82290D01*
X102699Y78354D01*
X102698Y78322D01*
X102688Y78280D01*
X102387Y74254D01*
X102391Y74222D01*
X102387Y74179D01*
X102690Y70153D01*
X102699Y70122D01*
X102701Y70079D01*
X103601Y66143D01*
X103614Y66114D01*
X103623Y66071D01*
X105099Y62313D01*
X105117Y62286D01*
X105132Y62246D01*
X107152Y58750D01*
X107173Y58726D01*
X107194Y58688D01*
X109712Y55532D01*
X109737Y55512D01*
X109763Y55478D01*
X112724Y52732D01*
X112751Y52716D01*
X112782Y52686D01*
X116119Y50412D01*
X116144Y50402D01*
X116165Y50385D01*
X116235Y50364D01*
X116302Y50335D01*
X116330Y50336D01*
X116356Y50328D01*
X116428Y50336D01*
G37*
G36*
X-116396Y50335D02*
X-116396Y50335D01*
X-116323Y50332D01*
X-116297Y50341D01*
X-116270Y50343D01*
X-116174Y50387D01*
X-116136Y50401D01*
X-116129Y50408D01*
X-116119Y50412D01*
X-112782Y52686D01*
X-112760Y52709D01*
X-112724Y52732D01*
X-109763Y55478D01*
X-109744Y55504D01*
X-109712Y55532D01*
X-107194Y58688D01*
X-107179Y58717D01*
X-107152Y58750D01*
X-105132Y62246D01*
X-105122Y62276D01*
X-105099Y62313D01*
X-103623Y66071D01*
X-103618Y66103D01*
X-103601Y66143D01*
X-102701Y70079D01*
X-102701Y70111D01*
X-102690Y70153D01*
X-102387Y74179D01*
X-102391Y74210D01*
X-102387Y74254D01*
X-102688Y78280D01*
X-102696Y78311D01*
X-102699Y78354D01*
X-103596Y82290D01*
X-103609Y82319D01*
X-103618Y82362D01*
X-105092Y86121D01*
X-105109Y86148D01*
X-105124Y86188D01*
X-107142Y89685D01*
X-107163Y89709D01*
X-107184Y89747D01*
X-109700Y92905D01*
X-109725Y92925D01*
X-109751Y92959D01*
X-112710Y95707D01*
X-112737Y95723D01*
X-112768Y95753D01*
X-116104Y98029D01*
X-116133Y98041D01*
X-116168Y98066D01*
X-119806Y99819D01*
X-119836Y99827D01*
X-119875Y99846D01*
X-123733Y101038D01*
X-123765Y101041D01*
X-123806Y101054D01*
X-127798Y101657D01*
X-127830Y101656D01*
X-127872Y101663D01*
X-131910Y101664D01*
X-131941Y101658D01*
X-131984Y101659D01*
X-135977Y101058D01*
X-136007Y101047D01*
X-136050Y101042D01*
X-139909Y99853D01*
X-139937Y99838D01*
X-139978Y99826D01*
X-143616Y98075D01*
X-143638Y98058D01*
X-143664Y98049D01*
X-143717Y97999D01*
X-143775Y97955D01*
X-143788Y97931D01*
X-143808Y97912D01*
X-143838Y97846D01*
X-143874Y97782D01*
X-143877Y97755D01*
X-143888Y97730D01*
X-143889Y97657D01*
X-143898Y97585D01*
X-143890Y97559D01*
X-143890Y97531D01*
X-143854Y97433D01*
X-143842Y97394D01*
X-143836Y97386D01*
X-143832Y97376D01*
X-116832Y50576D01*
X-116814Y50555D01*
X-116803Y50530D01*
X-116749Y50481D01*
X-116701Y50427D01*
X-116676Y50415D01*
X-116656Y50396D01*
X-116587Y50372D01*
X-116521Y50341D01*
X-116494Y50340D01*
X-116469Y50330D01*
X-116396Y50335D01*
G37*
G36*
X27027Y-1269D02*
X27027Y-1269D01*
X27054Y-1271D01*
X27123Y-1249D01*
X27195Y-1235D01*
X27217Y-1219D01*
X27243Y-1211D01*
X27299Y-1163D01*
X27359Y-1122D01*
X27373Y-1099D01*
X27394Y-1081D01*
X27427Y-1016D01*
X27466Y-955D01*
X27470Y-928D01*
X27482Y-903D01*
X27492Y-799D01*
X27499Y-758D01*
X27497Y-749D01*
X27498Y-738D01*
X27196Y3286D01*
X27188Y3317D01*
X27185Y3360D01*
X26287Y7294D01*
X26274Y7323D01*
X26265Y7366D01*
X24791Y11122D01*
X24774Y11149D01*
X24759Y11190D01*
X22741Y14684D01*
X22720Y14708D01*
X22699Y14746D01*
X20183Y17901D01*
X20158Y17921D01*
X20132Y17956D01*
X17174Y20700D01*
X17147Y20717D01*
X17115Y20747D01*
X13781Y23020D01*
X13752Y23033D01*
X13717Y23058D01*
X10081Y24808D01*
X10050Y24816D01*
X10011Y24836D01*
X6155Y26025D01*
X6124Y26028D01*
X6082Y26042D01*
X2092Y26643D01*
X2060Y26642D01*
X2018Y26649D01*
X-2018Y26649D01*
X-2049Y26642D01*
X-2092Y26643D01*
X-6082Y26042D01*
X-6112Y26031D01*
X-6155Y26025D01*
X-10011Y24836D01*
X-10039Y24820D01*
X-10081Y24808D01*
X-13717Y23058D01*
X-13742Y23038D01*
X-13781Y23020D01*
X-17115Y20747D01*
X-17138Y20724D01*
X-17174Y20700D01*
X-20132Y17956D01*
X-20151Y17930D01*
X-20183Y17901D01*
X-22699Y14746D01*
X-22713Y14718D01*
X-22741Y14684D01*
X-24759Y11190D01*
X-24769Y11159D01*
X-24791Y11122D01*
X-26265Y7366D01*
X-26271Y7334D01*
X-26287Y7294D01*
X-27185Y3360D01*
X-27186Y3328D01*
X-27196Y3286D01*
X-27498Y-738D01*
X-27494Y-765D01*
X-27499Y-792D01*
X-27482Y-862D01*
X-27473Y-935D01*
X-27459Y-959D01*
X-27453Y-985D01*
X-27410Y-1044D01*
X-27373Y-1107D01*
X-27351Y-1123D01*
X-27335Y-1145D01*
X-27272Y-1182D01*
X-27214Y-1226D01*
X-27187Y-1233D01*
X-27164Y-1247D01*
X-27060Y-1264D01*
X-27021Y-1274D01*
X-27011Y-1272D01*
X-27000Y-1274D01*
X27000Y-1274D01*
X27027Y-1269D01*
G37*
G36*
X38174Y80600D02*
X38174Y80600D01*
X38249Y80613D01*
X38259Y80619D01*
X38269Y80622D01*
X38298Y80646D01*
X38369Y80694D01*
X49370Y91695D01*
X55563Y91695D01*
X55612Y91706D01*
X55663Y91708D01*
X55695Y91726D01*
X55731Y91734D01*
X55771Y91767D01*
X55815Y91791D01*
X55837Y91821D01*
X55865Y91844D01*
X55886Y91891D01*
X55915Y91933D01*
X55923Y91975D01*
X55936Y92003D01*
X55935Y92033D01*
X55943Y92075D01*
X55943Y149225D01*
X55931Y149275D01*
X55929Y149326D01*
X55912Y149358D01*
X55903Y149394D01*
X55871Y149433D01*
X55846Y149478D01*
X55816Y149499D01*
X55793Y149527D01*
X55746Y149548D01*
X55705Y149578D01*
X55663Y149586D01*
X55635Y149598D01*
X55604Y149597D01*
X55563Y149605D01*
X42863Y149605D01*
X42813Y149594D01*
X42762Y149592D01*
X42730Y149574D01*
X42694Y149566D01*
X42654Y149533D01*
X42610Y149509D01*
X42589Y149479D01*
X42560Y149456D01*
X42539Y149409D01*
X42510Y149367D01*
X42502Y149325D01*
X42489Y149297D01*
X42490Y149267D01*
X42482Y149225D01*
X42482Y124836D01*
X42500Y124762D01*
X42513Y124687D01*
X42519Y124677D01*
X42522Y124667D01*
X42546Y124638D01*
X42594Y124567D01*
X42738Y124422D01*
X42738Y120053D01*
X42594Y119908D01*
X42554Y119843D01*
X42510Y119781D01*
X42508Y119769D01*
X42502Y119761D01*
X42499Y119724D01*
X42482Y119639D01*
X42482Y101758D01*
X39774Y99049D01*
X39734Y98984D01*
X39690Y98922D01*
X39688Y98910D01*
X39682Y98902D01*
X39679Y98865D01*
X39662Y98780D01*
X39662Y94762D01*
X38769Y93868D01*
X33338Y93868D01*
X33288Y93857D01*
X33237Y93855D01*
X33205Y93837D01*
X33169Y93829D01*
X33129Y93796D01*
X33085Y93772D01*
X33064Y93742D01*
X33035Y93719D01*
X33014Y93672D01*
X32985Y93630D01*
X32977Y93589D01*
X32964Y93561D01*
X32965Y93530D01*
X32957Y93488D01*
X32957Y80963D01*
X32969Y80913D01*
X32971Y80862D01*
X32988Y80830D01*
X32997Y80794D01*
X33029Y80754D01*
X33054Y80710D01*
X33084Y80689D01*
X33107Y80660D01*
X33154Y80639D01*
X33195Y80610D01*
X33237Y80602D01*
X33265Y80589D01*
X33296Y80590D01*
X33338Y80582D01*
X38100Y80582D01*
X38174Y80600D01*
G37*
G36*
X73099Y91712D02*
X73099Y91712D01*
X73174Y91725D01*
X73184Y91732D01*
X73194Y91734D01*
X73223Y91758D01*
X73294Y91806D01*
X74881Y93394D01*
X74921Y93458D01*
X74965Y93520D01*
X74967Y93532D01*
X74973Y93541D01*
X74976Y93578D01*
X74993Y93663D01*
X74993Y149225D01*
X74981Y149275D01*
X74979Y149326D01*
X74962Y149358D01*
X74953Y149394D01*
X74921Y149433D01*
X74896Y149478D01*
X74866Y149499D01*
X74843Y149527D01*
X74796Y149548D01*
X74755Y149578D01*
X74713Y149586D01*
X74685Y149598D01*
X74654Y149597D01*
X74613Y149605D01*
X61913Y149605D01*
X61863Y149594D01*
X61812Y149592D01*
X61780Y149574D01*
X61744Y149566D01*
X61704Y149533D01*
X61660Y149509D01*
X61639Y149479D01*
X61610Y149456D01*
X61589Y149409D01*
X61560Y149367D01*
X61552Y149325D01*
X61539Y149297D01*
X61540Y149267D01*
X61532Y149225D01*
X61532Y92075D01*
X61544Y92025D01*
X61546Y91974D01*
X61563Y91942D01*
X61572Y91906D01*
X61604Y91867D01*
X61629Y91822D01*
X61659Y91801D01*
X61682Y91773D01*
X61729Y91752D01*
X61770Y91722D01*
X61812Y91714D01*
X61840Y91702D01*
X61871Y91703D01*
X61913Y91695D01*
X73025Y91695D01*
X73099Y91712D01*
G37*
%LPC*%
G36*
X24031Y144850D02*
X24031Y144850D01*
X23138Y145743D01*
X23138Y157007D01*
X24031Y157900D01*
X26353Y157900D01*
X26372Y157903D01*
X26392Y157901D01*
X26493Y157923D01*
X26595Y157939D01*
X26613Y157949D01*
X26632Y157953D01*
X26721Y158006D01*
X26813Y158055D01*
X26826Y158069D01*
X26843Y158079D01*
X26911Y158158D01*
X26982Y158233D01*
X26990Y158251D01*
X27003Y158266D01*
X27042Y158362D01*
X27086Y158456D01*
X27088Y158476D01*
X27095Y158494D01*
X27114Y158661D01*
X27114Y159402D01*
X27111Y159421D01*
X27113Y159441D01*
X27091Y159542D01*
X27074Y159644D01*
X27065Y159662D01*
X27060Y159681D01*
X27007Y159770D01*
X26959Y159862D01*
X26945Y159875D01*
X26934Y159892D01*
X26856Y159960D01*
X26781Y160031D01*
X26763Y160039D01*
X26747Y160052D01*
X26651Y160091D01*
X26558Y160135D01*
X26538Y160137D01*
X26519Y160144D01*
X26353Y160163D01*
X17656Y160163D01*
X16763Y161056D01*
X16763Y172319D01*
X17656Y173212D01*
X19139Y173212D01*
X19159Y173215D01*
X19178Y173213D01*
X19280Y173235D01*
X19382Y173252D01*
X19399Y173261D01*
X19419Y173266D01*
X19508Y173319D01*
X19599Y173367D01*
X19613Y173381D01*
X19630Y173392D01*
X19697Y173470D01*
X19769Y173545D01*
X19777Y173563D01*
X19790Y173579D01*
X19829Y173675D01*
X19872Y173768D01*
X19874Y173788D01*
X19882Y173807D01*
X19900Y173973D01*
X19900Y185519D01*
X20793Y186412D01*
X32057Y186412D01*
X32950Y185519D01*
X32950Y173497D01*
X32964Y173407D01*
X32972Y173316D01*
X32984Y173286D01*
X32989Y173254D01*
X33032Y173173D01*
X33068Y173090D01*
X33094Y173057D01*
X33105Y173037D01*
X33128Y173015D01*
X33173Y172959D01*
X33812Y172319D01*
X33812Y161056D01*
X33434Y160678D01*
X33381Y160604D01*
X33322Y160535D01*
X33310Y160504D01*
X33291Y160478D01*
X33264Y160391D01*
X33230Y160306D01*
X33225Y160265D01*
X33218Y160243D01*
X33219Y160211D01*
X33211Y160140D01*
X33211Y158661D01*
X33214Y158641D01*
X33212Y158622D01*
X33234Y158520D01*
X33251Y158418D01*
X33260Y158401D01*
X33265Y158381D01*
X33318Y158292D01*
X33366Y158201D01*
X33380Y158187D01*
X33391Y158170D01*
X33469Y158103D01*
X33544Y158031D01*
X33562Y158023D01*
X33578Y158010D01*
X33674Y157971D01*
X33767Y157928D01*
X33787Y157926D01*
X33806Y157918D01*
X33972Y157900D01*
X36294Y157900D01*
X37187Y157007D01*
X37187Y145743D01*
X36294Y144850D01*
X24031Y144850D01*
G37*
%LPD*%
%LPC*%
G36*
X43081Y154375D02*
X43081Y154375D01*
X42188Y155268D01*
X42188Y166532D01*
X43081Y167425D01*
X50290Y167425D01*
X50361Y167436D01*
X50433Y167438D01*
X50482Y167456D01*
X50533Y167464D01*
X50596Y167498D01*
X50664Y167523D01*
X50704Y167555D01*
X50750Y167580D01*
X50800Y167632D01*
X50856Y167676D01*
X50884Y167720D01*
X50920Y167758D01*
X50950Y167823D01*
X50989Y167883D01*
X51002Y167934D01*
X51023Y167981D01*
X51031Y168052D01*
X51049Y168122D01*
X51045Y168174D01*
X51051Y168225D01*
X51035Y168296D01*
X51030Y168367D01*
X51009Y168415D01*
X50998Y168466D01*
X50962Y168527D01*
X50933Y168593D01*
X50889Y168649D01*
X50872Y168677D01*
X50854Y168692D01*
X50829Y168724D01*
X50288Y169265D01*
X50288Y171756D01*
X50276Y171827D01*
X50274Y171899D01*
X50256Y171948D01*
X50248Y171999D01*
X50214Y172062D01*
X50190Y172130D01*
X50157Y172170D01*
X50133Y172216D01*
X50081Y172266D01*
X50036Y172322D01*
X49992Y172350D01*
X49955Y172386D01*
X49890Y172416D01*
X49829Y172455D01*
X49779Y172467D01*
X49732Y172489D01*
X49660Y172497D01*
X49591Y172515D01*
X49539Y172511D01*
X49487Y172516D01*
X49417Y172501D01*
X49345Y172496D01*
X49298Y172475D01*
X49247Y172464D01*
X49185Y172427D01*
X49119Y172399D01*
X49074Y172363D01*
X37793Y172363D01*
X36900Y173256D01*
X36900Y185519D01*
X37793Y186412D01*
X49057Y186412D01*
X49950Y185519D01*
X49950Y181690D01*
X49964Y181600D01*
X49972Y181509D01*
X49984Y181479D01*
X49989Y181447D01*
X50015Y181398D01*
X50016Y181397D01*
X50017Y181395D01*
X50032Y181366D01*
X50068Y181282D01*
X50094Y181250D01*
X50105Y181230D01*
X50128Y181207D01*
X50133Y181202D01*
X50142Y181186D01*
X50152Y181178D01*
X50173Y181151D01*
X54376Y176948D01*
X54450Y176895D01*
X54520Y176835D01*
X54550Y176823D01*
X54576Y176804D01*
X54663Y176777D01*
X54748Y176743D01*
X54789Y176739D01*
X54811Y176732D01*
X54843Y176733D01*
X54915Y176725D01*
X57747Y176725D01*
X60837Y173635D01*
X60837Y169265D01*
X58004Y166432D01*
X57993Y166416D01*
X57977Y166403D01*
X57921Y166316D01*
X57861Y166232D01*
X57855Y166213D01*
X57844Y166196D01*
X57819Y166096D01*
X57788Y165997D01*
X57789Y165977D01*
X57784Y165958D01*
X57792Y165855D01*
X57795Y165751D01*
X57801Y165733D01*
X57803Y165713D01*
X57843Y165618D01*
X57879Y165520D01*
X57892Y165505D01*
X57899Y165486D01*
X58004Y165355D01*
X60837Y162522D01*
X60837Y158153D01*
X57747Y155063D01*
X56347Y155063D01*
X56257Y155048D01*
X56166Y155041D01*
X56136Y155028D01*
X56104Y155023D01*
X56023Y154980D01*
X55940Y154945D01*
X55907Y154919D01*
X55887Y154908D01*
X55865Y154885D01*
X55809Y154840D01*
X55344Y154375D01*
X43081Y154375D01*
G37*
%LPD*%
%LPC*%
G36*
X-2957Y136913D02*
X-2957Y136913D01*
X-3850Y137806D01*
X-3850Y149069D01*
X-3556Y149363D01*
X-3514Y149422D01*
X-3464Y149473D01*
X-3442Y149521D01*
X-3412Y149563D01*
X-3391Y149631D01*
X-3361Y149697D01*
X-3355Y149748D01*
X-3340Y149798D01*
X-3342Y149870D01*
X-3334Y149941D01*
X-3345Y149992D01*
X-3346Y150044D01*
X-3371Y150111D01*
X-3386Y150181D01*
X-3413Y150226D01*
X-3430Y150275D01*
X-3475Y150331D01*
X-3512Y150392D01*
X-3552Y150426D01*
X-3584Y150467D01*
X-3644Y150506D01*
X-3699Y150552D01*
X-3747Y150572D01*
X-3791Y150600D01*
X-3860Y150617D01*
X-3927Y150644D01*
X-3998Y150652D01*
X-4030Y150660D01*
X-4053Y150658D01*
X-4094Y150663D01*
X-4344Y150663D01*
X-5237Y151556D01*
X-5237Y162819D01*
X-4344Y163712D01*
X10919Y163712D01*
X11812Y162819D01*
X11812Y151556D01*
X10919Y150663D01*
X10444Y150663D01*
X10373Y150651D01*
X10301Y150649D01*
X10252Y150631D01*
X10201Y150623D01*
X10138Y150590D01*
X10070Y150565D01*
X10030Y150532D01*
X9984Y150508D01*
X9934Y150456D01*
X9878Y150411D01*
X9850Y150367D01*
X9814Y150330D01*
X9784Y150264D01*
X9745Y150204D01*
X9733Y150154D01*
X9711Y150107D01*
X9703Y150035D01*
X9685Y149966D01*
X9689Y149914D01*
X9684Y149862D01*
X9699Y149792D01*
X9704Y149720D01*
X9725Y149673D01*
X9736Y149622D01*
X9773Y149560D01*
X9801Y149494D01*
X9846Y149438D01*
X9862Y149411D01*
X9880Y149395D01*
X9906Y149363D01*
X10200Y149069D01*
X10200Y137806D01*
X9307Y136913D01*
X-2957Y136913D01*
G37*
%LPD*%
%LPC*%
G36*
X-103419Y163893D02*
X-103419Y163893D01*
X-106780Y165285D01*
X-109353Y167857D01*
X-110745Y171219D01*
X-110745Y174856D01*
X-109353Y178218D01*
X-106780Y180790D01*
X-103419Y182182D01*
X-99781Y182182D01*
X-96420Y180790D01*
X-93847Y178218D01*
X-92455Y174856D01*
X-92455Y171219D01*
X-93847Y167857D01*
X-96420Y165285D01*
X-99781Y163893D01*
X-103419Y163893D01*
G37*
%LPD*%
D10*
X82600Y292325D03*
X165200Y149225D03*
X82600Y6125D03*
X-82600Y6125D03*
X-165200Y149225D03*
X-82600Y292325D03*
X123900Y220725D03*
X123900Y77725D03*
X0Y6125D03*
X-123900Y77725D03*
X-123900Y220725D03*
D11*
X-25400Y258763D03*
D12*
X25400Y258763D03*
D13*
X25288Y166688D03*
X3288Y176188D03*
X3288Y157188D03*
D14*
X30163Y151375D03*
X30163Y134375D03*
D15*
X26425Y179388D03*
X43425Y179388D03*
D14*
X3175Y143438D03*
X3175Y126438D03*
D16*
X57150Y57850D03*
X57150Y69850D03*
X57150Y81850D03*
D17*
X109538Y120650D03*
D14*
X-46038Y127563D03*
X-46038Y110563D03*
D15*
X-45475Y39688D03*
X-62475Y39688D03*
D14*
X68263Y143900D03*
X68263Y160900D03*
X50238Y106363D03*
X67238Y106363D03*
X50238Y96838D03*
X67238Y96838D03*
D15*
X-47625Y87875D03*
X-47625Y70875D03*
D18*
X49238Y117475D03*
X68238Y117475D03*
X49238Y131763D03*
X68238Y131763D03*
D19*
X-58738Y88875D03*
X-58738Y69875D03*
D14*
X49213Y143900D03*
X49213Y160900D03*
D20*
X-101600Y173038D03*
X-101600Y147638D03*
X-101600Y122238D03*
D21*
X35388Y106882D03*
X35388Y101881D03*
X35388Y96879D03*
X35388Y91878D03*
X35388Y86877D03*
X35388Y81876D03*
X35388Y76874D03*
X35388Y71873D03*
X35388Y66872D03*
X35388Y61871D03*
X35388Y56869D03*
X35388Y51868D03*
D22*
X29095Y45575D03*
X24094Y45575D03*
X19092Y45575D03*
X14091Y45575D03*
X9090Y45575D03*
X4089Y45575D03*
X-914Y45575D03*
X-5915Y45575D03*
X-10916Y45575D03*
X-15917Y45575D03*
X-20919Y45575D03*
X-25920Y45575D03*
D21*
X-32213Y51868D03*
X-32213Y56869D03*
X-32213Y61871D03*
X-32213Y66872D03*
X-32213Y71873D03*
X-32213Y76874D03*
X-32213Y81876D03*
X-32213Y86877D03*
X-32213Y91878D03*
X-32213Y96879D03*
X-32213Y101881D03*
X-32213Y106882D03*
D22*
X-25920Y113175D03*
X-20919Y113175D03*
X-15917Y113175D03*
X-10916Y113175D03*
X-5915Y113175D03*
X-914Y113175D03*
X4089Y113175D03*
X9090Y113175D03*
X14091Y113175D03*
X19092Y113175D03*
X24094Y113175D03*
X29095Y113175D03*
D23*
X1588Y79375D03*
D24*
X-32213Y76874D02*
X-41626Y76874D01*
X-47625Y70875D01*
X-57738Y70875D01*
D25*
X-98425Y85725D03*
X-84138Y93663D03*
X-95250Y52388D03*
X-79375Y52388D03*
X-23813Y34925D03*
X-9525Y55563D03*
X6350Y55563D03*
X-3175Y33338D03*
X39688Y6350D03*
X39688Y19050D03*
X-87313Y68263D03*
X138113Y180975D03*
X138113Y165100D03*
X112713Y185738D03*
X111125Y169863D03*
X-30163Y153988D03*
X-15875Y139700D03*
X-30163Y123825D03*
X-46038Y139700D03*
D24*
X-41626Y81876D02*
X-32213Y81876D01*
X-41626Y81876D02*
X-47625Y87875D01*
X-52388Y87875D01*
D26*
X49213Y160900D02*
X55000Y160900D01*
X55563Y160338D01*
D25*
X55563Y160338D03*
D26*
X-53388Y88875D02*
X-58738Y88875D01*
X-53388Y88875D02*
X-52388Y87875D01*
D25*
X-52388Y87875D03*
X55563Y171450D03*
D24*
X47625Y179388D01*
X43425Y179388D01*
D25*
X37464Y122238D03*
D24*
X30163Y129539D01*
X30163Y134375D01*
X30163Y161813D02*
X25288Y166688D01*
X30163Y161813D02*
X30163Y151375D01*
X26425Y167825D02*
X26425Y179388D01*
X26425Y167825D02*
X25288Y166688D01*
X3175Y157075D02*
X3175Y143438D01*
X3175Y157075D02*
X3288Y157188D01*
X4089Y125524D02*
X4089Y113175D01*
X4089Y125524D02*
X3175Y126438D01*
X35388Y76874D02*
X45124Y76874D01*
X47102Y78852D02*
X47102Y85112D01*
X48888Y86898D01*
X67238Y91050D02*
X67238Y96838D01*
X47102Y78852D02*
X45124Y76874D01*
X48888Y86898D02*
X63085Y86898D01*
X67238Y91050D01*
D27*
X101925Y58413D03*
D24*
X76521Y31421D02*
X30549Y31421D01*
X29095Y32875D01*
X29095Y45575D01*
X101925Y56825D02*
X101925Y58413D01*
X101925Y56825D02*
X76521Y31421D01*
X26574Y26849D02*
X24094Y29330D01*
X24094Y45575D01*
X26574Y26849D02*
X78948Y26849D01*
X123900Y71801D02*
X123900Y77725D01*
X123900Y71801D02*
X78948Y26849D01*
D28*
X-62475Y39688D02*
X-62475Y48625D01*
X-66675Y52825D01*
D27*
X-66675Y52825D03*
D28*
X35388Y61871D02*
X43382Y61871D01*
X45257Y59996D01*
D29*
X45257Y59996D03*
D28*
X45257Y57688D01*
X45593Y57351D01*
X45593Y46038D01*
X67814Y46038D01*
X109538Y114300D02*
X109538Y120650D01*
X100325Y105088D02*
X99694Y104441D01*
X99078Y103778D01*
X98479Y103101D01*
X97897Y102409D01*
X97332Y101703D01*
X96785Y100984D01*
X96255Y100251D01*
X95744Y99505D01*
X95251Y98747D01*
X94776Y97978D01*
X94321Y97196D01*
X93885Y96404D01*
X93469Y95602D01*
X93072Y94789D01*
X92696Y93967D01*
X92339Y93136D01*
X92004Y92297D01*
X91689Y91449D01*
X91394Y90594D01*
X91121Y89732D01*
X90869Y88864D01*
X90639Y87989D01*
X90430Y87110D01*
X90243Y86225D01*
X90077Y85336D01*
X89934Y84444D01*
X89812Y83548D01*
X89712Y82649D01*
X89635Y81748D01*
X89579Y80846D01*
X89546Y79942D01*
X89535Y79038D01*
X100325Y105088D02*
X109538Y114300D01*
X81560Y59783D02*
X67814Y46038D01*
X81560Y59783D02*
X82012Y60247D01*
X82454Y60721D01*
X82884Y61206D01*
X83303Y61701D01*
X83709Y62206D01*
X84104Y62720D01*
X84486Y63243D01*
X84856Y63775D01*
X85212Y64316D01*
X85556Y64866D01*
X85887Y65423D01*
X86204Y65988D01*
X86508Y66560D01*
X86798Y67140D01*
X87074Y67726D01*
X87336Y68319D01*
X87584Y68918D01*
X87818Y69522D01*
X88037Y70132D01*
X88242Y70747D01*
X88432Y71366D01*
X88607Y71990D01*
X88767Y72618D01*
X88913Y73250D01*
X89043Y73885D01*
X89158Y74522D01*
X89258Y75163D01*
X89342Y75805D01*
X89412Y76450D01*
X89466Y77095D01*
X89504Y77742D01*
X89527Y78390D01*
X89535Y79038D01*
D30*
X49690Y65310D02*
X49098Y65310D01*
X49690Y65310D02*
X57150Y57850D01*
X47536Y66872D02*
X35388Y66872D01*
X47536Y66872D02*
X49098Y65310D01*
X49098Y74390D02*
X49690Y74390D01*
X57150Y81850D01*
X46581Y71873D02*
X35388Y71873D01*
X46581Y71873D02*
X49098Y74390D01*
X-32213Y106882D02*
X-42357Y106882D01*
X-46038Y110563D01*
X-47063Y110563D01*
X-84138Y147638D01*
X-101600Y147638D01*
X-38984Y101881D02*
X-32213Y101881D01*
X-54864Y102489D02*
X-74613Y122238D01*
X-101600Y122238D01*
X-54864Y102489D02*
X-39592Y102489D01*
X-38984Y101881D01*
D27*
X-99457Y213849D03*
D24*
X-5915Y118185D02*
X-5915Y113175D01*
X-5915Y118185D02*
X-99457Y211728D01*
X-99457Y213849D01*
X-10916Y116720D02*
X-10916Y113175D01*
X-10916Y116720D02*
X-114920Y220725D01*
X-123900Y220725D01*
X-35758Y86877D02*
X-32213Y86877D01*
X-35758Y86877D02*
X-37050Y88169D01*
X-37050Y88170D02*
X-37128Y88251D01*
X-37203Y88334D01*
X-37275Y88419D01*
X-37344Y88507D01*
X-37410Y88598D01*
X-37473Y88690D01*
X-37533Y88785D01*
X-37589Y88881D01*
X-37642Y88980D01*
X-37692Y89080D01*
X-37739Y89182D01*
X-37781Y89285D01*
X-37821Y89390D01*
X-37856Y89496D01*
X-37888Y89604D01*
X-37917Y89712D01*
X-37941Y89821D01*
X-37962Y89931D01*
X-37979Y90042D01*
X-37993Y90153D01*
X-38002Y90264D01*
X-38008Y90376D01*
X-38010Y90488D01*
X-38011Y90488D02*
X-38011Y90547D01*
X-38010Y90547D02*
X-38013Y90812D01*
X-38023Y91077D01*
X-38038Y91342D01*
X-38060Y91606D01*
X-38089Y91869D01*
X-38123Y92132D01*
X-38164Y92394D01*
X-38211Y92655D01*
X-38265Y92915D01*
X-38324Y93173D01*
X-38390Y93430D01*
X-38461Y93685D01*
X-38539Y93939D01*
X-38623Y94190D01*
X-38712Y94440D01*
X-38808Y94687D01*
X-38909Y94932D01*
X-39017Y95174D01*
X-39130Y95414D01*
X-39248Y95651D01*
X-39373Y95885D01*
X-39502Y96116D01*
X-39638Y96344D01*
X-39778Y96569D01*
X-39924Y96790D01*
X-40075Y97008D01*
X-40232Y97222D01*
X-40393Y97433D01*
X-40559Y97639D01*
X-40731Y97841D01*
X-40907Y98040D01*
X-41087Y98234D01*
X-41273Y98423D01*
X-68263Y98423D01*
X-68263Y98425D01*
X-68263Y98423D02*
X-87286Y79399D01*
X-87393Y79295D01*
X-87503Y79193D01*
X-87616Y79095D01*
X-87731Y78999D01*
X-87848Y78906D01*
X-87968Y78817D01*
X-88090Y78730D01*
X-88215Y78647D01*
X-88341Y78567D01*
X-88470Y78491D01*
X-88601Y78418D01*
X-88733Y78348D01*
X-88867Y78282D01*
X-89003Y78219D01*
X-89141Y78160D01*
X-89280Y78105D01*
X-89420Y78053D01*
X-89562Y78005D01*
X-89705Y77960D01*
X-89849Y77920D01*
X-89994Y77883D01*
X-90140Y77850D01*
X-90286Y77821D01*
X-90434Y77795D01*
X-90582Y77774D01*
X-90731Y77756D01*
X-90880Y77743D01*
X-91029Y77733D01*
X-91178Y77727D01*
X-91328Y77725D01*
X-123900Y77725D01*
X-35758Y71873D02*
X-32213Y71873D01*
X-35758Y71873D02*
X-39577Y68054D01*
X-39577Y64113D01*
X-42594Y61096D01*
X-42665Y61028D01*
X-42738Y60962D01*
X-42813Y60900D01*
X-42891Y60840D01*
X-42971Y60783D01*
X-43053Y60729D01*
X-43138Y60679D01*
X-43223Y60631D01*
X-43311Y60587D01*
X-43400Y60546D01*
X-43491Y60508D01*
X-43583Y60474D01*
X-43676Y60444D01*
X-43771Y60416D01*
X-43866Y60393D01*
X-43962Y60373D01*
X-44059Y60356D01*
X-44156Y60344D01*
X-44254Y60334D01*
X-44352Y60329D01*
X-44450Y60327D01*
X-90783Y60327D01*
X-91239Y60322D01*
X-91695Y60305D01*
X-92150Y60278D01*
X-92605Y60240D01*
X-93058Y60191D01*
X-93510Y60132D01*
X-93961Y60062D01*
X-94410Y59981D01*
X-94856Y59889D01*
X-95301Y59787D01*
X-95743Y59674D01*
X-96182Y59551D01*
X-96618Y59417D01*
X-97051Y59273D01*
X-97480Y59119D01*
X-97905Y58954D01*
X-98327Y58780D01*
X-98744Y58595D01*
X-99156Y58401D01*
X-99564Y58197D01*
X-99967Y57983D01*
X-100365Y57760D01*
X-100757Y57527D01*
X-101143Y57285D01*
X-101524Y57034D01*
X-101899Y56774D01*
X-102267Y56505D01*
X-102629Y56227D01*
X-102984Y55941D01*
X-103332Y55646D01*
X-103673Y55344D01*
X-104007Y55033D01*
X-104333Y54714D01*
X-104334Y54714D02*
X-109908Y49140D01*
D27*
X-109908Y49140D03*
X31886Y3206D03*
D24*
X19092Y23938D02*
X19092Y45575D01*
X19092Y23938D02*
X30299Y12731D01*
X30299Y4794D01*
X31886Y3206D01*
X14091Y43988D02*
X14091Y45575D01*
X14091Y43988D02*
X13967Y43864D01*
X13967Y6125D01*
X0Y6125D01*
D28*
X-45475Y39688D02*
X-45475Y45013D01*
X-38620Y51868D02*
X-32213Y51868D01*
X-38620Y51868D02*
X-45475Y45013D01*
D27*
X117134Y194158D03*
D24*
X123484Y187808D01*
X123484Y123724D01*
X123478Y123163D01*
X123458Y122603D01*
X123426Y122043D01*
X123380Y121485D01*
X123322Y120927D01*
X123251Y120371D01*
X123167Y119816D01*
X123071Y119264D01*
X122961Y118714D01*
X122839Y118167D01*
X122705Y117623D01*
X122557Y117082D01*
X122398Y116544D01*
X122226Y116011D01*
X122042Y115481D01*
X121845Y114956D01*
X121636Y114436D01*
X121636Y114437D02*
X121560Y114259D01*
X121480Y114084D01*
X121396Y113911D01*
X121307Y113740D01*
X121214Y113571D01*
X121117Y113405D01*
X121016Y113241D01*
X120911Y113079D01*
X120802Y112920D01*
X120689Y112764D01*
X120572Y112611D01*
X120452Y112460D01*
X120328Y112313D01*
X120200Y112169D01*
X120069Y112027D01*
X119934Y111889D01*
X119797Y111755D01*
X119655Y111624D01*
X119511Y111496D01*
X119364Y111372D01*
X119213Y111252D01*
X119060Y111135D01*
X118904Y111022D01*
X118745Y110913D01*
X117731Y110235D01*
X117134Y109979D01*
X116543Y109709D01*
X115960Y109424D01*
X115383Y109125D01*
X114814Y108812D01*
X114253Y108485D01*
X113700Y108144D01*
X113155Y107790D01*
X112620Y107422D01*
X112093Y107042D01*
X111576Y106648D01*
X111069Y106243D01*
X110572Y105824D01*
X110086Y105394D01*
X109610Y104952D01*
X109145Y104498D01*
X86287Y57828D02*
X69453Y40994D01*
X86287Y57828D02*
X86730Y58281D01*
X87162Y58746D01*
X87581Y59221D01*
X87990Y59706D01*
X88386Y60201D01*
X88770Y60706D01*
X89141Y61219D01*
X89500Y61742D01*
X89845Y62273D01*
X90178Y62813D01*
X90497Y63361D01*
X90803Y63916D01*
X91095Y64479D01*
X91373Y65049D01*
X91637Y65625D01*
X91887Y66208D01*
X92122Y66797D01*
X92343Y67391D01*
X92549Y67990D01*
X92741Y68595D01*
X92917Y69204D01*
X93079Y69817D01*
X93225Y70433D01*
X93357Y71054D01*
X93473Y71677D01*
X93573Y72303D01*
X93659Y72931D01*
X93729Y73561D01*
X93783Y74193D01*
X93822Y74826D01*
X93845Y75459D01*
X93853Y76093D01*
X93853Y79229D01*
X93860Y79820D01*
X93882Y80411D01*
X93918Y81001D01*
X93969Y81590D01*
X94034Y82178D01*
X94114Y82763D01*
X94208Y83347D01*
X94316Y83928D01*
X94438Y84507D01*
X94575Y85082D01*
X94726Y85654D01*
X94890Y86221D01*
X95069Y86785D01*
X95261Y87344D01*
X95467Y87898D01*
X95687Y88447D01*
X95920Y88990D01*
X96166Y89528D01*
X96425Y90059D01*
X96697Y90584D01*
X96982Y91102D01*
X97280Y91613D01*
X97590Y92116D01*
X97913Y92612D01*
X98247Y93099D01*
X98593Y93578D01*
X98951Y94049D01*
X99321Y94510D01*
X99701Y94963D01*
X100093Y95406D01*
X100495Y95839D01*
X100908Y96262D01*
X100908Y96261D02*
X109145Y104498D01*
X39969Y56869D02*
X35388Y56869D01*
X39969Y56869D02*
X41275Y55563D01*
X41275Y42863D01*
X43144Y40994D01*
X69453Y40994D01*
X38563Y35993D02*
X35388Y39168D01*
X35388Y51868D01*
X38563Y35993D02*
X70918Y35993D01*
X128663Y215963D02*
X123900Y220725D01*
X93249Y58324D02*
X70918Y35993D01*
X93249Y58323D02*
X93543Y58624D01*
X93829Y58932D01*
X94108Y59247D01*
X94380Y59568D01*
X94644Y59895D01*
X94900Y60229D01*
X95148Y60569D01*
X95388Y60914D01*
X95619Y61265D01*
X95843Y61622D01*
X96057Y61983D01*
X96263Y62350D01*
X96460Y62722D01*
X96649Y63098D01*
X96828Y63478D01*
X96998Y63863D01*
X97159Y64252D01*
X97311Y64644D01*
X97453Y65040D01*
X97586Y65439D01*
X97709Y65841D01*
X97823Y66246D01*
X97927Y66653D01*
X98021Y67063D01*
X98106Y67475D01*
X98180Y67889D01*
X98245Y68305D01*
X98300Y68722D01*
X98345Y69140D01*
X98380Y69559D01*
X98405Y69979D01*
X98420Y70399D01*
X98425Y70820D01*
X98425Y76959D01*
X98433Y77572D01*
X98455Y78186D01*
X98493Y78798D01*
X98545Y79409D01*
X98613Y80019D01*
X98696Y80627D01*
X98793Y81232D01*
X98905Y81835D01*
X99032Y82436D01*
X99174Y83033D01*
X99330Y83626D01*
X99501Y84215D01*
X99687Y84800D01*
X99886Y85380D01*
X100100Y85955D01*
X100328Y86525D01*
X100569Y87088D01*
X100825Y87646D01*
X101094Y88197D01*
X101376Y88742D01*
X101672Y89279D01*
X101981Y89810D01*
X102303Y90332D01*
X102638Y90846D01*
X102985Y91352D01*
X103344Y91849D01*
X103715Y92337D01*
X104099Y92816D01*
X104494Y93286D01*
X104900Y93745D01*
X105318Y94195D01*
X105746Y94634D01*
X111082Y99969D01*
X111081Y99969D02*
X111459Y100338D01*
X111846Y100697D01*
X112241Y101047D01*
X112645Y101387D01*
X113058Y101717D01*
X113478Y102036D01*
X113906Y102346D01*
X114341Y102644D01*
X114784Y102932D01*
X115233Y103209D01*
X115689Y103475D01*
X116152Y103730D01*
X116620Y103973D01*
X117095Y104205D01*
X117575Y104424D01*
X118060Y104632D01*
X118061Y104632D02*
X125434Y109559D01*
X125617Y109747D01*
X125796Y109939D01*
X125970Y110135D01*
X126139Y110335D01*
X126304Y110540D01*
X126464Y110748D01*
X126618Y110960D01*
X126768Y111175D01*
X126912Y111394D01*
X127051Y111616D01*
X127185Y111842D01*
X127314Y112071D01*
X127437Y112302D01*
X127554Y112537D01*
X127666Y112774D01*
X127772Y113014D01*
X127872Y113257D01*
X127967Y113501D01*
X128056Y113748D01*
X128139Y113997D01*
X128216Y114248D01*
X128286Y114500D01*
X128351Y114754D01*
X128410Y115010D01*
X128463Y115267D01*
X128509Y115525D01*
X128550Y115784D01*
X128584Y116044D01*
X128612Y116305D01*
X128634Y116567D01*
X128650Y116829D01*
X128659Y117091D01*
X128662Y117353D01*
X128663Y117353D02*
X128663Y215963D01*
M02*
