G04 EAGLE Gerber RS-274X export*
G75*
%MOMM*%
%FSLAX34Y34*%
%LPD*%
%INSolderpaste Bottom*%
%IPPOS*%
%AMOC8*
5,1,8,0,0,1.08239X$1,22.5*%
G01*
%ADD10R,1.400000X1.000000*%
%ADD11R,1.100000X1.000000*%
%ADD12R,1.000000X1.100000*%
%ADD13R,1.399997X0.400000*%
%ADD14R,1.300000X1.500000*%
%ADD15R,1.500000X1.300000*%
%ADD16R,0.550000X0.297181*%
%ADD17R,0.297181X0.550000*%

G36*
X-13635Y94474D02*
X-13635Y94474D01*
X-13632Y94473D01*
X-13589Y94493D01*
X-13546Y94511D01*
X-13545Y94513D01*
X-13543Y94514D01*
X-13510Y94599D01*
X-13510Y106823D01*
X-13511Y106825D01*
X-13510Y106827D01*
X-13530Y106870D01*
X-13549Y106914D01*
X-13551Y106914D01*
X-13552Y106916D01*
X-13637Y106949D01*
X-25861Y106949D01*
X-25863Y106948D01*
X-25865Y106949D01*
X-25908Y106929D01*
X-25951Y106911D01*
X-25952Y106909D01*
X-25954Y106908D01*
X-25987Y106823D01*
X-25987Y94599D01*
X-25986Y94597D01*
X-25987Y94595D01*
X-25967Y94552D01*
X-25948Y94508D01*
X-25946Y94508D01*
X-25945Y94506D01*
X-25861Y94473D01*
X-13637Y94473D01*
X-13635Y94474D01*
G37*
G36*
X14814Y94474D02*
X14814Y94474D01*
X14816Y94473D01*
X14859Y94493D01*
X14902Y94511D01*
X14903Y94513D01*
X14905Y94514D01*
X14938Y94599D01*
X14938Y106823D01*
X14937Y106825D01*
X14938Y106827D01*
X14918Y106870D01*
X14899Y106914D01*
X14897Y106914D01*
X14896Y106916D01*
X14812Y106949D01*
X2588Y106949D01*
X2586Y106948D01*
X2583Y106949D01*
X2540Y106929D01*
X2497Y106911D01*
X2496Y106909D01*
X2494Y106908D01*
X2461Y106823D01*
X2461Y94599D01*
X2462Y94597D01*
X2461Y94595D01*
X2481Y94552D01*
X2500Y94508D01*
X2502Y94508D01*
X2503Y94506D01*
X2588Y94473D01*
X14812Y94473D01*
X14814Y94474D01*
G37*
G36*
X590Y94474D02*
X590Y94474D01*
X592Y94473D01*
X635Y94493D01*
X678Y94511D01*
X679Y94513D01*
X681Y94514D01*
X714Y94599D01*
X714Y106823D01*
X713Y106825D01*
X714Y106827D01*
X694Y106870D01*
X675Y106914D01*
X673Y106914D01*
X672Y106916D01*
X588Y106949D01*
X-11637Y106949D01*
X-11639Y106948D01*
X-11641Y106949D01*
X-11684Y106929D01*
X-11727Y106911D01*
X-11728Y106909D01*
X-11730Y106908D01*
X-11763Y106823D01*
X-11763Y94599D01*
X-11762Y94597D01*
X-11763Y94595D01*
X-11743Y94552D01*
X-11724Y94508D01*
X-11722Y94508D01*
X-11721Y94506D01*
X-11637Y94473D01*
X588Y94473D01*
X590Y94474D01*
G37*
G36*
X29038Y94474D02*
X29038Y94474D01*
X29040Y94473D01*
X29083Y94493D01*
X29126Y94511D01*
X29127Y94513D01*
X29129Y94514D01*
X29162Y94599D01*
X29162Y106823D01*
X29161Y106825D01*
X29162Y106827D01*
X29142Y106870D01*
X29123Y106914D01*
X29121Y106914D01*
X29120Y106916D01*
X29036Y106949D01*
X16812Y106949D01*
X16810Y106948D01*
X16807Y106949D01*
X16764Y106929D01*
X16721Y106911D01*
X16720Y106909D01*
X16718Y106908D01*
X16685Y106823D01*
X16685Y94599D01*
X16686Y94597D01*
X16685Y94595D01*
X16705Y94552D01*
X16724Y94508D01*
X16726Y94508D01*
X16727Y94506D01*
X16812Y94473D01*
X29036Y94473D01*
X29038Y94474D01*
G37*
G36*
X14814Y80250D02*
X14814Y80250D01*
X14816Y80249D01*
X14859Y80269D01*
X14902Y80287D01*
X14903Y80289D01*
X14905Y80290D01*
X14938Y80375D01*
X14938Y92599D01*
X14937Y92601D01*
X14938Y92603D01*
X14918Y92646D01*
X14899Y92690D01*
X14897Y92690D01*
X14896Y92692D01*
X14812Y92725D01*
X2588Y92725D01*
X2586Y92724D01*
X2583Y92725D01*
X2540Y92705D01*
X2497Y92687D01*
X2496Y92685D01*
X2494Y92684D01*
X2461Y92599D01*
X2461Y80375D01*
X2462Y80373D01*
X2461Y80371D01*
X2481Y80328D01*
X2500Y80284D01*
X2502Y80284D01*
X2503Y80282D01*
X2588Y80249D01*
X14812Y80249D01*
X14814Y80250D01*
G37*
G36*
X-13635Y80250D02*
X-13635Y80250D01*
X-13632Y80249D01*
X-13589Y80269D01*
X-13546Y80287D01*
X-13545Y80289D01*
X-13543Y80290D01*
X-13510Y80375D01*
X-13510Y92599D01*
X-13511Y92601D01*
X-13510Y92603D01*
X-13530Y92646D01*
X-13549Y92690D01*
X-13551Y92690D01*
X-13552Y92692D01*
X-13637Y92725D01*
X-25861Y92725D01*
X-25863Y92724D01*
X-25865Y92725D01*
X-25908Y92705D01*
X-25951Y92687D01*
X-25952Y92685D01*
X-25954Y92684D01*
X-25987Y92599D01*
X-25987Y80375D01*
X-25986Y80373D01*
X-25987Y80371D01*
X-25967Y80328D01*
X-25948Y80284D01*
X-25946Y80284D01*
X-25945Y80282D01*
X-25861Y80249D01*
X-13637Y80249D01*
X-13635Y80250D01*
G37*
G36*
X590Y80250D02*
X590Y80250D01*
X592Y80249D01*
X635Y80269D01*
X678Y80287D01*
X679Y80289D01*
X681Y80290D01*
X714Y80375D01*
X714Y92599D01*
X713Y92601D01*
X714Y92603D01*
X694Y92646D01*
X675Y92690D01*
X673Y92690D01*
X672Y92692D01*
X588Y92725D01*
X-11637Y92725D01*
X-11639Y92724D01*
X-11641Y92725D01*
X-11684Y92705D01*
X-11727Y92687D01*
X-11728Y92685D01*
X-11730Y92684D01*
X-11763Y92599D01*
X-11763Y80375D01*
X-11762Y80373D01*
X-11763Y80371D01*
X-11743Y80328D01*
X-11724Y80284D01*
X-11722Y80284D01*
X-11721Y80282D01*
X-11637Y80249D01*
X588Y80249D01*
X590Y80250D01*
G37*
G36*
X29038Y80250D02*
X29038Y80250D01*
X29040Y80249D01*
X29083Y80269D01*
X29126Y80287D01*
X29127Y80289D01*
X29129Y80290D01*
X29162Y80375D01*
X29162Y92599D01*
X29161Y92601D01*
X29162Y92603D01*
X29142Y92646D01*
X29123Y92690D01*
X29121Y92690D01*
X29120Y92692D01*
X29036Y92725D01*
X16812Y92725D01*
X16810Y92724D01*
X16807Y92725D01*
X16764Y92705D01*
X16721Y92687D01*
X16720Y92685D01*
X16718Y92684D01*
X16685Y92599D01*
X16685Y80375D01*
X16686Y80373D01*
X16685Y80371D01*
X16705Y80328D01*
X16724Y80284D01*
X16726Y80284D01*
X16727Y80282D01*
X16812Y80249D01*
X29036Y80249D01*
X29038Y80250D01*
G37*
G36*
X-13635Y66026D02*
X-13635Y66026D01*
X-13632Y66025D01*
X-13589Y66045D01*
X-13546Y66063D01*
X-13545Y66065D01*
X-13543Y66066D01*
X-13510Y66151D01*
X-13510Y78375D01*
X-13511Y78377D01*
X-13510Y78379D01*
X-13530Y78422D01*
X-13549Y78466D01*
X-13551Y78466D01*
X-13552Y78468D01*
X-13637Y78501D01*
X-25861Y78501D01*
X-25863Y78500D01*
X-25865Y78501D01*
X-25908Y78481D01*
X-25951Y78463D01*
X-25952Y78461D01*
X-25954Y78460D01*
X-25987Y78375D01*
X-25987Y66151D01*
X-25986Y66149D01*
X-25987Y66147D01*
X-25967Y66104D01*
X-25948Y66060D01*
X-25946Y66060D01*
X-25945Y66058D01*
X-25861Y66025D01*
X-13637Y66025D01*
X-13635Y66026D01*
G37*
G36*
X14814Y66026D02*
X14814Y66026D01*
X14816Y66025D01*
X14859Y66045D01*
X14902Y66063D01*
X14903Y66065D01*
X14905Y66066D01*
X14938Y66151D01*
X14938Y78375D01*
X14937Y78377D01*
X14938Y78379D01*
X14918Y78422D01*
X14899Y78466D01*
X14897Y78466D01*
X14896Y78468D01*
X14812Y78501D01*
X2588Y78501D01*
X2586Y78500D01*
X2583Y78501D01*
X2540Y78481D01*
X2497Y78463D01*
X2496Y78461D01*
X2494Y78460D01*
X2461Y78375D01*
X2461Y66151D01*
X2462Y66149D01*
X2461Y66147D01*
X2481Y66104D01*
X2500Y66060D01*
X2502Y66060D01*
X2503Y66058D01*
X2588Y66025D01*
X14812Y66025D01*
X14814Y66026D01*
G37*
G36*
X590Y66026D02*
X590Y66026D01*
X592Y66025D01*
X635Y66045D01*
X678Y66063D01*
X679Y66065D01*
X681Y66066D01*
X714Y66151D01*
X714Y78375D01*
X713Y78377D01*
X714Y78379D01*
X694Y78422D01*
X675Y78466D01*
X673Y78466D01*
X672Y78468D01*
X588Y78501D01*
X-11637Y78501D01*
X-11639Y78500D01*
X-11641Y78501D01*
X-11684Y78481D01*
X-11727Y78463D01*
X-11728Y78461D01*
X-11730Y78460D01*
X-11763Y78375D01*
X-11763Y66151D01*
X-11762Y66149D01*
X-11763Y66147D01*
X-11743Y66104D01*
X-11724Y66060D01*
X-11722Y66060D01*
X-11721Y66058D01*
X-11637Y66025D01*
X588Y66025D01*
X590Y66026D01*
G37*
G36*
X29038Y66026D02*
X29038Y66026D01*
X29040Y66025D01*
X29083Y66045D01*
X29126Y66063D01*
X29127Y66065D01*
X29129Y66066D01*
X29162Y66151D01*
X29162Y78375D01*
X29161Y78377D01*
X29162Y78379D01*
X29142Y78422D01*
X29123Y78466D01*
X29121Y78466D01*
X29120Y78468D01*
X29036Y78501D01*
X16812Y78501D01*
X16810Y78500D01*
X16807Y78501D01*
X16764Y78481D01*
X16721Y78463D01*
X16720Y78461D01*
X16718Y78460D01*
X16685Y78375D01*
X16685Y66151D01*
X16686Y66149D01*
X16685Y66147D01*
X16705Y66104D01*
X16724Y66060D01*
X16726Y66060D01*
X16727Y66058D01*
X16812Y66025D01*
X29036Y66025D01*
X29038Y66026D01*
G37*
G36*
X590Y51802D02*
X590Y51802D01*
X592Y51801D01*
X635Y51821D01*
X678Y51839D01*
X679Y51841D01*
X681Y51842D01*
X714Y51927D01*
X714Y64151D01*
X713Y64153D01*
X714Y64155D01*
X694Y64198D01*
X675Y64242D01*
X673Y64242D01*
X672Y64244D01*
X588Y64277D01*
X-11637Y64277D01*
X-11639Y64276D01*
X-11641Y64277D01*
X-11684Y64257D01*
X-11727Y64239D01*
X-11728Y64237D01*
X-11730Y64236D01*
X-11763Y64151D01*
X-11763Y51927D01*
X-11762Y51925D01*
X-11763Y51923D01*
X-11743Y51880D01*
X-11724Y51836D01*
X-11722Y51836D01*
X-11721Y51834D01*
X-11637Y51801D01*
X588Y51801D01*
X590Y51802D01*
G37*
G36*
X14814Y51802D02*
X14814Y51802D01*
X14816Y51801D01*
X14859Y51821D01*
X14902Y51839D01*
X14903Y51841D01*
X14905Y51842D01*
X14938Y51927D01*
X14938Y64151D01*
X14937Y64153D01*
X14938Y64155D01*
X14918Y64198D01*
X14899Y64242D01*
X14897Y64242D01*
X14896Y64244D01*
X14812Y64277D01*
X2588Y64277D01*
X2586Y64276D01*
X2583Y64277D01*
X2540Y64257D01*
X2497Y64239D01*
X2496Y64237D01*
X2494Y64236D01*
X2461Y64151D01*
X2461Y51927D01*
X2462Y51925D01*
X2461Y51923D01*
X2481Y51880D01*
X2500Y51836D01*
X2502Y51836D01*
X2503Y51834D01*
X2588Y51801D01*
X14812Y51801D01*
X14814Y51802D01*
G37*
G36*
X29038Y51802D02*
X29038Y51802D01*
X29040Y51801D01*
X29083Y51821D01*
X29126Y51839D01*
X29127Y51841D01*
X29129Y51842D01*
X29162Y51927D01*
X29162Y64151D01*
X29161Y64153D01*
X29162Y64155D01*
X29142Y64198D01*
X29123Y64242D01*
X29121Y64242D01*
X29120Y64244D01*
X29036Y64277D01*
X16812Y64277D01*
X16810Y64276D01*
X16807Y64277D01*
X16764Y64257D01*
X16721Y64239D01*
X16720Y64237D01*
X16718Y64236D01*
X16685Y64151D01*
X16685Y51927D01*
X16686Y51925D01*
X16685Y51923D01*
X16705Y51880D01*
X16724Y51836D01*
X16726Y51836D01*
X16727Y51834D01*
X16812Y51801D01*
X29036Y51801D01*
X29038Y51802D01*
G37*
G36*
X-13635Y51802D02*
X-13635Y51802D01*
X-13632Y51801D01*
X-13589Y51821D01*
X-13546Y51839D01*
X-13545Y51841D01*
X-13543Y51842D01*
X-13510Y51927D01*
X-13510Y64151D01*
X-13511Y64153D01*
X-13510Y64155D01*
X-13530Y64198D01*
X-13549Y64242D01*
X-13551Y64242D01*
X-13552Y64244D01*
X-13637Y64277D01*
X-25861Y64277D01*
X-25863Y64276D01*
X-25865Y64277D01*
X-25908Y64257D01*
X-25951Y64239D01*
X-25952Y64237D01*
X-25954Y64236D01*
X-25987Y64151D01*
X-25987Y51927D01*
X-25986Y51925D01*
X-25987Y51923D01*
X-25967Y51880D01*
X-25948Y51836D01*
X-25946Y51836D01*
X-25945Y51834D01*
X-25861Y51801D01*
X-13637Y51801D01*
X-13635Y51802D01*
G37*
D10*
X25288Y166688D03*
X3288Y176188D03*
X3288Y157188D03*
D11*
X30163Y151375D03*
X30163Y134375D03*
D12*
X26425Y179388D03*
X43425Y179388D03*
D11*
X3175Y143438D03*
X3175Y126438D03*
D13*
X57150Y57850D03*
X57150Y69850D03*
X57150Y81850D03*
D11*
X-46038Y127563D03*
X-46038Y110563D03*
D12*
X-45475Y39688D03*
X-62475Y39688D03*
D11*
X68263Y143900D03*
X68263Y160900D03*
X50238Y106363D03*
X67238Y106363D03*
X50238Y96838D03*
X67238Y96838D03*
D12*
X-47625Y87875D03*
X-47625Y70875D03*
D14*
X49238Y117475D03*
X68238Y117475D03*
X49238Y131763D03*
X68238Y131763D03*
D15*
X-58738Y88875D03*
X-58738Y69875D03*
D11*
X49213Y143900D03*
X49213Y160900D03*
D16*
X35388Y106882D03*
X35388Y101881D03*
X35388Y96879D03*
X35388Y91878D03*
X35388Y86877D03*
X35388Y81876D03*
X35388Y76874D03*
X35388Y71873D03*
X35388Y66872D03*
X35388Y61871D03*
X35388Y56869D03*
X35388Y51868D03*
D17*
X29095Y45575D03*
X24094Y45575D03*
X19092Y45575D03*
X14091Y45575D03*
X9090Y45575D03*
X4089Y45575D03*
X-914Y45575D03*
X-5915Y45575D03*
X-10916Y45575D03*
X-15917Y45575D03*
X-20919Y45575D03*
X-25920Y45575D03*
D16*
X-32213Y51868D03*
X-32213Y56869D03*
X-32213Y61871D03*
X-32213Y66872D03*
X-32213Y71873D03*
X-32213Y76874D03*
X-32213Y81876D03*
X-32213Y86877D03*
X-32213Y91878D03*
X-32213Y96879D03*
X-32213Y101881D03*
X-32213Y106882D03*
D17*
X-25920Y113175D03*
X-20919Y113175D03*
X-15917Y113175D03*
X-10916Y113175D03*
X-5915Y113175D03*
X-914Y113175D03*
X4089Y113175D03*
X9090Y113175D03*
X14091Y113175D03*
X19092Y113175D03*
X24094Y113175D03*
X29095Y113175D03*
M02*
