M48
;GenerationSoftware,Autodesk,EAGLE,9.6.1*%
;CreationDate,2024-02-17T09:49:25Z*%
FMAT,2
ICI,OFF
METRIC,TZ,000.000
T5C0.250
T4C0.300
T3C0.350
T2C1.016
T1C1.500
%
G90
M71
T1
X-2540Y25876
X2540Y25876
T2
X-10160Y12224
X10954Y12065
X-10160Y17304
X-10160Y14764
T3
X635Y5556
X-318Y3334
X3969Y635
X3969Y1905
X-8731Y6826
X13811Y18098
X13811Y16510
X11271Y18574
X11112Y16986
X-3016Y15399
X-1587Y13970
X-3016Y12382
X-9843Y8573
X5556Y16034
X-5239Y8788
X5556Y17145
X3746Y12224
X-8414Y9366
X-9525Y5239
X-7937Y5239
X-2381Y3492
X-952Y5556
X-4604Y13970
T4
X11713Y19416
X10192Y5841
X-6667Y5283
X-9946Y21385
X-10991Y4914
X3189Y321
T5
X4526Y6000
M30