M48
;GenerationSoftware,Autodesk,EAGLE,9.2.2*%
;CreationDate,2019-02-05T16:06:56Z*%
FMAT,2
ICI,OFF
METRIC,TZ,000.000
T2C0.350
T1C1.500
%
G90
M71
T1
X32002Y45513
X37082Y45513
T2
X34604Y32613
X27512Y23184
X43143Y46944
X25414Y37456
X39794Y23282
X21204Y35150
X27514Y28165
X34620Y34620
X19644Y32774
X32187Y30230
X43722Y37118
X26635Y40941
X24307Y26785
X22235Y39698
X27617Y35143
X42865Y28233
X45514Y43031
X42923Y43337
X41405Y39675
X46795Y35079
X44750Y27470
X36703Y20996
X27085Y36366
X25739Y39756
X34870Y28336
M30