G04 EAGLE Gerber RS-274X export*
G75*
%MOMM*%
%FSLAX34Y34*%
%LPD*%
%INBottom Copper*%
%IPPOS*%
%AMOC8*
5,1,8,0,0,1.08239X$1,22.5*%
G01*
%ADD10R,1.000000X1.100000*%
%ADD11R,1.500000X1.300000*%
%ADD12C,0.124994*%
%ADD13R,5.699988X5.699988*%
%ADD14R,1.399997X0.400000*%
%ADD15R,1.300000X1.500000*%
%ADD16R,1.100000X1.000000*%
%ADD17C,0.499997*%
%ADD18C,1.000000*%
%ADD19R,2.500000X2.500000*%
%ADD20C,2.500000*%
%ADD21C,0.304800*%
%ADD22C,0.756400*%
%ADD23C,0.177800*%

G36*
X443844Y270834D02*
X443844Y270834D01*
X443848Y270833D01*
X443848Y270837D01*
X443853Y270841D01*
X443849Y270846D01*
X443849Y270851D01*
X443141Y271560D01*
X443135Y271560D01*
X443132Y271563D01*
X408371Y271563D01*
X377653Y302281D01*
X377653Y315915D01*
X377643Y315927D01*
X377642Y315927D01*
X377641Y315927D01*
X376937Y315927D01*
X375677Y317187D01*
X375677Y320217D01*
X376653Y321194D01*
X376654Y321198D01*
X376657Y321201D01*
X376654Y321204D01*
X376654Y321209D01*
X376653Y321209D01*
X376653Y321210D01*
X375677Y322187D01*
X375677Y325217D01*
X376653Y326194D01*
X376654Y326202D01*
X376655Y326203D01*
X376654Y326203D01*
X376654Y326209D01*
X376653Y326209D01*
X376653Y326210D01*
X375677Y327187D01*
X375677Y330217D01*
X376653Y331194D01*
X376654Y331209D01*
X376653Y331209D01*
X376653Y331210D01*
X375677Y332187D01*
X375677Y335217D01*
X376653Y336194D01*
X376654Y336209D01*
X376653Y336209D01*
X376653Y336210D01*
X375677Y337187D01*
X375677Y340217D01*
X376653Y341194D01*
X376654Y341209D01*
X376653Y341209D01*
X376653Y341210D01*
X375677Y342187D01*
X375677Y345217D01*
X376653Y346194D01*
X376654Y346197D01*
X376654Y346198D01*
X376654Y346209D01*
X376653Y346209D01*
X376653Y346210D01*
X375677Y347187D01*
X375677Y350217D01*
X376653Y351194D01*
X376654Y351198D01*
X376656Y351200D01*
X376654Y351202D01*
X376654Y351209D01*
X376653Y351209D01*
X376653Y351210D01*
X375677Y352187D01*
X375677Y355217D01*
X376653Y356194D01*
X376654Y356200D01*
X376656Y356201D01*
X376654Y356204D01*
X376654Y356209D01*
X376653Y356209D01*
X376653Y356210D01*
X375677Y357187D01*
X375677Y360217D01*
X376653Y361194D01*
X376654Y361209D01*
X376653Y361209D01*
X376653Y361210D01*
X375677Y362187D01*
X375677Y365217D01*
X376653Y366194D01*
X376654Y366209D01*
X376653Y366209D01*
X376653Y366210D01*
X375677Y367187D01*
X375677Y370217D01*
X376653Y371194D01*
X376654Y371209D01*
X376653Y371209D01*
X376653Y371210D01*
X375677Y372187D01*
X375677Y374410D01*
X375674Y374415D01*
X375674Y374419D01*
X374419Y375674D01*
X374413Y375674D01*
X374410Y375677D01*
X372187Y375677D01*
X370927Y376937D01*
X370927Y379160D01*
X370924Y379165D01*
X370924Y379169D01*
X370653Y379439D01*
X370653Y381965D01*
X370924Y382235D01*
X370924Y382241D01*
X370927Y382244D01*
X370927Y384468D01*
X372187Y385727D01*
X375217Y385727D01*
X376477Y384468D01*
X376477Y382244D01*
X376480Y382240D01*
X376480Y382235D01*
X381961Y376754D01*
X381967Y376754D01*
X381970Y376751D01*
X393251Y376751D01*
X395651Y374351D01*
X395657Y374351D01*
X395659Y374348D01*
X395660Y374348D01*
X396231Y374348D01*
X396242Y374358D01*
X396242Y374359D01*
X396243Y374360D01*
X396243Y377430D01*
X397136Y378324D01*
X408399Y378324D01*
X409292Y377430D01*
X409292Y374318D01*
X409302Y374306D01*
X409303Y374306D01*
X409304Y374306D01*
X418093Y374306D01*
X418105Y374316D01*
X418104Y374317D01*
X418105Y374318D01*
X418105Y377388D01*
X418998Y378282D01*
X430261Y378282D01*
X431154Y377388D01*
X431154Y374241D01*
X431165Y374229D01*
X431165Y374230D01*
X431166Y374229D01*
X432759Y374229D01*
X432764Y374233D01*
X432768Y374233D01*
X435022Y376487D01*
X439419Y376487D01*
X442527Y373379D01*
X442527Y368982D01*
X439419Y365874D01*
X435022Y365874D01*
X432768Y368128D01*
X432762Y368128D01*
X432762Y368129D01*
X432759Y368132D01*
X431166Y368132D01*
X431154Y368121D01*
X431155Y368120D01*
X431154Y368120D01*
X431154Y365125D01*
X430261Y364232D01*
X418998Y364232D01*
X418105Y365125D01*
X418105Y368196D01*
X418094Y368208D01*
X418093Y368207D01*
X418093Y368208D01*
X409304Y368208D01*
X409292Y368198D01*
X409293Y368197D01*
X409292Y368196D01*
X409292Y365167D01*
X408399Y364274D01*
X397136Y364274D01*
X396243Y365167D01*
X396243Y368238D01*
X396232Y368250D01*
X396231Y368249D01*
X396231Y368250D01*
X393129Y368250D01*
X390729Y370650D01*
X390724Y370650D01*
X390721Y370653D01*
X385320Y370653D01*
X385317Y370651D01*
X385312Y370651D01*
X385312Y370647D01*
X385308Y370643D01*
X385312Y370639D01*
X385311Y370633D01*
X385727Y370217D01*
X385727Y367187D01*
X384751Y366210D01*
X384750Y366195D01*
X384751Y366195D01*
X384751Y366194D01*
X385727Y365217D01*
X385727Y362187D01*
X384751Y361210D01*
X384750Y361207D01*
X384750Y361206D01*
X384750Y361195D01*
X384751Y361195D01*
X384751Y361194D01*
X385727Y360217D01*
X385727Y357187D01*
X385311Y356771D01*
X385311Y356767D01*
X385309Y356766D01*
X385309Y356765D01*
X385308Y356764D01*
X385311Y356761D01*
X385310Y356755D01*
X385316Y356755D01*
X385320Y356751D01*
X397093Y356751D01*
X397097Y356754D01*
X397101Y356754D01*
X397742Y357395D01*
X399531Y359185D01*
X403560Y359185D01*
X403564Y359188D01*
X403568Y359188D01*
X403956Y359575D01*
X419219Y359575D01*
X420112Y358682D01*
X420112Y353419D01*
X419219Y352526D01*
X403956Y352526D01*
X403398Y353084D01*
X403392Y353084D01*
X403390Y353087D01*
X402062Y353087D01*
X402058Y353083D01*
X402054Y353084D01*
X401413Y352443D01*
X399623Y350653D01*
X394752Y350653D01*
X394749Y350651D01*
X394745Y350651D01*
X394745Y350647D01*
X394741Y350643D01*
X394744Y350639D01*
X394744Y350633D01*
X409798Y335579D01*
X409804Y335579D01*
X409806Y335576D01*
X419219Y335576D01*
X420112Y334682D01*
X420112Y329419D01*
X419219Y328526D01*
X403956Y328526D01*
X403063Y329419D01*
X403063Y333686D01*
X403059Y333690D01*
X403059Y333695D01*
X402240Y334513D01*
X402236Y334514D01*
X402233Y334517D01*
X402230Y334514D01*
X402225Y334514D01*
X402224Y334509D01*
X402220Y334505D01*
X402220Y326863D01*
X402224Y326858D01*
X402223Y326854D01*
X404502Y324576D01*
X404508Y324575D01*
X404511Y324572D01*
X417911Y324572D01*
X417915Y324576D01*
X417919Y324576D01*
X420191Y326847D01*
X420191Y326852D01*
X420194Y326855D01*
X420194Y334313D01*
X429141Y343259D01*
X439257Y343259D01*
X439269Y343270D01*
X439268Y343271D01*
X439269Y343271D01*
X439269Y346342D01*
X440162Y347235D01*
X451425Y347235D01*
X452318Y346342D01*
X452318Y343271D01*
X452329Y343260D01*
X452330Y343259D01*
X464201Y343259D01*
X464205Y343263D01*
X464209Y343263D01*
X464903Y343956D01*
X464903Y343962D01*
X464906Y343965D01*
X464906Y346333D01*
X464902Y346338D01*
X464903Y346342D01*
X462648Y348596D01*
X462648Y352992D01*
X464903Y355247D01*
X464903Y355253D01*
X464906Y355255D01*
X464906Y355412D01*
X464896Y355424D01*
X464895Y355423D01*
X464894Y355424D01*
X460788Y355424D01*
X458430Y357782D01*
X458430Y366116D01*
X460788Y368474D01*
X475122Y368474D01*
X477479Y366116D01*
X477479Y357782D01*
X475122Y355424D01*
X471015Y355424D01*
X471004Y355414D01*
X471004Y355413D01*
X471003Y355412D01*
X471003Y355255D01*
X471007Y355251D01*
X471007Y355247D01*
X473261Y352992D01*
X473261Y348596D01*
X471007Y346342D01*
X471007Y346336D01*
X471003Y346333D01*
X471003Y344040D01*
X471007Y344036D01*
X471007Y344032D01*
X471041Y343998D01*
X471041Y341472D01*
X469252Y339683D01*
X468521Y338951D01*
X466731Y337162D01*
X452330Y337162D01*
X452318Y337152D01*
X452319Y337151D01*
X452318Y337150D01*
X452318Y334079D01*
X451425Y333186D01*
X440162Y333186D01*
X439269Y334079D01*
X439269Y337150D01*
X439258Y337162D01*
X439258Y337161D01*
X439257Y337162D01*
X431671Y337162D01*
X431667Y337158D01*
X431663Y337159D01*
X426295Y331791D01*
X426295Y331785D01*
X426291Y331782D01*
X426291Y330177D01*
X426302Y330165D01*
X426303Y330166D01*
X426303Y330165D01*
X442470Y330165D01*
X443363Y329272D01*
X443363Y325181D01*
X443373Y325169D01*
X443374Y325170D01*
X443375Y325169D01*
X444753Y325169D01*
X444765Y325179D01*
X444764Y325180D01*
X444765Y325181D01*
X444765Y328252D01*
X445658Y329145D01*
X456922Y329145D01*
X457815Y328252D01*
X457815Y315988D01*
X456922Y315095D01*
X445658Y315095D01*
X444765Y315988D01*
X444765Y319059D01*
X444755Y319071D01*
X444754Y319070D01*
X444753Y319071D01*
X443375Y319071D01*
X443363Y319061D01*
X443363Y319060D01*
X443363Y319059D01*
X443363Y315008D01*
X442470Y314115D01*
X430630Y314115D01*
X430625Y314112D01*
X430621Y314112D01*
X427695Y311185D01*
X427694Y311181D01*
X427691Y311178D01*
X427694Y311175D01*
X427694Y311169D01*
X427699Y311169D01*
X427703Y311165D01*
X442470Y311165D01*
X443363Y310272D01*
X443363Y296008D01*
X442470Y295115D01*
X437399Y295115D01*
X437387Y295105D01*
X437387Y295104D01*
X437387Y295103D01*
X437387Y283578D01*
X433961Y280152D01*
X433960Y280147D01*
X433957Y280144D01*
X433957Y280128D01*
X431510Y277681D01*
X431510Y277677D01*
X431507Y277674D01*
X431510Y277671D01*
X431509Y277665D01*
X431515Y277665D01*
X431519Y277661D01*
X442952Y277661D01*
X442957Y277665D01*
X442961Y277664D01*
X445305Y280009D01*
X449701Y280009D01*
X452810Y276900D01*
X452810Y272504D01*
X451157Y270851D01*
X451157Y270847D01*
X451154Y270844D01*
X451157Y270841D01*
X451156Y270835D01*
X451162Y270835D01*
X451166Y270831D01*
X457020Y270831D01*
X457025Y270835D01*
X457029Y270836D01*
X457139Y270980D01*
X457138Y270985D01*
X457141Y270987D01*
X457183Y272486D01*
X457180Y272490D01*
X457181Y272493D01*
X457077Y272648D01*
X457206Y273305D01*
X457206Y273306D01*
X457207Y273307D01*
X457225Y273977D01*
X457361Y274105D01*
X457361Y274109D01*
X457364Y274111D01*
X457653Y275582D01*
X457650Y275586D01*
X457652Y275590D01*
X457575Y275759D01*
X457810Y276386D01*
X457810Y276387D01*
X457810Y276388D01*
X457811Y276388D01*
X457940Y277046D01*
X458094Y277150D01*
X458095Y277154D01*
X458099Y277155D01*
X458625Y278559D01*
X458625Y278560D01*
X458624Y278564D01*
X458626Y278567D01*
X458578Y278747D01*
X458913Y279326D01*
X458913Y279328D01*
X458914Y279328D01*
X459149Y279956D01*
X459319Y280033D01*
X459321Y280037D01*
X459324Y280037D01*
X460075Y281336D01*
X460074Y281340D01*
X460076Y281341D01*
X460076Y281342D01*
X460076Y281343D01*
X460058Y281528D01*
X460485Y282045D01*
X460485Y282046D01*
X460486Y282046D01*
X460821Y282626D01*
X461001Y282674D01*
X461004Y282678D01*
X461007Y282678D01*
X461961Y283835D01*
X461961Y283840D01*
X461964Y283842D01*
X461977Y284028D01*
X462482Y284467D01*
X462483Y284469D01*
X462484Y284469D01*
X462910Y284986D01*
X463095Y285004D01*
X463098Y285007D01*
X463102Y285006D01*
X464233Y285991D01*
X464234Y285995D01*
X464237Y285997D01*
X464281Y286178D01*
X464852Y286528D01*
X464852Y286530D01*
X464853Y286529D01*
X465359Y286969D01*
X465544Y286956D01*
X465548Y286959D01*
X465551Y286958D01*
X466829Y287742D01*
X466831Y287747D01*
X466834Y287748D01*
X466907Y287919D01*
X467528Y288171D01*
X467528Y288172D01*
X467530Y288172D01*
X468100Y288522D01*
X468281Y288479D01*
X468285Y288481D01*
X468289Y288480D01*
X469678Y289043D01*
X469680Y289047D01*
X469684Y289048D01*
X469784Y289205D01*
X470438Y289351D01*
X470438Y289352D01*
X470439Y289351D01*
X471060Y289603D01*
X471232Y289531D01*
X471236Y289532D01*
X471239Y289530D01*
X472703Y289857D01*
X472705Y289861D01*
X472709Y289861D01*
X472833Y289999D01*
X473502Y290036D01*
X473503Y290037D01*
X473504Y290036D01*
X474158Y290182D01*
X474315Y290082D01*
X474319Y290083D01*
X474320Y290081D01*
X474321Y290081D01*
X474322Y290080D01*
X475819Y290162D01*
X475822Y290165D01*
X475823Y290165D01*
X475826Y290165D01*
X475972Y290281D01*
X476637Y290207D01*
X476638Y290208D01*
X476639Y290207D01*
X477308Y290243D01*
X477447Y290119D01*
X477452Y290119D01*
X477454Y290116D01*
X478944Y289950D01*
X478948Y289953D01*
X478951Y289951D01*
X479114Y290042D01*
X479758Y289859D01*
X479760Y289860D01*
X479760Y289859D01*
X480426Y289785D01*
X480542Y289639D01*
X480547Y289639D01*
X480548Y289635D01*
X481991Y289226D01*
X481995Y289228D01*
X481998Y289227D01*
X482174Y289289D01*
X482779Y289003D01*
X482781Y289004D01*
X482781Y289002D01*
X483426Y288820D01*
X483516Y288657D01*
X483521Y288656D01*
X483522Y288652D01*
X484792Y288052D01*
X484794Y288052D01*
X484795Y288052D01*
X484799Y288052D01*
X484801Y288051D01*
X484890Y288075D01*
X484941Y288045D01*
X484956Y288048D01*
X484956Y288049D01*
X484957Y288049D01*
X509010Y329711D01*
X509618Y329291D01*
X509645Y329280D01*
X509667Y329261D01*
X509736Y329241D01*
X509801Y329213D01*
X509830Y329213D01*
X509858Y329205D01*
X509929Y329213D01*
X510000Y329213D01*
X510027Y329224D01*
X510056Y329227D01*
X510118Y329262D01*
X510183Y329290D01*
X510204Y329310D01*
X510229Y329325D01*
X510292Y329402D01*
X510322Y329432D01*
X510326Y329442D01*
X510335Y329453D01*
X519835Y345953D01*
X519845Y345985D01*
X519854Y345998D01*
X519858Y346022D01*
X519859Y346026D01*
X519890Y346096D01*
X519890Y346120D01*
X519898Y346142D01*
X519892Y346218D01*
X519893Y346295D01*
X519883Y346319D01*
X519882Y346340D01*
X519861Y346379D01*
X519835Y346451D01*
X510335Y362951D01*
X510316Y362973D01*
X510303Y362999D01*
X510250Y363047D01*
X510203Y363100D01*
X510177Y363113D01*
X510156Y363132D01*
X510088Y363155D01*
X510024Y363186D01*
X509995Y363188D01*
X509968Y363197D01*
X509896Y363192D01*
X509825Y363195D01*
X509798Y363185D01*
X509769Y363183D01*
X509679Y363141D01*
X509639Y363126D01*
X509631Y363119D01*
X509618Y363113D01*
X509010Y362693D01*
X484957Y404355D01*
X484949Y404357D01*
X484948Y404359D01*
X484945Y404359D01*
X484942Y404360D01*
X484942Y404359D01*
X484941Y404359D01*
X484890Y404329D01*
X484801Y404353D01*
X484796Y404351D01*
X484792Y404352D01*
X483522Y403752D01*
X483520Y403748D01*
X483516Y403747D01*
X483426Y403584D01*
X482781Y403401D01*
X482780Y403400D01*
X482779Y403401D01*
X482174Y403115D01*
X481998Y403177D01*
X481997Y403177D01*
X481992Y403177D01*
X481991Y403178D01*
X480548Y402769D01*
X480546Y402765D01*
X480542Y402765D01*
X480426Y402619D01*
X479760Y402545D01*
X479760Y402544D01*
X479759Y402544D01*
X479758Y402545D01*
X479114Y402362D01*
X478951Y402453D01*
X478947Y402452D01*
X478944Y402454D01*
X477454Y402288D01*
X477451Y402285D01*
X477447Y402285D01*
X477308Y402161D01*
X476639Y402197D01*
X476638Y402196D01*
X476637Y402197D01*
X475972Y402123D01*
X475826Y402239D01*
X475822Y402239D01*
X475819Y402242D01*
X474322Y402324D01*
X474318Y402321D01*
X474315Y402322D01*
X474158Y402222D01*
X473504Y402368D01*
X473503Y402367D01*
X473502Y402368D01*
X472833Y402405D01*
X472709Y402543D01*
X472704Y402544D01*
X472703Y402547D01*
X471239Y402874D01*
X471235Y402872D01*
X471232Y402873D01*
X471060Y402801D01*
X470439Y403053D01*
X470438Y403052D01*
X470438Y403053D01*
X469784Y403199D01*
X469684Y403356D01*
X469680Y403358D01*
X469678Y403361D01*
X468289Y403924D01*
X468284Y403923D01*
X468281Y403925D01*
X468100Y403882D01*
X467530Y404232D01*
X467528Y404232D01*
X467528Y404233D01*
X466907Y404485D01*
X466834Y404656D01*
X466830Y404658D01*
X466830Y404662D01*
X465551Y405446D01*
X465547Y405445D01*
X465544Y405448D01*
X465359Y405435D01*
X464853Y405875D01*
X464852Y405875D01*
X464852Y405876D01*
X464281Y406226D01*
X464237Y406407D01*
X464234Y406410D01*
X464234Y406413D01*
X463102Y407398D01*
X463097Y407398D01*
X463095Y407400D01*
X462910Y407418D01*
X462484Y407935D01*
X462482Y407935D01*
X462482Y407937D01*
X461977Y408376D01*
X461964Y408562D01*
X461961Y408565D01*
X461961Y408569D01*
X461007Y409726D01*
X461003Y409726D01*
X461001Y409730D01*
X460821Y409778D01*
X460486Y410358D01*
X460484Y410358D01*
X460485Y410359D01*
X460058Y410876D01*
X460076Y411061D01*
X460074Y411065D01*
X460075Y411068D01*
X459324Y412367D01*
X459320Y412368D01*
X459319Y412371D01*
X459149Y412448D01*
X459122Y412522D01*
X459113Y412526D01*
X459110Y412530D01*
X411952Y412530D01*
X411949Y412527D01*
X411945Y412527D01*
X411944Y412523D01*
X411940Y412519D01*
X411944Y412515D01*
X411944Y412509D01*
X412406Y412047D01*
X412406Y402066D01*
X412417Y402055D01*
X412418Y402055D01*
X416243Y402055D01*
X419352Y398946D01*
X419352Y394550D01*
X416243Y391441D01*
X411847Y391441D01*
X409593Y393696D01*
X409587Y393696D01*
X409584Y393699D01*
X407972Y393699D01*
X402833Y398838D01*
X402833Y398879D01*
X402822Y398890D01*
X402821Y398891D01*
X400250Y398891D01*
X399357Y399784D01*
X399357Y402814D01*
X399346Y402825D01*
X399345Y402826D01*
X375773Y402826D01*
X375769Y402822D01*
X375765Y402822D01*
X358690Y385747D01*
X358689Y385743D01*
X358686Y385740D01*
X358689Y385737D01*
X358689Y385731D01*
X358694Y385731D01*
X358698Y385727D01*
X360217Y385727D01*
X361194Y384751D01*
X361209Y384750D01*
X361209Y384751D01*
X361210Y384751D01*
X362187Y385727D01*
X365217Y385727D01*
X366477Y384468D01*
X366477Y376937D01*
X365217Y375677D01*
X362187Y375677D01*
X361210Y376653D01*
X361195Y376654D01*
X361195Y376653D01*
X361194Y376653D01*
X360217Y375677D01*
X357187Y375677D01*
X356210Y376653D01*
X356195Y376654D01*
X356195Y376653D01*
X356194Y376653D01*
X355217Y375677D01*
X352187Y375677D01*
X351210Y376653D01*
X351195Y376654D01*
X351195Y376653D01*
X351194Y376653D01*
X350217Y375677D01*
X347187Y375677D01*
X346210Y376653D01*
X346195Y376654D01*
X346195Y376653D01*
X346194Y376653D01*
X345217Y375677D01*
X342187Y375677D01*
X341210Y376653D01*
X341195Y376654D01*
X341195Y376653D01*
X341194Y376653D01*
X340217Y375677D01*
X337187Y375677D01*
X336210Y376653D01*
X336195Y376654D01*
X336195Y376653D01*
X336194Y376653D01*
X335217Y375677D01*
X332187Y375677D01*
X331210Y376653D01*
X331195Y376654D01*
X331195Y376653D01*
X331194Y376653D01*
X330217Y375677D01*
X327187Y375677D01*
X326210Y376653D01*
X326195Y376654D01*
X326195Y376653D01*
X326194Y376653D01*
X325217Y375677D01*
X322187Y375677D01*
X321210Y376653D01*
X321195Y376654D01*
X321195Y376653D01*
X321194Y376653D01*
X320217Y375677D01*
X317187Y375677D01*
X315927Y376937D01*
X315927Y379160D01*
X315924Y379165D01*
X315924Y379169D01*
X315653Y379439D01*
X315653Y395106D01*
X315650Y395111D01*
X315650Y395115D01*
X295641Y415123D01*
X295636Y415124D01*
X295633Y415126D01*
X295633Y415127D01*
X264219Y415127D01*
X264214Y415123D01*
X264210Y415123D01*
X260438Y411351D01*
X260438Y411347D01*
X260435Y411344D01*
X260435Y411343D01*
X260435Y402024D01*
X260438Y402020D01*
X260438Y402016D01*
X262693Y399761D01*
X262693Y395625D01*
X262703Y395613D01*
X262704Y395613D01*
X264467Y395613D01*
X266825Y393255D01*
X266825Y384921D01*
X264467Y382563D01*
X250133Y382563D01*
X247775Y384921D01*
X247775Y393255D01*
X250133Y395613D01*
X252067Y395613D01*
X252079Y395623D01*
X252078Y395624D01*
X252079Y395625D01*
X252079Y399762D01*
X254334Y402016D01*
X254334Y402022D01*
X254337Y402024D01*
X254337Y413873D01*
X256126Y415663D01*
X259899Y419435D01*
X261688Y421224D01*
X298163Y421224D01*
X299953Y419435D01*
X321751Y397637D01*
X321751Y385320D01*
X321754Y385317D01*
X321753Y385312D01*
X321757Y385312D01*
X321761Y385308D01*
X321765Y385312D01*
X321771Y385311D01*
X322187Y385727D01*
X325217Y385727D01*
X325672Y385272D01*
X325676Y385272D01*
X325679Y385269D01*
X325682Y385271D01*
X325688Y385271D01*
X325688Y385277D01*
X325693Y385280D01*
X325693Y387621D01*
X335329Y397257D01*
X342989Y397257D01*
X342993Y397260D01*
X342997Y397260D01*
X371215Y425479D01*
X445984Y425479D01*
X445988Y425482D01*
X445992Y425482D01*
X449826Y429316D01*
X449826Y429321D01*
X449829Y429324D01*
X449829Y432512D01*
X452938Y435621D01*
X457334Y435621D01*
X460443Y432512D01*
X460443Y431925D01*
X460446Y431922D01*
X460446Y431917D01*
X460450Y431917D01*
X460453Y431913D01*
X460458Y431918D01*
X460464Y431918D01*
X461271Y433018D01*
X461271Y433022D01*
X461273Y433025D01*
X461276Y433211D01*
X461756Y433678D01*
X461756Y433680D01*
X461757Y433680D01*
X462153Y434220D01*
X462338Y434248D01*
X462340Y434251D01*
X462344Y434251D01*
X463418Y435298D01*
X463419Y435302D01*
X463422Y435304D01*
X463455Y435487D01*
X464005Y435869D01*
X464005Y435871D01*
X464007Y435871D01*
X464486Y436338D01*
X464673Y436336D01*
X464676Y436339D01*
X464679Y436338D01*
X465834Y437139D01*
X465835Y437144D01*
X465839Y437146D01*
X465862Y437235D01*
X465936Y437277D01*
X465941Y437292D01*
X465940Y437293D01*
X465940Y437294D01*
X441888Y478954D01*
X442516Y479251D01*
X442538Y479268D01*
X442565Y479278D01*
X442617Y479327D01*
X442675Y479370D01*
X442689Y479395D01*
X442710Y479414D01*
X442739Y479480D01*
X442775Y479542D01*
X442778Y479570D01*
X442790Y479596D01*
X442791Y479668D01*
X442800Y479739D01*
X442792Y479766D01*
X442793Y479795D01*
X442757Y479890D01*
X442746Y479930D01*
X442739Y479939D01*
X442735Y479951D01*
X433235Y496451D01*
X433183Y496510D01*
X433137Y496572D01*
X433118Y496583D01*
X433103Y496600D01*
X433033Y496634D01*
X432966Y496674D01*
X432942Y496678D01*
X432924Y496686D01*
X432879Y496688D01*
X432802Y496701D01*
X413802Y496701D01*
X413774Y496696D01*
X413746Y496698D01*
X413678Y496676D01*
X413607Y496662D01*
X413584Y496646D01*
X413557Y496637D01*
X413502Y496590D01*
X413443Y496549D01*
X413428Y496525D01*
X413407Y496507D01*
X413375Y496442D01*
X413336Y496382D01*
X413331Y496354D01*
X413319Y496328D01*
X413310Y496227D01*
X413303Y496185D01*
X413305Y496175D01*
X413304Y496162D01*
X413361Y495447D01*
X279043Y495447D01*
X279100Y496162D01*
X279096Y496191D01*
X279101Y496219D01*
X279084Y496288D01*
X279076Y496360D01*
X279062Y496384D01*
X279055Y496412D01*
X279012Y496470D01*
X278977Y496532D01*
X278954Y496549D01*
X278937Y496572D01*
X278875Y496609D01*
X278818Y496652D01*
X278790Y496659D01*
X278766Y496674D01*
X278666Y496690D01*
X278625Y496701D01*
X278615Y496699D01*
X278602Y496701D01*
X259602Y496701D01*
X259526Y496686D01*
X259448Y496677D01*
X259429Y496666D01*
X259407Y496662D01*
X259343Y496618D01*
X259275Y496579D01*
X259259Y496560D01*
X259243Y496549D01*
X259219Y496511D01*
X259169Y496451D01*
X249669Y479951D01*
X249660Y479924D01*
X249644Y479900D01*
X249629Y479830D01*
X249606Y479762D01*
X249609Y479734D01*
X249603Y479706D01*
X249617Y479636D01*
X249622Y479564D01*
X249635Y479539D01*
X249641Y479511D01*
X249681Y479451D01*
X249714Y479388D01*
X249736Y479370D01*
X249752Y479346D01*
X249835Y479288D01*
X249867Y479261D01*
X249878Y479258D01*
X249889Y479251D01*
X250516Y478954D01*
X226464Y437294D01*
X226467Y437278D01*
X226468Y437278D01*
X226468Y437277D01*
X226542Y437235D01*
X226565Y437146D01*
X226570Y437143D01*
X226570Y437139D01*
X227725Y436338D01*
X227729Y436338D01*
X227731Y436336D01*
X227918Y436338D01*
X228397Y435871D01*
X228399Y435871D01*
X228399Y435869D01*
X228949Y435487D01*
X228982Y435304D01*
X228986Y435301D01*
X228986Y435298D01*
X230060Y434251D01*
X230065Y434251D01*
X230066Y434248D01*
X230251Y434220D01*
X230647Y433680D01*
X230648Y433679D01*
X230648Y433678D01*
X231128Y433211D01*
X231131Y433025D01*
X231134Y433021D01*
X231133Y433018D01*
X232020Y431809D01*
X232025Y431808D01*
X232026Y431804D01*
X232203Y431746D01*
X232505Y431148D01*
X232506Y431148D01*
X232506Y431147D01*
X232902Y430607D01*
X232874Y430423D01*
X232876Y430420D01*
X232875Y430420D01*
X232877Y430419D01*
X232875Y430415D01*
X233552Y429077D01*
X233556Y429075D01*
X233557Y429072D01*
X233722Y428985D01*
X233921Y428346D01*
X233922Y428345D01*
X233922Y428344D01*
X234224Y427746D01*
X234166Y427569D01*
X234166Y427568D01*
X234165Y427567D01*
X234167Y427565D01*
X234166Y427562D01*
X234612Y426130D01*
X234616Y426128D01*
X234617Y426124D01*
X234765Y426012D01*
X234857Y425348D01*
X234858Y425347D01*
X234857Y425346D01*
X235057Y424707D01*
X234970Y424542D01*
X234971Y424538D01*
X234969Y424535D01*
X235174Y423049D01*
X235177Y423046D01*
X235177Y423043D01*
X235305Y422907D01*
X235286Y422238D01*
X235287Y422237D01*
X235286Y422236D01*
X235378Y421572D01*
X235265Y421424D01*
X235266Y421421D01*
X235264Y421419D01*
X235264Y421418D01*
X235263Y421417D01*
X235221Y419918D01*
X235224Y419914D01*
X235223Y419911D01*
X235327Y419756D01*
X235198Y419099D01*
X235198Y419098D01*
X235197Y419097D01*
X235179Y418427D01*
X235043Y418299D01*
X235043Y418295D01*
X235040Y418293D01*
X234751Y416822D01*
X234754Y416818D01*
X234752Y416814D01*
X234829Y416645D01*
X234594Y416018D01*
X234594Y416016D01*
X234593Y416016D01*
X234464Y415358D01*
X234310Y415254D01*
X234309Y415250D01*
X234305Y415249D01*
X233779Y413845D01*
X233780Y413840D01*
X233780Y413839D01*
X233779Y413839D01*
X233779Y413838D01*
X233778Y413837D01*
X233826Y413657D01*
X233491Y413078D01*
X233491Y413076D01*
X233490Y413076D01*
X233255Y412448D01*
X233085Y412371D01*
X233083Y412367D01*
X233080Y412367D01*
X232670Y411658D01*
X232671Y411656D01*
X232669Y411654D01*
X232671Y411651D01*
X232672Y411647D01*
X232672Y411644D01*
X233559Y410757D01*
X233559Y364295D01*
X233563Y364290D01*
X233562Y364286D01*
X250736Y347113D01*
X250741Y347113D01*
X250744Y347110D01*
X272955Y347110D01*
X272958Y347112D01*
X272963Y347112D01*
X272963Y347116D01*
X272967Y347120D01*
X272963Y347124D01*
X272964Y347130D01*
X270862Y349231D01*
X270862Y353627D01*
X273971Y356736D01*
X278367Y356736D01*
X280538Y354565D01*
X280544Y354565D01*
X280546Y354562D01*
X296789Y354562D01*
X296793Y354566D01*
X296797Y354565D01*
X298982Y356751D01*
X307084Y356751D01*
X307087Y356754D01*
X307092Y356753D01*
X307092Y356757D01*
X307096Y356761D01*
X307092Y356765D01*
X307093Y356771D01*
X306677Y357187D01*
X306677Y358334D01*
X306674Y358337D01*
X306675Y358341D01*
X306671Y358341D01*
X306667Y358346D01*
X306663Y358342D01*
X306657Y358342D01*
X305227Y356912D01*
X273278Y356912D01*
X271838Y358352D01*
X271833Y358352D01*
X271830Y358355D01*
X268647Y358355D01*
X266845Y360157D01*
X266841Y360158D01*
X266838Y360161D01*
X266835Y360158D01*
X266829Y360158D01*
X266829Y360153D01*
X266825Y360149D01*
X266825Y359521D01*
X264467Y357163D01*
X250133Y357163D01*
X247775Y359521D01*
X247775Y367855D01*
X250133Y370213D01*
X264467Y370213D01*
X266825Y367855D01*
X266825Y367175D01*
X266827Y367172D01*
X266827Y367168D01*
X266831Y367167D01*
X266835Y367163D01*
X266839Y367167D01*
X266845Y367167D01*
X268647Y368969D01*
X273043Y368969D01*
X276152Y365860D01*
X276152Y363022D01*
X276162Y363010D01*
X276163Y363011D01*
X276164Y363010D01*
X302697Y363010D01*
X302701Y363014D01*
X302705Y363013D01*
X306442Y366751D01*
X312965Y366751D01*
X313235Y366480D01*
X313241Y366480D01*
X313244Y366477D01*
X315467Y366477D01*
X316727Y365217D01*
X316727Y362187D01*
X315751Y361210D01*
X315750Y361207D01*
X315750Y361206D01*
X315750Y361195D01*
X315751Y361195D01*
X315751Y361194D01*
X316727Y360217D01*
X316727Y357187D01*
X315751Y356210D01*
X315750Y356206D01*
X315748Y356204D01*
X315750Y356202D01*
X315750Y356195D01*
X315751Y356195D01*
X315751Y356194D01*
X316727Y355217D01*
X316727Y352187D01*
X315751Y351210D01*
X315750Y351205D01*
X315748Y351203D01*
X315750Y351200D01*
X315750Y351195D01*
X315751Y351195D01*
X315751Y351194D01*
X316727Y350217D01*
X316727Y347187D01*
X315751Y346210D01*
X315750Y346201D01*
X315750Y346195D01*
X315751Y346195D01*
X315751Y346194D01*
X316727Y345217D01*
X316727Y342187D01*
X315751Y341210D01*
X315750Y341195D01*
X315751Y341195D01*
X315751Y341194D01*
X316727Y340217D01*
X316727Y337187D01*
X315751Y336210D01*
X315750Y336195D01*
X315751Y336195D01*
X315751Y336194D01*
X316727Y335217D01*
X316727Y332187D01*
X315751Y331210D01*
X315750Y331195D01*
X315751Y331195D01*
X315751Y331194D01*
X316727Y330217D01*
X316727Y327187D01*
X315751Y326210D01*
X315750Y326207D01*
X315749Y326206D01*
X315750Y326204D01*
X315750Y326195D01*
X315751Y326195D01*
X315751Y326194D01*
X316727Y325217D01*
X316727Y322187D01*
X315751Y321210D01*
X315750Y321206D01*
X315747Y321204D01*
X315750Y321201D01*
X315750Y321195D01*
X315751Y321195D01*
X315751Y321194D01*
X316727Y320217D01*
X316727Y317187D01*
X315467Y315927D01*
X307936Y315927D01*
X306677Y317187D01*
X306677Y320217D01*
X307653Y321194D01*
X307654Y321198D01*
X307657Y321201D01*
X307654Y321204D01*
X307654Y321209D01*
X307653Y321209D01*
X307653Y321210D01*
X306677Y322187D01*
X306677Y325217D01*
X307653Y326194D01*
X307654Y326202D01*
X307655Y326203D01*
X307654Y326203D01*
X307654Y326209D01*
X307653Y326209D01*
X307653Y326210D01*
X306677Y327187D01*
X306677Y330217D01*
X307653Y331194D01*
X307654Y331209D01*
X307653Y331209D01*
X307653Y331210D01*
X306677Y332187D01*
X306677Y335217D01*
X307653Y336194D01*
X307654Y336209D01*
X307653Y336209D01*
X307653Y336210D01*
X306677Y337187D01*
X306677Y338377D01*
X306674Y338380D01*
X306675Y338384D01*
X306671Y338385D01*
X306667Y338389D01*
X306663Y338385D01*
X306657Y338385D01*
X304712Y336440D01*
X244213Y336440D01*
X242424Y338229D01*
X220864Y359789D01*
X219074Y361579D01*
X219074Y392752D01*
X219071Y392756D01*
X219071Y392760D01*
X217047Y394784D01*
X217047Y399180D01*
X220156Y402288D01*
X224552Y402288D01*
X227441Y399400D01*
X227445Y399399D01*
X227448Y399396D01*
X227451Y399399D01*
X227457Y399399D01*
X227457Y399404D01*
X227461Y399408D01*
X227461Y405770D01*
X227459Y405773D01*
X227459Y405777D01*
X227455Y405778D01*
X227451Y405782D01*
X227448Y405779D01*
X227446Y405779D01*
X227445Y405779D01*
X227442Y405780D01*
X227045Y405435D01*
X226860Y405448D01*
X226856Y405445D01*
X226853Y405446D01*
X225575Y404662D01*
X225573Y404657D01*
X225570Y404656D01*
X225497Y404485D01*
X224876Y404233D01*
X224876Y404232D01*
X224874Y404232D01*
X224304Y403882D01*
X224123Y403925D01*
X224119Y403923D01*
X224115Y403924D01*
X222726Y403361D01*
X222724Y403357D01*
X222720Y403356D01*
X222620Y403199D01*
X221966Y403053D01*
X221966Y403052D01*
X221965Y403053D01*
X221344Y402801D01*
X221172Y402873D01*
X221168Y402872D01*
X221165Y402874D01*
X219701Y402547D01*
X219699Y402543D01*
X219695Y402543D01*
X219571Y402405D01*
X218902Y402368D01*
X218901Y402367D01*
X218900Y402368D01*
X218246Y402222D01*
X218089Y402322D01*
X218084Y402321D01*
X218082Y402324D01*
X216585Y402242D01*
X216581Y402239D01*
X216578Y402239D01*
X216432Y402123D01*
X215767Y402197D01*
X215766Y402196D01*
X215765Y402197D01*
X215096Y402161D01*
X214957Y402285D01*
X214952Y402285D01*
X214950Y402288D01*
X213460Y402454D01*
X213456Y402451D01*
X213453Y402453D01*
X213290Y402362D01*
X212646Y402545D01*
X212645Y402544D01*
X212644Y402544D01*
X212644Y402545D01*
X211978Y402619D01*
X211862Y402765D01*
X211857Y402765D01*
X211856Y402769D01*
X210413Y403178D01*
X210412Y403177D01*
X210407Y403177D01*
X210406Y403177D01*
X210230Y403115D01*
X209625Y403401D01*
X209623Y403400D01*
X209623Y403402D01*
X208978Y403584D01*
X208888Y403747D01*
X208883Y403748D01*
X208882Y403752D01*
X207612Y404352D01*
X207607Y404351D01*
X207603Y404353D01*
X207514Y404329D01*
X207463Y404359D01*
X207461Y404358D01*
X207460Y404359D01*
X207456Y404359D01*
X207454Y404357D01*
X207448Y404356D01*
X207448Y404355D01*
X207447Y404355D01*
X183394Y362693D01*
X182786Y363113D01*
X182759Y363124D01*
X182737Y363143D01*
X182668Y363163D01*
X182603Y363191D01*
X182574Y363191D01*
X182546Y363199D01*
X182475Y363191D01*
X182404Y363192D01*
X182377Y363180D01*
X182348Y363177D01*
X182286Y363142D01*
X182221Y363114D01*
X182200Y363094D01*
X182175Y363079D01*
X182112Y363002D01*
X182082Y362972D01*
X182078Y362962D01*
X182069Y362951D01*
X172569Y346451D01*
X172545Y346378D01*
X172514Y346308D01*
X172514Y346284D01*
X172506Y346262D01*
X172513Y346186D01*
X172512Y346109D01*
X172521Y346085D01*
X172522Y346064D01*
X172543Y346025D01*
X172562Y345973D01*
X172563Y345967D01*
X172565Y345965D01*
X172569Y345953D01*
X182069Y329453D01*
X182088Y329431D01*
X182101Y329405D01*
X182154Y329357D01*
X182201Y329304D01*
X182227Y329291D01*
X182249Y329272D01*
X182316Y329249D01*
X182380Y329218D01*
X182409Y329217D01*
X182436Y329207D01*
X182508Y329212D01*
X182579Y329209D01*
X182606Y329219D01*
X182635Y329221D01*
X182725Y329263D01*
X182765Y329278D01*
X182773Y329285D01*
X182786Y329291D01*
X183394Y329711D01*
X207447Y288049D01*
X207462Y288044D01*
X207462Y288045D01*
X207463Y288045D01*
X207514Y288075D01*
X207603Y288051D01*
X207605Y288052D01*
X207609Y288052D01*
X207610Y288052D01*
X207612Y288052D01*
X208882Y288652D01*
X208884Y288656D01*
X208888Y288657D01*
X208978Y288820D01*
X209623Y289002D01*
X209624Y289004D01*
X209625Y289003D01*
X210230Y289289D01*
X210406Y289227D01*
X210410Y289228D01*
X210413Y289226D01*
X211856Y289635D01*
X211858Y289639D01*
X211862Y289639D01*
X211978Y289785D01*
X212644Y289859D01*
X212645Y289860D01*
X212646Y289859D01*
X213290Y290042D01*
X213453Y289951D01*
X213457Y289952D01*
X213460Y289950D01*
X214950Y290116D01*
X214953Y290119D01*
X214957Y290119D01*
X215096Y290243D01*
X215765Y290207D01*
X215766Y290208D01*
X215767Y290207D01*
X216432Y290281D01*
X216578Y290165D01*
X216582Y290165D01*
X216585Y290162D01*
X218082Y290080D01*
X218083Y290081D01*
X218084Y290081D01*
X218086Y290083D01*
X218089Y290082D01*
X218246Y290182D01*
X218900Y290036D01*
X218901Y290037D01*
X218902Y290036D01*
X219571Y289999D01*
X219695Y289861D01*
X219700Y289860D01*
X219701Y289857D01*
X221165Y289530D01*
X221169Y289532D01*
X221172Y289531D01*
X221344Y289603D01*
X221965Y289351D01*
X221966Y289352D01*
X221966Y289351D01*
X222620Y289205D01*
X222720Y289048D01*
X222724Y289046D01*
X222726Y289043D01*
X224115Y288480D01*
X224120Y288481D01*
X224123Y288479D01*
X224304Y288522D01*
X224874Y288172D01*
X224876Y288172D01*
X224876Y288171D01*
X225497Y287919D01*
X225570Y287748D01*
X225574Y287746D01*
X225574Y287742D01*
X226853Y286958D01*
X226857Y286959D01*
X226860Y286956D01*
X227045Y286969D01*
X227551Y286529D01*
X227552Y286529D01*
X227552Y286528D01*
X228123Y286178D01*
X228167Y285997D01*
X228170Y285994D01*
X228170Y285991D01*
X229302Y285006D01*
X229307Y285006D01*
X229309Y285004D01*
X229494Y284986D01*
X229920Y284469D01*
X229922Y284469D01*
X229922Y284467D01*
X230427Y284028D01*
X230440Y283842D01*
X230443Y283839D01*
X230443Y283835D01*
X231397Y282678D01*
X231401Y282678D01*
X231403Y282674D01*
X231583Y282626D01*
X231918Y282046D01*
X231920Y282046D01*
X231919Y282045D01*
X232346Y281528D01*
X232328Y281343D01*
X232330Y281339D01*
X232329Y281336D01*
X233080Y280037D01*
X233084Y280036D01*
X233085Y280033D01*
X233255Y279956D01*
X233490Y279328D01*
X233491Y279328D01*
X233491Y279326D01*
X233826Y278747D01*
X233778Y278567D01*
X233780Y278564D01*
X233779Y278563D01*
X233780Y278562D01*
X233779Y278559D01*
X234087Y277737D01*
X234095Y277733D01*
X234098Y277729D01*
X304340Y277729D01*
X304344Y277733D01*
X304348Y277733D01*
X323592Y296976D01*
X323592Y296980D01*
X323595Y296983D01*
X323592Y296986D01*
X323593Y296992D01*
X323587Y296992D01*
X323583Y296996D01*
X319674Y296996D01*
X316565Y300105D01*
X316565Y303293D01*
X316561Y303298D01*
X316562Y303302D01*
X315653Y304210D01*
X315653Y308641D01*
X315643Y308653D01*
X315642Y308652D01*
X315641Y308653D01*
X302775Y308653D01*
X302763Y308643D01*
X302764Y308642D01*
X302763Y308641D01*
X302763Y305496D01*
X301870Y304603D01*
X290606Y304603D01*
X289713Y305496D01*
X289713Y308567D01*
X289703Y308579D01*
X289702Y308578D01*
X289701Y308579D01*
X284131Y308579D01*
X284119Y308569D01*
X284120Y308568D01*
X284119Y308567D01*
X284119Y304550D01*
X283226Y303657D01*
X266962Y303657D01*
X266069Y304550D01*
X266069Y308621D01*
X266059Y308633D01*
X266058Y308632D01*
X266057Y308633D01*
X211227Y308633D01*
X197435Y322426D01*
X197429Y322426D01*
X197426Y322429D01*
X194238Y322429D01*
X191129Y325538D01*
X191129Y329934D01*
X194238Y333043D01*
X198634Y333043D01*
X201743Y329934D01*
X201743Y326746D01*
X201746Y326742D01*
X201746Y326738D01*
X213749Y314734D01*
X213755Y314734D01*
X213757Y314732D01*
X213758Y314731D01*
X266057Y314731D01*
X266069Y314741D01*
X266069Y314742D01*
X266069Y314743D01*
X266069Y318814D01*
X266962Y319707D01*
X283226Y319707D01*
X284119Y318814D01*
X284119Y314689D01*
X284129Y314677D01*
X284130Y314678D01*
X284131Y314677D01*
X289701Y314677D01*
X289713Y314687D01*
X289712Y314688D01*
X289713Y314689D01*
X289713Y317760D01*
X290606Y318653D01*
X301870Y318653D01*
X302763Y317760D01*
X302763Y314763D01*
X302773Y314751D01*
X302774Y314751D01*
X302775Y314751D01*
X315915Y314751D01*
X315927Y314761D01*
X315927Y314762D01*
X315927Y314763D01*
X315927Y315467D01*
X317187Y316727D01*
X320217Y316727D01*
X321477Y315467D01*
X321477Y313244D01*
X321480Y313240D01*
X321480Y313235D01*
X321751Y312965D01*
X321751Y307622D01*
X321761Y307610D01*
X321762Y307611D01*
X321763Y307610D01*
X324070Y307610D01*
X325633Y306047D01*
X325637Y306047D01*
X325640Y306044D01*
X325643Y306046D01*
X325649Y306046D01*
X325649Y306052D01*
X325653Y306056D01*
X325653Y312965D01*
X325924Y313235D01*
X325924Y313241D01*
X325927Y313244D01*
X325927Y315467D01*
X327187Y316727D01*
X330217Y316727D01*
X331194Y315751D01*
X331209Y315750D01*
X331209Y315751D01*
X331210Y315751D01*
X332187Y316727D01*
X335217Y316727D01*
X336194Y315751D01*
X336209Y315750D01*
X336209Y315751D01*
X336210Y315751D01*
X337187Y316727D01*
X340217Y316727D01*
X341194Y315751D01*
X341209Y315750D01*
X341209Y315751D01*
X341210Y315751D01*
X342187Y316727D01*
X345217Y316727D01*
X346194Y315751D01*
X346209Y315750D01*
X346209Y315751D01*
X346210Y315751D01*
X347187Y316727D01*
X350217Y316727D01*
X351194Y315751D01*
X351209Y315750D01*
X351209Y315751D01*
X351210Y315751D01*
X352187Y316727D01*
X355217Y316727D01*
X356194Y315751D01*
X356209Y315750D01*
X356209Y315751D01*
X356210Y315751D01*
X357187Y316727D01*
X360217Y316727D01*
X361194Y315751D01*
X361209Y315750D01*
X361209Y315751D01*
X361210Y315751D01*
X362187Y316727D01*
X365217Y316727D01*
X366194Y315751D01*
X366209Y315750D01*
X366209Y315751D01*
X366210Y315751D01*
X367187Y316727D01*
X370217Y316727D01*
X371194Y315751D01*
X371209Y315750D01*
X371209Y315751D01*
X371210Y315751D01*
X372187Y316727D01*
X375217Y316727D01*
X376477Y315467D01*
X376477Y313244D01*
X376480Y313240D01*
X376480Y313235D01*
X376751Y312965D01*
X376751Y302848D01*
X376754Y302843D01*
X376754Y302839D01*
X408759Y270834D01*
X408765Y270834D01*
X408768Y270831D01*
X443841Y270831D01*
X443844Y270834D01*
G37*
G36*
X278630Y195708D02*
X278630Y195708D01*
X278658Y195706D01*
X278726Y195728D01*
X278797Y195742D01*
X278820Y195758D01*
X278847Y195767D01*
X278902Y195814D01*
X278961Y195855D01*
X278976Y195879D01*
X278998Y195897D01*
X279029Y195962D01*
X279068Y196022D01*
X279073Y196050D01*
X279085Y196076D01*
X279094Y196177D01*
X279101Y196219D01*
X279099Y196229D01*
X279100Y196242D01*
X279043Y196957D01*
X327165Y196957D01*
X327177Y196967D01*
X327176Y196968D01*
X327177Y196969D01*
X327177Y197041D01*
X327242Y197106D01*
X327243Y197110D01*
X327243Y197111D01*
X327246Y197113D01*
X327362Y198517D01*
X327359Y198521D01*
X327361Y198524D01*
X327265Y198684D01*
X327430Y199334D01*
X327429Y199335D01*
X327430Y199336D01*
X327485Y200003D01*
X327627Y200123D01*
X327628Y200128D01*
X327631Y200130D01*
X328000Y201586D01*
X328000Y201587D01*
X328000Y201588D01*
X327998Y201591D01*
X328000Y201594D01*
X327932Y201767D01*
X328201Y202381D01*
X328201Y202382D01*
X328202Y202383D01*
X328366Y203032D01*
X328526Y203127D01*
X328528Y203132D01*
X328531Y203133D01*
X329135Y204509D01*
X329134Y204511D01*
X329135Y204512D01*
X329134Y204514D01*
X329135Y204516D01*
X329097Y204698D01*
X329464Y205259D01*
X329463Y205261D01*
X329465Y205261D01*
X329734Y205874D01*
X329907Y205942D01*
X329909Y205946D01*
X329913Y205947D01*
X330735Y207205D01*
X330734Y207208D01*
X330736Y207210D01*
X330735Y207211D01*
X330737Y207212D01*
X330729Y207398D01*
X331183Y207891D01*
X331183Y207892D01*
X331184Y207892D01*
X331550Y208453D01*
X331733Y208491D01*
X331735Y208495D01*
X331739Y208495D01*
X332757Y209601D01*
X332757Y209605D01*
X332760Y209607D01*
X332783Y209792D01*
X333311Y210203D01*
X333312Y210205D01*
X333313Y210205D01*
X333767Y210698D01*
X333953Y210705D01*
X333956Y210708D01*
X333959Y210708D01*
X335145Y211631D01*
X335146Y211635D01*
X335150Y211637D01*
X335203Y211815D01*
X335792Y212134D01*
X335792Y212136D01*
X335793Y212135D01*
X336322Y212547D01*
X336507Y212524D01*
X336511Y212526D01*
X336514Y212525D01*
X337836Y213240D01*
X337837Y213245D01*
X337841Y213246D01*
X337923Y213413D01*
X338556Y213630D01*
X338557Y213632D01*
X338558Y213631D01*
X339147Y213950D01*
X339326Y213897D01*
X339330Y213899D01*
X339333Y213897D01*
X340754Y214385D01*
X340757Y214389D01*
X340760Y214389D01*
X340868Y214541D01*
X341529Y214651D01*
X341530Y214652D01*
X341531Y214652D01*
X342165Y214869D01*
X342332Y214787D01*
X342336Y214789D01*
X342339Y214786D01*
X343821Y215034D01*
X343824Y215037D01*
X343828Y215037D01*
X343959Y215169D01*
X344629Y215169D01*
X344630Y215170D01*
X344631Y215169D01*
X345292Y215279D01*
X345444Y215171D01*
X345448Y215171D01*
X345451Y215169D01*
X346953Y215169D01*
X346957Y215172D01*
X346960Y215171D01*
X347112Y215279D01*
X347773Y215169D01*
X347774Y215170D01*
X347775Y215169D01*
X348445Y215169D01*
X348576Y215037D01*
X348581Y215037D01*
X348583Y215034D01*
X350065Y214786D01*
X350069Y214789D01*
X350072Y214787D01*
X350239Y214869D01*
X350873Y214652D01*
X350874Y214652D01*
X350875Y214651D01*
X351536Y214541D01*
X351644Y214389D01*
X351648Y214388D01*
X351650Y214385D01*
X352777Y213998D01*
X352785Y214001D01*
X352789Y214001D01*
X360650Y221861D01*
X360650Y221866D01*
X360653Y221869D01*
X360653Y221870D01*
X360653Y307084D01*
X360651Y307087D01*
X360651Y307092D01*
X360647Y307092D01*
X360643Y307096D01*
X360639Y307092D01*
X360633Y307093D01*
X360217Y306677D01*
X357187Y306677D01*
X356210Y307653D01*
X356195Y307654D01*
X356195Y307653D01*
X356194Y307653D01*
X355217Y306677D01*
X352187Y306677D01*
X351771Y307093D01*
X351767Y307093D01*
X351764Y307096D01*
X351761Y307093D01*
X351755Y307094D01*
X351755Y307088D01*
X351751Y307084D01*
X351751Y287820D01*
X351754Y287816D01*
X351754Y287812D01*
X354009Y285557D01*
X354009Y281161D01*
X350900Y278053D01*
X346504Y278053D01*
X343395Y281161D01*
X343395Y285557D01*
X345650Y287812D01*
X345650Y287818D01*
X345653Y287820D01*
X345653Y307084D01*
X345651Y307087D01*
X345651Y307092D01*
X345647Y307092D01*
X345643Y307096D01*
X345639Y307092D01*
X345633Y307093D01*
X345217Y306677D01*
X342187Y306677D01*
X341210Y307653D01*
X341195Y307654D01*
X341195Y307653D01*
X341194Y307653D01*
X340217Y306677D01*
X337187Y306677D01*
X336771Y307093D01*
X336767Y307093D01*
X336764Y307096D01*
X336761Y307093D01*
X336755Y307094D01*
X336755Y307088D01*
X336751Y307084D01*
X336751Y294202D01*
X307706Y265158D01*
X247890Y265158D01*
X247885Y265154D01*
X247881Y265154D01*
X245271Y262544D01*
X240875Y262544D01*
X237766Y265653D01*
X237766Y270049D01*
X239329Y271612D01*
X239329Y271616D01*
X239332Y271619D01*
X239330Y271622D01*
X239330Y271627D01*
X239324Y271628D01*
X239321Y271632D01*
X235257Y271632D01*
X235245Y271622D01*
X235246Y271621D01*
X235245Y271620D01*
X235263Y270987D01*
X235266Y270984D01*
X235265Y270980D01*
X235378Y270832D01*
X235286Y270168D01*
X235287Y270167D01*
X235286Y270166D01*
X235305Y269497D01*
X235177Y269361D01*
X235177Y269357D01*
X235174Y269355D01*
X234969Y267869D01*
X234970Y267867D01*
X234971Y267865D01*
X234970Y267862D01*
X235057Y267697D01*
X234857Y267058D01*
X234858Y267056D01*
X234857Y267056D01*
X234765Y266392D01*
X234617Y266280D01*
X234616Y266275D01*
X234612Y266274D01*
X234166Y264842D01*
X234168Y264838D01*
X234166Y264835D01*
X234224Y264658D01*
X233922Y264060D01*
X233922Y264059D01*
X233921Y264058D01*
X233722Y263419D01*
X233557Y263332D01*
X233555Y263328D01*
X233552Y263327D01*
X232875Y261989D01*
X232877Y261984D01*
X232874Y261981D01*
X232902Y261797D01*
X232506Y261257D01*
X232506Y261256D01*
X232505Y261256D01*
X232203Y260658D01*
X232026Y260600D01*
X232024Y260596D01*
X232020Y260595D01*
X231133Y259386D01*
X231133Y259382D01*
X231131Y259379D01*
X231128Y259193D01*
X230648Y258726D01*
X230648Y258724D01*
X230647Y258724D01*
X230251Y258184D01*
X230066Y258156D01*
X230064Y258153D01*
X230060Y258153D01*
X228986Y257106D01*
X228985Y257102D01*
X228984Y257101D01*
X228982Y257100D01*
X228949Y256917D01*
X228399Y256535D01*
X228399Y256533D01*
X228398Y256533D01*
X227918Y256066D01*
X227731Y256068D01*
X227728Y256065D01*
X227725Y256066D01*
X226570Y255265D01*
X226569Y255260D01*
X226565Y255258D01*
X226542Y255169D01*
X226468Y255127D01*
X226466Y255121D01*
X226462Y255118D01*
X226464Y255115D01*
X226463Y255112D01*
X226464Y255111D01*
X226464Y255110D01*
X250516Y213450D01*
X249889Y213153D01*
X249866Y213136D01*
X249839Y213126D01*
X249787Y213077D01*
X249729Y213034D01*
X249715Y213009D01*
X249694Y212990D01*
X249665Y212924D01*
X249629Y212862D01*
X249626Y212834D01*
X249614Y212808D01*
X249613Y212736D01*
X249604Y212665D01*
X249612Y212638D01*
X249612Y212609D01*
X249647Y212514D01*
X249658Y212474D01*
X249665Y212465D01*
X249669Y212453D01*
X259169Y195953D01*
X259221Y195895D01*
X259267Y195832D01*
X259286Y195821D01*
X259301Y195804D01*
X259371Y195770D01*
X259438Y195730D01*
X259463Y195726D01*
X259480Y195718D01*
X259525Y195716D01*
X259602Y195703D01*
X278602Y195703D01*
X278630Y195708D01*
G37*
G36*
X432878Y195718D02*
X432878Y195718D01*
X432956Y195727D01*
X432975Y195738D01*
X432997Y195742D01*
X433061Y195786D01*
X433129Y195825D01*
X433145Y195844D01*
X433161Y195855D01*
X433185Y195893D01*
X433235Y195953D01*
X442735Y212453D01*
X442744Y212480D01*
X442760Y212504D01*
X442775Y212574D01*
X442798Y212642D01*
X442795Y212670D01*
X442801Y212698D01*
X442788Y212769D01*
X442782Y212840D01*
X442769Y212865D01*
X442763Y212893D01*
X442723Y212953D01*
X442690Y213016D01*
X442668Y213034D01*
X442652Y213058D01*
X442569Y213116D01*
X442537Y213143D01*
X442526Y213146D01*
X442516Y213153D01*
X441888Y213450D01*
X465940Y255110D01*
X465940Y255113D01*
X465942Y255115D01*
X465939Y255118D01*
X465937Y255126D01*
X465936Y255126D01*
X465936Y255127D01*
X465862Y255169D01*
X465839Y255258D01*
X465834Y255261D01*
X465834Y255265D01*
X464680Y256066D01*
X464675Y256066D01*
X464673Y256068D01*
X464486Y256066D01*
X464006Y256533D01*
X464005Y256534D01*
X464005Y256535D01*
X463455Y256917D01*
X463422Y257100D01*
X463418Y257103D01*
X463418Y257106D01*
X462344Y258153D01*
X462339Y258153D01*
X462338Y258156D01*
X462153Y258184D01*
X461757Y258724D01*
X461756Y258725D01*
X461756Y258726D01*
X461276Y259193D01*
X461273Y259379D01*
X461270Y259383D01*
X461271Y259386D01*
X460384Y260595D01*
X460379Y260596D01*
X460378Y260600D01*
X460201Y260658D01*
X459899Y261256D01*
X459898Y261256D01*
X459898Y261257D01*
X459502Y261797D01*
X459530Y261981D01*
X459527Y261985D01*
X459529Y261989D01*
X458852Y263327D01*
X458848Y263329D01*
X458847Y263332D01*
X458682Y263419D01*
X458483Y264058D01*
X458482Y264059D01*
X458482Y264060D01*
X458180Y264658D01*
X458200Y264718D01*
X458199Y264719D01*
X458200Y264720D01*
X458197Y264723D01*
X458193Y264732D01*
X458190Y264731D01*
X458188Y264733D01*
X406237Y264733D01*
X371771Y299199D01*
X371767Y299199D01*
X371764Y299203D01*
X371763Y299201D01*
X371761Y299200D01*
X371755Y299200D01*
X371755Y299195D01*
X371751Y299191D01*
X371751Y212748D01*
X371754Y212744D01*
X371754Y212740D01*
X372334Y212160D01*
X372334Y207763D01*
X369226Y204655D01*
X364829Y204655D01*
X361721Y207763D01*
X361721Y212160D01*
X364829Y215268D01*
X365641Y215268D01*
X365653Y215279D01*
X365653Y215280D01*
X365653Y218213D01*
X365651Y218216D01*
X365651Y218220D01*
X365647Y218221D01*
X365643Y218225D01*
X365639Y218221D01*
X365633Y218221D01*
X358271Y210860D01*
X358271Y210856D01*
X358269Y210853D01*
X358271Y210851D01*
X358270Y210844D01*
X358272Y210844D01*
X358272Y210842D01*
X358445Y210708D01*
X358449Y210708D01*
X358451Y210705D01*
X358637Y210698D01*
X359091Y210205D01*
X359093Y210205D01*
X359093Y210203D01*
X359621Y209792D01*
X359644Y209607D01*
X359648Y209604D01*
X359647Y209601D01*
X360665Y208495D01*
X360670Y208494D01*
X360671Y208491D01*
X360854Y208453D01*
X361220Y207892D01*
X361221Y207892D01*
X361221Y207891D01*
X361675Y207398D01*
X361667Y207212D01*
X361670Y207208D01*
X361669Y207205D01*
X362491Y205947D01*
X362496Y205946D01*
X362497Y205942D01*
X362670Y205874D01*
X362939Y205261D01*
X362941Y205260D01*
X362940Y205259D01*
X363307Y204698D01*
X363269Y204516D01*
X363269Y204515D01*
X363271Y204512D01*
X363269Y204509D01*
X363873Y203133D01*
X363877Y203131D01*
X363878Y203127D01*
X364038Y203032D01*
X364202Y202383D01*
X364203Y202382D01*
X364203Y202381D01*
X364472Y201767D01*
X364404Y201594D01*
X364405Y201591D01*
X364404Y201590D01*
X364405Y201588D01*
X364404Y201586D01*
X364773Y200130D01*
X364777Y200127D01*
X364777Y200123D01*
X364919Y200003D01*
X364974Y199336D01*
X364975Y199335D01*
X364974Y199334D01*
X365139Y198684D01*
X365043Y198524D01*
X365044Y198522D01*
X365043Y198522D01*
X365044Y198521D01*
X365044Y198520D01*
X365042Y198517D01*
X365158Y197113D01*
X365162Y197110D01*
X365162Y197106D01*
X365227Y197041D01*
X365227Y196969D01*
X365237Y196957D01*
X365238Y196958D01*
X365239Y196957D01*
X413361Y196957D01*
X413304Y196242D01*
X413308Y196213D01*
X413303Y196185D01*
X413320Y196116D01*
X413328Y196044D01*
X413343Y196020D01*
X413349Y195992D01*
X413392Y195934D01*
X413428Y195872D01*
X413450Y195855D01*
X413467Y195832D01*
X413529Y195795D01*
X413586Y195752D01*
X413614Y195745D01*
X413638Y195730D01*
X413738Y195714D01*
X413779Y195703D01*
X413789Y195705D01*
X413802Y195703D01*
X432802Y195703D01*
X432878Y195718D01*
G37*
%LPC*%
G36*
X289930Y368089D02*
X289930Y368089D01*
X289037Y368982D01*
X289037Y380245D01*
X289930Y381138D01*
X296093Y381138D01*
X296104Y381149D01*
X296104Y381150D01*
X296105Y381150D01*
X296105Y386249D01*
X296094Y386261D01*
X296093Y386260D01*
X296093Y386261D01*
X292022Y386261D01*
X291129Y387154D01*
X291129Y403418D01*
X292022Y404311D01*
X293303Y404311D01*
X293306Y404314D01*
X293311Y404313D01*
X293311Y404317D01*
X293315Y404321D01*
X293311Y404325D01*
X293312Y404331D01*
X291336Y406307D01*
X291330Y406307D01*
X291328Y406310D01*
X270762Y406310D01*
X270758Y406307D01*
X270754Y406307D01*
X268553Y404106D01*
X264156Y404106D01*
X261048Y407214D01*
X261048Y411611D01*
X264156Y414719D01*
X268553Y414719D01*
X270861Y412411D01*
X270866Y412411D01*
X270869Y412408D01*
X293858Y412408D01*
X295648Y410618D01*
X301952Y404314D01*
X301957Y404314D01*
X301960Y404311D01*
X306285Y404311D01*
X307178Y403418D01*
X307178Y387154D01*
X306285Y386261D01*
X302214Y386261D01*
X302202Y386251D01*
X302203Y386250D01*
X302202Y386249D01*
X302202Y381134D01*
X302206Y381130D01*
X302205Y381126D01*
X303086Y380245D01*
X303086Y377674D01*
X303097Y377663D01*
X303098Y377662D01*
X312053Y377662D01*
X313235Y376480D01*
X313241Y376480D01*
X313244Y376477D01*
X315467Y376477D01*
X316727Y375217D01*
X316727Y372187D01*
X315467Y370927D01*
X313244Y370927D01*
X313239Y370924D01*
X313235Y370924D01*
X312965Y370653D01*
X310439Y370653D01*
X310169Y370924D01*
X310163Y370924D01*
X310160Y370927D01*
X307936Y370927D01*
X307302Y371561D01*
X307297Y371562D01*
X307294Y371565D01*
X303098Y371565D01*
X303086Y371555D01*
X303087Y371554D01*
X303086Y371553D01*
X303086Y368982D01*
X302193Y368089D01*
X289930Y368089D01*
G37*
%LPD*%
%LPC*%
G36*
X306891Y441105D02*
X306891Y441105D01*
X305998Y441998D01*
X305998Y468261D01*
X306891Y469155D01*
X333154Y469155D01*
X334047Y468261D01*
X334047Y441998D01*
X333154Y441105D01*
X306891Y441105D01*
G37*
%LPD*%
%LPC*%
G36*
X368032Y441105D02*
X368032Y441105D01*
X362878Y443240D01*
X358933Y447185D01*
X356798Y452340D01*
X356798Y457920D01*
X358933Y463074D01*
X362878Y467019D01*
X368033Y469155D01*
X373612Y469155D01*
X378767Y467019D01*
X382712Y463074D01*
X384847Y457920D01*
X384847Y452340D01*
X382712Y447185D01*
X378767Y443240D01*
X373612Y441105D01*
X368032Y441105D01*
G37*
%LPD*%
G36*
X363231Y195709D02*
X363231Y195709D01*
X363260Y195706D01*
X363327Y195728D01*
X363397Y195742D01*
X363421Y195759D01*
X363449Y195768D01*
X363502Y195815D01*
X363561Y195855D01*
X363577Y195879D01*
X363599Y195899D01*
X363630Y195963D01*
X363668Y196022D01*
X363673Y196051D01*
X363685Y196077D01*
X363694Y196177D01*
X363701Y196219D01*
X363698Y196229D01*
X363700Y196243D01*
X363468Y199041D01*
X363458Y199075D01*
X363454Y199123D01*
X362765Y201844D01*
X362750Y201876D01*
X362738Y201922D01*
X361610Y204494D01*
X361590Y204522D01*
X361571Y204566D01*
X360035Y206917D01*
X360011Y206941D01*
X359985Y206982D01*
X358083Y209047D01*
X358055Y209068D01*
X358022Y209103D01*
X355807Y210828D01*
X355776Y210843D01*
X355738Y210873D01*
X353268Y212209D01*
X353235Y212219D01*
X353193Y212242D01*
X352007Y212650D01*
X350553Y213149D01*
X350537Y213154D01*
X350503Y213159D01*
X350457Y213174D01*
X347688Y213636D01*
X347653Y213635D01*
X347606Y213643D01*
X344798Y213643D01*
X344764Y213636D01*
X344716Y213636D01*
X341947Y213174D01*
X341914Y213162D01*
X341867Y213154D01*
X339211Y212242D01*
X339181Y212225D01*
X339136Y212209D01*
X336666Y210873D01*
X336640Y210851D01*
X336597Y210828D01*
X334382Y209103D01*
X334359Y209077D01*
X334321Y209047D01*
X332419Y206982D01*
X332401Y206952D01*
X332369Y206917D01*
X330833Y204566D01*
X330820Y204534D01*
X330794Y204494D01*
X329666Y201922D01*
X329659Y201889D01*
X329656Y201882D01*
X329650Y201873D01*
X329649Y201867D01*
X329639Y201844D01*
X328950Y199123D01*
X328948Y199088D01*
X328936Y199041D01*
X328704Y196243D01*
X328708Y196214D01*
X328703Y196185D01*
X328720Y196116D01*
X328728Y196046D01*
X328742Y196020D01*
X328749Y195992D01*
X328791Y195935D01*
X328826Y195873D01*
X328850Y195855D01*
X328867Y195832D01*
X328928Y195796D01*
X328985Y195753D01*
X329013Y195745D01*
X329038Y195730D01*
X329136Y195714D01*
X329177Y195703D01*
X329188Y195705D01*
X329202Y195703D01*
X363202Y195703D01*
X363231Y195709D01*
G37*
G36*
X224809Y256012D02*
X224809Y256012D01*
X224880Y256009D01*
X224907Y256019D01*
X224936Y256021D01*
X225026Y256063D01*
X225066Y256078D01*
X225074Y256086D01*
X225087Y256092D01*
X227390Y257691D01*
X227414Y257717D01*
X227454Y257744D01*
X229463Y259701D01*
X229482Y259730D01*
X229517Y259763D01*
X231176Y262024D01*
X231191Y262055D01*
X231220Y262094D01*
X232484Y264597D01*
X232493Y264631D01*
X232515Y264674D01*
X233351Y267351D01*
X233354Y267385D01*
X233369Y267431D01*
X233752Y270210D01*
X233750Y270244D01*
X233756Y270292D01*
X233677Y273095D01*
X233669Y273129D01*
X233668Y273177D01*
X233129Y275929D01*
X233115Y275961D01*
X233106Y276009D01*
X232121Y278634D01*
X232106Y278659D01*
X232101Y278679D01*
X232093Y278690D01*
X232086Y278709D01*
X230682Y281137D01*
X230659Y281163D01*
X230635Y281205D01*
X228851Y283368D01*
X228824Y283390D01*
X228793Y283427D01*
X226677Y285268D01*
X226647Y285285D01*
X226611Y285317D01*
X224220Y286784D01*
X224188Y286795D01*
X224147Y286821D01*
X221548Y287874D01*
X221514Y287881D01*
X221469Y287899D01*
X218732Y288510D01*
X218697Y288511D01*
X218650Y288522D01*
X215850Y288674D01*
X215816Y288669D01*
X215768Y288672D01*
X212980Y288362D01*
X212947Y288351D01*
X212899Y288346D01*
X210201Y287581D01*
X210171Y287565D01*
X210124Y287552D01*
X207589Y286353D01*
X207565Y286336D01*
X207538Y286326D01*
X207486Y286277D01*
X207429Y286234D01*
X207415Y286209D01*
X207394Y286189D01*
X207365Y286124D01*
X207329Y286063D01*
X207326Y286034D01*
X207314Y286007D01*
X207313Y285936D01*
X207304Y285865D01*
X207312Y285837D01*
X207312Y285808D01*
X207346Y285715D01*
X207358Y285674D01*
X207365Y285665D01*
X207370Y285652D01*
X224370Y256252D01*
X224389Y256230D01*
X224402Y256204D01*
X224455Y256156D01*
X224502Y256103D01*
X224528Y256091D01*
X224550Y256071D01*
X224617Y256048D01*
X224681Y256018D01*
X224710Y256016D01*
X224738Y256007D01*
X224809Y256012D01*
G37*
G36*
X476588Y403735D02*
X476588Y403735D01*
X476636Y403732D01*
X479424Y404042D01*
X479457Y404053D01*
X479505Y404058D01*
X482203Y404823D01*
X482233Y404839D01*
X482280Y404852D01*
X484815Y406051D01*
X484839Y406068D01*
X484866Y406078D01*
X484918Y406127D01*
X484975Y406170D01*
X484989Y406195D01*
X485011Y406215D01*
X485039Y406280D01*
X485075Y406342D01*
X485078Y406370D01*
X485090Y406397D01*
X485091Y406468D01*
X485100Y406539D01*
X485092Y406567D01*
X485092Y406596D01*
X485058Y406689D01*
X485046Y406730D01*
X485039Y406739D01*
X485034Y406752D01*
X468034Y436152D01*
X468015Y436174D01*
X468002Y436200D01*
X467949Y436248D01*
X467902Y436301D01*
X467876Y436313D01*
X467854Y436333D01*
X467787Y436356D01*
X467723Y436386D01*
X467694Y436388D01*
X467666Y436397D01*
X467595Y436392D01*
X467524Y436395D01*
X467497Y436385D01*
X467468Y436383D01*
X467378Y436341D01*
X467338Y436326D01*
X467330Y436318D01*
X467317Y436312D01*
X465014Y434713D01*
X464990Y434688D01*
X464950Y434660D01*
X462941Y432703D01*
X462922Y432674D01*
X462887Y432641D01*
X461228Y430380D01*
X461213Y430349D01*
X461184Y430310D01*
X459920Y427807D01*
X459911Y427773D01*
X459889Y427730D01*
X459053Y425053D01*
X459050Y425019D01*
X459035Y424973D01*
X458652Y422194D01*
X458654Y422160D01*
X458648Y422112D01*
X458727Y419309D01*
X458735Y419275D01*
X458736Y419227D01*
X459275Y416475D01*
X459289Y416443D01*
X459298Y416395D01*
X460283Y413770D01*
X460301Y413740D01*
X460318Y413695D01*
X461722Y411267D01*
X461745Y411241D01*
X461769Y411200D01*
X463553Y409036D01*
X463580Y409014D01*
X463611Y408977D01*
X465727Y407136D01*
X465757Y407119D01*
X465793Y407088D01*
X468184Y405620D01*
X468216Y405609D01*
X468257Y405583D01*
X470856Y404530D01*
X470890Y404523D01*
X470935Y404505D01*
X473672Y403894D01*
X473707Y403893D01*
X473754Y403882D01*
X476554Y403730D01*
X476588Y403735D01*
G37*
G36*
X467628Y256013D02*
X467628Y256013D01*
X467699Y256012D01*
X467726Y256023D01*
X467755Y256027D01*
X467817Y256061D01*
X467882Y256089D01*
X467903Y256110D01*
X467928Y256124D01*
X467991Y256200D01*
X468021Y256231D01*
X468025Y256241D01*
X468034Y256252D01*
X485034Y285652D01*
X485043Y285680D01*
X485060Y285704D01*
X485075Y285773D01*
X485097Y285841D01*
X485095Y285870D01*
X485101Y285898D01*
X485088Y285968D01*
X485082Y286039D01*
X485069Y286065D01*
X485063Y286093D01*
X485023Y286152D01*
X484991Y286215D01*
X484968Y286234D01*
X484952Y286258D01*
X484870Y286315D01*
X484837Y286342D01*
X484827Y286345D01*
X484815Y286353D01*
X482280Y287552D01*
X482246Y287560D01*
X482203Y287581D01*
X479505Y288346D01*
X479470Y288348D01*
X479424Y288362D01*
X476636Y288672D01*
X476602Y288669D01*
X476554Y288674D01*
X473754Y288522D01*
X473720Y288513D01*
X473672Y288510D01*
X470935Y287899D01*
X470903Y287885D01*
X470856Y287874D01*
X468257Y286821D01*
X468228Y286802D01*
X468184Y286784D01*
X465793Y285317D01*
X465768Y285293D01*
X465727Y285268D01*
X463611Y283427D01*
X463590Y283400D01*
X463553Y283368D01*
X461769Y281205D01*
X461753Y281174D01*
X461722Y281137D01*
X460318Y278709D01*
X460307Y278676D01*
X460300Y278663D01*
X460290Y278649D01*
X460290Y278646D01*
X460283Y278634D01*
X459298Y276009D01*
X459292Y275974D01*
X459275Y275929D01*
X458736Y273177D01*
X458736Y273143D01*
X458727Y273095D01*
X458648Y270292D01*
X458654Y270258D01*
X458652Y270210D01*
X459035Y267431D01*
X459047Y267399D01*
X459053Y267351D01*
X459889Y264674D01*
X459906Y264643D01*
X459920Y264597D01*
X461184Y262094D01*
X461206Y262067D01*
X461228Y262024D01*
X462887Y259763D01*
X462913Y259740D01*
X462941Y259701D01*
X464950Y257744D01*
X464979Y257725D01*
X465014Y257691D01*
X467317Y256092D01*
X467344Y256080D01*
X467367Y256062D01*
X467435Y256041D01*
X467500Y256013D01*
X467529Y256013D01*
X467557Y256005D01*
X467628Y256013D01*
G37*
G36*
X218650Y403882D02*
X218650Y403882D01*
X218684Y403891D01*
X218732Y403894D01*
X221469Y404505D01*
X221501Y404519D01*
X221548Y404530D01*
X224147Y405583D01*
X224176Y405602D01*
X224220Y405620D01*
X226611Y407088D01*
X226636Y407111D01*
X226677Y407136D01*
X228793Y408977D01*
X228814Y409004D01*
X228851Y409036D01*
X230635Y411200D01*
X230651Y411230D01*
X230682Y411267D01*
X232086Y413695D01*
X232097Y413728D01*
X232121Y413770D01*
X233106Y416395D01*
X233112Y416430D01*
X233129Y416475D01*
X233668Y419227D01*
X233668Y419262D01*
X233677Y419309D01*
X233756Y422112D01*
X233751Y422146D01*
X233752Y422194D01*
X233369Y424973D01*
X233357Y425005D01*
X233351Y425053D01*
X232515Y427730D01*
X232498Y427761D01*
X232484Y427807D01*
X231220Y430310D01*
X231198Y430337D01*
X231176Y430380D01*
X229517Y432641D01*
X229491Y432664D01*
X229463Y432703D01*
X227454Y434660D01*
X227425Y434679D01*
X227390Y434713D01*
X225087Y436312D01*
X225060Y436324D01*
X225037Y436342D01*
X224969Y436363D01*
X224904Y436391D01*
X224875Y436391D01*
X224847Y436399D01*
X224776Y436391D01*
X224705Y436392D01*
X224678Y436381D01*
X224649Y436377D01*
X224587Y436343D01*
X224522Y436315D01*
X224501Y436294D01*
X224476Y436280D01*
X224413Y436204D01*
X224383Y436173D01*
X224379Y436163D01*
X224370Y436152D01*
X207370Y406752D01*
X207361Y406724D01*
X207344Y406700D01*
X207329Y406631D01*
X207307Y406563D01*
X207309Y406534D01*
X207303Y406506D01*
X207316Y406436D01*
X207322Y406365D01*
X207335Y406339D01*
X207341Y406311D01*
X207381Y406252D01*
X207413Y406189D01*
X207436Y406170D01*
X207452Y406146D01*
X207534Y406089D01*
X207567Y406062D01*
X207577Y406059D01*
X207589Y406051D01*
X210124Y404852D01*
X210158Y404844D01*
X210201Y404823D01*
X212899Y404058D01*
X212934Y404056D01*
X212980Y404042D01*
X215768Y403732D01*
X215802Y403735D01*
X215850Y403730D01*
X218650Y403882D01*
G37*
%LPC*%
G36*
X427029Y428068D02*
X427029Y428068D01*
X423920Y431177D01*
X423920Y435573D01*
X424044Y435697D01*
X424044Y435701D01*
X424048Y435704D01*
X424045Y435707D01*
X424045Y435713D01*
X424040Y435713D01*
X424036Y435717D01*
X422055Y435717D01*
X419697Y438075D01*
X419697Y446409D01*
X422055Y448767D01*
X436389Y448767D01*
X438747Y446409D01*
X438747Y438075D01*
X436389Y435717D01*
X434418Y435717D01*
X434415Y435714D01*
X434411Y435715D01*
X434411Y435711D01*
X434406Y435707D01*
X434410Y435703D01*
X434410Y435697D01*
X434534Y435573D01*
X434534Y431177D01*
X431425Y428068D01*
X427029Y428068D01*
G37*
%LPD*%
D10*
X445794Y340211D03*
X445794Y357211D03*
D11*
X434338Y303140D03*
X434338Y322140D03*
D12*
X377827Y373077D02*
X377827Y374327D01*
X383577Y374327D01*
X383577Y373077D01*
X377827Y373077D01*
X377827Y374264D02*
X383577Y374264D01*
X377827Y369327D02*
X377827Y368077D01*
X377827Y369327D02*
X383577Y369327D01*
X383577Y368077D01*
X377827Y368077D01*
X377827Y369264D02*
X383577Y369264D01*
X377827Y364327D02*
X377827Y363077D01*
X377827Y364327D02*
X383577Y364327D01*
X383577Y363077D01*
X377827Y363077D01*
X377827Y364264D02*
X383577Y364264D01*
X377827Y359327D02*
X377827Y358077D01*
X377827Y359327D02*
X383577Y359327D01*
X383577Y358077D01*
X377827Y358077D01*
X377827Y359264D02*
X383577Y359264D01*
X377827Y354327D02*
X377827Y353077D01*
X377827Y354327D02*
X383577Y354327D01*
X383577Y353077D01*
X377827Y353077D01*
X377827Y354264D02*
X383577Y354264D01*
X377827Y349327D02*
X377827Y348077D01*
X377827Y349327D02*
X383577Y349327D01*
X383577Y348077D01*
X377827Y348077D01*
X377827Y349264D02*
X383577Y349264D01*
X377827Y344327D02*
X377827Y343077D01*
X377827Y344327D02*
X383577Y344327D01*
X383577Y343077D01*
X377827Y343077D01*
X377827Y344264D02*
X383577Y344264D01*
X377827Y339327D02*
X377827Y338077D01*
X377827Y339327D02*
X383577Y339327D01*
X383577Y338077D01*
X377827Y338077D01*
X377827Y339264D02*
X383577Y339264D01*
X377827Y334327D02*
X377827Y333077D01*
X377827Y334327D02*
X383577Y334327D01*
X383577Y333077D01*
X377827Y333077D01*
X377827Y334264D02*
X383577Y334264D01*
X377827Y329327D02*
X377827Y328077D01*
X377827Y329327D02*
X383577Y329327D01*
X383577Y328077D01*
X377827Y328077D01*
X377827Y329264D02*
X383577Y329264D01*
X377827Y324327D02*
X377827Y323077D01*
X377827Y324327D02*
X383577Y324327D01*
X383577Y323077D01*
X377827Y323077D01*
X377827Y324264D02*
X383577Y324264D01*
X377827Y319327D02*
X377827Y318077D01*
X377827Y319327D02*
X383577Y319327D01*
X383577Y318077D01*
X377827Y318077D01*
X377827Y319264D02*
X383577Y319264D01*
X374327Y314577D02*
X373077Y314577D01*
X374327Y314577D02*
X374327Y308827D01*
X373077Y308827D01*
X373077Y314577D01*
X373077Y310014D02*
X374327Y310014D01*
X374327Y311201D02*
X373077Y311201D01*
X373077Y312388D02*
X374327Y312388D01*
X374327Y313575D02*
X373077Y313575D01*
X369327Y314577D02*
X368077Y314577D01*
X369327Y314577D02*
X369327Y308827D01*
X368077Y308827D01*
X368077Y314577D01*
X368077Y310014D02*
X369327Y310014D01*
X369327Y311201D02*
X368077Y311201D01*
X368077Y312388D02*
X369327Y312388D01*
X369327Y313575D02*
X368077Y313575D01*
X364327Y314577D02*
X363077Y314577D01*
X364327Y314577D02*
X364327Y308827D01*
X363077Y308827D01*
X363077Y314577D01*
X363077Y310014D02*
X364327Y310014D01*
X364327Y311201D02*
X363077Y311201D01*
X363077Y312388D02*
X364327Y312388D01*
X364327Y313575D02*
X363077Y313575D01*
X359327Y314577D02*
X358077Y314577D01*
X359327Y314577D02*
X359327Y308827D01*
X358077Y308827D01*
X358077Y314577D01*
X358077Y310014D02*
X359327Y310014D01*
X359327Y311201D02*
X358077Y311201D01*
X358077Y312388D02*
X359327Y312388D01*
X359327Y313575D02*
X358077Y313575D01*
X354327Y314577D02*
X353077Y314577D01*
X354327Y314577D02*
X354327Y308827D01*
X353077Y308827D01*
X353077Y314577D01*
X353077Y310014D02*
X354327Y310014D01*
X354327Y311201D02*
X353077Y311201D01*
X353077Y312388D02*
X354327Y312388D01*
X354327Y313575D02*
X353077Y313575D01*
X349327Y314577D02*
X348077Y314577D01*
X349327Y314577D02*
X349327Y308827D01*
X348077Y308827D01*
X348077Y314577D01*
X348077Y310014D02*
X349327Y310014D01*
X349327Y311201D02*
X348077Y311201D01*
X348077Y312388D02*
X349327Y312388D01*
X349327Y313575D02*
X348077Y313575D01*
X344327Y314577D02*
X343077Y314577D01*
X344327Y314577D02*
X344327Y308827D01*
X343077Y308827D01*
X343077Y314577D01*
X343077Y310014D02*
X344327Y310014D01*
X344327Y311201D02*
X343077Y311201D01*
X343077Y312388D02*
X344327Y312388D01*
X344327Y313575D02*
X343077Y313575D01*
X339327Y314577D02*
X338077Y314577D01*
X339327Y314577D02*
X339327Y308827D01*
X338077Y308827D01*
X338077Y314577D01*
X338077Y310014D02*
X339327Y310014D01*
X339327Y311201D02*
X338077Y311201D01*
X338077Y312388D02*
X339327Y312388D01*
X339327Y313575D02*
X338077Y313575D01*
X334327Y314577D02*
X333077Y314577D01*
X334327Y314577D02*
X334327Y308827D01*
X333077Y308827D01*
X333077Y314577D01*
X333077Y310014D02*
X334327Y310014D01*
X334327Y311201D02*
X333077Y311201D01*
X333077Y312388D02*
X334327Y312388D01*
X334327Y313575D02*
X333077Y313575D01*
X329327Y314577D02*
X328077Y314577D01*
X329327Y314577D02*
X329327Y308827D01*
X328077Y308827D01*
X328077Y314577D01*
X328077Y310014D02*
X329327Y310014D01*
X329327Y311201D02*
X328077Y311201D01*
X328077Y312388D02*
X329327Y312388D01*
X329327Y313575D02*
X328077Y313575D01*
X324327Y314577D02*
X323077Y314577D01*
X324327Y314577D02*
X324327Y308827D01*
X323077Y308827D01*
X323077Y314577D01*
X323077Y310014D02*
X324327Y310014D01*
X324327Y311201D02*
X323077Y311201D01*
X323077Y312388D02*
X324327Y312388D01*
X324327Y313575D02*
X323077Y313575D01*
X319327Y314577D02*
X318077Y314577D01*
X319327Y314577D02*
X319327Y308827D01*
X318077Y308827D01*
X318077Y314577D01*
X318077Y310014D02*
X319327Y310014D01*
X319327Y311201D02*
X318077Y311201D01*
X318077Y312388D02*
X319327Y312388D01*
X319327Y313575D02*
X318077Y313575D01*
X314577Y318077D02*
X314577Y319327D01*
X314577Y318077D02*
X308827Y318077D01*
X308827Y319327D01*
X314577Y319327D01*
X314577Y319264D02*
X308827Y319264D01*
X314577Y323077D02*
X314577Y324327D01*
X314577Y323077D02*
X308827Y323077D01*
X308827Y324327D01*
X314577Y324327D01*
X314577Y324264D02*
X308827Y324264D01*
X314577Y328077D02*
X314577Y329327D01*
X314577Y328077D02*
X308827Y328077D01*
X308827Y329327D01*
X314577Y329327D01*
X314577Y329264D02*
X308827Y329264D01*
X314577Y333077D02*
X314577Y334327D01*
X314577Y333077D02*
X308827Y333077D01*
X308827Y334327D01*
X314577Y334327D01*
X314577Y334264D02*
X308827Y334264D01*
X314577Y338077D02*
X314577Y339327D01*
X314577Y338077D02*
X308827Y338077D01*
X308827Y339327D01*
X314577Y339327D01*
X314577Y339264D02*
X308827Y339264D01*
X314577Y343077D02*
X314577Y344327D01*
X314577Y343077D02*
X308827Y343077D01*
X308827Y344327D01*
X314577Y344327D01*
X314577Y344264D02*
X308827Y344264D01*
X314577Y348077D02*
X314577Y349327D01*
X314577Y348077D02*
X308827Y348077D01*
X308827Y349327D01*
X314577Y349327D01*
X314577Y349264D02*
X308827Y349264D01*
X314577Y353077D02*
X314577Y354327D01*
X314577Y353077D02*
X308827Y353077D01*
X308827Y354327D01*
X314577Y354327D01*
X314577Y354264D02*
X308827Y354264D01*
X314577Y358077D02*
X314577Y359327D01*
X314577Y358077D02*
X308827Y358077D01*
X308827Y359327D01*
X314577Y359327D01*
X314577Y359264D02*
X308827Y359264D01*
X314577Y363077D02*
X314577Y364327D01*
X314577Y363077D02*
X308827Y363077D01*
X308827Y364327D01*
X314577Y364327D01*
X314577Y364264D02*
X308827Y364264D01*
X314577Y368077D02*
X314577Y369327D01*
X314577Y368077D02*
X308827Y368077D01*
X308827Y369327D01*
X314577Y369327D01*
X314577Y369264D02*
X308827Y369264D01*
X314577Y373077D02*
X314577Y374327D01*
X314577Y373077D02*
X308827Y373077D01*
X308827Y374327D01*
X314577Y374327D01*
X314577Y374264D02*
X308827Y374264D01*
X318077Y377827D02*
X319327Y377827D01*
X318077Y377827D02*
X318077Y383577D01*
X319327Y383577D01*
X319327Y377827D01*
X319327Y379014D02*
X318077Y379014D01*
X318077Y380201D02*
X319327Y380201D01*
X319327Y381388D02*
X318077Y381388D01*
X318077Y382575D02*
X319327Y382575D01*
X323077Y377827D02*
X324327Y377827D01*
X323077Y377827D02*
X323077Y383577D01*
X324327Y383577D01*
X324327Y377827D01*
X324327Y379014D02*
X323077Y379014D01*
X323077Y380201D02*
X324327Y380201D01*
X324327Y381388D02*
X323077Y381388D01*
X323077Y382575D02*
X324327Y382575D01*
X328077Y377827D02*
X329327Y377827D01*
X328077Y377827D02*
X328077Y383577D01*
X329327Y383577D01*
X329327Y377827D01*
X329327Y379014D02*
X328077Y379014D01*
X328077Y380201D02*
X329327Y380201D01*
X329327Y381388D02*
X328077Y381388D01*
X328077Y382575D02*
X329327Y382575D01*
X333077Y377827D02*
X334327Y377827D01*
X333077Y377827D02*
X333077Y383577D01*
X334327Y383577D01*
X334327Y377827D01*
X334327Y379014D02*
X333077Y379014D01*
X333077Y380201D02*
X334327Y380201D01*
X334327Y381388D02*
X333077Y381388D01*
X333077Y382575D02*
X334327Y382575D01*
X338077Y377827D02*
X339327Y377827D01*
X338077Y377827D02*
X338077Y383577D01*
X339327Y383577D01*
X339327Y377827D01*
X339327Y379014D02*
X338077Y379014D01*
X338077Y380201D02*
X339327Y380201D01*
X339327Y381388D02*
X338077Y381388D01*
X338077Y382575D02*
X339327Y382575D01*
X343077Y377827D02*
X344327Y377827D01*
X343077Y377827D02*
X343077Y383577D01*
X344327Y383577D01*
X344327Y377827D01*
X344327Y379014D02*
X343077Y379014D01*
X343077Y380201D02*
X344327Y380201D01*
X344327Y381388D02*
X343077Y381388D01*
X343077Y382575D02*
X344327Y382575D01*
X348077Y377827D02*
X349327Y377827D01*
X348077Y377827D02*
X348077Y383577D01*
X349327Y383577D01*
X349327Y377827D01*
X349327Y379014D02*
X348077Y379014D01*
X348077Y380201D02*
X349327Y380201D01*
X349327Y381388D02*
X348077Y381388D01*
X348077Y382575D02*
X349327Y382575D01*
X353077Y377827D02*
X354327Y377827D01*
X353077Y377827D02*
X353077Y383577D01*
X354327Y383577D01*
X354327Y377827D01*
X354327Y379014D02*
X353077Y379014D01*
X353077Y380201D02*
X354327Y380201D01*
X354327Y381388D02*
X353077Y381388D01*
X353077Y382575D02*
X354327Y382575D01*
X358077Y377827D02*
X359327Y377827D01*
X358077Y377827D02*
X358077Y383577D01*
X359327Y383577D01*
X359327Y377827D01*
X359327Y379014D02*
X358077Y379014D01*
X358077Y380201D02*
X359327Y380201D01*
X359327Y381388D02*
X358077Y381388D01*
X358077Y382575D02*
X359327Y382575D01*
X363077Y377827D02*
X364327Y377827D01*
X363077Y377827D02*
X363077Y383577D01*
X364327Y383577D01*
X364327Y377827D01*
X364327Y379014D02*
X363077Y379014D01*
X363077Y380201D02*
X364327Y380201D01*
X364327Y381388D02*
X363077Y381388D01*
X363077Y382575D02*
X364327Y382575D01*
X368077Y377827D02*
X369327Y377827D01*
X368077Y377827D02*
X368077Y383577D01*
X369327Y383577D01*
X369327Y377827D01*
X369327Y379014D02*
X368077Y379014D01*
X368077Y380201D02*
X369327Y380201D01*
X369327Y381388D02*
X368077Y381388D01*
X368077Y382575D02*
X369327Y382575D01*
X373077Y377827D02*
X374327Y377827D01*
X373077Y377827D02*
X373077Y383577D01*
X374327Y383577D01*
X374327Y377827D01*
X374327Y379014D02*
X373077Y379014D01*
X373077Y380201D02*
X374327Y380201D01*
X374327Y381388D02*
X373077Y381388D01*
X373077Y382575D02*
X374327Y382575D01*
D13*
X346202Y346202D03*
D14*
X411587Y356051D03*
X411587Y344051D03*
X411587Y332051D03*
D10*
X422881Y405915D03*
X405881Y405915D03*
D15*
X299153Y395286D03*
X280153Y395286D03*
D11*
X275094Y311682D03*
X275094Y292682D03*
D10*
X413186Y294426D03*
X413186Y311426D03*
D16*
X296061Y374614D03*
X279061Y374614D03*
D10*
X296238Y311628D03*
X296238Y294628D03*
X402767Y371299D03*
X402767Y388299D03*
X424629Y371257D03*
X424629Y388257D03*
X468290Y322120D03*
X451290Y322120D03*
D17*
X262800Y391588D02*
X251800Y391588D01*
X262800Y391588D02*
X262800Y386588D01*
X251800Y386588D01*
X251800Y391588D01*
X251800Y391338D02*
X262800Y391338D01*
X262800Y361188D02*
X251800Y361188D01*
X251800Y366188D01*
X262800Y366188D01*
X262800Y361188D01*
X262800Y365938D02*
X251800Y365938D01*
X423722Y444742D02*
X434722Y444742D01*
X434722Y439742D01*
X423722Y439742D01*
X423722Y444742D01*
X423722Y444492D02*
X434722Y444492D01*
X462455Y364449D02*
X473455Y364449D01*
X473455Y359449D01*
X462455Y359449D01*
X462455Y364449D01*
X462455Y364199D02*
X473455Y364199D01*
D18*
X428802Y489302D03*
X511402Y346202D03*
X428802Y203102D03*
X263602Y203102D03*
X181002Y346202D03*
X263602Y489302D03*
X470102Y417702D03*
X470102Y274702D03*
X346202Y203102D03*
X222302Y274702D03*
X222302Y417702D03*
D19*
X320022Y455130D03*
D20*
X370822Y455130D03*
D21*
X368702Y385057D02*
X368702Y380702D01*
X368702Y385057D02*
X371988Y388343D01*
X402723Y388343D01*
X402767Y388299D01*
D22*
X346039Y326126D03*
D21*
X244678Y384023D02*
X244678Y456524D01*
X263602Y489302D01*
X323702Y321708D02*
X323702Y311702D01*
X328120Y326126D02*
X346039Y326126D01*
X328120Y326126D02*
X323702Y321708D01*
X424629Y388257D02*
X437116Y388257D01*
X468290Y322120D02*
X487320Y322120D01*
X511402Y346202D01*
X311702Y368702D02*
X304960Y368702D01*
X279061Y394194D02*
X280153Y395286D01*
X254142Y374559D02*
X244678Y384023D01*
X311702Y368702D02*
X323890Y368702D01*
D22*
X275118Y231839D03*
D21*
X275118Y214618D01*
X263602Y203102D01*
X445794Y357211D02*
X445794Y379580D01*
X437116Y388257D01*
X424587Y388299D02*
X402767Y388299D01*
X424587Y388299D02*
X424629Y388257D01*
X421805Y344051D02*
X411587Y344051D01*
X421805Y344051D02*
X434965Y357211D01*
X445794Y357211D01*
X424629Y404167D02*
X422881Y405915D01*
X424629Y404167D02*
X424629Y388257D01*
X504757Y346202D02*
X511402Y346202D01*
X504757Y346202D02*
X479289Y371671D01*
X456209Y371671D01*
X445794Y361255D01*
X445794Y357211D01*
X428802Y473886D02*
X428802Y489302D01*
X428802Y473886D02*
X428912Y473776D01*
X431429Y469438D01*
D22*
X431429Y469438D03*
D21*
X304960Y368702D02*
X300807Y364548D01*
X281577Y364548D01*
D22*
X254142Y374559D03*
X397944Y232824D03*
D21*
X427666Y203102D01*
X428802Y203102D01*
X279061Y374614D02*
X279061Y394194D01*
X279006Y374559D02*
X254142Y374559D01*
X279006Y374559D02*
X279061Y374614D01*
X279061Y367064D02*
X281577Y364548D01*
X279061Y367064D02*
X279061Y374614D01*
X212037Y351499D02*
X206741Y346202D01*
D22*
X212037Y351499D03*
D21*
X206741Y346202D02*
X181002Y346202D01*
X277040Y294628D02*
X296238Y294628D01*
X277040Y294628D02*
X275094Y292682D01*
X275094Y281689D01*
X275135Y281648D01*
D22*
X275135Y281648D03*
D23*
X323890Y368514D02*
X323890Y368702D01*
D21*
X323890Y368514D02*
X346202Y346202D01*
D22*
X346202Y346202D03*
D21*
X368702Y368702D02*
X368702Y380702D01*
X368702Y368702D02*
X346202Y346202D01*
X318702Y311702D02*
X296312Y311702D01*
X296238Y311628D01*
X275148Y311628D01*
X275094Y311682D01*
X373702Y380702D02*
X380702Y373702D01*
X402809Y371257D02*
X424629Y371257D01*
X402809Y371257D02*
X402767Y371299D01*
X394392Y371299D01*
X391989Y373702D02*
X380702Y373702D01*
X391989Y373702D02*
X394392Y371299D01*
X275094Y311682D02*
X212490Y311682D01*
X196436Y327736D01*
D22*
X196436Y327736D03*
D21*
X299153Y395286D02*
X299153Y402801D01*
X292595Y409359D01*
X318702Y311702D02*
X318702Y305473D01*
X321872Y302303D01*
D22*
X321872Y302303D03*
D21*
X311702Y373702D02*
X310790Y374614D01*
X296061Y374614D01*
X299153Y377706D01*
X299153Y395286D01*
D22*
X437220Y371180D03*
D21*
X424706Y371180D01*
X424629Y371257D01*
X292595Y409359D02*
X266408Y409359D01*
X266355Y409412D01*
D22*
X266355Y409412D03*
D21*
X333702Y295465D02*
X306443Y268206D01*
X243101Y268206D01*
X243073Y268234D01*
X243073Y267851D01*
D22*
X243073Y267851D03*
D21*
X333702Y295465D02*
X333702Y311702D01*
X222123Y362842D02*
X222123Y396751D01*
X222354Y396982D01*
D22*
X222354Y396982D03*
D21*
X307662Y343702D02*
X311702Y343702D01*
X303449Y339489D02*
X245476Y339489D01*
X303449Y339489D02*
X307662Y343702D01*
X245476Y339489D02*
X222123Y362842D01*
X328702Y311702D02*
X328702Y297775D01*
X305608Y274681D01*
X222323Y274681D01*
X222302Y274702D01*
X230510Y363027D02*
X230510Y409494D01*
X222302Y417702D01*
X305126Y348702D02*
X311702Y348702D01*
X305126Y348702D02*
X300485Y344061D01*
X249476Y344061D01*
X230510Y363027D01*
X300245Y353702D02*
X311702Y353702D01*
X300245Y353702D02*
X298056Y351513D01*
X276253Y351513D01*
X276169Y351429D01*
D22*
X276169Y351429D03*
D21*
X380702Y333702D02*
X384773Y333702D01*
X388653Y329822D02*
X388653Y317807D01*
X412034Y294426D01*
X413186Y294426D01*
X388653Y329822D02*
X384773Y333702D01*
D22*
X428650Y282326D03*
D21*
X424134Y282326D01*
X412034Y294426D01*
X434338Y303140D02*
X434338Y284841D01*
X431823Y282326D01*
X428650Y282326D01*
X328702Y380702D02*
X328741Y380741D01*
X328741Y386358D01*
X336592Y394208D01*
X344256Y394208D01*
X372478Y422430D01*
X447252Y422430D01*
X455136Y430314D01*
D22*
X455136Y430314D03*
D21*
X333702Y384853D02*
X333702Y380702D01*
X333702Y384853D02*
X337792Y388943D01*
X346801Y388943D01*
X373437Y415579D01*
X438468Y415579D01*
X467979Y415579D01*
X470102Y417702D01*
X400794Y356136D02*
X398360Y353702D01*
X400794Y356136D02*
X411502Y356136D01*
X411587Y356051D01*
X398360Y353702D02*
X380702Y353702D01*
X380702Y348702D02*
X392363Y348702D01*
X409015Y332051D01*
X411587Y332051D01*
X353702Y380702D02*
X353702Y385071D01*
X374505Y405874D01*
D22*
X429227Y433375D03*
D21*
X429227Y442237D01*
X429222Y442242D01*
X405881Y405874D02*
X374505Y405874D01*
X405881Y405874D02*
X405881Y405915D01*
D22*
X414045Y396748D03*
D21*
X409235Y396748D01*
X405881Y400101D02*
X405881Y405874D01*
X405881Y400101D02*
X409235Y396748D01*
X467955Y361949D02*
X467955Y350794D01*
X423243Y333050D02*
X423243Y325587D01*
X419179Y321523D01*
X403243Y321523D01*
X399171Y325595D01*
X399171Y333552D01*
X389021Y343702D01*
X380702Y343702D01*
X423243Y333050D02*
X430404Y340211D01*
D22*
X467955Y350794D03*
D21*
X445794Y340211D02*
X430404Y340211D01*
X445794Y340211D02*
X465468Y340211D01*
X467992Y342735D01*
X467955Y342773D01*
X467955Y350794D01*
X387068Y338702D02*
X380702Y338702D01*
X387068Y338702D02*
X393901Y331869D01*
X393901Y321823D01*
X404228Y311495D01*
X413117Y311495D01*
X413186Y311426D01*
X423624Y311426D01*
X434338Y322140D01*
X434358Y322120D02*
X451290Y322120D01*
X434358Y322120D02*
X434338Y322140D01*
X380702Y318702D02*
X380702Y303543D01*
X409633Y274612D01*
X447413Y274612D01*
X447503Y274702D01*
D22*
X447503Y274702D03*
D21*
X368702Y311702D02*
X368702Y211631D01*
X367033Y209961D02*
X367027Y209961D01*
D22*
X367027Y209961D03*
D21*
X367033Y209961D02*
X368702Y211631D01*
X373702Y301580D02*
X373702Y311702D01*
X407500Y267782D02*
X463182Y267782D01*
X407500Y267782D02*
X373702Y301580D01*
X463182Y267782D02*
X470102Y274702D01*
X363702Y310629D02*
X363702Y311702D01*
X363702Y310629D02*
X363702Y272908D01*
X363702Y270109D01*
X363702Y269875D01*
X363702Y220602D01*
X346202Y203102D01*
X311702Y363702D02*
X307705Y363702D01*
X303964Y359961D01*
X274540Y359961D01*
X270845Y363656D01*
X270845Y363662D01*
D22*
X270845Y363662D03*
D21*
X270814Y363688D02*
X257300Y363688D01*
X270814Y363688D02*
X270845Y363656D01*
X318702Y380702D02*
X318702Y396374D01*
X296901Y418175D01*
X262951Y418175D02*
X257386Y412610D01*
X257386Y397563D01*
X257386Y389174D01*
X257300Y389088D01*
X262951Y418175D02*
X296901Y418175D01*
D22*
X257386Y397563D03*
D21*
X348702Y311702D02*
X348702Y283359D01*
D22*
X348702Y283359D03*
M02*
